G04*
G04 #@! TF.GenerationSoftware,Altium Limited,Altium Designer,26.5.1 (12)*
G04*
G04 Layer_Color=8388736*
G04 Board_Origin=0|0*
%FSLAX43Y43*%
%MOMM*%
G71*
G04*
G04 #@! TF.SameCoordinates,8520594B-97C6-4304-984B-58ABFC214B16*
G04*
G04*
G04 #@! TF.FilePolarity,Positive*
G04*
G01*
G75*
%ADD13C,0.100*%
%ADD56R,0.400X1.600*%
%ADD57R,0.400X1.600*%
%ADD58R,0.400X1.600*%
D13*
X238811Y113379D02*
X242011D01*
Y114979D01*
X238811Y113379D02*
Y114979D01*
X242011D01*
X238811Y108679D02*
X242011D01*
Y110279D01*
X238811Y108679D02*
Y110279D01*
X242011D01*
X238811Y103978D02*
X242011D01*
Y105578D01*
X238811Y103978D02*
Y105578D01*
X242011D01*
X238811Y99278D02*
X242011D01*
Y100878D01*
X238811Y99278D02*
Y100878D01*
X242011D01*
X238811Y94577D02*
X242011D01*
Y96177D01*
X238811Y94577D02*
Y96177D01*
X242011D01*
X238835Y127481D02*
X242035D01*
Y129081D01*
X238835Y127481D02*
Y129081D01*
X242035D01*
X238835Y122781D02*
X242035D01*
Y124381D01*
X238835Y122781D02*
Y124381D01*
X242035D01*
X238811Y118080D02*
X242011D01*
Y119680D01*
X238811Y118080D02*
Y119680D01*
X242011D01*
D56*
X241811Y114180D02*
D03*
Y109480D02*
D03*
D57*
Y104779D02*
D03*
Y100078D02*
D03*
Y95377D02*
D03*
Y118880D02*
D03*
D58*
X241835Y128282D02*
D03*
Y123581D02*
D03*
M02*
