G04*
G04 #@! TF.GenerationSoftware,Altium Limited,Altium Designer,26.5.1 (12)*
G04*
G04 Layer_Color=32768*
G04 Board_Origin=0|0*
%FSLAX43Y43*%
%MOMM*%
G71*
G04*
G04 #@! TF.SameCoordinates,8520594B-97C6-4304-984B-58ABFC214B16*
G04*
G04*
G04 #@! TF.FilePolarity,Positive*
G04*
G01*
G75*
%ADD13C,0.100*%
D13*
X242744Y113680D02*
Y114679D01*
X242077D01*
X241077Y113680D02*
X241744D01*
Y114679D01*
X241077D01*
X241744Y114179D02*
X241411D01*
X240744Y113680D02*
Y114679D01*
X240244D01*
X240078Y114513D01*
Y113846D01*
X240244Y113680D01*
X240744D01*
X238245Y114679D02*
Y113680D01*
X238745Y114179D01*
X238078D01*
X174353Y54388D02*
Y53388D01*
X175020Y54388D02*
Y53388D01*
X174353Y53911D02*
X175020D01*
X175915Y54388D02*
X175296D01*
Y53388D01*
X175915D01*
X175296Y53911D02*
X175677D01*
X176843Y53388D02*
X176463Y54388D01*
X176082Y53388D01*
X176224Y53721D02*
X176701D01*
X177077Y54388D02*
Y53388D01*
Y54388D02*
X177410D01*
X177553Y54340D01*
X177648Y54245D01*
X177696Y54149D01*
X177743Y54007D01*
Y53769D01*
X177696Y53626D01*
X177648Y53531D01*
X177553Y53435D01*
X177410Y53388D01*
X177077D01*
X178586Y54388D02*
X177967D01*
Y53388D01*
X178586D01*
X177967Y53911D02*
X178348D01*
X178753Y54388D02*
Y53388D01*
Y54388D02*
X179181D01*
X179324Y54340D01*
X179371Y54292D01*
X179419Y54197D01*
Y54102D01*
X179371Y54007D01*
X179324Y53959D01*
X179181Y53911D01*
X178753D01*
X179086D02*
X179419Y53388D01*
X179643Y53054D02*
X180405D01*
X181247Y54149D02*
X181200Y54245D01*
X181104Y54340D01*
X181009Y54388D01*
X180819D01*
X180724Y54340D01*
X180628Y54245D01*
X180581Y54149D01*
X180533Y54007D01*
Y53769D01*
X180581Y53626D01*
X180628Y53531D01*
X180724Y53435D01*
X180819Y53388D01*
X181009D01*
X181104Y53435D01*
X181200Y53531D01*
X181247Y53626D01*
X181528Y54388D02*
Y53388D01*
X182099D01*
X182209Y54388D02*
Y53388D01*
X182875Y54388D02*
X182209Y53721D01*
X182447Y53959D02*
X182875Y53388D01*
X183099Y53245D02*
X183766Y54388D01*
X183832D02*
Y53388D01*
Y54388D02*
X184261D01*
X184404Y54340D01*
X184451Y54292D01*
X184499Y54197D01*
Y54102D01*
X184451Y54007D01*
X184404Y53959D01*
X184261Y53911D01*
X183832D01*
X184166D02*
X184499Y53388D01*
X185342Y54388D02*
X184723D01*
Y53388D01*
X185342D01*
X184723Y53911D02*
X185104D01*
X186175Y54245D02*
X186080Y54340D01*
X185937Y54388D01*
X185746D01*
X185603Y54340D01*
X185508Y54245D01*
Y54149D01*
X185556Y54054D01*
X185603Y54007D01*
X185699Y53959D01*
X185984Y53864D01*
X186080Y53816D01*
X186127Y53769D01*
X186175Y53673D01*
Y53531D01*
X186080Y53435D01*
X185937Y53388D01*
X185746D01*
X185603Y53435D01*
X185508Y53531D01*
X187017Y54388D02*
X186398D01*
Y53388D01*
X187017D01*
X186398Y53911D02*
X186779D01*
X187517Y54388D02*
Y53388D01*
X187184Y54388D02*
X187851D01*
X242744Y108979D02*
Y109979D01*
X242077D01*
X241077Y108979D02*
X241744D01*
Y109979D01*
X241077D01*
X241744Y109479D02*
X241411D01*
X240744Y108979D02*
Y109979D01*
X240244D01*
X240078Y109812D01*
Y109146D01*
X240244Y108979D01*
X240744D01*
X238078D02*
X238745D01*
Y109479D01*
X238412Y109312D01*
X238245D01*
X238078Y109479D01*
Y109812D01*
X238245Y109979D01*
X238578D01*
X238745Y109812D01*
X242284Y61423D02*
X242332Y61328D01*
X242427Y61233D01*
X242523Y61185D01*
X242665Y61138D01*
X242903D01*
X243046Y61185D01*
X243141Y61233D01*
X243237Y61328D01*
X243284Y61423D01*
Y61614D01*
X243237Y61709D01*
X243141Y61804D01*
X243046Y61852D01*
X242903Y61899D01*
X242665D01*
X242523Y61852D01*
X242427Y61804D01*
X242332Y61709D01*
X242284Y61614D01*
Y61423D01*
Y62133D02*
X243284D01*
Y62704D01*
X242284Y63432D02*
Y62813D01*
X243284D01*
Y63432D01*
X242761Y62813D02*
Y63194D01*
X242284Y63599D02*
X243284D01*
X242284D02*
Y63932D01*
X242332Y64075D01*
X242427Y64170D01*
X242523Y64218D01*
X242665Y64265D01*
X242903D01*
X243046Y64218D01*
X243141Y64170D01*
X243237Y64075D01*
X243284Y63932D01*
Y63599D01*
X243618Y64489D02*
Y65251D01*
X242523Y66094D02*
X242427Y66046D01*
X242332Y65951D01*
X242284Y65856D01*
Y65665D01*
X242332Y65570D01*
X242427Y65475D01*
X242523Y65427D01*
X242665Y65379D01*
X242903D01*
X243046Y65427D01*
X243141Y65475D01*
X243237Y65570D01*
X243284Y65665D01*
Y65856D01*
X243237Y65951D01*
X243141Y66046D01*
X243046Y66094D01*
X242284Y66660D02*
X242332Y66565D01*
X242427Y66470D01*
X242523Y66422D01*
X242665Y66374D01*
X242903D01*
X243046Y66422D01*
X243141Y66470D01*
X243237Y66565D01*
X243284Y66660D01*
Y66851D01*
X243237Y66946D01*
X243141Y67041D01*
X243046Y67089D01*
X242903Y67136D01*
X242665D01*
X242523Y67089D01*
X242427Y67041D01*
X242332Y66946D01*
X242284Y66851D01*
Y66660D01*
Y67370D02*
X243284D01*
X242284D02*
X243284Y68036D01*
X242284D02*
X243284D01*
X242284Y68312D02*
X243284D01*
X242284D02*
X243284Y68979D01*
X242284D02*
X243284D01*
X242284Y69874D02*
Y69255D01*
X243284D01*
Y69874D01*
X242761Y69255D02*
Y69636D01*
X242523Y70755D02*
X242427Y70707D01*
X242332Y70612D01*
X242284Y70516D01*
Y70326D01*
X242332Y70231D01*
X242427Y70136D01*
X242523Y70088D01*
X242665Y70040D01*
X242903D01*
X243046Y70088D01*
X243141Y70136D01*
X243237Y70231D01*
X243284Y70326D01*
Y70516D01*
X243237Y70612D01*
X243141Y70707D01*
X243046Y70755D01*
X242284Y71369D02*
X243284D01*
X242284Y71035D02*
Y71702D01*
Y72107D02*
X242332Y72011D01*
X242427Y71916D01*
X242523Y71869D01*
X242665Y71821D01*
X242903D01*
X243046Y71869D01*
X243141Y71916D01*
X243237Y72011D01*
X243284Y72107D01*
Y72297D01*
X243237Y72392D01*
X243141Y72487D01*
X243046Y72535D01*
X242903Y72583D01*
X242665D01*
X242523Y72535D01*
X242427Y72487D01*
X242332Y72392D01*
X242284Y72297D01*
Y72107D01*
Y72816D02*
X243284D01*
X242284D02*
Y73244D01*
X242332Y73387D01*
X242380Y73435D01*
X242475Y73482D01*
X242570D01*
X242665Y73435D01*
X242713Y73387D01*
X242761Y73244D01*
Y72816D01*
Y73149D02*
X243284Y73482D01*
X242744Y104278D02*
Y105278D01*
X242077D01*
X241077Y104278D02*
X241744D01*
Y105278D01*
X241077D01*
X241744Y104778D02*
X241411D01*
X240744Y104278D02*
Y105278D01*
X240244D01*
X240078Y105111D01*
Y104445D01*
X240244Y104278D01*
X240744D01*
X238078D02*
X238412Y104445D01*
X238745Y104778D01*
Y105111D01*
X238578Y105278D01*
X238245D01*
X238078Y105111D01*
Y104945D01*
X238245Y104778D01*
X238745D01*
X242744Y99578D02*
Y100577D01*
X242077D01*
X241077Y99578D02*
X241744D01*
Y100577D01*
X241077D01*
X241744Y100078D02*
X241411D01*
X240744Y99578D02*
Y100577D01*
X240244D01*
X240078Y100411D01*
Y99744D01*
X240244Y99578D01*
X240744D01*
X238745D02*
X238078D01*
Y99744D01*
X238745Y100411D01*
Y100577D01*
X221266Y108632D02*
X220266D01*
X221266Y107965D02*
X220266D01*
X220789Y108632D02*
Y107965D01*
X221266Y107070D02*
Y107689D01*
X220266D01*
Y107070D01*
X220789Y107689D02*
Y107308D01*
X220266Y106142D02*
X221266Y106523D01*
X220266Y106904D01*
X220599Y106761D02*
Y106285D01*
X221266Y105909D02*
X220266D01*
X221266D02*
Y105575D01*
X221218Y105433D01*
X221123Y105337D01*
X221027Y105290D01*
X220885Y105242D01*
X220647D01*
X220504Y105290D01*
X220409Y105337D01*
X220313Y105433D01*
X220266Y105575D01*
Y105909D01*
X221266Y104399D02*
Y105018D01*
X220266D01*
Y104399D01*
X220789Y105018D02*
Y104638D01*
X221266Y104233D02*
X220266D01*
X221266D02*
Y103804D01*
X221218Y103662D01*
X221170Y103614D01*
X221075Y103566D01*
X220980D01*
X220885Y103614D01*
X220837Y103662D01*
X220789Y103804D01*
Y104233D01*
Y103900D02*
X220266Y103566D01*
X219932Y103343D02*
Y102581D01*
X221027Y101738D02*
X221123Y101786D01*
X221218Y101881D01*
X221266Y101976D01*
Y102167D01*
X221218Y102262D01*
X221123Y102357D01*
X221027Y102405D01*
X220885Y102452D01*
X220647D01*
X220504Y102405D01*
X220409Y102357D01*
X220313Y102262D01*
X220266Y102167D01*
Y101976D01*
X220313Y101881D01*
X220409Y101786D01*
X220504Y101738D01*
X220647D01*
Y101976D02*
Y101738D01*
X220742Y101510D02*
Y101081D01*
X220789Y100938D01*
X220837Y100891D01*
X220932Y100843D01*
X221075D01*
X221170Y100891D01*
X221218Y100938D01*
X221266Y101081D01*
Y101510D01*
X220266D01*
X221266Y100619D02*
X220266D01*
X221266Y100124D02*
X221218Y100219D01*
X221123Y100315D01*
X221027Y100362D01*
X220885Y100410D01*
X220647D01*
X220504Y100362D01*
X220409Y100315D01*
X220313Y100219D01*
X220266Y100124D01*
Y99934D01*
X220313Y99839D01*
X220409Y99743D01*
X220504Y99696D01*
X220647Y99648D01*
X220885D01*
X221027Y99696D01*
X221123Y99743D01*
X221218Y99839D01*
X221266Y99934D01*
Y100124D01*
X203834Y54007D02*
Y53007D01*
X204501Y54007D02*
Y53007D01*
X203834Y53530D02*
X204501D01*
X205396Y54007D02*
X204777D01*
Y53007D01*
X205396D01*
X204777Y53530D02*
X205158D01*
X206324Y53007D02*
X205943Y54007D01*
X205563Y53007D01*
X205705Y53340D02*
X206182D01*
X206558Y54007D02*
Y53007D01*
Y54007D02*
X206891D01*
X207034Y53959D01*
X207129Y53864D01*
X207177Y53768D01*
X207224Y53626D01*
Y53388D01*
X207177Y53245D01*
X207129Y53150D01*
X207034Y53054D01*
X206891Y53007D01*
X206558D01*
X208067Y54007D02*
X207448D01*
Y53007D01*
X208067D01*
X207448Y53530D02*
X207829D01*
X208233Y54007D02*
Y53007D01*
Y54007D02*
X208662D01*
X208805Y53959D01*
X208852Y53911D01*
X208900Y53816D01*
Y53721D01*
X208852Y53626D01*
X208805Y53578D01*
X208662Y53530D01*
X208233D01*
X208567D02*
X208900Y53007D01*
X209124Y52673D02*
X209886D01*
X210014Y53483D02*
X210443D01*
X210585Y53530D01*
X210633Y53578D01*
X210681Y53673D01*
Y53816D01*
X210633Y53911D01*
X210585Y53959D01*
X210443Y54007D01*
X210014D01*
Y53007D01*
X211190Y54007D02*
X211095Y53959D01*
X211000Y53864D01*
X210952Y53768D01*
X210904Y53626D01*
Y53388D01*
X210952Y53245D01*
X211000Y53150D01*
X211095Y53054D01*
X211190Y53007D01*
X211380D01*
X211476Y53054D01*
X211571Y53150D01*
X211618Y53245D01*
X211666Y53388D01*
Y53626D01*
X211618Y53768D01*
X211571Y53864D01*
X211476Y53959D01*
X211380Y54007D01*
X211190D01*
X211899D02*
X212137Y53007D01*
X212375Y54007D02*
X212137Y53007D01*
X212375Y54007D02*
X212613Y53007D01*
X212852Y54007D02*
X212613Y53007D01*
X213670Y54007D02*
X213051D01*
Y53007D01*
X213670D01*
X213051Y53530D02*
X213432D01*
X213837Y54007D02*
Y53007D01*
Y54007D02*
X214266D01*
X214408Y53959D01*
X214456Y53911D01*
X214504Y53816D01*
Y53721D01*
X214456Y53626D01*
X214408Y53578D01*
X214266Y53530D01*
X213837D01*
X214170D02*
X214504Y53007D01*
X242744Y94877D02*
Y95877D01*
X242077D01*
X241077Y94877D02*
X241744D01*
Y95877D01*
X241077D01*
X241744Y95377D02*
X241411D01*
X240744Y94877D02*
Y95877D01*
X240244D01*
X240078Y95710D01*
Y95044D01*
X240244Y94877D01*
X240744D01*
X238745Y95044D02*
X238578Y94877D01*
X238245D01*
X238078Y95044D01*
Y95210D01*
X238245Y95377D01*
X238078Y95544D01*
Y95710D01*
X238245Y95877D01*
X238578D01*
X238745Y95710D01*
Y95544D01*
X238578Y95377D01*
X238745Y95210D01*
Y95044D01*
X238578Y95377D02*
X238245D01*
X242601Y127781D02*
Y128781D01*
X241935D01*
X240935Y127781D02*
X241601D01*
Y128781D01*
X240935D01*
X241601Y128281D02*
X241268D01*
X240602Y127781D02*
Y128781D01*
X240102D01*
X239935Y128615D01*
Y127948D01*
X240102Y127781D01*
X240602D01*
X238602Y128781D02*
X238269D01*
X238436D01*
Y127781D01*
X238602Y127948D01*
X242768Y123081D02*
Y124081D01*
X242101D01*
X241101Y123081D02*
X241768D01*
Y124081D01*
X241101D01*
X241768Y123581D02*
X241435D01*
X240768Y123081D02*
Y124081D01*
X240268D01*
X240102Y123914D01*
Y123247D01*
X240268Y123081D01*
X240768D01*
X238102Y124081D02*
X238769D01*
X238102Y123414D01*
Y123247D01*
X238269Y123081D01*
X238602D01*
X238769Y123247D01*
X242744Y118380D02*
Y119380D01*
X242077D01*
X241077Y118380D02*
X241744D01*
Y119380D01*
X241077D01*
X241744Y118880D02*
X241411D01*
X240744Y118380D02*
Y119380D01*
X240244D01*
X240078Y119213D01*
Y118547D01*
X240244Y118380D01*
X240744D01*
X238745Y118547D02*
X238578Y118380D01*
X238245D01*
X238078Y118547D01*
Y118713D01*
X238245Y118880D01*
X238412D01*
X238245D01*
X238078Y119047D01*
Y119213D01*
X238245Y119380D01*
X238578D01*
X238745Y119213D01*
M02*
