G04*
G04 #@! TF.GenerationSoftware,Altium Limited,Altium Designer,26.5.1 (12)*
G04*
G04 Layer_Physical_Order=2*
G04 Layer_Color=16711680*
G04 Board_Origin=0|0*
%FSLAX43Y43*%
%MOMM*%
G71*
G04*
G04 #@! TF.SameCoordinates,20459B2D-5BB8-49DC-8A7D-EE08CDFB023B*
G04*
G04*
G04 #@! TF.FilePolarity,Positive*
G04*
G01*
G75*
G04:AMPARAMS|DCode=40|XSize=1.6mm|YSize=1.6mm|CornerRadius=0.4mm|HoleSize=0mm|Usage=FLASHONLY|Rotation=0.000|XOffset=0mm|YOffset=0mm|HoleType=Round|Shape=RoundedRectangle|*
%AMROUNDEDRECTD40*
21,1,1.600,0.800,0,0,0.0*
21,1,0.800,1.600,0,0,0.0*
1,1,0.800,0.400,-0.400*
1,1,0.800,-0.400,-0.400*
1,1,0.800,-0.400,0.400*
1,1,0.800,0.400,0.400*
%
%ADD40ROUNDEDRECTD40*%
%ADD41C,1.600*%
G04:AMPARAMS|DCode=42|XSize=1.6mm|YSize=1.6mm|CornerRadius=0.4mm|HoleSize=0mm|Usage=FLASHONLY|Rotation=90.000|XOffset=0mm|YOffset=0mm|HoleType=Round|Shape=RoundedRectangle|*
%AMROUNDEDRECTD42*
21,1,1.600,0.800,0,0,90.0*
21,1,0.800,1.600,0,0,90.0*
1,1,0.800,0.400,0.400*
1,1,0.800,0.400,-0.400*
1,1,0.800,-0.400,-0.400*
1,1,0.800,-0.400,0.400*
%
%ADD42ROUNDEDRECTD42*%
%ADD43C,1.550*%
%ADD44R,1.550X1.550*%
%ADD45R,1.500X1.500*%
%ADD46C,1.500*%
%ADD47C,1.575*%
%ADD48C,1.524*%
%ADD49C,0.381*%
%ADD50C,1.270*%
G36*
X250818Y27200D02*
X171631D01*
Y136471D01*
X250818D01*
Y27200D01*
D02*
G37*
%LPC*%
G36*
X182397Y132982D02*
X182093D01*
X181799Y132903D01*
X181535Y132751D01*
X181320Y132536D01*
X181168Y132272D01*
X181089Y131978D01*
Y131674D01*
X181168Y131380D01*
X181320Y131116D01*
X181535Y130901D01*
X181662Y130828D01*
Y130284D01*
X181535Y130211D01*
X181320Y129996D01*
X181247Y129869D01*
X177165D01*
X176942Y129824D01*
X176753Y129698D01*
X175991Y128936D01*
X175763Y129068D01*
X175781Y129134D01*
Y129438D01*
X175702Y129732D01*
X175550Y129996D01*
X175335Y130211D01*
X175071Y130363D01*
X174841Y130425D01*
Y130687D01*
X175071Y130749D01*
X175335Y130901D01*
X175550Y131116D01*
X175702Y131380D01*
X175781Y131674D01*
Y131978D01*
X175702Y132272D01*
X175550Y132536D01*
X175335Y132751D01*
X175071Y132903D01*
X174777Y132982D01*
X174473D01*
X174179Y132903D01*
X173915Y132751D01*
X173700Y132536D01*
X173548Y132272D01*
X173469Y131978D01*
Y131674D01*
X173548Y131380D01*
X173700Y131116D01*
X173915Y130901D01*
X174179Y130749D01*
X174409Y130687D01*
Y130425D01*
X174179Y130363D01*
X173915Y130211D01*
X173700Y129996D01*
X173548Y129732D01*
X173469Y129438D01*
Y129134D01*
X173507Y128992D01*
X173044Y128529D01*
X172918Y128340D01*
X172874Y128117D01*
Y110292D01*
X172918Y110069D01*
X173044Y109880D01*
X181147Y101777D01*
X181107Y101627D01*
Y101319D01*
X181186Y101022D01*
X181340Y100756D01*
X181558Y100538D01*
X181824Y100384D01*
X182010Y100334D01*
Y100072D01*
X181824Y100022D01*
X181558Y99868D01*
X181340Y99650D01*
X181186Y99384D01*
X181107Y99087D01*
Y98779D01*
X181186Y98482D01*
X181340Y98216D01*
X181558Y97998D01*
X181824Y97844D01*
X182010Y97794D01*
Y97532D01*
X181824Y97482D01*
X181558Y97328D01*
X181340Y97110D01*
X181186Y96844D01*
X181107Y96547D01*
Y96239D01*
X181186Y95942D01*
X181340Y95676D01*
X181558Y95458D01*
X181824Y95304D01*
X182121Y95225D01*
X182429D01*
X182726Y95304D01*
X182992Y95458D01*
X183210Y95676D01*
X183364Y95942D01*
X183443Y96239D01*
Y96547D01*
X183364Y96844D01*
X183210Y97110D01*
X182992Y97328D01*
X182726Y97482D01*
X182540Y97532D01*
Y97794D01*
X182726Y97844D01*
X182992Y97998D01*
X183210Y98216D01*
X183364Y98482D01*
X183443Y98779D01*
Y99087D01*
X183364Y99384D01*
X183210Y99650D01*
X182992Y99868D01*
X182726Y100022D01*
X182540Y100072D01*
Y100334D01*
X182726Y100384D01*
X182992Y100538D01*
X183210Y100756D01*
X183364Y101022D01*
X183443Y101319D01*
Y101627D01*
X183392Y101817D01*
X183546Y102071D01*
X184280D01*
X192123Y94228D01*
X192133Y93963D01*
X192120Y93950D01*
X191966Y93684D01*
X191916Y93498D01*
X191654D01*
X191604Y93684D01*
X191450Y93950D01*
X191232Y94168D01*
X190966Y94322D01*
X190669Y94401D01*
X190361D01*
X190064Y94322D01*
X189798Y94168D01*
X189580Y93950D01*
X189426Y93684D01*
X189376Y93498D01*
X189114D01*
X189064Y93684D01*
X188910Y93950D01*
X188692Y94168D01*
X188426Y94322D01*
X188129Y94401D01*
X187821D01*
X187524Y94322D01*
X187258Y94168D01*
X187040Y93950D01*
X186886Y93684D01*
X186836Y93498D01*
X186574D01*
X186524Y93684D01*
X186370Y93950D01*
X186152Y94168D01*
X185886Y94322D01*
X185589Y94401D01*
X185281D01*
X184984Y94322D01*
X184718Y94168D01*
X184500Y93950D01*
X184346Y93684D01*
X184267Y93387D01*
Y93079D01*
X184346Y92782D01*
X184500Y92516D01*
X184718Y92298D01*
X184984Y92144D01*
X185281Y92065D01*
X185589D01*
X185886Y92144D01*
X186152Y92298D01*
X186370Y92516D01*
X186524Y92782D01*
X186574Y92968D01*
X186836D01*
X186886Y92782D01*
X187040Y92516D01*
X187258Y92298D01*
X187524Y92144D01*
X187821Y92065D01*
X188129D01*
X188176Y92077D01*
X188307Y91849D01*
X175686Y79228D01*
X175560Y79039D01*
X175516Y78816D01*
Y54497D01*
X175560Y54274D01*
X175686Y54085D01*
X176337Y53434D01*
X176335Y53408D01*
X176210Y53245D01*
X176131Y53055D01*
X176104Y52851D01*
Y52051D01*
X176131Y51847D01*
X176210Y51657D01*
X176335Y51494D01*
X176498Y51369D01*
X176688Y51290D01*
X176892Y51263D01*
X177692D01*
X177896Y51290D01*
X178086Y51369D01*
X178249Y51494D01*
X178374Y51657D01*
X178453Y51847D01*
X178471Y51985D01*
X178730Y52002D01*
X178731Y51995D01*
X178887Y51726D01*
X179107Y51506D01*
X179376Y51350D01*
X179677Y51270D01*
X179987D01*
X180288Y51350D01*
X180557Y51506D01*
X180777Y51726D01*
X180933Y51995D01*
X180971Y52137D01*
X181233D01*
X181271Y51995D01*
X181427Y51726D01*
X181647Y51506D01*
X181916Y51350D01*
X182217Y51270D01*
X182527D01*
X182828Y51350D01*
X183097Y51506D01*
X183317Y51726D01*
X183473Y51995D01*
X183511Y52137D01*
X183773D01*
X183811Y51995D01*
X183967Y51726D01*
X184187Y51506D01*
X184456Y51350D01*
X184757Y51270D01*
X185067D01*
X185368Y51350D01*
X185637Y51506D01*
X185857Y51726D01*
X186013Y51995D01*
X186093Y52296D01*
Y52606D01*
X186013Y52907D01*
X185857Y53176D01*
X185637Y53396D01*
X185368Y53552D01*
X185226Y53590D01*
Y53852D01*
X185368Y53890D01*
X185637Y54046D01*
X185857Y54266D01*
X186013Y54535D01*
X186093Y54836D01*
Y55146D01*
X186013Y55447D01*
X185857Y55716D01*
X185637Y55936D01*
X185368Y56092D01*
X185067Y56172D01*
X184757D01*
X184456Y56092D01*
X184187Y55936D01*
X183967Y55716D01*
X183811Y55447D01*
X183773Y55305D01*
X183511D01*
X183473Y55447D01*
X183317Y55716D01*
X183097Y55936D01*
X182828Y56092D01*
X182527Y56172D01*
X182217D01*
X181916Y56092D01*
X181647Y55936D01*
X181427Y55716D01*
X181271Y55447D01*
X181233Y55305D01*
X180971D01*
X180933Y55447D01*
X180777Y55716D01*
X180557Y55936D01*
X180288Y56092D01*
X179987Y56172D01*
X179677D01*
X179376Y56092D01*
X179107Y55936D01*
X178887Y55716D01*
X178731Y55447D01*
X178693Y55305D01*
X178431D01*
X178393Y55447D01*
X178237Y55716D01*
X178017Y55936D01*
X177875Y56018D01*
Y72149D01*
X197831Y92105D01*
X197981Y92065D01*
X198289D01*
X198586Y92144D01*
X198852Y92298D01*
X199070Y92516D01*
X199224Y92782D01*
X199274Y92968D01*
X199536D01*
X199586Y92782D01*
X199740Y92516D01*
X199958Y92298D01*
X200224Y92144D01*
X200521Y92065D01*
X200829D01*
X200979Y92105D01*
X207316Y85768D01*
Y55637D01*
X207174Y55555D01*
X206954Y55335D01*
X206798Y55066D01*
X206760Y54924D01*
X206498D01*
X206460Y55066D01*
X206304Y55335D01*
X206084Y55555D01*
X205815Y55711D01*
X205514Y55791D01*
X205204D01*
X204903Y55711D01*
X204634Y55555D01*
X204414Y55335D01*
X204258Y55066D01*
X204178Y54765D01*
Y54455D01*
X204258Y54154D01*
X204290Y54100D01*
X204143Y53846D01*
X202997D01*
X202774Y53802D01*
X202585Y53676D01*
X193601Y44692D01*
X193555Y44704D01*
X193287D01*
X193029Y44635D01*
X192797Y44501D01*
X192608Y44312D01*
X192474Y44080D01*
X192405Y43822D01*
Y43554D01*
X192474Y43296D01*
X192608Y43064D01*
X192797Y42875D01*
X193029Y42741D01*
X193287Y42672D01*
X193555D01*
X193813Y42741D01*
X194045Y42875D01*
X194234Y43064D01*
X194368Y43296D01*
X194437Y43554D01*
Y43822D01*
X194425Y43868D01*
X203238Y52681D01*
X203943D01*
X204171Y52470D01*
Y51670D01*
X204198Y51466D01*
X204277Y51276D01*
X204402Y51113D01*
X204565Y50988D01*
X204755Y50909D01*
X204959Y50882D01*
X205759D01*
X205963Y50909D01*
X206153Y50988D01*
X206316Y51113D01*
X206441Y51276D01*
X206520Y51466D01*
X206538Y51604D01*
X206797Y51621D01*
X206798Y51614D01*
X206954Y51345D01*
X207174Y51125D01*
X207443Y50969D01*
X207744Y50889D01*
X208054D01*
X208355Y50969D01*
X208624Y51125D01*
X208844Y51345D01*
X209000Y51614D01*
X209038Y51756D01*
X209300D01*
X209338Y51614D01*
X209494Y51345D01*
X209714Y51125D01*
X209983Y50969D01*
X210284Y50889D01*
X210594D01*
X210895Y50969D01*
X211164Y51125D01*
X211384Y51345D01*
X211540Y51614D01*
X211578Y51756D01*
X211840D01*
X211878Y51614D01*
X212034Y51345D01*
X212254Y51125D01*
X212523Y50969D01*
X212824Y50889D01*
X213134D01*
X213435Y50969D01*
X213704Y51125D01*
X213924Y51345D01*
X214080Y51614D01*
X214160Y51915D01*
Y52225D01*
X214080Y52526D01*
X213924Y52795D01*
X213704Y53015D01*
X213435Y53171D01*
X213342Y53195D01*
X213342Y53458D01*
X213445Y53486D01*
X213720Y53645D01*
X213944Y53869D01*
X214103Y54144D01*
X214174Y54407D01*
X212979D01*
Y54610D01*
X212776D01*
Y55805D01*
X212513Y55734D01*
X212238Y55575D01*
X212014Y55351D01*
X211855Y55076D01*
X211827Y54973D01*
X211564Y54973D01*
X211540Y55066D01*
X211384Y55335D01*
X211164Y55555D01*
X210895Y55711D01*
X210594Y55791D01*
X210284D01*
X209983Y55711D01*
X209714Y55555D01*
X209494Y55335D01*
X209338Y55066D01*
X209300Y54924D01*
X209038D01*
X209000Y55066D01*
X208844Y55335D01*
X208624Y55555D01*
X208482Y55637D01*
Y86009D01*
X208437Y86232D01*
X208311Y86421D01*
X202883Y91849D01*
X203014Y92077D01*
X203061Y92065D01*
X203369D01*
X203666Y92144D01*
X203932Y92298D01*
X204150Y92516D01*
X204304Y92782D01*
X204383Y93079D01*
Y93387D01*
X204304Y93684D01*
X204242Y93791D01*
X204389Y94045D01*
X209550D01*
X218191Y85404D01*
X218148Y85245D01*
Y84935D01*
X218228Y84634D01*
X218384Y84365D01*
X218604Y84145D01*
X218873Y83989D01*
X219015Y83951D01*
Y83689D01*
X218873Y83651D01*
X218604Y83495D01*
X218384Y83275D01*
X218228Y83006D01*
X218148Y82705D01*
Y82395D01*
X218228Y82094D01*
X218384Y81825D01*
X218604Y81605D01*
X218873Y81449D01*
X219015Y81411D01*
Y81149D01*
X218873Y81111D01*
X218604Y80955D01*
X218384Y80735D01*
X218228Y80466D01*
X218148Y80165D01*
Y79855D01*
X218228Y79554D01*
X218384Y79285D01*
X218604Y79065D01*
X218873Y78909D01*
X219174Y78829D01*
X219484D01*
X219785Y78909D01*
X220054Y79065D01*
X220274Y79285D01*
X220430Y79554D01*
X220468Y79696D01*
X220730D01*
X220768Y79554D01*
X220924Y79285D01*
X221144Y79065D01*
X221413Y78909D01*
X221714Y78829D01*
X222024D01*
X222325Y78909D01*
X222594Y79065D01*
X222814Y79285D01*
X222970Y79554D01*
X223050Y79855D01*
Y80165D01*
X222970Y80466D01*
X222814Y80735D01*
X222594Y80955D01*
X222325Y81111D01*
X222183Y81149D01*
Y81411D01*
X222325Y81449D01*
X222594Y81605D01*
X222814Y81825D01*
X222970Y82094D01*
X223050Y82395D01*
Y82705D01*
X222970Y83006D01*
X222814Y83275D01*
X222594Y83495D01*
X222325Y83651D01*
X222183Y83689D01*
Y83951D01*
X222325Y83989D01*
X222594Y84145D01*
X222814Y84365D01*
X222970Y84634D01*
X223050Y84935D01*
Y85245D01*
X222970Y85546D01*
X222814Y85815D01*
X222594Y86035D01*
X222325Y86191D01*
X222183Y86229D01*
Y86491D01*
X222325Y86529D01*
X222594Y86685D01*
X222814Y86905D01*
X222970Y87174D01*
X223050Y87475D01*
Y87785D01*
X222970Y88086D01*
X222814Y88355D01*
X222594Y88575D01*
X222325Y88731D01*
X222183Y88769D01*
Y89031D01*
X222325Y89069D01*
X222594Y89225D01*
X222814Y89445D01*
X222896Y89587D01*
X230656D01*
X230879Y89632D01*
X231068Y89758D01*
X235683Y94373D01*
X235729Y94361D01*
X235997D01*
X236255Y94430D01*
X236487Y94564D01*
X236676Y94753D01*
X236810Y94985D01*
X236879Y95243D01*
Y95511D01*
X236810Y95769D01*
X236676Y96001D01*
X236487Y96190D01*
X236255Y96324D01*
X235997Y96393D01*
X235729D01*
X235471Y96324D01*
X235239Y96190D01*
X235050Y96001D01*
X234916Y95769D01*
X234847Y95511D01*
Y95243D01*
X234859Y95197D01*
X230415Y90753D01*
X222896D01*
X222814Y90895D01*
X222594Y91115D01*
X222325Y91271D01*
X222183Y91309D01*
Y91571D01*
X222325Y91609D01*
X222594Y91765D01*
X222814Y91985D01*
X222896Y92127D01*
X228495D01*
X228718Y92172D01*
X228907Y92298D01*
X235683Y99074D01*
X235729Y99062D01*
X235997D01*
X236255Y99131D01*
X236487Y99265D01*
X236676Y99454D01*
X236810Y99685D01*
X236879Y99944D01*
Y100211D01*
X236810Y100470D01*
X236676Y100701D01*
X236487Y100891D01*
X236255Y101024D01*
X235997Y101094D01*
X235729D01*
X235471Y101024D01*
X235239Y100891D01*
X235050Y100701D01*
X234916Y100470D01*
X234847Y100211D01*
Y99944D01*
X234859Y99898D01*
X228254Y93293D01*
X222896D01*
X222814Y93435D01*
X222594Y93655D01*
X222325Y93811D01*
X222183Y93849D01*
Y94111D01*
X222325Y94149D01*
X222594Y94305D01*
X222814Y94525D01*
X222896Y94667D01*
X226335D01*
X226558Y94712D01*
X226747Y94838D01*
X235771Y103862D01*
X235997D01*
X236255Y103931D01*
X236487Y104065D01*
X236676Y104254D01*
X236810Y104486D01*
X236879Y104744D01*
Y105012D01*
X236810Y105270D01*
X236676Y105502D01*
X236487Y105691D01*
X236255Y105825D01*
X235997Y105894D01*
X235729D01*
X235471Y105825D01*
X235239Y105691D01*
X235050Y105502D01*
X234916Y105270D01*
X234847Y105012D01*
Y104744D01*
X234880Y104620D01*
X226093Y95833D01*
X222896D01*
X222814Y95975D01*
X222594Y96195D01*
X222325Y96351D01*
X222183Y96389D01*
Y96651D01*
X222325Y96689D01*
X222594Y96845D01*
X222814Y97065D01*
X222896Y97207D01*
X224174D01*
X224397Y97252D01*
X224586Y97378D01*
X235683Y108475D01*
X235729Y108463D01*
X235997D01*
X236255Y108532D01*
X236487Y108666D01*
X236676Y108855D01*
X236810Y109087D01*
X236879Y109345D01*
Y109613D01*
X236810Y109871D01*
X236676Y110103D01*
X236487Y110292D01*
X236255Y110426D01*
X235997Y110495D01*
X235729D01*
X235471Y110426D01*
X235239Y110292D01*
X235050Y110103D01*
X234916Y109871D01*
X234847Y109613D01*
Y109345D01*
X234859Y109299D01*
X223933Y98373D01*
X222896D01*
X222814Y98515D01*
X222594Y98735D01*
X222325Y98891D01*
X222183Y98929D01*
Y99191D01*
X222325Y99229D01*
X222594Y99385D01*
X222814Y99605D01*
X222970Y99874D01*
X223050Y100175D01*
Y100485D01*
X223023Y100587D01*
X235616Y113181D01*
X235705Y113157D01*
X235973D01*
X236231Y113226D01*
X236463Y113360D01*
X236652Y113549D01*
X236786Y113781D01*
X236855Y114039D01*
Y114307D01*
X236786Y114565D01*
X236652Y114797D01*
X236463Y114986D01*
X236231Y115120D01*
X235973Y115189D01*
X235705D01*
X235447Y115120D01*
X235215Y114986D01*
X235026Y114797D01*
X234892Y114565D01*
X234823Y114307D01*
Y114039D01*
X234824Y114037D01*
X223244Y102457D01*
X223016Y102588D01*
X223050Y102715D01*
Y103025D01*
X223007Y103184D01*
X236275Y116452D01*
X236401Y116641D01*
X236446Y116864D01*
Y118143D01*
X236487Y118167D01*
X236676Y118356D01*
X236810Y118588D01*
X236879Y118846D01*
Y119114D01*
X236810Y119372D01*
X236676Y119604D01*
X236487Y119793D01*
X236255Y119927D01*
X235997Y119996D01*
X235729D01*
X235471Y119927D01*
X235239Y119793D01*
X235050Y119604D01*
X234916Y119372D01*
X234847Y119114D01*
Y118846D01*
X234916Y118588D01*
X235050Y118356D01*
X235239Y118167D01*
X235280Y118143D01*
Y117105D01*
X223270Y105095D01*
X223043Y105227D01*
X223050Y105255D01*
Y105565D01*
X223007Y105724D01*
X229906Y112623D01*
X230032Y112812D01*
X230076Y113035D01*
Y116946D01*
X235795Y122665D01*
X236021D01*
X236279Y122734D01*
X236511Y122868D01*
X236700Y123057D01*
X236834Y123289D01*
X236903Y123547D01*
Y123814D01*
X236834Y124073D01*
X236700Y124305D01*
X236511Y124494D01*
X236279Y124627D01*
X236021Y124697D01*
X235753D01*
X235495Y124627D01*
X235263Y124494D01*
X235074Y124305D01*
X234940Y124073D01*
X234871Y123814D01*
Y123547D01*
X234904Y123422D01*
X229727Y118245D01*
X229492Y118342D01*
Y121063D01*
X235688Y127259D01*
X235705Y127254D01*
X235973D01*
X236231Y127323D01*
X236463Y127457D01*
X236652Y127646D01*
X236786Y127878D01*
X236855Y128136D01*
Y128404D01*
X236786Y128662D01*
X236652Y128894D01*
X236463Y129083D01*
X236231Y129217D01*
X235973Y129286D01*
X235705D01*
X235447Y129217D01*
X235215Y129083D01*
X235026Y128894D01*
X234892Y128662D01*
X234823Y128404D01*
Y128136D01*
X234843Y128061D01*
X228498Y121716D01*
X228371Y121527D01*
X228327Y121304D01*
Y115232D01*
X223270Y110175D01*
X223043Y110307D01*
X223050Y110335D01*
Y110645D01*
X222970Y110946D01*
X222814Y111215D01*
X222594Y111435D01*
X222325Y111591D01*
X222183Y111629D01*
Y111891D01*
X222325Y111929D01*
X222594Y112085D01*
X222814Y112305D01*
X222970Y112574D01*
X223050Y112875D01*
Y113185D01*
X222970Y113486D01*
X222814Y113755D01*
X222594Y113975D01*
X222325Y114131D01*
X222183Y114169D01*
Y114431D01*
X222325Y114469D01*
X222594Y114625D01*
X222814Y114845D01*
X222970Y115114D01*
X223050Y115415D01*
Y115725D01*
X222970Y116026D01*
X222814Y116295D01*
X222594Y116515D01*
X222325Y116671D01*
X222183Y116709D01*
Y116971D01*
X222325Y117009D01*
X222594Y117165D01*
X222814Y117385D01*
X222970Y117654D01*
X223050Y117955D01*
Y118265D01*
X222970Y118566D01*
X222814Y118835D01*
X222594Y119055D01*
X222325Y119211D01*
X222183Y119249D01*
Y119511D01*
X222325Y119549D01*
X222594Y119705D01*
X222814Y119925D01*
X222970Y120194D01*
X223050Y120495D01*
Y120805D01*
X222970Y121106D01*
X222814Y121375D01*
X222594Y121595D01*
X222325Y121751D01*
X222183Y121789D01*
Y122051D01*
X222325Y122089D01*
X222594Y122245D01*
X222814Y122465D01*
X222970Y122734D01*
X223050Y123035D01*
Y123345D01*
X222970Y123646D01*
X222814Y123915D01*
X222594Y124135D01*
X222325Y124291D01*
X222183Y124329D01*
Y124591D01*
X222325Y124629D01*
X222594Y124785D01*
X222814Y125005D01*
X222970Y125274D01*
X223050Y125575D01*
Y125885D01*
X222970Y126186D01*
X222814Y126455D01*
X222594Y126675D01*
X222325Y126831D01*
X222183Y126869D01*
Y127131D01*
X222325Y127169D01*
X222594Y127325D01*
X222814Y127545D01*
X222970Y127814D01*
X223050Y128115D01*
Y128425D01*
X222970Y128726D01*
X222814Y128995D01*
X222594Y129215D01*
X222325Y129371D01*
X222024Y129451D01*
X221714D01*
X221413Y129371D01*
X221144Y129215D01*
X220924Y128995D01*
X220768Y128726D01*
X220767Y128719D01*
X220508Y128736D01*
X220490Y128874D01*
X220411Y129064D01*
X220286Y129227D01*
X220123Y129352D01*
X219933Y129431D01*
X219729Y129458D01*
X218929D01*
X218725Y129431D01*
X218535Y129352D01*
X218372Y129227D01*
X218247Y129064D01*
X218168Y128874D01*
X218141Y128670D01*
Y127870D01*
X218168Y127666D01*
X218247Y127476D01*
X218372Y127313D01*
X218535Y127188D01*
X218725Y127109D01*
X218863Y127091D01*
X218880Y126832D01*
X218873Y126831D01*
X218604Y126675D01*
X218384Y126455D01*
X218228Y126186D01*
X218148Y125885D01*
Y125575D01*
X218228Y125274D01*
X218384Y125005D01*
X218604Y124785D01*
X218873Y124629D01*
X219015Y124591D01*
Y124329D01*
X218873Y124291D01*
X218604Y124135D01*
X218384Y123915D01*
X218228Y123646D01*
X218148Y123345D01*
Y123035D01*
X218228Y122734D01*
X218384Y122465D01*
X218604Y122245D01*
X218873Y122089D01*
X219015Y122051D01*
Y121789D01*
X218873Y121751D01*
X218604Y121595D01*
X218384Y121375D01*
X218228Y121106D01*
X218148Y120805D01*
Y120495D01*
X218228Y120194D01*
X218384Y119925D01*
X218604Y119705D01*
X218873Y119549D01*
X219015Y119511D01*
Y119249D01*
X218873Y119211D01*
X218604Y119055D01*
X218384Y118835D01*
X218228Y118566D01*
X218148Y118265D01*
Y117955D01*
X218228Y117654D01*
X218384Y117385D01*
X218604Y117165D01*
X218873Y117009D01*
X219015Y116971D01*
Y116709D01*
X218873Y116671D01*
X218604Y116515D01*
X218384Y116295D01*
X218228Y116026D01*
X218148Y115725D01*
Y115415D01*
X218228Y115114D01*
X218384Y114845D01*
X218604Y114625D01*
X218873Y114469D01*
X219015Y114431D01*
Y114169D01*
X218873Y114131D01*
X218604Y113975D01*
X218384Y113755D01*
X218228Y113486D01*
X218148Y113185D01*
Y112875D01*
X218228Y112574D01*
X218384Y112305D01*
X218604Y112085D01*
X218873Y111929D01*
X219015Y111891D01*
Y111629D01*
X218873Y111591D01*
X218604Y111435D01*
X218384Y111215D01*
X218228Y110946D01*
X218148Y110645D01*
Y110335D01*
X218228Y110034D01*
X218384Y109765D01*
X218604Y109545D01*
X218873Y109389D01*
X219015Y109351D01*
Y109089D01*
X218873Y109051D01*
X218604Y108895D01*
X218384Y108675D01*
X218228Y108406D01*
X218148Y108105D01*
Y107795D01*
X218191Y107636D01*
X216510Y105955D01*
X207646D01*
X207492Y106209D01*
X207543Y106399D01*
Y106707D01*
X207464Y107004D01*
X207310Y107270D01*
X207092Y107488D01*
X206826Y107642D01*
X206640Y107692D01*
Y107954D01*
X206826Y108004D01*
X207092Y108158D01*
X207310Y108376D01*
X207464Y108642D01*
X207543Y108939D01*
Y109247D01*
X207464Y109544D01*
X207310Y109810D01*
X207092Y110028D01*
X206826Y110182D01*
X206640Y110232D01*
Y110494D01*
X206826Y110544D01*
X207092Y110698D01*
X207310Y110916D01*
X207464Y111182D01*
X207543Y111479D01*
Y111787D01*
X207464Y112084D01*
X207310Y112350D01*
X207092Y112568D01*
X206826Y112722D01*
X206640Y112772D01*
Y113034D01*
X206826Y113084D01*
X207092Y113238D01*
X207310Y113456D01*
X207464Y113722D01*
X207543Y114019D01*
Y114327D01*
X207464Y114624D01*
X207310Y114890D01*
X207092Y115108D01*
X206826Y115262D01*
X206529Y115341D01*
X206221D01*
X205924Y115262D01*
X205658Y115108D01*
X205440Y114890D01*
X205286Y114624D01*
X205207Y114327D01*
Y114019D01*
X205286Y113722D01*
X205440Y113456D01*
X205658Y113238D01*
X205924Y113084D01*
X206110Y113034D01*
Y112772D01*
X205924Y112722D01*
X205658Y112568D01*
X205440Y112350D01*
X205286Y112084D01*
X205207Y111787D01*
Y111479D01*
X205286Y111182D01*
X205440Y110916D01*
X205658Y110698D01*
X205924Y110544D01*
X206110Y110494D01*
Y110232D01*
X205924Y110182D01*
X205658Y110028D01*
X205440Y109810D01*
X205286Y109544D01*
X205207Y109247D01*
Y108939D01*
X205286Y108642D01*
X205440Y108376D01*
X205658Y108158D01*
X205924Y108004D01*
X206110Y107954D01*
Y107692D01*
X205924Y107642D01*
X205658Y107488D01*
X205440Y107270D01*
X205362Y107136D01*
X204076D01*
X195227Y115985D01*
X195358Y116213D01*
X195445Y116190D01*
X195745D01*
X196036Y116268D01*
X196297Y116418D01*
X196510Y116631D01*
X196660Y116892D01*
X196738Y117183D01*
Y117483D01*
X196660Y117774D01*
X196510Y118035D01*
X196297Y118248D01*
X196036Y118398D01*
X195745Y118476D01*
X195445D01*
X195154Y118398D01*
X194893Y118248D01*
X194680Y118035D01*
X194530Y117774D01*
X194452Y117483D01*
Y117343D01*
X194198Y117229D01*
Y117483D01*
X194120Y117774D01*
X193970Y118035D01*
X193757Y118248D01*
X193496Y118398D01*
X193447Y118411D01*
Y118667D01*
X193403Y118890D01*
X193277Y119079D01*
X183363Y128992D01*
X183401Y129134D01*
Y129438D01*
X183322Y129732D01*
X183170Y129996D01*
X182955Y130211D01*
X182828Y130284D01*
Y130828D01*
X182955Y130901D01*
X183170Y131116D01*
X183322Y131380D01*
X183401Y131674D01*
Y131978D01*
X183322Y132272D01*
X183170Y132536D01*
X182955Y132751D01*
X182691Y132903D01*
X182397Y132982D01*
D02*
G37*
G36*
X203365Y118476D02*
X203065D01*
X202774Y118398D01*
X202513Y118248D01*
X202300Y118035D01*
X202150Y117774D01*
X202072Y117483D01*
Y117183D01*
X202150Y116892D01*
X202300Y116631D01*
X202513Y116418D01*
X202774Y116268D01*
X203065Y116190D01*
X203365D01*
X203656Y116268D01*
X203917Y116418D01*
X204130Y116631D01*
X204280Y116892D01*
X204358Y117183D01*
Y117483D01*
X204280Y117774D01*
X204130Y118035D01*
X203917Y118248D01*
X203656Y118398D01*
X203365Y118476D01*
D02*
G37*
G36*
X200825D02*
X200525D01*
X200234Y118398D01*
X199973Y118248D01*
X199760Y118035D01*
X199610Y117774D01*
X199532Y117483D01*
Y117183D01*
X199610Y116892D01*
X199760Y116631D01*
X199973Y116418D01*
X200234Y116268D01*
X200525Y116190D01*
X200825D01*
X201116Y116268D01*
X201377Y116418D01*
X201590Y116631D01*
X201740Y116892D01*
X201818Y117183D01*
Y117483D01*
X201740Y117774D01*
X201590Y118035D01*
X201377Y118248D01*
X201116Y118398D01*
X200825Y118476D01*
D02*
G37*
G36*
X198285D02*
X197985D01*
X197694Y118398D01*
X197433Y118248D01*
X197220Y118035D01*
X197070Y117774D01*
X196992Y117483D01*
Y117183D01*
X197070Y116892D01*
X197220Y116631D01*
X197433Y116418D01*
X197694Y116268D01*
X197985Y116190D01*
X198285D01*
X198576Y116268D01*
X198837Y116418D01*
X199050Y116631D01*
X199200Y116892D01*
X199278Y117183D01*
Y117483D01*
X199200Y117774D01*
X199050Y118035D01*
X198837Y118248D01*
X198576Y118398D01*
X198285Y118476D01*
D02*
G37*
G36*
X236467Y80947D02*
X236200D01*
X235941Y80878D01*
X235710Y80744D01*
X235520Y80555D01*
X235387Y80324D01*
X235317Y80065D01*
Y79798D01*
X235367Y79612D01*
X235200Y79453D01*
X235164Y79436D01*
X235029Y79514D01*
X234830Y79567D01*
Y78544D01*
X234627D01*
Y78340D01*
X233603D01*
X233656Y78142D01*
X233793Y77904D01*
X233987Y77710D01*
X234044Y77677D01*
Y68866D01*
X234088Y68643D01*
X234215Y68454D01*
X240775Y61894D01*
X240964Y61768D01*
X241187Y61724D01*
X243027D01*
X243250Y61768D01*
X243439Y61894D01*
X243832Y62287D01*
X244018D01*
Y63500D01*
X244221D01*
Y63703D01*
X245434D01*
Y63900D01*
X245407Y64111D01*
X245325Y64307D01*
X245196Y64475D01*
X245028Y64604D01*
X244832Y64686D01*
X244746Y64697D01*
X244701Y64855D01*
X244709Y64958D01*
X244946Y65095D01*
X245166Y65315D01*
X245322Y65584D01*
X245402Y65885D01*
Y66195D01*
X245322Y66496D01*
X245166Y66765D01*
X244946Y66985D01*
X244677Y67141D01*
X244535Y67179D01*
Y67441D01*
X244677Y67479D01*
X244946Y67635D01*
X245166Y67855D01*
X245322Y68124D01*
X245402Y68425D01*
Y68735D01*
X245322Y69036D01*
X245166Y69305D01*
X244946Y69525D01*
X244677Y69681D01*
X244535Y69719D01*
Y69981D01*
X244677Y70019D01*
X244946Y70175D01*
X245166Y70395D01*
X245322Y70664D01*
X245402Y70965D01*
Y71275D01*
X245322Y71576D01*
X245166Y71845D01*
X244946Y72065D01*
X244677Y72221D01*
X244376Y72301D01*
X244066D01*
X243765Y72221D01*
X243496Y72065D01*
X243276Y71845D01*
X243120Y71576D01*
X243082Y71434D01*
X242820D01*
X242782Y71576D01*
X242626Y71845D01*
X242406Y72065D01*
X242137Y72221D01*
X241836Y72301D01*
X241526D01*
X241225Y72221D01*
X240956Y72065D01*
X240736Y71845D01*
X240580Y71576D01*
X240500Y71275D01*
Y70965D01*
X240580Y70664D01*
X240736Y70395D01*
X240956Y70175D01*
X241225Y70019D01*
X241367Y69981D01*
Y69719D01*
X241225Y69681D01*
X240956Y69525D01*
X240736Y69305D01*
X240580Y69036D01*
X240500Y68735D01*
Y68425D01*
X240580Y68124D01*
X240736Y67855D01*
X240956Y67635D01*
X241225Y67479D01*
X241367Y67441D01*
Y67179D01*
X241225Y67141D01*
X240956Y66985D01*
X240736Y66765D01*
X240580Y66496D01*
X240500Y66195D01*
Y65885D01*
X240580Y65584D01*
X240736Y65315D01*
X240956Y65095D01*
X241225Y64939D01*
X241367Y64901D01*
Y64639D01*
X241225Y64601D01*
X240956Y64445D01*
X240736Y64225D01*
X240632Y64044D01*
X240346Y63971D01*
X235209Y69108D01*
Y69789D01*
X235463Y69857D01*
X235534Y69734D01*
X235723Y69545D01*
X235955Y69411D01*
X236213Y69342D01*
X236481D01*
X236739Y69411D01*
X236971Y69545D01*
X237160Y69734D01*
X237294Y69966D01*
X237363Y70224D01*
Y70492D01*
X237294Y70750D01*
X237160Y70982D01*
X236971Y71171D01*
X236923Y71199D01*
Y79099D01*
X236957Y79118D01*
X237146Y79308D01*
X237280Y79539D01*
X237349Y79798D01*
Y80065D01*
X237280Y80324D01*
X237146Y80555D01*
X236957Y80744D01*
X236726Y80878D01*
X236467Y80947D01*
D02*
G37*
G36*
X234423Y79567D02*
X234225Y79514D01*
X233987Y79377D01*
X233793Y79183D01*
X233656Y78946D01*
X233603Y78747D01*
X234423D01*
Y79567D01*
D02*
G37*
G36*
X245434Y63297D02*
X244424D01*
Y62287D01*
X244621D01*
X244832Y62314D01*
X245028Y62396D01*
X245196Y62525D01*
X245325Y62693D01*
X245407Y62889D01*
X245434Y63100D01*
Y63297D01*
D02*
G37*
G36*
X213182Y55805D02*
Y54813D01*
X214174D01*
X214103Y55076D01*
X213944Y55351D01*
X213720Y55575D01*
X213445Y55734D01*
X213182Y55805D01*
D02*
G37*
G36*
X199360Y41608D02*
X199062D01*
X198774Y41531D01*
X198517Y41382D01*
X198306Y41171D01*
X198157Y40914D01*
X198080Y40626D01*
Y40328D01*
X198157Y40040D01*
X198306Y39783D01*
X198517Y39572D01*
X198774Y39423D01*
X199062Y39346D01*
X199360D01*
X199648Y39423D01*
X199905Y39572D01*
X200116Y39783D01*
X200265Y40040D01*
X200342Y40328D01*
Y40626D01*
X200265Y40914D01*
X200116Y41171D01*
X199905Y41382D01*
X199648Y41531D01*
X199360Y41608D01*
D02*
G37*
G36*
X193842D02*
X191580D01*
Y39346D01*
X193842D01*
Y41608D01*
D02*
G37*
G36*
X199414Y37120D02*
Y36180D01*
X200354D01*
X200289Y36423D01*
X200136Y36687D01*
X199921Y36902D01*
X199657Y37055D01*
X199414Y37120D01*
D02*
G37*
G36*
X199008D02*
X198765Y37055D01*
X198501Y36902D01*
X198286Y36687D01*
X198133Y36423D01*
X198068Y36180D01*
X199008D01*
Y37120D01*
D02*
G37*
G36*
X192914D02*
Y36180D01*
X193854D01*
X193789Y36423D01*
X193636Y36687D01*
X193421Y36902D01*
X193157Y37055D01*
X192914Y37120D01*
D02*
G37*
G36*
X192508D02*
X192265Y37055D01*
X192001Y36902D01*
X191786Y36687D01*
X191633Y36423D01*
X191568Y36180D01*
X192508D01*
Y37120D01*
D02*
G37*
G36*
X200354Y35774D02*
X199414D01*
Y34834D01*
X199657Y34899D01*
X199921Y35052D01*
X200136Y35267D01*
X200289Y35531D01*
X200354Y35774D01*
D02*
G37*
G36*
X199008D02*
X198068D01*
X198133Y35531D01*
X198286Y35267D01*
X198501Y35052D01*
X198765Y34899D01*
X199008Y34834D01*
Y35774D01*
D02*
G37*
G36*
X193854D02*
X192914D01*
Y34834D01*
X193157Y34899D01*
X193421Y35052D01*
X193636Y35267D01*
X193789Y35531D01*
X193854Y35774D01*
D02*
G37*
G36*
X192508D02*
X191568D01*
X191633Y35531D01*
X191786Y35267D01*
X192001Y35052D01*
X192265Y34899D01*
X192508Y34834D01*
Y35774D01*
D02*
G37*
%LPD*%
G36*
X220768Y125274D02*
X220924Y125005D01*
X221144Y124785D01*
X221413Y124629D01*
X221555Y124591D01*
Y124329D01*
X221413Y124291D01*
X221144Y124135D01*
X220924Y123915D01*
X220768Y123646D01*
X220730Y123504D01*
X220468D01*
X220430Y123646D01*
X220274Y123915D01*
X220054Y124135D01*
X219785Y124291D01*
X219643Y124329D01*
Y124591D01*
X219785Y124629D01*
X220054Y124785D01*
X220274Y125005D01*
X220430Y125274D01*
X220468Y125416D01*
X220730D01*
X220768Y125274D01*
D02*
G37*
G36*
X181320Y128576D02*
X181535Y128361D01*
X181799Y128209D01*
X182029Y128147D01*
Y127885D01*
X181799Y127823D01*
X181535Y127671D01*
X181320Y127456D01*
X181168Y127192D01*
X181089Y126898D01*
Y126594D01*
X181168Y126300D01*
X181320Y126036D01*
X181535Y125821D01*
X181799Y125669D01*
X181996Y125616D01*
X181962Y125362D01*
X181089D01*
Y123050D01*
X183401D01*
Y125362D01*
X182528D01*
X182494Y125616D01*
X182691Y125669D01*
X182955Y125821D01*
X183170Y126036D01*
X183322Y126300D01*
X183401Y126594D01*
Y126898D01*
X183383Y126965D01*
X183611Y127096D01*
X192282Y118425D01*
Y118176D01*
X192140Y118035D01*
X191990Y117774D01*
X191912Y117483D01*
Y117183D01*
X191990Y116892D01*
X192140Y116631D01*
X192353Y116418D01*
X192614Y116268D01*
X192905Y116190D01*
X193205D01*
X193338Y116226D01*
X203355Y106209D01*
X203260Y105955D01*
X198103D01*
X192013Y112045D01*
X191824Y112171D01*
X191601Y112216D01*
X184052D01*
X184021Y112258D01*
X184046Y112580D01*
X187692Y116226D01*
X187825Y116190D01*
X188125D01*
X188416Y116268D01*
X188677Y116418D01*
X188890Y116631D01*
X189040Y116892D01*
X189118Y117183D01*
Y117323D01*
X189372Y117437D01*
Y117183D01*
X189450Y116892D01*
X189600Y116631D01*
X189813Y116418D01*
X190074Y116268D01*
X190365Y116190D01*
X190665D01*
X190956Y116268D01*
X191217Y116418D01*
X191430Y116631D01*
X191580Y116892D01*
X191658Y117183D01*
Y117483D01*
X191580Y117774D01*
X191430Y118035D01*
X191217Y118248D01*
X190956Y118398D01*
X190665Y118476D01*
X190365D01*
X190232Y118440D01*
X189771Y118901D01*
X189582Y119027D01*
X189359Y119071D01*
X184920D01*
X184697Y119027D01*
X184508Y118901D01*
X180098Y114490D01*
X179971Y114301D01*
X179927Y114078D01*
Y104977D01*
X179692Y104880D01*
X174039Y110533D01*
Y122909D01*
X174293Y123072D01*
X174422Y123037D01*
Y124206D01*
X174625D01*
Y124409D01*
X175794D01*
X175726Y124662D01*
X175570Y124931D01*
X175350Y125151D01*
X175081Y125307D01*
X174891Y125358D01*
X174891Y125621D01*
X175071Y125669D01*
X175335Y125821D01*
X175550Y126036D01*
X175702Y126300D01*
X175781Y126594D01*
Y126898D01*
X175743Y127040D01*
X177406Y128703D01*
X181247D01*
X181320Y128576D01*
D02*
G37*
G36*
X184420Y116805D02*
X184520Y116631D01*
X184733Y116418D01*
X184994Y116268D01*
X185285Y116190D01*
X185585D01*
X185672Y116213D01*
X185803Y115985D01*
X183658Y113841D01*
X183431Y113972D01*
X183443Y114019D01*
Y114327D01*
X183364Y114624D01*
X183210Y114890D01*
X182992Y115108D01*
X182822Y115207D01*
X182751Y115495D01*
X184135Y116879D01*
X184420Y116805D01*
D02*
G37*
G36*
X228911Y113836D02*
Y113276D01*
X223270Y107635D01*
X223043Y107767D01*
X223050Y107795D01*
Y108105D01*
X223007Y108264D01*
X228676Y113933D01*
X228911Y113836D01*
D02*
G37*
G36*
X197450Y104960D02*
X197639Y104834D01*
X197862Y104789D01*
X205181D01*
X205327Y104535D01*
X205286Y104464D01*
X205207Y104167D01*
Y103961D01*
X185691D01*
X183403Y106249D01*
X183443Y106399D01*
Y106707D01*
X183364Y107004D01*
X183210Y107270D01*
X182992Y107488D01*
X182726Y107642D01*
X182540Y107692D01*
Y107954D01*
X182726Y108004D01*
X182992Y108158D01*
X183210Y108376D01*
X183364Y108642D01*
X183443Y108939D01*
Y109247D01*
X183364Y109544D01*
X183210Y109810D01*
X182992Y110028D01*
X182726Y110182D01*
X182540Y110232D01*
Y110494D01*
X182726Y110544D01*
X182992Y110698D01*
X183210Y110916D01*
X183288Y111050D01*
X191359D01*
X197450Y104960D01*
D02*
G37*
G36*
X218155Y105593D02*
X218148Y105565D01*
Y105255D01*
X218191Y105096D01*
X216510Y103415D01*
X207646D01*
X207492Y103669D01*
X207543Y103859D01*
Y104167D01*
X207464Y104464D01*
X207423Y104535D01*
X207569Y104789D01*
X216751D01*
X216974Y104834D01*
X217163Y104960D01*
X217928Y105725D01*
X218155Y105593D01*
D02*
G37*
G36*
X205474Y102420D02*
X205491Y102242D01*
X205440Y102190D01*
X205286Y101924D01*
X205207Y101627D01*
Y101319D01*
X205286Y101022D01*
X205440Y100756D01*
X205658Y100538D01*
X205924Y100384D01*
X206110Y100334D01*
Y100072D01*
X205924Y100022D01*
X205658Y99868D01*
X205440Y99650D01*
X205286Y99384D01*
X205207Y99087D01*
Y98779D01*
X205286Y98482D01*
X205440Y98216D01*
X205658Y97998D01*
X205924Y97844D01*
X206110Y97794D01*
Y97532D01*
X205924Y97482D01*
X205658Y97328D01*
X205440Y97110D01*
X205286Y96844D01*
X205207Y96547D01*
Y96239D01*
X205258Y96049D01*
X205104Y95795D01*
X193031D01*
X186265Y102561D01*
X186362Y102795D01*
X190783D01*
X190927Y102541D01*
X190881Y102369D01*
Y102101D01*
X190950Y101843D01*
X191084Y101611D01*
X191273Y101422D01*
X191303Y101405D01*
Y100261D01*
X191250Y100231D01*
X191061Y100042D01*
X190927Y99810D01*
X190858Y99552D01*
Y99284D01*
X190927Y99026D01*
X191061Y98794D01*
X191250Y98605D01*
X191482Y98471D01*
X191740Y98402D01*
X192008D01*
X192266Y98471D01*
X192498Y98605D01*
X192687Y98794D01*
X192821Y99026D01*
X192890Y99284D01*
Y99552D01*
X192821Y99810D01*
X192687Y100042D01*
X192498Y100231D01*
X192468Y100248D01*
Y101392D01*
X192521Y101422D01*
X192710Y101611D01*
X192844Y101843D01*
X192913Y102101D01*
Y102369D01*
X192867Y102541D01*
X193011Y102795D01*
X205098D01*
X205474Y102420D01*
D02*
G37*
G36*
X194506Y92782D02*
X194660Y92516D01*
X194878Y92298D01*
X195144Y92144D01*
X195441Y92065D01*
X195749D01*
X195796Y92077D01*
X195927Y91849D01*
X176935Y72857D01*
X176718Y72924D01*
X176681Y72951D01*
Y78575D01*
X190211Y92105D01*
X190361Y92065D01*
X190669D01*
X190966Y92144D01*
X191232Y92298D01*
X191450Y92516D01*
X191604Y92782D01*
X191654Y92968D01*
X191916D01*
X191966Y92782D01*
X192120Y92516D01*
X192338Y92298D01*
X192604Y92144D01*
X192901Y92065D01*
X193209D01*
X193506Y92144D01*
X193772Y92298D01*
X193990Y92516D01*
X194144Y92782D01*
X194194Y92968D01*
X194456D01*
X194506Y92782D01*
D02*
G37*
G36*
X218155Y103053D02*
X218148Y103025D01*
Y102715D01*
X218228Y102414D01*
X218384Y102145D01*
X218604Y101925D01*
X218873Y101769D01*
X219015Y101731D01*
Y101469D01*
X218873Y101431D01*
X218604Y101275D01*
X218384Y101055D01*
X218228Y100786D01*
X218148Y100485D01*
Y100175D01*
X218228Y99874D01*
X218384Y99605D01*
X218604Y99385D01*
X218873Y99229D01*
X219015Y99191D01*
Y98929D01*
X218873Y98891D01*
X218604Y98735D01*
X218384Y98515D01*
X218228Y98246D01*
X218148Y97945D01*
Y97635D01*
X218228Y97334D01*
X218384Y97065D01*
X218604Y96845D01*
X218873Y96689D01*
X219015Y96651D01*
Y96389D01*
X218873Y96351D01*
X218604Y96195D01*
X218384Y95975D01*
X218228Y95706D01*
X218148Y95405D01*
Y95095D01*
X218228Y94794D01*
X218384Y94525D01*
X218604Y94305D01*
X218873Y94149D01*
X219015Y94111D01*
Y93849D01*
X218873Y93811D01*
X218604Y93655D01*
X218384Y93435D01*
X218228Y93166D01*
X218148Y92865D01*
Y92555D01*
X218228Y92254D01*
X218384Y91985D01*
X218604Y91765D01*
X218873Y91609D01*
X219015Y91571D01*
Y91309D01*
X218873Y91271D01*
X218604Y91115D01*
X218384Y90895D01*
X218228Y90626D01*
X218148Y90325D01*
Y90015D01*
X218155Y89987D01*
X217928Y89855D01*
X212159Y95624D01*
X211970Y95750D01*
X211747Y95795D01*
X207646D01*
X207492Y96049D01*
X207543Y96239D01*
Y96547D01*
X207464Y96844D01*
X207310Y97110D01*
X207092Y97328D01*
X206826Y97482D01*
X206640Y97532D01*
Y97794D01*
X206826Y97844D01*
X207092Y97998D01*
X207310Y98216D01*
X207464Y98482D01*
X207543Y98779D01*
Y99087D01*
X207464Y99384D01*
X207310Y99650D01*
X207092Y99868D01*
X206826Y100022D01*
X206640Y100072D01*
Y100334D01*
X206826Y100384D01*
X207092Y100538D01*
X207310Y100756D01*
X207464Y101022D01*
X207543Y101319D01*
Y101627D01*
X207464Y101924D01*
X207423Y101995D01*
X207569Y102249D01*
X216751D01*
X216974Y102294D01*
X217163Y102420D01*
X217928Y103185D01*
X218155Y103053D01*
D02*
G37*
G36*
X218191Y87944D02*
X218148Y87785D01*
Y87475D01*
X218155Y87447D01*
X217928Y87315D01*
X210849Y94395D01*
X210946Y94629D01*
X211506D01*
X218191Y87944D01*
D02*
G37*
G36*
X220768Y82094D02*
X220924Y81825D01*
X221144Y81605D01*
X221413Y81449D01*
X221555Y81411D01*
Y81149D01*
X221413Y81111D01*
X221144Y80955D01*
X220924Y80735D01*
X220768Y80466D01*
X220730Y80324D01*
X220468D01*
X220430Y80466D01*
X220274Y80735D01*
X220054Y80955D01*
X219785Y81111D01*
X219643Y81149D01*
Y81411D01*
X219785Y81449D01*
X220054Y81605D01*
X220274Y81825D01*
X220430Y82094D01*
X220468Y82236D01*
X220730D01*
X220768Y82094D01*
D02*
G37*
G36*
X183811Y54535D02*
X183967Y54266D01*
X184187Y54046D01*
X184456Y53890D01*
X184598Y53852D01*
Y53590D01*
X184456Y53552D01*
X184187Y53396D01*
X183967Y53176D01*
X183811Y52907D01*
X183773Y52765D01*
X183511D01*
X183473Y52907D01*
X183317Y53176D01*
X183097Y53396D01*
X182828Y53552D01*
X182686Y53590D01*
Y53852D01*
X182828Y53890D01*
X183097Y54046D01*
X183317Y54266D01*
X183473Y54535D01*
X183511Y54677D01*
X183773D01*
X183811Y54535D01*
D02*
G37*
G36*
X181271D02*
X181427Y54266D01*
X181647Y54046D01*
X181916Y53890D01*
X182058Y53852D01*
Y53590D01*
X181916Y53552D01*
X181647Y53396D01*
X181427Y53176D01*
X181271Y52907D01*
X181233Y52765D01*
X180971D01*
X180933Y52907D01*
X180777Y53176D01*
X180557Y53396D01*
X180288Y53552D01*
X180146Y53590D01*
Y53852D01*
X180288Y53890D01*
X180557Y54046D01*
X180777Y54266D01*
X180933Y54535D01*
X180971Y54677D01*
X181233D01*
X181271Y54535D01*
D02*
G37*
G36*
X211855Y54144D02*
X212014Y53869D01*
X212238Y53645D01*
X212513Y53486D01*
X212616Y53458D01*
X212616Y53195D01*
X212523Y53171D01*
X212254Y53015D01*
X212034Y52795D01*
X211878Y52526D01*
X211840Y52384D01*
X211578D01*
X211540Y52526D01*
X211384Y52795D01*
X211164Y53015D01*
X210895Y53171D01*
X210753Y53209D01*
Y53471D01*
X210895Y53509D01*
X211164Y53665D01*
X211384Y53885D01*
X211540Y54154D01*
X211564Y54247D01*
X211827Y54247D01*
X211855Y54144D01*
D02*
G37*
%LPC*%
G36*
X175794Y124003D02*
X174828D01*
Y123037D01*
X175081Y123105D01*
X175350Y123261D01*
X175570Y123481D01*
X175726Y123750D01*
X175794Y124003D01*
D02*
G37*
%LPD*%
G36*
X235758Y77912D02*
Y71191D01*
X235723Y71171D01*
X235534Y70982D01*
X235463Y70859D01*
X235209Y70927D01*
Y77677D01*
X235266Y77710D01*
X235460Y77904D01*
X235504Y77980D01*
X235758Y77912D01*
D02*
G37*
G36*
X243120Y70664D02*
X243276Y70395D01*
X243496Y70175D01*
X243765Y70019D01*
X243907Y69981D01*
Y69719D01*
X243765Y69681D01*
X243496Y69525D01*
X243276Y69305D01*
X243120Y69036D01*
X243082Y68894D01*
X242820D01*
X242782Y69036D01*
X242626Y69305D01*
X242406Y69525D01*
X242137Y69681D01*
X241995Y69719D01*
Y69981D01*
X242137Y70019D01*
X242406Y70175D01*
X242626Y70395D01*
X242782Y70664D01*
X242820Y70806D01*
X243082D01*
X243120Y70664D01*
D02*
G37*
G36*
Y68124D02*
X243276Y67855D01*
X243496Y67635D01*
X243765Y67479D01*
X243907Y67441D01*
Y67179D01*
X243765Y67141D01*
X243496Y66985D01*
X243276Y66765D01*
X243120Y66496D01*
X243082Y66354D01*
X242820D01*
X242782Y66496D01*
X242626Y66765D01*
X242406Y66985D01*
X242137Y67141D01*
X241995Y67179D01*
Y67441D01*
X242137Y67479D01*
X242406Y67635D01*
X242626Y67855D01*
X242782Y68124D01*
X242820Y68266D01*
X243082D01*
X243120Y68124D01*
D02*
G37*
D40*
X177292Y52451D02*
D03*
X205359Y52070D02*
D03*
D41*
X179832Y52451D02*
D03*
X182372D02*
D03*
X184912D02*
D03*
X182372Y54991D02*
D03*
X184912D02*
D03*
X179832D02*
D03*
X177292D02*
D03*
X241681Y71120D02*
D03*
Y63500D02*
D03*
X244221Y66040D02*
D03*
Y68580D02*
D03*
X241681Y66040D02*
D03*
Y68580D02*
D03*
X244221Y71120D02*
D03*
X221869Y120650D02*
D03*
Y123190D02*
D03*
Y110490D02*
D03*
Y128270D02*
D03*
Y125730D02*
D03*
Y118110D02*
D03*
Y115570D02*
D03*
Y113030D02*
D03*
X219329Y97790D02*
D03*
Y95250D02*
D03*
Y92710D02*
D03*
Y90170D02*
D03*
X221869Y82550D02*
D03*
Y80010D02*
D03*
Y87630D02*
D03*
Y85090D02*
D03*
X219329Y123190D02*
D03*
Y82550D02*
D03*
Y113030D02*
D03*
Y100330D02*
D03*
Y125730D02*
D03*
Y85090D02*
D03*
Y102870D02*
D03*
Y110490D02*
D03*
Y87630D02*
D03*
Y107950D02*
D03*
Y115570D02*
D03*
Y118110D02*
D03*
Y105410D02*
D03*
Y120650D02*
D03*
Y80010D02*
D03*
X221869Y97790D02*
D03*
Y100330D02*
D03*
Y102870D02*
D03*
Y90170D02*
D03*
Y105410D02*
D03*
Y92710D02*
D03*
Y95250D02*
D03*
Y107950D02*
D03*
X207899Y54610D02*
D03*
X205359D02*
D03*
X207899Y52070D02*
D03*
X210439D02*
D03*
X212979D02*
D03*
X210439Y54610D02*
D03*
X212979D02*
D03*
D42*
X244221Y63500D02*
D03*
X219329Y128270D02*
D03*
D43*
X174625Y131826D02*
D03*
X182245Y126746D02*
D03*
X174625Y129286D02*
D03*
X182245Y131826D02*
D03*
Y129286D02*
D03*
X174625Y126746D02*
D03*
Y124206D02*
D03*
D44*
X182245D02*
D03*
D45*
X192711Y40477D02*
D03*
D46*
X199211D02*
D03*
X192711Y35977D02*
D03*
X199211D02*
D03*
D47*
X206375Y114173D02*
D03*
Y111633D02*
D03*
Y109093D02*
D03*
Y106553D02*
D03*
X182275Y114173D02*
D03*
X203215Y93233D02*
D03*
X206375Y96393D02*
D03*
Y104013D02*
D03*
Y101473D02*
D03*
Y98933D02*
D03*
X182275Y111633D02*
D03*
Y104013D02*
D03*
Y106553D02*
D03*
Y101473D02*
D03*
Y98933D02*
D03*
Y96393D02*
D03*
Y109093D02*
D03*
X185435Y93233D02*
D03*
X190515D02*
D03*
X193055D02*
D03*
X187975D02*
D03*
X200675D02*
D03*
X195595D02*
D03*
X198135D02*
D03*
D48*
X185435Y117333D02*
D03*
X187975D02*
D03*
X190515D02*
D03*
X193055D02*
D03*
X195595D02*
D03*
X198135D02*
D03*
X200675D02*
D03*
X203215D02*
D03*
D49*
X234627Y68866D02*
X241187Y62306D01*
X243027D02*
X244221Y63500D01*
X241187Y62306D02*
X243027D01*
X202997Y53264D02*
X209093D01*
X210439Y54610D01*
X207899D02*
Y86009D01*
X176798Y53797D02*
X178638D01*
X179832Y54991D01*
X177292D02*
Y72390D01*
X236340Y70365D02*
Y79925D01*
X224174Y97790D02*
X235863Y109479D01*
X236333Y79931D02*
X236340Y79925D01*
X228495Y92710D02*
X235863Y100078D01*
X226335Y95250D02*
X235863Y104778D01*
X230656Y90170D02*
X235863Y95377D01*
X236340Y70365D02*
X236347Y70358D01*
X234627Y68866D02*
Y78544D01*
X193421Y43688D02*
X202997Y53264D01*
X177292Y72390D02*
X198135Y93233D01*
X181094Y106064D02*
X181964Y105194D01*
X180510Y104108D02*
X181964Y102654D01*
X189359Y118489D02*
X190515Y117333D01*
X184920Y118489D02*
X189359D01*
X181964Y112992D02*
X183634D01*
X187975Y117333D01*
X193055D02*
X203835Y106553D01*
X192864Y117524D02*
X193055Y117333D01*
X192864Y117524D02*
Y118667D01*
X185450Y103378D02*
X205340D01*
X203835Y106553D02*
X206375D01*
X191601Y111633D02*
X197862Y105372D01*
X182275Y111633D02*
X191601D01*
X191885Y99429D02*
Y102223D01*
X182808Y105194D02*
X192790Y95212D01*
X184522Y102654D02*
X192548Y94628D01*
X182275Y106553D02*
X185450Y103378D01*
X191874Y99418D02*
X191885Y99429D01*
Y102223D02*
X191897Y102235D01*
X181964Y102654D02*
X184522D01*
X219329Y82550D02*
X220523Y83744D01*
X221869Y90170D02*
X230656D01*
X221869Y100330D02*
X221941D01*
X221869Y92710D02*
X228495D01*
X221869Y95250D02*
X226335D01*
X221869Y97790D02*
X224174D01*
X229494Y113035D02*
Y117187D01*
X216751Y105372D02*
X219329Y107950D01*
X216751Y102832D02*
X219329Y105410D01*
X221869Y107950D02*
X228910Y114991D01*
X221869Y105410D02*
X229494Y113035D01*
X197862Y105372D02*
X216751D01*
X211747Y95212D02*
X219329Y87630D01*
X205886Y102832D02*
X216751D01*
X192790Y95212D02*
X211747D01*
X192548Y94628D02*
X209791D01*
X205340Y103378D02*
X205886Y102832D01*
X209791Y94628D02*
X219329Y85090D01*
X200675Y93233D02*
X207899Y86009D01*
X181964Y105194D02*
X182808D01*
X181094Y112122D02*
X181964Y112992D01*
X182245Y129286D02*
Y131826D01*
X177165Y129286D02*
X182245D01*
X174625Y126746D02*
X177165Y129286D01*
X180510Y104108D02*
Y114078D01*
X184920Y118489D01*
X228910Y114991D02*
Y121304D01*
X235887Y128281D01*
X229494Y117187D02*
X235887Y123581D01*
X219329Y123190D02*
X220523Y121996D01*
Y83744D02*
Y121996D01*
X181094Y106064D02*
Y112122D01*
X182245Y129286D02*
X192864Y118667D01*
X176098Y54497D02*
X176798Y53797D01*
X221869Y102870D02*
X235863Y116864D01*
X221941Y100330D02*
X235791Y114179D01*
X176098Y78816D02*
X190515Y93233D01*
X235863Y116864D02*
Y118980D01*
X176098Y54497D02*
Y78816D01*
X173456Y128117D02*
X174625Y129286D01*
X173456Y110292D02*
Y128117D01*
Y110292D02*
X182275Y101473D01*
D50*
X235863Y109479D02*
D03*
Y104878D02*
D03*
X235839Y114173D02*
D03*
X236333Y79931D02*
D03*
X235863Y95377D02*
D03*
Y100078D02*
D03*
Y118980D02*
D03*
X235839Y128270D02*
D03*
X193421Y43688D02*
D03*
X235887Y123681D02*
D03*
X236347Y70358D02*
D03*
X234627Y78544D02*
D03*
X191874Y99418D02*
D03*
X191897Y102235D02*
D03*
M02*
