G04*
G04 #@! TF.GenerationSoftware,Altium Limited,Altium Designer,26.5.0 (11)*
G04*
G04 Layer_Color=16711935*
G04 Board_Origin=0|0*
%FSLAX43Y43*%
%MOMM*%
G71*
G04*
G04 #@! TF.SameCoordinates,80E9BAEF-7E6F-45FB-9ECE-2008D9C71877*
G04*
G04*
G04 #@! TF.FilePolarity,Positive*
G04*
G01*
G75*
%ADD16C,0.254*%
%ADD52C,1.200*%
%ADD53C,0.050*%
D16*
X33096Y22428D02*
X133096D01*
X33096Y122428D02*
X133096D01*
Y22428D02*
Y122428D01*
X33096Y22428D02*
Y122428D01*
D52*
Y22428D02*
X133096D01*
Y122428D01*
X33096D02*
X133096D01*
X33096Y22428D02*
Y122428D01*
D53*
X73743Y34158D02*
X73443D01*
Y34307D01*
X73493Y34357D01*
X73593D01*
X73643Y34307D01*
Y34158D01*
Y34257D02*
X73743Y34357D01*
X73443Y34657D02*
Y34457D01*
X73743D01*
Y34657D01*
X73593Y34457D02*
Y34557D01*
X73493Y34957D02*
X73443Y34907D01*
Y34807D01*
X73493Y34757D01*
X73693D01*
X73743Y34807D01*
Y34907D01*
X73693Y34957D01*
X73593D01*
Y34857D01*
X73793Y35057D02*
Y35257D01*
X73743Y35357D02*
Y35457D01*
Y35407D01*
X73443D01*
X73493Y35357D01*
X73443Y35607D02*
X73643D01*
X73743Y35707D01*
X73643Y35807D01*
X73443D01*
M02*
