G04*
G04 #@! TF.GenerationSoftware,Altium Limited,Altium Designer,26.5.0 (11)*
G04*
G04 Layer_Color=65535*
G04 Board_Origin=0|0*
%FSLAX43Y43*%
%MOMM*%
G71*
G04*
G04 #@! TF.SameCoordinates,80E9BAEF-7E6F-45FB-9ECE-2008D9C71877*
G04*
G04*
G04 #@! TF.FilePolarity,Positive*
G04*
G01*
G75*
%ADD10C,0.250*%
%ADD11C,0.000*%
%ADD12C,0.100*%
%ADD13C,0.152*%
%ADD14C,0.200*%
%ADD15C,0.127*%
%ADD16C,0.254*%
%ADD17R,0.800X4.500*%
%ADD18R,4.500X0.800*%
%ADD19R,0.200X1.500*%
%ADD20R,0.200X1.500*%
%ADD21R,4.500X0.800*%
D10*
X49557Y105679D02*
G03*
X49557Y105679I-125J0D01*
G01*
X57932Y37048D02*
G03*
X57932Y37048I-125J0D01*
G01*
X48736Y30353D02*
G03*
X48736Y30353I-125J0D01*
G01*
X41954Y37122D02*
G03*
X41954Y37122I-125J0D01*
G01*
X81724Y33131D02*
G03*
X81724Y33131I-125J0D01*
G01*
X111746Y58176D02*
G03*
X111746Y58176I-125J0D01*
G01*
Y67447D02*
G03*
X111746Y67447I-125J0D01*
G01*
X72316Y33440D02*
G03*
X72316Y33440I-125J0D01*
G01*
D11*
X50400Y39143D02*
G03*
X50400Y39143I-200J0D01*
G01*
X107034Y103597D02*
G03*
X107034Y103597I-200J0D01*
G01*
Y108677D02*
G03*
X107034Y108677I-200J0D01*
G01*
X106946Y98502D02*
G03*
X106946Y98502I-200J0D01*
G01*
X106907Y93437D02*
G03*
X106907Y93437I-200J0D01*
G01*
D12*
X53135Y37672D02*
G03*
X53035Y37672I-50J0D01*
G01*
D02*
G03*
X53135Y37672I50J0D01*
G01*
D13*
X94067Y33675D02*
G03*
X94067Y33929I0J127D01*
G01*
D02*
G03*
X94067Y33675I0J-127D01*
G01*
X95430Y33909D02*
X96790D01*
X95430Y31470D02*
X96790D01*
D14*
X115515Y56762D02*
X124515D01*
X115515Y38742D02*
Y56762D01*
X124515Y38742D02*
Y56762D01*
X115515Y38742D02*
X124515D01*
X66555Y45411D02*
Y54411D01*
Y45411D02*
X84575D01*
X66555Y54411D02*
X84575D01*
Y45411D02*
Y54411D01*
X120804Y81294D02*
X123290D01*
X120804Y79545D02*
X123290D01*
X120804Y90695D02*
X123290D01*
X120804Y88946D02*
X123290D01*
X120804Y109498D02*
X123290D01*
X120804Y107748D02*
X123290D01*
X120804Y98347D02*
X123290D01*
X120804Y100097D02*
X123290D01*
X120804Y76593D02*
X123290D01*
X120804Y74844D02*
X123290D01*
X120804Y104797D02*
X123290D01*
X120804Y103048D02*
X123290D01*
X120804Y95396D02*
X123290D01*
X120804Y93646D02*
X123290D01*
X120804Y85995D02*
X123290D01*
X120804Y84245D02*
X123290D01*
X38488Y45792D02*
Y54792D01*
Y45792D02*
X56508D01*
X38488Y54792D02*
X56508D01*
Y45792D02*
Y54792D01*
X38842Y104294D02*
X49042D01*
Y114654D01*
X38842D02*
X49042D01*
X38842Y104294D02*
Y114654D01*
X59357Y33671D02*
Y35898D01*
X59979Y31798D02*
X64735D01*
X65357Y33671D02*
Y35925D01*
X60257Y37798D02*
X64735D01*
X45386Y31328D02*
Y31918D01*
X48086Y31328D02*
Y31918D01*
X44706Y34987D02*
X44956D01*
X44706Y36387D02*
X44956D01*
X41299Y39072D02*
Y39922D01*
X44299Y39072D02*
Y39922D01*
X51056Y35241D02*
X51306D01*
X51056Y36641D02*
X51306D01*
X54535Y38372D02*
X55335D01*
X54535Y35472D02*
X55335D01*
X55585Y36522D02*
Y37322D01*
X83074Y33681D02*
X84424D01*
X83074Y31281D02*
X84424D01*
X111871Y55330D02*
Y55922D01*
X109871Y55330D02*
X111871D01*
X109871D02*
Y55922D01*
X111871D01*
X111871Y64601D02*
Y65193D01*
X109871Y64601D02*
X111871D01*
X109871D02*
Y65193D01*
X111871D01*
X93163Y113912D02*
X102163D01*
X93163Y55252D02*
Y113912D01*
X102163Y55252D02*
Y113912D01*
X93163Y55252D02*
X102163D01*
X72516Y34365D02*
Y34965D01*
X74716Y34365D02*
Y34965D01*
X72516Y34365D02*
X74716D01*
X72516Y34965D02*
X74716D01*
D15*
X79263Y96759D02*
Y98791D01*
X81295Y96759D02*
Y98791D01*
X79263Y96759D02*
X81295D01*
X79263Y98791D02*
X81295D01*
D16*
X57419Y71755D02*
Y99695D01*
X85359Y71755D02*
Y99695D01*
X57419Y71755D02*
X85359D01*
X57419Y99695D02*
X85359D01*
X66573Y57327D02*
Y55804D01*
Y56566D01*
X67589D01*
Y57327D01*
Y55804D01*
X69113Y57327D02*
X68097D01*
Y55804D01*
X69113D01*
X68097Y56566D02*
X68605D01*
X69620Y55804D02*
Y56819D01*
X70128Y57327D01*
X70636Y56819D01*
Y55804D01*
Y56566D01*
X69620D01*
X71144Y57327D02*
Y55804D01*
X71906D01*
X72160Y56058D01*
Y57073D01*
X71906Y57327D01*
X71144D01*
X73683D02*
X72667D01*
Y55804D01*
X73683D01*
X72667Y56566D02*
X73175D01*
X74191Y55804D02*
Y57327D01*
X74953D01*
X75207Y57073D01*
Y56566D01*
X74953Y56312D01*
X74191D01*
X74699D02*
X75207Y55804D01*
X75714Y55550D02*
X76730D01*
X77238Y55804D02*
Y57327D01*
X78000D01*
X78254Y57073D01*
Y56566D01*
X78000Y56312D01*
X77238D01*
X79523Y57327D02*
X79015D01*
X78761Y57073D01*
Y56058D01*
X79015Y55804D01*
X79523D01*
X79777Y56058D01*
Y57073D01*
X79523Y57327D01*
X80285D02*
Y55804D01*
X80793Y56312D01*
X81301Y55804D01*
Y57327D01*
X82824D02*
X81808D01*
Y55804D01*
X82824D01*
X81808Y56566D02*
X82316D01*
X83332Y55804D02*
Y57327D01*
X84094D01*
X84348Y57073D01*
Y56566D01*
X84094Y56312D01*
X83332D01*
X83840D02*
X84348Y55804D01*
X88153Y98677D02*
X88407Y98931D01*
Y99438D01*
X88153Y99692D01*
X87899D01*
X87645Y99438D01*
Y98931D01*
X87391Y98677D01*
X87137D01*
X86883Y98931D01*
Y99438D01*
X87137Y99692D01*
X88407Y98169D02*
Y97661D01*
Y97915D01*
X86883D01*
Y98169D01*
Y97661D01*
X88407Y96899D02*
X86883D01*
X87391Y96391D01*
X86883Y95884D01*
X88407D01*
X86883Y95376D02*
X87899D01*
X88407Y94868D01*
X87899Y94360D01*
X86883D01*
X87645D01*
Y95376D01*
X86629Y93852D02*
Y92837D01*
X88153Y91313D02*
X88407Y91567D01*
Y92075D01*
X88153Y92329D01*
X87899D01*
X87645Y92075D01*
Y91567D01*
X87391Y91313D01*
X87137D01*
X86883Y91567D01*
Y92075D01*
X87137Y92329D01*
X88407Y90044D02*
Y90551D01*
X88153Y90805D01*
X87137D01*
X86883Y90551D01*
Y90044D01*
X87137Y89790D01*
X88153D01*
X88407Y90044D01*
X88153Y88266D02*
X88407Y88520D01*
Y89028D01*
X88153Y89282D01*
X87137D01*
X86883Y89028D01*
Y88520D01*
X87137Y88266D01*
X88407Y87758D02*
X86883D01*
X87391D01*
X88407Y86743D01*
X87645Y87504D01*
X86883Y86743D01*
X88407Y85219D02*
Y86235D01*
X86883D01*
Y85219D01*
X87645Y86235D02*
Y85727D01*
X88407Y84711D02*
Y83696D01*
Y84203D01*
X86883D01*
X54737Y42418D02*
X54483Y42164D01*
Y41657D01*
X54737Y41403D01*
X55753D01*
X56007Y41657D01*
Y42164D01*
X55753Y42418D01*
X56007Y42926D02*
Y43434D01*
Y43180D01*
X54483D01*
X54737Y42926D01*
X56007Y45211D02*
Y44196D01*
X54991Y45211D01*
X54737D01*
X54483Y44957D01*
Y44450D01*
X54737Y44196D01*
X78417Y29306D02*
Y30830D01*
X79179D01*
X79433Y30576D01*
Y30068D01*
X79179Y29814D01*
X78417D01*
X78925D02*
X79433Y29306D01*
X80956Y30830D02*
X79941D01*
Y29306D01*
X80956D01*
X79941Y30068D02*
X80448D01*
X82480Y30576D02*
X82226Y30830D01*
X81718D01*
X81464Y30576D01*
Y29560D01*
X81718Y29306D01*
X82226D01*
X82480Y29560D01*
Y30068D01*
X81972D01*
X82988Y29052D02*
X84003D01*
X84511Y29306D02*
X85019D01*
X84765D01*
Y30830D01*
X84511Y30576D01*
X85781Y29306D02*
Y29560D01*
X86035D01*
Y29306D01*
X85781D01*
X87050Y30576D02*
X87304Y30830D01*
X87812D01*
X88066Y30576D01*
Y30322D01*
X87812Y30068D01*
X88066Y29814D01*
Y29560D01*
X87812Y29306D01*
X87304D01*
X87050Y29560D01*
Y29814D01*
X87304Y30068D01*
X87050Y30322D01*
Y30576D01*
X87304Y30068D02*
X87812D01*
X88574Y30830D02*
Y29814D01*
X89082Y29306D01*
X89589Y29814D01*
Y30830D01*
X106426Y56642D02*
Y55372D01*
X106680Y55118D01*
X107188D01*
X107442Y55372D01*
Y56642D01*
X107950Y56388D02*
X108204Y56642D01*
X108712D01*
X108966Y56388D01*
Y56134D01*
X108712Y55880D01*
X108966Y55626D01*
Y55372D01*
X108712Y55118D01*
X108204D01*
X107950Y55372D01*
Y55626D01*
X108204Y55880D01*
X107950Y56134D01*
Y56388D01*
X108204Y55880D02*
X108712D01*
X124080Y74957D02*
Y76480D01*
X124841D01*
X125095Y76227D01*
Y75719D01*
X124841Y75465D01*
X124080D01*
X124587D02*
X125095Y74957D01*
X125603D02*
X126111D01*
X125857D01*
Y76480D01*
X125603Y76227D01*
X126873D02*
X127127Y76480D01*
X127634D01*
X127888Y76227D01*
Y75211D01*
X127634Y74957D01*
X127127D01*
X126873Y75211D01*
Y76227D01*
X124333Y79531D02*
Y81054D01*
X125095D01*
X125349Y80800D01*
Y80292D01*
X125095Y80038D01*
X124333D01*
X124841D02*
X125349Y79531D01*
X125857Y79785D02*
X126111Y79531D01*
X126619D01*
X126873Y79785D01*
Y80800D01*
X126619Y81054D01*
X126111D01*
X125857Y80800D01*
Y80546D01*
X126111Y80292D01*
X126873D01*
X124333Y84358D02*
Y85882D01*
X125095D01*
X125349Y85628D01*
Y85120D01*
X125095Y84866D01*
X124333D01*
X124841D02*
X125349Y84358D01*
X125857Y85628D02*
X126111Y85882D01*
X126619D01*
X126873Y85628D01*
Y85374D01*
X126619Y85120D01*
X126873Y84866D01*
Y84612D01*
X126619Y84358D01*
X126111D01*
X125857Y84612D01*
Y84866D01*
X126111Y85120D01*
X125857Y85374D01*
Y85628D01*
X126111Y85120D02*
X126619D01*
X124333Y89059D02*
Y90582D01*
X125095D01*
X125349Y90328D01*
Y89821D01*
X125095Y89567D01*
X124333D01*
X124841D02*
X125349Y89059D01*
X125857Y90582D02*
X126873D01*
Y90328D01*
X125857Y89313D01*
Y89059D01*
X124460Y93759D02*
Y95283D01*
X125222D01*
X125476Y95029D01*
Y94521D01*
X125222Y94267D01*
X124460D01*
X124968D02*
X125476Y93759D01*
X127000Y95283D02*
X126492Y95029D01*
X125984Y94521D01*
Y94013D01*
X126238Y93759D01*
X126746D01*
X127000Y94013D01*
Y94267D01*
X126746Y94521D01*
X125984D01*
X124460Y98587D02*
Y100111D01*
X125222D01*
X125476Y99857D01*
Y99349D01*
X125222Y99095D01*
X124460D01*
X124968D02*
X125476Y98587D01*
X127000Y100111D02*
X125984D01*
Y99349D01*
X126492Y99603D01*
X126746D01*
X127000Y99349D01*
Y98841D01*
X126746Y98587D01*
X126238D01*
X125984Y98841D01*
X124333Y103161D02*
Y104684D01*
X125095D01*
X125349Y104430D01*
Y103922D01*
X125095Y103669D01*
X124333D01*
X124841D02*
X125349Y103161D01*
X126619D02*
Y104684D01*
X125857Y103922D01*
X126873D01*
X124206Y107823D02*
Y109347D01*
X124968D01*
X125222Y109093D01*
Y108585D01*
X124968Y108331D01*
X124206D01*
X124714D02*
X125222Y107823D01*
X125730Y109093D02*
X125984Y109347D01*
X126492D01*
X126746Y109093D01*
Y108839D01*
X126492Y108585D01*
X126238D01*
X126492D01*
X126746Y108331D01*
Y108077D01*
X126492Y107823D01*
X125984D01*
X125730Y108077D01*
X43180Y30607D02*
X43434D01*
X43942Y31115D01*
X43434Y31623D01*
X43180D01*
X43942Y31115D02*
X44704D01*
Y32131D02*
Y32639D01*
Y32385D01*
X43180D01*
X43434Y32131D01*
X106426Y65659D02*
Y64389D01*
X106680Y64135D01*
X107188D01*
X107442Y64389D01*
Y65659D01*
X107950D02*
X108966D01*
Y65405D01*
X107950Y64389D01*
Y64135D01*
X105459Y95885D02*
Y94615D01*
X105713Y94361D01*
X106221D01*
X106475Y94615D01*
Y95885D01*
X107999D02*
X107491Y95631D01*
X106983Y95123D01*
Y94615D01*
X107237Y94361D01*
X107745D01*
X107999Y94615D01*
Y94869D01*
X107745Y95123D01*
X106983D01*
X105498Y101077D02*
Y99807D01*
X105752Y99553D01*
X106260D01*
X106514Y99807D01*
Y101077D01*
X108038D02*
X107022D01*
Y100315D01*
X107530Y100569D01*
X107784D01*
X108038Y100315D01*
Y99807D01*
X107784Y99553D01*
X107276D01*
X107022Y99807D01*
X105586Y106172D02*
Y104902D01*
X105840Y104648D01*
X106348D01*
X106602Y104902D01*
Y106172D01*
X107872Y104648D02*
Y106172D01*
X107110Y105410D01*
X108126D01*
X105586Y111252D02*
Y109982D01*
X105840Y109728D01*
X106348D01*
X106602Y109982D01*
Y111252D01*
X107110Y110998D02*
X107364Y111252D01*
X107872D01*
X108126Y110998D01*
Y110744D01*
X107872Y110490D01*
X107618D01*
X107872D01*
X108126Y110236D01*
Y109982D01*
X107872Y109728D01*
X107364D01*
X107110Y109982D01*
X50038Y41529D02*
X51308D01*
X51562Y41783D01*
Y42291D01*
X51308Y42545D01*
X50038D01*
X51562Y44069D02*
Y43053D01*
X50546Y44069D01*
X50292D01*
X50038Y43815D01*
Y43307D01*
X50292Y43053D01*
X39116Y38354D02*
X40386D01*
X40640Y38608D01*
Y39116D01*
X40386Y39370D01*
X39116D01*
X40640Y39878D02*
Y40386D01*
Y40132D01*
X39116D01*
X39370Y39878D01*
X61595Y30861D02*
X61341Y31115D01*
X60833D01*
X60580Y30861D01*
Y30607D01*
X60833Y30353D01*
X61341D01*
X61595Y30099D01*
Y29845D01*
X61341Y29591D01*
X60833D01*
X60580Y29845D01*
X62103Y31115D02*
Y29591D01*
X62611Y30099D01*
X63119Y29591D01*
Y31115D01*
X63627Y29591D02*
X64134D01*
X63881D01*
Y31115D01*
X63627Y30861D01*
X91413Y29134D02*
Y30657D01*
X92174D01*
X92428Y30403D01*
Y29895D01*
X92174Y29642D01*
X91413D01*
X91921D02*
X92428Y29134D01*
X93952Y30657D02*
X92936D01*
Y29134D01*
X93952D01*
X92936Y29895D02*
X93444D01*
X95475Y30403D02*
X95221Y30657D01*
X94714D01*
X94460Y30403D01*
Y29388D01*
X94714Y29134D01*
X95221D01*
X95475Y29388D01*
Y29895D01*
X94968D01*
X95983Y28880D02*
X96999D01*
X97507Y30403D02*
X97761Y30657D01*
X98269D01*
X98522Y30403D01*
Y30149D01*
X98269Y29895D01*
X98015D01*
X98269D01*
X98522Y29642D01*
Y29388D01*
X98269Y29134D01*
X97761D01*
X97507Y29388D01*
X99030Y30657D02*
Y29642D01*
X99538Y29134D01*
X100046Y29642D01*
Y30657D01*
X69300Y37587D02*
Y39110D01*
X70061D01*
X70315Y38856D01*
Y38348D01*
X70061Y38095D01*
X69300D01*
X69808D02*
X70315Y37587D01*
X71839Y39110D02*
X70823D01*
Y37587D01*
X71839D01*
X70823Y38348D02*
X71331D01*
X73362Y38856D02*
X73108Y39110D01*
X72601D01*
X72347Y38856D01*
Y37841D01*
X72601Y37587D01*
X73108D01*
X73362Y37841D01*
Y38348D01*
X72855D01*
X73870Y37333D02*
X74886D01*
X75394Y37587D02*
X75902D01*
X75648D01*
Y39110D01*
X75394Y38856D01*
X76663Y39110D02*
Y38095D01*
X77171Y37587D01*
X77679Y38095D01*
Y39110D01*
X51816Y31877D02*
X50292D01*
Y32639D01*
X50546Y32893D01*
X51054D01*
X51308Y32639D01*
Y31877D01*
Y32385D02*
X51816Y32893D01*
Y34417D02*
Y33401D01*
X50800Y34417D01*
X50546D01*
X50292Y34163D01*
Y33655D01*
X50546Y33401D01*
X42672Y34544D02*
X41148D01*
Y35306D01*
X41402Y35560D01*
X41910D01*
X42164Y35306D01*
Y34544D01*
Y35052D02*
X42672Y35560D01*
Y36068D02*
Y36576D01*
Y36322D01*
X41148D01*
X41402Y36068D01*
X126238Y37976D02*
Y37468D01*
X126492Y37214D01*
X127508D01*
X127762Y37468D01*
Y37976D01*
X127508Y38230D01*
X126492D01*
X126238Y37976D01*
Y38738D02*
X127762D01*
Y39754D01*
X126238Y41277D02*
Y40261D01*
X127762D01*
Y41277D01*
X127000Y40261D02*
Y40769D01*
X126238Y41785D02*
X127762D01*
Y42547D01*
X127508Y42801D01*
X126492D01*
X126238Y42547D01*
Y41785D01*
X128016Y43308D02*
Y44324D01*
X126492Y45848D02*
X126238Y45594D01*
Y45086D01*
X126492Y44832D01*
X127508D01*
X127762Y45086D01*
Y45594D01*
X127508Y45848D01*
X126238Y47117D02*
Y46609D01*
X126492Y46355D01*
X127508D01*
X127762Y46609D01*
Y47117D01*
X127508Y47371D01*
X126492D01*
X126238Y47117D01*
X127762Y47879D02*
X126238D01*
X127762Y48895D01*
X126238D01*
X127762Y49402D02*
X126238D01*
X127762Y50418D01*
X126238D01*
Y51942D02*
Y50926D01*
X127762D01*
Y51942D01*
X127000Y50926D02*
Y51434D01*
X126492Y53465D02*
X126238Y53211D01*
Y52703D01*
X126492Y52449D01*
X127508D01*
X127762Y52703D01*
Y53211D01*
X127508Y53465D01*
X126238Y53973D02*
Y54989D01*
Y54481D01*
X127762D01*
X126238Y56258D02*
Y55750D01*
X126492Y55496D01*
X127508D01*
X127762Y55750D01*
Y56258D01*
X127508Y56512D01*
X126492D01*
X126238Y56258D01*
X127762Y57020D02*
X126238D01*
Y57782D01*
X126492Y58036D01*
X127000D01*
X127254Y57782D01*
Y57020D01*
Y57528D02*
X127762Y58036D01*
X115317Y78994D02*
Y77470D01*
X116333D01*
X117856Y78994D02*
X116841D01*
Y77470D01*
X117856D01*
X116841Y78232D02*
X117348D01*
X118364Y78994D02*
Y77470D01*
X119126D01*
X119380Y77724D01*
Y78740D01*
X119126Y78994D01*
X118364D01*
X121411Y78740D02*
X121665Y78994D01*
X122173D01*
X122427Y78740D01*
Y78486D01*
X122173Y78232D01*
X122427Y77978D01*
Y77724D01*
X122173Y77470D01*
X121665D01*
X121411Y77724D01*
Y77978D01*
X121665Y78232D01*
X121411Y78486D01*
Y78740D01*
X121665Y78232D02*
X122173D01*
X115190Y83694D02*
Y82171D01*
X116206D01*
X117729Y83694D02*
X116714D01*
Y82171D01*
X117729D01*
X116714Y82933D02*
X117221D01*
X118237Y83694D02*
Y82171D01*
X118999D01*
X119253Y82425D01*
Y83440D01*
X118999Y83694D01*
X118237D01*
X121284D02*
X122300D01*
Y83440D01*
X121284Y82425D01*
Y82171D01*
X115190Y88392D02*
Y86868D01*
X116206D01*
X117729Y88392D02*
X116714D01*
Y86868D01*
X117729D01*
X116714Y87630D02*
X117221D01*
X118237Y88392D02*
Y86868D01*
X118999D01*
X119253Y87122D01*
Y88138D01*
X118999Y88392D01*
X118237D01*
X122300D02*
X121792Y88138D01*
X121284Y87630D01*
Y87122D01*
X121538Y86868D01*
X122046D01*
X122300Y87122D01*
Y87376D01*
X122046Y87630D01*
X121284D01*
X115190Y93091D02*
Y91567D01*
X116206D01*
X117729Y93091D02*
X116714D01*
Y91567D01*
X117729D01*
X116714Y92329D02*
X117221D01*
X118237Y93091D02*
Y91567D01*
X118999D01*
X119253Y91821D01*
Y92837D01*
X118999Y93091D01*
X118237D01*
X122300D02*
X121284D01*
Y92329D01*
X121792Y92583D01*
X122046D01*
X122300Y92329D01*
Y91821D01*
X122046Y91567D01*
X121538D01*
X121284Y91821D01*
X115317Y97790D02*
Y96266D01*
X116333D01*
X117856Y97790D02*
X116841D01*
Y96266D01*
X117856D01*
X116841Y97028D02*
X117348D01*
X118364Y97790D02*
Y96266D01*
X119126D01*
X119380Y96520D01*
Y97536D01*
X119126Y97790D01*
X118364D01*
X122173Y96266D02*
Y97790D01*
X121411Y97028D01*
X122427D01*
X115190Y102489D02*
Y100965D01*
X116206D01*
X117729Y102489D02*
X116714D01*
Y100965D01*
X117729D01*
X116714Y101727D02*
X117221D01*
X118237Y102489D02*
Y100965D01*
X118999D01*
X119253Y101219D01*
Y102235D01*
X118999Y102489D01*
X118237D01*
X121284Y102235D02*
X121538Y102489D01*
X122046D01*
X122300Y102235D01*
Y101981D01*
X122046Y101727D01*
X121792D01*
X122046D01*
X122300Y101473D01*
Y101219D01*
X122046Y100965D01*
X121538D01*
X121284Y101219D01*
X115317Y107197D02*
Y105674D01*
X116333D01*
X117856Y107197D02*
X116841D01*
Y105674D01*
X117856D01*
X116841Y106436D02*
X117348D01*
X118364Y107197D02*
Y105674D01*
X119126D01*
X119380Y105928D01*
Y106944D01*
X119126Y107197D01*
X118364D01*
X122427Y105674D02*
X121411D01*
X122427Y106690D01*
Y106944D01*
X122173Y107197D01*
X121665D01*
X121411Y106944D01*
X115317Y112025D02*
Y110502D01*
X116333D01*
X117856Y112025D02*
X116841D01*
Y110502D01*
X117856D01*
X116841Y111263D02*
X117348D01*
X118364Y112025D02*
Y110502D01*
X119126D01*
X119380Y110755D01*
Y111771D01*
X119126Y112025D01*
X118364D01*
X121411Y110502D02*
X121919D01*
X121665D01*
Y112025D01*
X121411Y111771D01*
X93221Y116459D02*
Y114935D01*
Y115697D01*
X94236D01*
Y116459D01*
Y114935D01*
X95760Y116459D02*
X94744D01*
Y114935D01*
X95760D01*
X94744Y115697D02*
X95252D01*
X96268Y114935D02*
Y115951D01*
X96775Y116459D01*
X97283Y115951D01*
Y114935D01*
Y115697D01*
X96268D01*
X97791Y116459D02*
Y114935D01*
X98553D01*
X98807Y115189D01*
Y116205D01*
X98553Y116459D01*
X97791D01*
X100330D02*
X99315D01*
Y114935D01*
X100330D01*
X99315Y115697D02*
X99822D01*
X100838Y114935D02*
Y116459D01*
X101600D01*
X101854Y116205D01*
Y115697D01*
X101600Y115443D01*
X100838D01*
X101346D02*
X101854Y114935D01*
X102362Y114681D02*
X103377D01*
X104901Y116205D02*
X104647Y116459D01*
X104139D01*
X103885Y116205D01*
Y115189D01*
X104139Y114935D01*
X104647D01*
X104901Y115189D01*
Y115697D01*
X104393D01*
X105409Y114935D02*
Y116459D01*
X106170D01*
X106424Y116205D01*
Y115697D01*
X106170Y115443D01*
X105409D01*
X106932Y116459D02*
X107440D01*
X107186D01*
Y114935D01*
X106932D01*
X107440D01*
X108964Y116459D02*
X108456D01*
X108202Y116205D01*
Y115189D01*
X108456Y114935D01*
X108964D01*
X109217Y115189D01*
Y116205D01*
X108964Y116459D01*
X38485Y57150D02*
Y55626D01*
Y56388D01*
X39501D01*
Y57150D01*
Y55626D01*
X41024Y57150D02*
X40008D01*
Y55626D01*
X41024D01*
X40008Y56388D02*
X40516D01*
X41532Y55626D02*
Y56642D01*
X42040Y57150D01*
X42548Y56642D01*
Y55626D01*
Y56388D01*
X41532D01*
X43055Y57150D02*
Y55626D01*
X43817D01*
X44071Y55880D01*
Y56896D01*
X43817Y57150D01*
X43055D01*
X45595D02*
X44579D01*
Y55626D01*
X45595D01*
X44579Y56388D02*
X45087D01*
X46102Y55626D02*
Y57150D01*
X46864D01*
X47118Y56896D01*
Y56388D01*
X46864Y56134D01*
X46102D01*
X46610D02*
X47118Y55626D01*
X47626Y55372D02*
X48642D01*
X50165Y56896D02*
X49911Y57150D01*
X49403D01*
X49149Y56896D01*
Y55880D01*
X49403Y55626D01*
X49911D01*
X50165Y55880D01*
X50673Y57150D02*
Y55626D01*
X51689D01*
X52196Y57150D02*
Y55626D01*
Y56134D01*
X53212Y57150D01*
X52450Y56388D01*
X53212Y55626D01*
X53720D02*
X54736Y56642D01*
X55243Y55626D02*
Y57150D01*
X56005D01*
X56259Y56896D01*
Y56388D01*
X56005Y56134D01*
X55243D01*
X55751D02*
X56259Y55626D01*
X57783Y57150D02*
X56767D01*
Y55626D01*
X57783D01*
X56767Y56388D02*
X57275D01*
X59306Y56896D02*
X59052Y57150D01*
X58544D01*
X58290Y56896D01*
Y56642D01*
X58544Y56388D01*
X59052D01*
X59306Y56134D01*
Y55880D01*
X59052Y55626D01*
X58544D01*
X58290Y55880D01*
X60830Y57150D02*
X59814D01*
Y55626D01*
X60830D01*
X59814Y56388D02*
X60322D01*
X61337Y57150D02*
X62353D01*
X61845D01*
Y55626D01*
X41657Y116840D02*
X40641D01*
Y116078D01*
X41149D01*
X40641D01*
Y115316D01*
X42165Y116840D02*
Y115316D01*
X43180D01*
X43688D02*
Y116332D01*
X44196Y116840D01*
X44704Y116332D01*
Y115316D01*
Y116078D01*
X43688D01*
X46227Y116586D02*
X45973Y116840D01*
X45466D01*
X45212Y116586D01*
Y116332D01*
X45466Y116078D01*
X45973D01*
X46227Y115824D01*
Y115570D01*
X45973Y115316D01*
X45466D01*
X45212Y115570D01*
X46735Y116840D02*
Y115316D01*
Y116078D01*
X47751D01*
Y116840D01*
Y115316D01*
X110490Y49276D02*
X110236Y49530D01*
X109729D01*
X109475Y49276D01*
Y48260D01*
X109729Y48006D01*
X110236D01*
X110490Y48260D01*
X110998Y48006D02*
X111506D01*
X111252D01*
Y49530D01*
X110998Y49276D01*
X113283Y49530D02*
X112776Y49276D01*
X112268Y48768D01*
Y48260D01*
X112522Y48006D01*
X113029D01*
X113283Y48260D01*
Y48514D01*
X113029Y48768D01*
X112268D01*
X104357Y52959D02*
X104103Y53213D01*
X103595D01*
X103341Y52959D01*
Y51943D01*
X103595Y51689D01*
X104103D01*
X104357Y51943D01*
X104865Y51689D02*
X105373D01*
X105119D01*
Y53213D01*
X104865Y52959D01*
X107150Y53213D02*
X106135D01*
Y52451D01*
X106642Y52705D01*
X106896D01*
X107150Y52451D01*
Y51943D01*
X106896Y51689D01*
X106388D01*
X106135Y51943D01*
X107569Y61595D02*
X107315Y61849D01*
X106808D01*
X106554Y61595D01*
Y60579D01*
X106808Y60325D01*
X107315D01*
X107569Y60579D01*
X108077Y60325D02*
X108585D01*
X108331D01*
Y61849D01*
X108077Y61595D01*
X110108Y60325D02*
Y61849D01*
X109347Y61087D01*
X110362D01*
X104394Y68580D02*
X104140Y68834D01*
X103633D01*
X103379Y68580D01*
Y67564D01*
X103633Y67310D01*
X104140D01*
X104394Y67564D01*
X104902Y67310D02*
X105410D01*
X105156D01*
Y68834D01*
X104902Y68580D01*
X106172D02*
X106426Y68834D01*
X106933D01*
X107187Y68580D01*
Y68326D01*
X106933Y68072D01*
X106680D01*
X106933D01*
X107187Y67818D01*
Y67564D01*
X106933Y67310D01*
X106426D01*
X106172Y67564D01*
X48260Y41275D02*
X48006Y41021D01*
Y40513D01*
X48260Y40260D01*
X49276D01*
X49530Y40513D01*
Y41021D01*
X49276Y41275D01*
X49530Y41783D02*
Y42291D01*
Y42037D01*
X48006D01*
X48260Y41783D01*
X49530Y43053D02*
Y43560D01*
Y43307D01*
X48006D01*
X48260Y43053D01*
X45212Y41235D02*
X44958Y40981D01*
Y40474D01*
X45212Y40220D01*
X46228D01*
X46482Y40474D01*
Y40981D01*
X46228Y41235D01*
X46482Y41743D02*
Y42251D01*
Y41997D01*
X44958D01*
X45212Y41743D01*
Y43013D02*
X44958Y43267D01*
Y43774D01*
X45212Y44028D01*
X46228D01*
X46482Y43774D01*
Y43267D01*
X46228Y43013D01*
X45212D01*
X95983Y37515D02*
X95729Y37769D01*
X95222D01*
X94968Y37515D01*
Y36500D01*
X95222Y36246D01*
X95729D01*
X95983Y36500D01*
X96491D02*
X96745Y36246D01*
X97253D01*
X97507Y36500D01*
Y37515D01*
X97253Y37769D01*
X96745D01*
X96491Y37515D01*
Y37261D01*
X96745Y37007D01*
X97507D01*
X99695Y36296D02*
X99441Y36550D01*
X98933D01*
X98679Y36296D01*
Y35280D01*
X98933Y35026D01*
X99441D01*
X99695Y35280D01*
X100203Y36296D02*
X100457Y36550D01*
X100965D01*
X101219Y36296D01*
Y36042D01*
X100965Y35788D01*
X101219Y35534D01*
Y35280D01*
X100965Y35026D01*
X100457D01*
X100203Y35280D01*
Y35534D01*
X100457Y35788D01*
X100203Y36042D01*
Y36296D01*
X100457Y35788D02*
X100965D01*
X92202Y36169D02*
X91948Y36423D01*
X91440D01*
X91186Y36169D01*
Y35153D01*
X91440Y34899D01*
X91948D01*
X92202Y35153D01*
X92710Y36423D02*
X93726D01*
Y36169D01*
X92710Y35153D01*
Y34899D01*
X84286Y37739D02*
X84032Y37992D01*
X83524D01*
X83270Y37739D01*
Y36723D01*
X83524Y36469D01*
X84032D01*
X84286Y36723D01*
X85810Y37992D02*
X85302Y37739D01*
X84794Y37231D01*
Y36723D01*
X85048Y36469D01*
X85556D01*
X85810Y36723D01*
Y36977D01*
X85556Y37231D01*
X84794D01*
X87969Y35961D02*
X87715Y36214D01*
X87207D01*
X86953Y35961D01*
Y34945D01*
X87207Y34691D01*
X87715D01*
X87969Y34945D01*
X89493Y36214D02*
X88477D01*
Y35453D01*
X88985Y35707D01*
X89239D01*
X89493Y35453D01*
Y34945D01*
X89239Y34691D01*
X88731D01*
X88477Y34945D01*
X80137Y35560D02*
X79883Y35814D01*
X79375D01*
X79121Y35560D01*
Y34544D01*
X79375Y34290D01*
X79883D01*
X80137Y34544D01*
X81407Y34290D02*
Y35814D01*
X80645Y35052D01*
X81661D01*
X68199Y35901D02*
X67945Y36155D01*
X67437D01*
X67183Y35901D01*
Y34885D01*
X67437Y34631D01*
X67945D01*
X68199Y34885D01*
X68707Y35901D02*
X68961Y36155D01*
X69469D01*
X69723Y35901D01*
Y35647D01*
X69469Y35393D01*
X69215D01*
X69469D01*
X69723Y35139D01*
Y34885D01*
X69469Y34631D01*
X68961D01*
X68707Y34885D01*
X76454Y33401D02*
X76200Y33655D01*
X75692D01*
X75438Y33401D01*
Y32385D01*
X75692Y32131D01*
X76200D01*
X76454Y32385D01*
X77978Y32131D02*
X76962D01*
X77978Y33147D01*
Y33401D01*
X77724Y33655D01*
X77216D01*
X76962Y33401D01*
X73758Y30048D02*
X73504Y30302D01*
X72997D01*
X72743Y30048D01*
Y29033D01*
X72997Y28779D01*
X73504D01*
X73758Y29033D01*
X74266Y28779D02*
X74774D01*
X74520D01*
Y30302D01*
X74266Y30048D01*
X54102Y32639D02*
X55626D01*
Y33401D01*
X55372Y33655D01*
X55118D01*
X54864Y33401D01*
Y32639D01*
Y33401D01*
X54610Y33655D01*
X54356D01*
X54102Y33401D01*
Y32639D01*
X55626Y34163D02*
Y34671D01*
Y34417D01*
X54102D01*
X54356Y34163D01*
D17*
X124115Y47752D02*
D03*
X93563Y84582D02*
D03*
D18*
X75565Y45811D02*
D03*
D19*
X119975Y94622D02*
D03*
Y75819D02*
D03*
Y85220D02*
D03*
X119999Y108723D02*
D03*
X119975Y99322D02*
D03*
Y89921D02*
D03*
D20*
X119999Y104023D02*
D03*
X119975Y80520D02*
D03*
D21*
X47498Y46192D02*
D03*
M02*
