G04*
G04 #@! TF.GenerationSoftware,Altium Limited,Altium Designer,26.5.1 (12)*
G04*
G04 Layer_Color=8388736*
G04 Board_Origin=0|0*
%FSLAX43Y43*%
%MOMM*%
G71*
G04*
G04 #@! TF.SameCoordinates,8520594B-97C6-4304-984B-58ABFC214B16*
G04*
G04*
G04 #@! TF.FilePolarity,Negative*
G04*
G01*
G75*
%ADD22R,1.017X0.949*%
%ADD23R,1.400X1.600*%
%ADD25R,1.000X0.850*%
G04:AMPARAMS|DCode=26|XSize=1.19mm|YSize=0.4mm|CornerRadius=0.1mm|HoleSize=0mm|Usage=FLASHONLY|Rotation=0.000|XOffset=0mm|YOffset=0mm|HoleType=Round|Shape=RoundedRectangle|*
%AMROUNDEDRECTD26*
21,1,1.190,0.200,0,0,0.0*
21,1,0.990,0.400,0,0,0.0*
1,1,0.200,0.495,-0.100*
1,1,0.200,-0.495,-0.100*
1,1,0.200,-0.495,0.100*
1,1,0.200,0.495,0.100*
%
%ADD26ROUNDEDRECTD26*%
%ADD28R,0.690X0.990*%
%ADD29R,1.000X1.200*%
%ADD30R,0.850X1.000*%
G04:AMPARAMS|DCode=31|XSize=1.16mm|YSize=0.237mm|CornerRadius=0.118mm|HoleSize=0mm|Usage=FLASHONLY|Rotation=270.000|XOffset=0mm|YOffset=0mm|HoleType=Round|Shape=RoundedRectangle|*
%AMROUNDEDRECTD31*
21,1,1.160,0.000,0,0,270.0*
21,1,0.924,0.237,0,0,270.0*
1,1,0.237,0.000,-0.462*
1,1,0.237,0.000,0.462*
1,1,0.237,0.000,0.462*
1,1,0.237,0.000,-0.462*
%
%ADD31ROUNDEDRECTD31*%
%ADD32R,0.237X1.160*%
%ADD33R,0.700X0.600*%
%ADD34R,0.700X1.000*%
%ADD35R,0.950X1.450*%
%ADD36R,1.150X0.350*%
G04:AMPARAMS|DCode=37|XSize=0.45mm|YSize=1.05mm|CornerRadius=0.05mm|HoleSize=0mm|Usage=FLASHONLY|Rotation=180.000|XOffset=0mm|YOffset=0mm|HoleType=Round|Shape=RoundedRectangle|*
%AMROUNDEDRECTD37*
21,1,0.450,0.951,0,0,180.0*
21,1,0.351,1.050,0,0,180.0*
1,1,0.099,-0.176,0.476*
1,1,0.099,0.176,0.476*
1,1,0.099,0.176,-0.476*
1,1,0.099,-0.176,-0.476*
%
%ADD37ROUNDEDRECTD37*%
%ADD38R,0.504X0.904*%
%ADD39R,0.904X0.504*%
G04:AMPARAMS|DCode=40|XSize=1.6mm|YSize=1.6mm|CornerRadius=0.4mm|HoleSize=0mm|Usage=FLASHONLY|Rotation=0.000|XOffset=0mm|YOffset=0mm|HoleType=Round|Shape=RoundedRectangle|*
%AMROUNDEDRECTD40*
21,1,1.600,0.800,0,0,0.0*
21,1,0.800,1.600,0,0,0.0*
1,1,0.800,0.400,-0.400*
1,1,0.800,-0.400,-0.400*
1,1,0.800,-0.400,0.400*
1,1,0.800,0.400,0.400*
%
%ADD40ROUNDEDRECTD40*%
%ADD41C,1.600*%
G04:AMPARAMS|DCode=42|XSize=1.6mm|YSize=1.6mm|CornerRadius=0.4mm|HoleSize=0mm|Usage=FLASHONLY|Rotation=90.000|XOffset=0mm|YOffset=0mm|HoleType=Round|Shape=RoundedRectangle|*
%AMROUNDEDRECTD42*
21,1,1.600,0.800,0,0,90.0*
21,1,0.800,1.600,0,0,90.0*
1,1,0.800,0.400,0.400*
1,1,0.800,0.400,-0.400*
1,1,0.800,-0.400,-0.400*
1,1,0.800,-0.400,0.400*
%
%ADD42ROUNDEDRECTD42*%
%ADD43C,1.550*%
%ADD44R,1.550X1.550*%
%ADD45R,1.500X1.500*%
%ADD46C,1.500*%
%ADD47C,1.703*%
%ADD48C,1.575*%
%ADD49C,1.524*%
%ADD50C,1.270*%
D22*
X244248Y99977D02*
D03*
X245718D02*
D03*
X244248Y95277D02*
D03*
X245718D02*
D03*
X244248Y128181D02*
D03*
X245718D02*
D03*
X244248Y123480D02*
D03*
X245718D02*
D03*
X244248Y118780D02*
D03*
X245718D02*
D03*
X244248Y114079D02*
D03*
X245718D02*
D03*
X244248Y109379D02*
D03*
X245718D02*
D03*
X244248Y104678D02*
D03*
X245718D02*
D03*
D23*
X238911Y114179D02*
D03*
X241911D02*
D03*
X238911Y109479D02*
D03*
X241911D02*
D03*
X238911Y104778D02*
D03*
X241911D02*
D03*
X238911Y100078D02*
D03*
X241911D02*
D03*
X238911Y95377D02*
D03*
X241911D02*
D03*
X238935Y128281D02*
D03*
X241935D02*
D03*
X238935Y123581D02*
D03*
X241935D02*
D03*
X238911Y118880D02*
D03*
X241911D02*
D03*
D25*
X179451Y42545D02*
D03*
Y41195D02*
D03*
X204470Y39370D02*
D03*
Y38020D02*
D03*
X182372Y42585D02*
D03*
Y41235D02*
D03*
X234569Y81280D02*
D03*
Y79930D02*
D03*
X220655Y36585D02*
D03*
Y35235D02*
D03*
X234569Y71755D02*
D03*
Y70405D02*
D03*
X210029Y39486D02*
D03*
Y38137D02*
D03*
X226793Y35484D02*
D03*
Y36833D02*
D03*
X232762Y36793D02*
D03*
Y35444D02*
D03*
X213995Y36489D02*
D03*
Y35139D02*
D03*
D26*
X228754Y36768D02*
D03*
X230674D02*
D03*
X228754Y35469D02*
D03*
X230674D02*
D03*
X228754Y36118D02*
D03*
D28*
X175453Y44221D02*
D03*
X177353D02*
D03*
Y41631D02*
D03*
X175453D02*
D03*
X176403Y44221D02*
D03*
Y41631D02*
D03*
D29*
X179515Y36322D02*
D03*
X181165Y33782D02*
D03*
X179515D02*
D03*
X181165Y36322D02*
D03*
D30*
X232744Y87376D02*
D03*
X231394D02*
D03*
X232704Y72009D02*
D03*
X231354D02*
D03*
X218790Y38577D02*
D03*
X217440D02*
D03*
X207910Y34875D02*
D03*
X206560D02*
D03*
X189524Y43688D02*
D03*
X188174D02*
D03*
X230389Y38659D02*
D03*
X229039D02*
D03*
D31*
X234057Y73808D02*
D03*
X233057D02*
D03*
Y76560D02*
D03*
X233557D02*
D03*
Y73808D02*
D03*
X234557D02*
D03*
X234057Y76560D02*
D03*
X234057Y83079D02*
D03*
X233057D02*
D03*
Y85831D02*
D03*
X233557Y83079D02*
D03*
Y85831D02*
D03*
X234057D02*
D03*
X234557Y83079D02*
D03*
D32*
X234557Y76560D02*
D03*
X234557Y85831D02*
D03*
D33*
X189539Y39401D02*
D03*
X187539D02*
D03*
X189539Y41301D02*
D03*
D34*
X187539Y41101D02*
D03*
D35*
X183810Y39370D02*
D03*
X185760D02*
D03*
X177460Y39116D02*
D03*
X179410D02*
D03*
D36*
X218378Y36560D02*
D03*
Y35260D02*
D03*
X216328D02*
D03*
Y36560D02*
D03*
Y35910D02*
D03*
D37*
X206570Y39319D02*
D03*
X207870D02*
D03*
Y36870D02*
D03*
X206570D02*
D03*
X207220D02*
D03*
D38*
X183754Y43522D02*
D03*
X185054D02*
D03*
X183754Y41822D02*
D03*
X184404Y43522D02*
D03*
X185054Y41822D02*
D03*
X184404D02*
D03*
D39*
X229020Y126985D02*
D03*
Y128285D02*
D03*
X230720Y126985D02*
D03*
Y128285D02*
D03*
Y127635D02*
D03*
X229020D02*
D03*
X228893Y113045D02*
D03*
Y111745D02*
D03*
X230593D02*
D03*
Y113045D02*
D03*
Y112395D02*
D03*
X228893D02*
D03*
X229020Y123205D02*
D03*
Y121905D02*
D03*
X230720D02*
D03*
Y123205D02*
D03*
Y122555D02*
D03*
X229020D02*
D03*
X228932Y116810D02*
D03*
Y118110D02*
D03*
X230632D02*
D03*
Y116810D02*
D03*
Y117460D02*
D03*
X228932D02*
D03*
D40*
X177292Y52451D02*
D03*
X205359Y52070D02*
D03*
D41*
X179832Y52451D02*
D03*
X182372D02*
D03*
X184912D02*
D03*
X182372Y54991D02*
D03*
X184912D02*
D03*
X179832D02*
D03*
X177292D02*
D03*
X241681Y71120D02*
D03*
Y63500D02*
D03*
X244221Y66040D02*
D03*
Y68580D02*
D03*
X241681Y66040D02*
D03*
Y68580D02*
D03*
X244221Y71120D02*
D03*
X221869Y120650D02*
D03*
Y123190D02*
D03*
Y110490D02*
D03*
Y128270D02*
D03*
Y125730D02*
D03*
Y118110D02*
D03*
Y115570D02*
D03*
Y113030D02*
D03*
X219329Y97790D02*
D03*
Y95250D02*
D03*
Y92710D02*
D03*
Y90170D02*
D03*
X221869Y82550D02*
D03*
Y80010D02*
D03*
Y87630D02*
D03*
Y85090D02*
D03*
X219329Y123190D02*
D03*
Y82550D02*
D03*
Y113030D02*
D03*
Y100330D02*
D03*
Y125730D02*
D03*
Y85090D02*
D03*
Y102870D02*
D03*
Y110490D02*
D03*
Y87630D02*
D03*
Y107950D02*
D03*
Y115570D02*
D03*
Y118110D02*
D03*
Y105410D02*
D03*
Y120650D02*
D03*
Y80010D02*
D03*
X221869Y97790D02*
D03*
Y100330D02*
D03*
Y102870D02*
D03*
Y90170D02*
D03*
Y105410D02*
D03*
Y92710D02*
D03*
Y95250D02*
D03*
Y107950D02*
D03*
X207899Y54610D02*
D03*
X205359D02*
D03*
X207899Y52070D02*
D03*
X210439D02*
D03*
X212979D02*
D03*
X210439Y54610D02*
D03*
X212979D02*
D03*
D42*
X244221Y63500D02*
D03*
X219329Y128270D02*
D03*
D43*
X174625Y131826D02*
D03*
X182245Y126746D02*
D03*
X174625Y129286D02*
D03*
X182245Y131826D02*
D03*
Y129286D02*
D03*
X174625Y126746D02*
D03*
Y124206D02*
D03*
D44*
X182245D02*
D03*
D45*
X192711Y40477D02*
D03*
D46*
X199211D02*
D03*
Y35977D02*
D03*
D47*
X192711D02*
D03*
D48*
X206375Y114173D02*
D03*
Y111633D02*
D03*
Y109093D02*
D03*
Y106553D02*
D03*
X182275Y114173D02*
D03*
X203215Y93233D02*
D03*
X206375Y96393D02*
D03*
Y104013D02*
D03*
Y101473D02*
D03*
Y98933D02*
D03*
X182275Y111633D02*
D03*
Y104013D02*
D03*
Y106553D02*
D03*
Y101473D02*
D03*
Y98933D02*
D03*
Y96393D02*
D03*
Y109093D02*
D03*
X185435Y93233D02*
D03*
X190515D02*
D03*
X193055D02*
D03*
X187975D02*
D03*
X200675D02*
D03*
X195595D02*
D03*
X198135D02*
D03*
D49*
X185435Y117333D02*
D03*
X187975D02*
D03*
X190515D02*
D03*
X193055D02*
D03*
X195595D02*
D03*
X198135D02*
D03*
X200675D02*
D03*
X203215D02*
D03*
D50*
X235863Y109479D02*
D03*
Y104878D02*
D03*
X235839Y114173D02*
D03*
X236333Y79931D02*
D03*
X235863Y95377D02*
D03*
Y100078D02*
D03*
Y118980D02*
D03*
X235839Y128270D02*
D03*
X193421Y43688D02*
D03*
X235887Y123681D02*
D03*
X236347Y70358D02*
D03*
X234627Y78544D02*
D03*
X191874Y99418D02*
D03*
X191897Y102235D02*
D03*
M02*
