G04*
G04 #@! TF.GenerationSoftware,Altium Limited,Altium Designer,26.5.1 (12)*
G04*
G04 Layer_Physical_Order=2*
G04 Layer_Color=16711680*
G04 Board_Origin=0|0*
%FSLAX43Y43*%
%MOMM*%
G71*
G04*
G04 #@! TF.SameCoordinates,8520594B-97C6-4304-984B-58ABFC214B16*
G04*
G04*
G04 #@! TF.FilePolarity,Positive*
G04*
G01*
G75*
G04:AMPARAMS|DCode=40|XSize=1.6mm|YSize=1.6mm|CornerRadius=0.4mm|HoleSize=0mm|Usage=FLASHONLY|Rotation=0.000|XOffset=0mm|YOffset=0mm|HoleType=Round|Shape=RoundedRectangle|*
%AMROUNDEDRECTD40*
21,1,1.600,0.800,0,0,0.0*
21,1,0.800,1.600,0,0,0.0*
1,1,0.800,0.400,-0.400*
1,1,0.800,-0.400,-0.400*
1,1,0.800,-0.400,0.400*
1,1,0.800,0.400,0.400*
%
%ADD40ROUNDEDRECTD40*%
%ADD41C,1.600*%
G04:AMPARAMS|DCode=42|XSize=1.6mm|YSize=1.6mm|CornerRadius=0.4mm|HoleSize=0mm|Usage=FLASHONLY|Rotation=90.000|XOffset=0mm|YOffset=0mm|HoleType=Round|Shape=RoundedRectangle|*
%AMROUNDEDRECTD42*
21,1,1.600,0.800,0,0,90.0*
21,1,0.800,1.600,0,0,90.0*
1,1,0.800,0.400,0.400*
1,1,0.800,0.400,-0.400*
1,1,0.800,-0.400,-0.400*
1,1,0.800,-0.400,0.400*
%
%ADD42ROUNDEDRECTD42*%
%ADD43C,1.550*%
%ADD44R,1.550X1.550*%
%ADD45R,1.500X1.500*%
%ADD46C,1.500*%
%ADD48C,1.575*%
%ADD49C,1.524*%
%ADD50C,1.270*%
%ADD51C,0.381*%
G36*
X250999Y27019D02*
X171450D01*
Y136652D01*
X250999D01*
Y27019D01*
D02*
G37*
%LPC*%
G36*
X174754Y132804D02*
X174496D01*
X174247Y132738D01*
X174024Y132609D01*
X173842Y132427D01*
X173713Y132204D01*
X173647Y131955D01*
Y131697D01*
X173713Y131448D01*
X173842Y131225D01*
X174024Y131043D01*
X174247Y130914D01*
X174496Y130848D01*
X174754D01*
X175003Y130914D01*
X175226Y131043D01*
X175408Y131225D01*
X175537Y131448D01*
X175603Y131697D01*
Y131955D01*
X175537Y132204D01*
X175408Y132427D01*
X175226Y132609D01*
X175003Y132738D01*
X174754Y132804D01*
D02*
G37*
G36*
X182374D02*
X182116D01*
X181867Y132738D01*
X181644Y132609D01*
X181462Y132427D01*
X181333Y132204D01*
X181267Y131955D01*
Y131697D01*
X181333Y131448D01*
X181462Y131225D01*
X181644Y131043D01*
X181844Y130928D01*
Y130184D01*
X181644Y130069D01*
X181462Y129887D01*
X181347Y129687D01*
X177165D01*
X177011Y129657D01*
X176881Y129570D01*
X174976Y127665D01*
X174754Y127724D01*
X174496D01*
X174247Y127658D01*
X174112Y127579D01*
X173858Y127697D01*
Y127951D01*
X174274Y128367D01*
X174496Y128308D01*
X174754D01*
X175003Y128374D01*
X175226Y128503D01*
X175408Y128685D01*
X175537Y128908D01*
X175603Y129157D01*
Y129415D01*
X175537Y129664D01*
X175408Y129887D01*
X175226Y130069D01*
X175003Y130198D01*
X174754Y130264D01*
X174496D01*
X174247Y130198D01*
X174024Y130069D01*
X173842Y129887D01*
X173713Y129664D01*
X173647Y129415D01*
Y129157D01*
X173706Y128935D01*
X173172Y128401D01*
X173085Y128271D01*
X173055Y128117D01*
Y110292D01*
X173085Y110138D01*
X173172Y110008D01*
X181346Y101834D01*
X181284Y101603D01*
Y101343D01*
X181352Y101091D01*
X181482Y100865D01*
X181667Y100680D01*
X181893Y100550D01*
X182145Y100482D01*
X182405D01*
X182657Y100550D01*
X182883Y100680D01*
X183068Y100865D01*
X183198Y101091D01*
X183266Y101343D01*
Y101603D01*
X183198Y101855D01*
X183115Y101999D01*
X183230Y102253D01*
X184355D01*
X192264Y94344D01*
X192369Y94274D01*
X192401Y94171D01*
X192415Y93994D01*
X192262Y93841D01*
X192132Y93615D01*
X192064Y93363D01*
Y93103D01*
X192132Y92851D01*
X192262Y92625D01*
X192447Y92440D01*
X192673Y92310D01*
X192925Y92242D01*
X193185D01*
X193437Y92310D01*
X193663Y92440D01*
X193848Y92625D01*
X193978Y92851D01*
X194046Y93103D01*
Y93363D01*
X193978Y93615D01*
X193848Y93841D01*
X193717Y93972D01*
X193783Y94195D01*
X193805Y94226D01*
X194845D01*
X194867Y94195D01*
X194933Y93972D01*
X194802Y93841D01*
X194672Y93615D01*
X194604Y93363D01*
Y93103D01*
X194672Y92851D01*
X194802Y92625D01*
X194987Y92440D01*
X195213Y92310D01*
X195465Y92242D01*
X195725D01*
X195977Y92310D01*
X196203Y92440D01*
X196388Y92625D01*
X196518Y92851D01*
X196586Y93103D01*
Y93363D01*
X196518Y93615D01*
X196388Y93841D01*
X196257Y93972D01*
X196323Y94195D01*
X196345Y94226D01*
X197385D01*
X197407Y94195D01*
X197473Y93972D01*
X197342Y93841D01*
X197212Y93615D01*
X197144Y93363D01*
Y93103D01*
X197206Y92872D01*
X177008Y72674D01*
X176921Y72544D01*
X176891Y72390D01*
Y56035D01*
X176753Y55948D01*
X176500Y56076D01*
Y78650D01*
X190154Y92304D01*
X190385Y92242D01*
X190645D01*
X190897Y92310D01*
X191123Y92440D01*
X191308Y92625D01*
X191438Y92851D01*
X191506Y93103D01*
Y93363D01*
X191438Y93615D01*
X191308Y93841D01*
X191123Y94026D01*
X190897Y94156D01*
X190645Y94224D01*
X190385D01*
X190133Y94156D01*
X189907Y94026D01*
X189722Y93841D01*
X189592Y93615D01*
X189524Y93363D01*
Y93103D01*
X189586Y92872D01*
X175814Y79100D01*
X175727Y78970D01*
X175697Y78816D01*
Y54497D01*
X175727Y54343D01*
X175814Y54213D01*
X176444Y53583D01*
X176456Y53317D01*
X176439Y53258D01*
X176324Y53086D01*
X176277Y52851D01*
Y52051D01*
X176324Y51816D01*
X176457Y51616D01*
X176657Y51483D01*
X176892Y51436D01*
X177692D01*
X177927Y51483D01*
X178127Y51616D01*
X178260Y51816D01*
X178307Y52051D01*
Y52851D01*
X178260Y53086D01*
X178223Y53142D01*
X178359Y53396D01*
X178638D01*
X178792Y53426D01*
X178922Y53513D01*
X179461Y54052D01*
X179700Y53988D01*
X179964D01*
X180219Y54056D01*
X180448Y54188D01*
X180635Y54375D01*
X180767Y54604D01*
X180835Y54859D01*
Y55123D01*
X180767Y55378D01*
X180635Y55607D01*
X180448Y55794D01*
X180219Y55926D01*
X179964Y55994D01*
X179700D01*
X179445Y55926D01*
X179216Y55794D01*
X179029Y55607D01*
X178897Y55378D01*
X178829Y55123D01*
Y54859D01*
X178893Y54620D01*
X178485Y54212D01*
X178243Y54236D01*
X178140Y54454D01*
X178227Y54604D01*
X178295Y54859D01*
Y55123D01*
X178227Y55378D01*
X178095Y55607D01*
X177908Y55794D01*
X177693Y55918D01*
Y72224D01*
X197774Y92304D01*
X198005Y92242D01*
X198265D01*
X198517Y92310D01*
X198743Y92440D01*
X198928Y92625D01*
X199058Y92851D01*
X199126Y93103D01*
Y93363D01*
X199058Y93615D01*
X198928Y93841D01*
X198797Y93972D01*
X198863Y94195D01*
X198885Y94226D01*
X199925D01*
X199947Y94195D01*
X200013Y93972D01*
X199882Y93841D01*
X199752Y93615D01*
X199684Y93363D01*
Y93103D01*
X199752Y92851D01*
X199882Y92625D01*
X200067Y92440D01*
X200293Y92310D01*
X200545Y92242D01*
X200805D01*
X201036Y92304D01*
X207498Y85843D01*
Y55537D01*
X207283Y55413D01*
X207096Y55226D01*
X206964Y54997D01*
X206896Y54742D01*
Y54478D01*
X206964Y54223D01*
X207096Y53994D01*
X207171Y53919D01*
X207066Y53665D01*
X206192D01*
X206087Y53919D01*
X206162Y53994D01*
X206294Y54223D01*
X206362Y54478D01*
Y54742D01*
X206294Y54997D01*
X206162Y55226D01*
X205975Y55413D01*
X205746Y55545D01*
X205491Y55613D01*
X205227D01*
X204972Y55545D01*
X204743Y55413D01*
X204556Y55226D01*
X204424Y54997D01*
X204356Y54742D01*
Y54478D01*
X204424Y54223D01*
X204556Y53994D01*
X204631Y53919D01*
X204526Y53665D01*
X202997D01*
X202843Y53635D01*
X202713Y53548D01*
X193658Y44492D01*
X193531Y44526D01*
X193311D01*
X193097Y44469D01*
X192906Y44359D01*
X192750Y44203D01*
X192640Y44012D01*
X192583Y43798D01*
Y43578D01*
X192640Y43364D01*
X192750Y43173D01*
X192906Y43017D01*
X193097Y42907D01*
X193311Y42850D01*
X193531D01*
X193745Y42907D01*
X193936Y43017D01*
X194092Y43173D01*
X194202Y43364D01*
X194259Y43578D01*
Y43798D01*
X194225Y43925D01*
X203163Y52862D01*
X204213D01*
X204371Y52608D01*
X204344Y52470D01*
Y51670D01*
X204391Y51435D01*
X204524Y51235D01*
X204724Y51102D01*
X204959Y51055D01*
X205759D01*
X205994Y51102D01*
X206194Y51235D01*
X206327Y51435D01*
X206374Y51670D01*
Y52470D01*
X206347Y52608D01*
X206505Y52862D01*
X206941D01*
X207051Y52608D01*
X206964Y52457D01*
X206896Y52202D01*
Y51938D01*
X206964Y51683D01*
X207096Y51454D01*
X207283Y51267D01*
X207512Y51135D01*
X207767Y51067D01*
X208031D01*
X208286Y51135D01*
X208515Y51267D01*
X208702Y51454D01*
X208834Y51683D01*
X208902Y51938D01*
Y52202D01*
X208834Y52457D01*
X208747Y52608D01*
X208857Y52862D01*
X209093D01*
X209246Y52893D01*
X209377Y52980D01*
X210068Y53671D01*
X210307Y53607D01*
X210571D01*
X210826Y53675D01*
X211055Y53807D01*
X211242Y53994D01*
X211374Y54223D01*
X211442Y54478D01*
Y54742D01*
X211374Y54997D01*
X211242Y55226D01*
X211055Y55413D01*
X210826Y55545D01*
X210571Y55613D01*
X210307D01*
X210052Y55545D01*
X209823Y55413D01*
X209636Y55226D01*
X209504Y54997D01*
X209436Y54742D01*
Y54478D01*
X209500Y54239D01*
X208967Y53705D01*
X208779Y53728D01*
X208683Y53975D01*
X208702Y53994D01*
X208834Y54223D01*
X208902Y54478D01*
Y54742D01*
X208834Y54997D01*
X208702Y55226D01*
X208515Y55413D01*
X208300Y55537D01*
Y86009D01*
X208270Y86163D01*
X208183Y86293D01*
X201604Y92872D01*
X201666Y93103D01*
Y93363D01*
X201598Y93615D01*
X201468Y93841D01*
X201337Y93972D01*
X201403Y94195D01*
X201425Y94226D01*
X202465D01*
X202487Y94195D01*
X202553Y93972D01*
X202422Y93841D01*
X202292Y93615D01*
X202224Y93363D01*
Y93103D01*
X202292Y92851D01*
X202422Y92625D01*
X202607Y92440D01*
X202833Y92310D01*
X203085Y92242D01*
X203345D01*
X203597Y92310D01*
X203823Y92440D01*
X204008Y92625D01*
X204138Y92851D01*
X204206Y93103D01*
Y93363D01*
X204138Y93615D01*
X204008Y93841D01*
X203877Y93972D01*
X203943Y94195D01*
X203965Y94226D01*
X209625D01*
X218390Y85461D01*
X218326Y85222D01*
Y84958D01*
X218394Y84703D01*
X218526Y84474D01*
X218713Y84287D01*
X218942Y84155D01*
X219197Y84087D01*
X219461D01*
X219716Y84155D01*
X219866Y84242D01*
X220084Y84139D01*
X220108Y83897D01*
X219700Y83489D01*
X219461Y83553D01*
X219197D01*
X218942Y83485D01*
X218713Y83353D01*
X218526Y83166D01*
X218394Y82937D01*
X218326Y82682D01*
Y82418D01*
X218394Y82163D01*
X218526Y81934D01*
X218713Y81747D01*
X218942Y81615D01*
X219197Y81547D01*
X219461D01*
X219716Y81615D01*
X219945Y81747D01*
X220132Y81934D01*
X220264Y82163D01*
X220332Y82418D01*
Y82682D01*
X220268Y82921D01*
X220807Y83460D01*
X220894Y83590D01*
X220924Y83744D01*
Y84257D01*
X221178Y84362D01*
X221253Y84287D01*
X221482Y84155D01*
X221737Y84087D01*
X222001D01*
X222256Y84155D01*
X222485Y84287D01*
X222672Y84474D01*
X222804Y84703D01*
X222872Y84958D01*
Y85222D01*
X222804Y85477D01*
X222672Y85706D01*
X222485Y85893D01*
X222256Y86025D01*
X222001Y86093D01*
X221737D01*
X221482Y86025D01*
X221253Y85893D01*
X221178Y85818D01*
X220924Y85923D01*
Y86797D01*
X221178Y86902D01*
X221253Y86827D01*
X221482Y86695D01*
X221737Y86627D01*
X222001D01*
X222256Y86695D01*
X222485Y86827D01*
X222672Y87014D01*
X222804Y87243D01*
X222872Y87498D01*
Y87762D01*
X222804Y88017D01*
X222672Y88246D01*
X222485Y88433D01*
X222256Y88565D01*
X222001Y88633D01*
X221737D01*
X221482Y88565D01*
X221253Y88433D01*
X221178Y88358D01*
X220924Y88463D01*
Y89337D01*
X221178Y89442D01*
X221253Y89367D01*
X221482Y89235D01*
X221737Y89167D01*
X222001D01*
X222256Y89235D01*
X222485Y89367D01*
X222672Y89554D01*
X222796Y89769D01*
X230656D01*
X230810Y89799D01*
X230940Y89886D01*
X235626Y94573D01*
X235753Y94539D01*
X235973D01*
X236187Y94596D01*
X236378Y94706D01*
X236534Y94862D01*
X236644Y95053D01*
X236701Y95267D01*
Y95487D01*
X236644Y95701D01*
X236534Y95892D01*
X236378Y96048D01*
X236187Y96158D01*
X235973Y96215D01*
X235753D01*
X235539Y96158D01*
X235348Y96048D01*
X235192Y95892D01*
X235082Y95701D01*
X235025Y95487D01*
Y95267D01*
X235059Y95140D01*
X230490Y90571D01*
X222796D01*
X222672Y90786D01*
X222485Y90973D01*
X222256Y91105D01*
X222001Y91173D01*
X221737D01*
X221482Y91105D01*
X221253Y90973D01*
X221178Y90898D01*
X220924Y91003D01*
Y91877D01*
X221178Y91982D01*
X221253Y91907D01*
X221482Y91775D01*
X221737Y91707D01*
X222001D01*
X222256Y91775D01*
X222485Y91907D01*
X222672Y92094D01*
X222796Y92309D01*
X228495D01*
X228649Y92339D01*
X228779Y92426D01*
X235626Y99273D01*
X235753Y99239D01*
X235973D01*
X236187Y99297D01*
X236378Y99407D01*
X236534Y99563D01*
X236644Y99754D01*
X236701Y99967D01*
Y100188D01*
X236644Y100401D01*
X236534Y100592D01*
X236378Y100748D01*
X236187Y100859D01*
X235973Y100916D01*
X235753D01*
X235539Y100859D01*
X235348Y100748D01*
X235192Y100592D01*
X235082Y100401D01*
X235025Y100188D01*
Y99967D01*
X235059Y99841D01*
X228329Y93111D01*
X222796D01*
X222672Y93326D01*
X222485Y93513D01*
X222256Y93645D01*
X222001Y93713D01*
X221737D01*
X221482Y93645D01*
X221253Y93513D01*
X221178Y93438D01*
X220924Y93543D01*
Y94417D01*
X221178Y94522D01*
X221253Y94447D01*
X221482Y94315D01*
X221737Y94247D01*
X222001D01*
X222256Y94315D01*
X222485Y94447D01*
X222672Y94634D01*
X222796Y94849D01*
X226335D01*
X226488Y94879D01*
X226619Y94966D01*
X235705Y104053D01*
X235753Y104040D01*
X235973D01*
X236187Y104097D01*
X236378Y104208D01*
X236534Y104364D01*
X236644Y104555D01*
X236701Y104768D01*
Y104989D01*
X236644Y105202D01*
X236534Y105393D01*
X236378Y105549D01*
X236187Y105659D01*
X235973Y105716D01*
X235753D01*
X235539Y105659D01*
X235348Y105549D01*
X235192Y105393D01*
X235082Y105202D01*
X235025Y104989D01*
Y104768D01*
X235080Y104563D01*
X226168Y95651D01*
X222796D01*
X222672Y95866D01*
X222485Y96053D01*
X222256Y96185D01*
X222001Y96253D01*
X221737D01*
X221482Y96185D01*
X221253Y96053D01*
X221178Y95978D01*
X220924Y96083D01*
Y96957D01*
X221178Y97062D01*
X221253Y96987D01*
X221482Y96855D01*
X221737Y96787D01*
X222001D01*
X222256Y96855D01*
X222485Y96987D01*
X222672Y97174D01*
X222796Y97389D01*
X224174D01*
X224328Y97419D01*
X224458Y97506D01*
X235626Y108674D01*
X235753Y108641D01*
X235973D01*
X236187Y108698D01*
X236378Y108808D01*
X236534Y108964D01*
X236644Y109155D01*
X236701Y109368D01*
Y109589D01*
X236644Y109802D01*
X236534Y109994D01*
X236378Y110150D01*
X236187Y110260D01*
X235973Y110317D01*
X235753D01*
X235539Y110260D01*
X235348Y110150D01*
X235192Y109994D01*
X235082Y109802D01*
X235025Y109589D01*
Y109368D01*
X235059Y109242D01*
X224008Y98191D01*
X222796D01*
X222672Y98406D01*
X222485Y98593D01*
X222256Y98725D01*
X222001Y98793D01*
X221737D01*
X221482Y98725D01*
X221253Y98593D01*
X221178Y98518D01*
X220924Y98623D01*
Y99497D01*
X221178Y99602D01*
X221253Y99527D01*
X221482Y99395D01*
X221737Y99327D01*
X222001D01*
X222256Y99395D01*
X222485Y99527D01*
X222672Y99714D01*
X222804Y99943D01*
X222872Y100198D01*
Y100462D01*
X222823Y100644D01*
X235559Y113380D01*
X235729Y113335D01*
X235949D01*
X236163Y113392D01*
X236354Y113502D01*
X236510Y113658D01*
X236620Y113849D01*
X236677Y114063D01*
Y114283D01*
X236620Y114497D01*
X236510Y114688D01*
X236354Y114844D01*
X236163Y114954D01*
X235949Y115011D01*
X235729D01*
X235515Y114954D01*
X235324Y114844D01*
X235168Y114688D01*
X235058Y114497D01*
X235001Y114283D01*
Y114063D01*
X235023Y113980D01*
X222289Y101246D01*
X222256Y101265D01*
X222001Y101333D01*
X221737D01*
X221482Y101265D01*
X221253Y101133D01*
X221178Y101058D01*
X220924Y101163D01*
Y102037D01*
X221178Y102142D01*
X221253Y102067D01*
X221482Y101935D01*
X221737Y101867D01*
X222001D01*
X222256Y101935D01*
X222485Y102067D01*
X222672Y102254D01*
X222804Y102483D01*
X222872Y102738D01*
Y103002D01*
X222808Y103241D01*
X236147Y116580D01*
X236234Y116710D01*
X236264Y116864D01*
Y118244D01*
X236378Y118309D01*
X236534Y118465D01*
X236644Y118657D01*
X236701Y118870D01*
Y119090D01*
X236644Y119304D01*
X236534Y119495D01*
X236378Y119651D01*
X236187Y119761D01*
X235973Y119818D01*
X235753D01*
X235539Y119761D01*
X235348Y119651D01*
X235192Y119495D01*
X235082Y119304D01*
X235025Y119090D01*
Y118870D01*
X235082Y118657D01*
X235192Y118465D01*
X235348Y118309D01*
X235462Y118244D01*
Y117030D01*
X222240Y103809D01*
X222001Y103873D01*
X221737D01*
X221482Y103805D01*
X221253Y103673D01*
X221178Y103598D01*
X220924Y103703D01*
Y104577D01*
X221178Y104682D01*
X221253Y104607D01*
X221482Y104475D01*
X221737Y104407D01*
X222001D01*
X222256Y104475D01*
X222485Y104607D01*
X222672Y104794D01*
X222804Y105023D01*
X222872Y105278D01*
Y105542D01*
X222808Y105781D01*
X229778Y112751D01*
X229865Y112881D01*
X229895Y113035D01*
Y117021D01*
X235729Y122855D01*
X235777Y122843D01*
X235997D01*
X236211Y122900D01*
X236402Y123010D01*
X236558Y123166D01*
X236668Y123357D01*
X236725Y123570D01*
Y123791D01*
X236668Y124004D01*
X236558Y124195D01*
X236402Y124351D01*
X236211Y124462D01*
X235997Y124519D01*
X235777D01*
X235563Y124462D01*
X235372Y124351D01*
X235216Y124195D01*
X235106Y124004D01*
X235049Y123791D01*
Y123570D01*
X235104Y123365D01*
X229546Y117807D01*
X229311Y117904D01*
Y121138D01*
X235631Y127458D01*
X235729Y127432D01*
X235949D01*
X236163Y127489D01*
X236354Y127599D01*
X236510Y127755D01*
X236620Y127946D01*
X236677Y128160D01*
Y128380D01*
X236620Y128594D01*
X236510Y128785D01*
X236354Y128941D01*
X236163Y129051D01*
X235949Y129108D01*
X235729D01*
X235515Y129051D01*
X235324Y128941D01*
X235168Y128785D01*
X235058Y128594D01*
X235001Y128380D01*
Y128160D01*
X235042Y128004D01*
X228626Y121588D01*
X228539Y121458D01*
X228508Y121304D01*
Y115157D01*
X222240Y108889D01*
X222001Y108953D01*
X221737D01*
X221482Y108885D01*
X221253Y108753D01*
X221178Y108678D01*
X220924Y108783D01*
Y109657D01*
X221178Y109762D01*
X221253Y109687D01*
X221482Y109555D01*
X221737Y109487D01*
X222001D01*
X222256Y109555D01*
X222485Y109687D01*
X222672Y109874D01*
X222804Y110103D01*
X222872Y110358D01*
Y110622D01*
X222804Y110877D01*
X222672Y111106D01*
X222485Y111293D01*
X222256Y111425D01*
X222001Y111493D01*
X221737D01*
X221482Y111425D01*
X221253Y111293D01*
X221178Y111218D01*
X220924Y111323D01*
Y112197D01*
X221178Y112302D01*
X221253Y112227D01*
X221482Y112095D01*
X221737Y112027D01*
X222001D01*
X222256Y112095D01*
X222485Y112227D01*
X222672Y112414D01*
X222804Y112643D01*
X222872Y112898D01*
Y113162D01*
X222804Y113417D01*
X222672Y113646D01*
X222485Y113833D01*
X222256Y113965D01*
X222001Y114033D01*
X221737D01*
X221482Y113965D01*
X221253Y113833D01*
X221178Y113758D01*
X220924Y113863D01*
Y114737D01*
X221178Y114842D01*
X221253Y114767D01*
X221482Y114635D01*
X221737Y114567D01*
X222001D01*
X222256Y114635D01*
X222485Y114767D01*
X222672Y114954D01*
X222804Y115183D01*
X222872Y115438D01*
Y115702D01*
X222804Y115957D01*
X222672Y116186D01*
X222485Y116373D01*
X222256Y116505D01*
X222001Y116573D01*
X221737D01*
X221482Y116505D01*
X221253Y116373D01*
X221178Y116298D01*
X220924Y116403D01*
Y117277D01*
X221178Y117382D01*
X221253Y117307D01*
X221482Y117175D01*
X221737Y117107D01*
X222001D01*
X222256Y117175D01*
X222485Y117307D01*
X222672Y117494D01*
X222804Y117723D01*
X222872Y117978D01*
Y118242D01*
X222804Y118497D01*
X222672Y118726D01*
X222485Y118913D01*
X222256Y119045D01*
X222001Y119113D01*
X221737D01*
X221482Y119045D01*
X221253Y118913D01*
X221178Y118838D01*
X220924Y118943D01*
Y119817D01*
X221178Y119922D01*
X221253Y119847D01*
X221482Y119715D01*
X221737Y119647D01*
X222001D01*
X222256Y119715D01*
X222485Y119847D01*
X222672Y120034D01*
X222804Y120263D01*
X222872Y120518D01*
Y120782D01*
X222804Y121037D01*
X222672Y121266D01*
X222485Y121453D01*
X222256Y121585D01*
X222001Y121653D01*
X221737D01*
X221482Y121585D01*
X221253Y121453D01*
X221178Y121378D01*
X220924Y121483D01*
Y121996D01*
X220894Y122150D01*
X220807Y122280D01*
X220268Y122819D01*
X220332Y123058D01*
Y123322D01*
X220264Y123577D01*
X220132Y123806D01*
X219945Y123993D01*
X219716Y124125D01*
X219461Y124193D01*
X219197D01*
X218942Y124125D01*
X218713Y123993D01*
X218526Y123806D01*
X218394Y123577D01*
X218326Y123322D01*
Y123058D01*
X218394Y122803D01*
X218526Y122574D01*
X218713Y122387D01*
X218942Y122255D01*
X219197Y122187D01*
X219461D01*
X219700Y122251D01*
X220108Y121843D01*
X220084Y121601D01*
X219866Y121498D01*
X219716Y121585D01*
X219461Y121653D01*
X219197D01*
X218942Y121585D01*
X218713Y121453D01*
X218526Y121266D01*
X218394Y121037D01*
X218326Y120782D01*
Y120518D01*
X218394Y120263D01*
X218526Y120034D01*
X218713Y119847D01*
X218942Y119715D01*
X219197Y119647D01*
X219461D01*
X219716Y119715D01*
X219867Y119802D01*
X220121Y119692D01*
Y119068D01*
X219867Y118958D01*
X219716Y119045D01*
X219461Y119113D01*
X219197D01*
X218942Y119045D01*
X218713Y118913D01*
X218526Y118726D01*
X218394Y118497D01*
X218326Y118242D01*
Y117978D01*
X218394Y117723D01*
X218526Y117494D01*
X218713Y117307D01*
X218942Y117175D01*
X219197Y117107D01*
X219461D01*
X219716Y117175D01*
X219867Y117262D01*
X220121Y117152D01*
Y116528D01*
X219867Y116418D01*
X219716Y116505D01*
X219461Y116573D01*
X219197D01*
X218942Y116505D01*
X218713Y116373D01*
X218526Y116186D01*
X218394Y115957D01*
X218326Y115702D01*
Y115438D01*
X218394Y115183D01*
X218526Y114954D01*
X218713Y114767D01*
X218942Y114635D01*
X219197Y114567D01*
X219461D01*
X219716Y114635D01*
X219867Y114722D01*
X220121Y114612D01*
Y113988D01*
X219867Y113878D01*
X219716Y113965D01*
X219461Y114033D01*
X219197D01*
X218942Y113965D01*
X218713Y113833D01*
X218526Y113646D01*
X218394Y113417D01*
X218326Y113162D01*
Y112898D01*
X218394Y112643D01*
X218526Y112414D01*
X218713Y112227D01*
X218942Y112095D01*
X219197Y112027D01*
X219461D01*
X219716Y112095D01*
X219867Y112182D01*
X220121Y112072D01*
Y111448D01*
X219867Y111338D01*
X219716Y111425D01*
X219461Y111493D01*
X219197D01*
X218942Y111425D01*
X218713Y111293D01*
X218526Y111106D01*
X218394Y110877D01*
X218326Y110622D01*
Y110358D01*
X218394Y110103D01*
X218526Y109874D01*
X218713Y109687D01*
X218942Y109555D01*
X219197Y109487D01*
X219461D01*
X219716Y109555D01*
X219867Y109642D01*
X220121Y109532D01*
Y108908D01*
X219867Y108798D01*
X219716Y108885D01*
X219461Y108953D01*
X219197D01*
X218942Y108885D01*
X218713Y108753D01*
X218526Y108566D01*
X218394Y108337D01*
X218326Y108082D01*
Y107818D01*
X218390Y107579D01*
X216585Y105773D01*
X207330D01*
X207215Y106027D01*
X207298Y106171D01*
X207366Y106423D01*
Y106683D01*
X207298Y106935D01*
X207168Y107161D01*
X206983Y107346D01*
X206757Y107476D01*
X206505Y107544D01*
X206245D01*
X205993Y107476D01*
X205767Y107346D01*
X205582Y107161D01*
X205463Y106954D01*
X204001D01*
X193963Y116993D01*
X194020Y117206D01*
Y117460D01*
X193954Y117706D01*
X193827Y117926D01*
X193648Y118105D01*
X193428Y118232D01*
X193266Y118276D01*
Y118667D01*
X193235Y118820D01*
X193148Y118950D01*
X183164Y128935D01*
X183223Y129157D01*
Y129415D01*
X183157Y129664D01*
X183028Y129887D01*
X182846Y130069D01*
X182646Y130184D01*
Y130928D01*
X182846Y131043D01*
X183028Y131225D01*
X183157Y131448D01*
X183223Y131697D01*
Y131955D01*
X183157Y132204D01*
X183028Y132427D01*
X182846Y132609D01*
X182623Y132738D01*
X182374Y132804D01*
D02*
G37*
G36*
X222001Y129273D02*
X221737D01*
X221482Y129205D01*
X221253Y129073D01*
X221066Y128886D01*
X220934Y128657D01*
X220866Y128402D01*
Y128138D01*
X220934Y127883D01*
X221066Y127654D01*
X221253Y127467D01*
X221482Y127335D01*
X221737Y127267D01*
X222001D01*
X222256Y127335D01*
X222485Y127467D01*
X222672Y127654D01*
X222804Y127883D01*
X222872Y128138D01*
Y128402D01*
X222804Y128657D01*
X222672Y128886D01*
X222485Y129073D01*
X222256Y129205D01*
X222001Y129273D01*
D02*
G37*
G36*
X219729Y129285D02*
X218929D01*
X218694Y129238D01*
X218494Y129105D01*
X218361Y128905D01*
X218314Y128670D01*
Y127870D01*
X218361Y127635D01*
X218494Y127435D01*
X218694Y127302D01*
X218929Y127255D01*
X219729D01*
X219964Y127302D01*
X220164Y127435D01*
X220297Y127635D01*
X220344Y127870D01*
Y128670D01*
X220297Y128905D01*
X220164Y129105D01*
X219964Y129238D01*
X219729Y129285D01*
D02*
G37*
G36*
X222001Y126733D02*
X221737D01*
X221482Y126665D01*
X221253Y126533D01*
X221066Y126346D01*
X220934Y126117D01*
X220866Y125862D01*
Y125598D01*
X220934Y125343D01*
X221066Y125114D01*
X221253Y124927D01*
X221482Y124795D01*
X221737Y124727D01*
X222001D01*
X222256Y124795D01*
X222485Y124927D01*
X222672Y125114D01*
X222804Y125343D01*
X222872Y125598D01*
Y125862D01*
X222804Y126117D01*
X222672Y126346D01*
X222485Y126533D01*
X222256Y126665D01*
X222001Y126733D01*
D02*
G37*
G36*
X219461D02*
X219197D01*
X218942Y126665D01*
X218713Y126533D01*
X218526Y126346D01*
X218394Y126117D01*
X218326Y125862D01*
Y125598D01*
X218394Y125343D01*
X218526Y125114D01*
X218713Y124927D01*
X218942Y124795D01*
X219197Y124727D01*
X219461D01*
X219716Y124795D01*
X219945Y124927D01*
X220132Y125114D01*
X220264Y125343D01*
X220332Y125598D01*
Y125862D01*
X220264Y126117D01*
X220132Y126346D01*
X219945Y126533D01*
X219716Y126665D01*
X219461Y126733D01*
D02*
G37*
G36*
X222001Y124193D02*
X221737D01*
X221482Y124125D01*
X221253Y123993D01*
X221066Y123806D01*
X220934Y123577D01*
X220866Y123322D01*
Y123058D01*
X220934Y122803D01*
X221066Y122574D01*
X221253Y122387D01*
X221482Y122255D01*
X221737Y122187D01*
X222001D01*
X222256Y122255D01*
X222485Y122387D01*
X222672Y122574D01*
X222804Y122803D01*
X222872Y123058D01*
Y123322D01*
X222804Y123577D01*
X222672Y123806D01*
X222485Y123993D01*
X222256Y124125D01*
X222001Y124193D01*
D02*
G37*
G36*
X203342Y118298D02*
X203088D01*
X202842Y118232D01*
X202622Y118105D01*
X202443Y117926D01*
X202316Y117706D01*
X202250Y117460D01*
Y117206D01*
X202316Y116960D01*
X202443Y116740D01*
X202622Y116561D01*
X202842Y116434D01*
X203088Y116368D01*
X203342D01*
X203588Y116434D01*
X203808Y116561D01*
X203987Y116740D01*
X204114Y116960D01*
X204180Y117206D01*
Y117460D01*
X204114Y117706D01*
X203987Y117926D01*
X203808Y118105D01*
X203588Y118232D01*
X203342Y118298D01*
D02*
G37*
G36*
X200802D02*
X200548D01*
X200302Y118232D01*
X200082Y118105D01*
X199903Y117926D01*
X199776Y117706D01*
X199710Y117460D01*
Y117206D01*
X199776Y116960D01*
X199903Y116740D01*
X200082Y116561D01*
X200302Y116434D01*
X200548Y116368D01*
X200802D01*
X201048Y116434D01*
X201268Y116561D01*
X201447Y116740D01*
X201574Y116960D01*
X201640Y117206D01*
Y117460D01*
X201574Y117706D01*
X201447Y117926D01*
X201268Y118105D01*
X201048Y118232D01*
X200802Y118298D01*
D02*
G37*
G36*
X198262D02*
X198008D01*
X197762Y118232D01*
X197542Y118105D01*
X197363Y117926D01*
X197236Y117706D01*
X197170Y117460D01*
Y117206D01*
X197236Y116960D01*
X197363Y116740D01*
X197542Y116561D01*
X197762Y116434D01*
X198008Y116368D01*
X198262D01*
X198508Y116434D01*
X198728Y116561D01*
X198907Y116740D01*
X199034Y116960D01*
X199100Y117206D01*
Y117460D01*
X199034Y117706D01*
X198907Y117926D01*
X198728Y118105D01*
X198508Y118232D01*
X198262Y118298D01*
D02*
G37*
G36*
X195722D02*
X195468D01*
X195222Y118232D01*
X195002Y118105D01*
X194823Y117926D01*
X194696Y117706D01*
X194630Y117460D01*
Y117206D01*
X194696Y116960D01*
X194823Y116740D01*
X195002Y116561D01*
X195222Y116434D01*
X195468Y116368D01*
X195722D01*
X195968Y116434D01*
X196188Y116561D01*
X196367Y116740D01*
X196494Y116960D01*
X196560Y117206D01*
Y117460D01*
X196494Y117706D01*
X196367Y117926D01*
X196188Y118105D01*
X195968Y118232D01*
X195722Y118298D01*
D02*
G37*
G36*
X206505Y115164D02*
X206245D01*
X205993Y115096D01*
X205767Y114966D01*
X205582Y114781D01*
X205452Y114555D01*
X205384Y114303D01*
Y114043D01*
X205452Y113791D01*
X205582Y113565D01*
X205767Y113380D01*
X205993Y113250D01*
X206245Y113182D01*
X206505D01*
X206757Y113250D01*
X206983Y113380D01*
X207168Y113565D01*
X207298Y113791D01*
X207366Y114043D01*
Y114303D01*
X207298Y114555D01*
X207168Y114781D01*
X206983Y114966D01*
X206757Y115096D01*
X206505Y115164D01*
D02*
G37*
G36*
Y112624D02*
X206245D01*
X205993Y112556D01*
X205767Y112426D01*
X205582Y112241D01*
X205452Y112015D01*
X205384Y111763D01*
Y111503D01*
X205452Y111251D01*
X205582Y111025D01*
X205767Y110840D01*
X205993Y110710D01*
X206245Y110642D01*
X206505D01*
X206757Y110710D01*
X206983Y110840D01*
X207168Y111025D01*
X207298Y111251D01*
X207366Y111503D01*
Y111763D01*
X207298Y112015D01*
X207168Y112241D01*
X206983Y112426D01*
X206757Y112556D01*
X206505Y112624D01*
D02*
G37*
G36*
Y110084D02*
X206245D01*
X205993Y110016D01*
X205767Y109886D01*
X205582Y109701D01*
X205452Y109475D01*
X205384Y109223D01*
Y108963D01*
X205452Y108711D01*
X205582Y108485D01*
X205767Y108300D01*
X205993Y108170D01*
X206245Y108102D01*
X206505D01*
X206757Y108170D01*
X206983Y108300D01*
X207168Y108485D01*
X207298Y108711D01*
X207366Y108963D01*
Y109223D01*
X207298Y109475D01*
X207168Y109701D01*
X206983Y109886D01*
X206757Y110016D01*
X206505Y110084D01*
D02*
G37*
G36*
X182405Y99924D02*
X182145D01*
X181893Y99856D01*
X181667Y99726D01*
X181482Y99541D01*
X181352Y99315D01*
X181284Y99063D01*
Y98803D01*
X181352Y98551D01*
X181482Y98325D01*
X181667Y98140D01*
X181893Y98010D01*
X182145Y97942D01*
X182405D01*
X182657Y98010D01*
X182883Y98140D01*
X183068Y98325D01*
X183198Y98551D01*
X183266Y98803D01*
Y99063D01*
X183198Y99315D01*
X183068Y99541D01*
X182883Y99726D01*
X182657Y99856D01*
X182405Y99924D01*
D02*
G37*
G36*
Y97384D02*
X182145D01*
X181893Y97316D01*
X181667Y97186D01*
X181482Y97001D01*
X181352Y96775D01*
X181284Y96523D01*
Y96263D01*
X181352Y96011D01*
X181482Y95785D01*
X181667Y95600D01*
X181893Y95470D01*
X182145Y95402D01*
X182405D01*
X182657Y95470D01*
X182883Y95600D01*
X183068Y95785D01*
X183198Y96011D01*
X183266Y96263D01*
Y96523D01*
X183198Y96775D01*
X183068Y97001D01*
X182883Y97186D01*
X182657Y97316D01*
X182405Y97384D01*
D02*
G37*
G36*
X188105Y94224D02*
X187845D01*
X187593Y94156D01*
X187367Y94026D01*
X187182Y93841D01*
X187052Y93615D01*
X186984Y93363D01*
Y93103D01*
X187052Y92851D01*
X187182Y92625D01*
X187367Y92440D01*
X187593Y92310D01*
X187845Y92242D01*
X188105D01*
X188357Y92310D01*
X188583Y92440D01*
X188768Y92625D01*
X188898Y92851D01*
X188966Y93103D01*
Y93363D01*
X188898Y93615D01*
X188768Y93841D01*
X188583Y94026D01*
X188357Y94156D01*
X188105Y94224D01*
D02*
G37*
G36*
X185565D02*
X185305D01*
X185053Y94156D01*
X184827Y94026D01*
X184642Y93841D01*
X184512Y93615D01*
X184444Y93363D01*
Y93103D01*
X184512Y92851D01*
X184642Y92625D01*
X184827Y92440D01*
X185053Y92310D01*
X185305Y92242D01*
X185565D01*
X185817Y92310D01*
X186043Y92440D01*
X186228Y92625D01*
X186358Y92851D01*
X186426Y93103D01*
Y93363D01*
X186358Y93615D01*
X186228Y93841D01*
X186043Y94026D01*
X185817Y94156D01*
X185565Y94224D01*
D02*
G37*
G36*
X222001Y83553D02*
X221737D01*
X221482Y83485D01*
X221253Y83353D01*
X221066Y83166D01*
X220934Y82937D01*
X220866Y82682D01*
Y82418D01*
X220934Y82163D01*
X221066Y81934D01*
X221253Y81747D01*
X221482Y81615D01*
X221737Y81547D01*
X222001D01*
X222256Y81615D01*
X222485Y81747D01*
X222672Y81934D01*
X222804Y82163D01*
X222872Y82418D01*
Y82682D01*
X222804Y82937D01*
X222672Y83166D01*
X222485Y83353D01*
X222256Y83485D01*
X222001Y83553D01*
D02*
G37*
G36*
Y81013D02*
X221737D01*
X221482Y80945D01*
X221253Y80813D01*
X221066Y80626D01*
X220934Y80397D01*
X220866Y80142D01*
Y79878D01*
X220934Y79623D01*
X221066Y79394D01*
X221253Y79207D01*
X221482Y79075D01*
X221737Y79007D01*
X222001D01*
X222256Y79075D01*
X222485Y79207D01*
X222672Y79394D01*
X222804Y79623D01*
X222872Y79878D01*
Y80142D01*
X222804Y80397D01*
X222672Y80626D01*
X222485Y80813D01*
X222256Y80945D01*
X222001Y81013D01*
D02*
G37*
G36*
X219461D02*
X219197D01*
X218942Y80945D01*
X218713Y80813D01*
X218526Y80626D01*
X218394Y80397D01*
X218326Y80142D01*
Y79878D01*
X218394Y79623D01*
X218526Y79394D01*
X218713Y79207D01*
X218942Y79075D01*
X219197Y79007D01*
X219461D01*
X219716Y79075D01*
X219945Y79207D01*
X220132Y79394D01*
X220264Y79623D01*
X220332Y79878D01*
Y80142D01*
X220264Y80397D01*
X220132Y80626D01*
X219945Y80813D01*
X219716Y80945D01*
X219461Y81013D01*
D02*
G37*
G36*
X234830Y79567D02*
Y78747D01*
X235650D01*
X235597Y78946D01*
X235460Y79183D01*
X235266Y79377D01*
X235029Y79514D01*
X234830Y79567D01*
D02*
G37*
G36*
X234423D02*
X234225Y79514D01*
X233987Y79377D01*
X233793Y79183D01*
X233656Y78946D01*
X233603Y78747D01*
X234423D01*
Y79567D01*
D02*
G37*
G36*
X244353Y72123D02*
X244089D01*
X243834Y72055D01*
X243605Y71923D01*
X243418Y71736D01*
X243286Y71507D01*
X243218Y71252D01*
Y70988D01*
X243286Y70733D01*
X243418Y70504D01*
X243605Y70317D01*
X243834Y70185D01*
X244089Y70117D01*
X244353D01*
X244608Y70185D01*
X244837Y70317D01*
X245024Y70504D01*
X245156Y70733D01*
X245224Y70988D01*
Y71252D01*
X245156Y71507D01*
X245024Y71736D01*
X244837Y71923D01*
X244608Y72055D01*
X244353Y72123D01*
D02*
G37*
G36*
X241813D02*
X241549D01*
X241294Y72055D01*
X241065Y71923D01*
X240878Y71736D01*
X240746Y71507D01*
X240678Y71252D01*
Y70988D01*
X240746Y70733D01*
X240878Y70504D01*
X241065Y70317D01*
X241294Y70185D01*
X241549Y70117D01*
X241813D01*
X242068Y70185D01*
X242297Y70317D01*
X242484Y70504D01*
X242616Y70733D01*
X242684Y70988D01*
Y71252D01*
X242616Y71507D01*
X242484Y71736D01*
X242297Y71923D01*
X242068Y72055D01*
X241813Y72123D01*
D02*
G37*
G36*
X236444Y80770D02*
X236223D01*
X236010Y80712D01*
X235819Y80602D01*
X235663Y80446D01*
X235552Y80255D01*
X235495Y80042D01*
Y79821D01*
X235552Y79608D01*
X235663Y79417D01*
X235819Y79261D01*
X235939Y79191D01*
Y71090D01*
X235832Y71029D01*
X235676Y70873D01*
X235566Y70682D01*
X235509Y70468D01*
Y70248D01*
X235566Y70034D01*
X235676Y69843D01*
X235832Y69687D01*
X236023Y69577D01*
X236237Y69520D01*
X236457D01*
X236671Y69577D01*
X236862Y69687D01*
X237018Y69843D01*
X237128Y70034D01*
X237185Y70248D01*
Y70468D01*
X237128Y70682D01*
X237018Y70873D01*
X236862Y71029D01*
X236742Y71098D01*
Y79199D01*
X236848Y79261D01*
X237004Y79417D01*
X237115Y79608D01*
X237172Y79821D01*
Y80042D01*
X237115Y80255D01*
X237004Y80446D01*
X236848Y80602D01*
X236657Y80712D01*
X236444Y80770D01*
D02*
G37*
G36*
X244353Y69583D02*
X244089D01*
X243834Y69515D01*
X243605Y69383D01*
X243418Y69196D01*
X243286Y68967D01*
X243218Y68712D01*
Y68448D01*
X243286Y68193D01*
X243418Y67964D01*
X243605Y67777D01*
X243834Y67645D01*
X244089Y67577D01*
X244353D01*
X244608Y67645D01*
X244837Y67777D01*
X245024Y67964D01*
X245156Y68193D01*
X245224Y68448D01*
Y68712D01*
X245156Y68967D01*
X245024Y69196D01*
X244837Y69383D01*
X244608Y69515D01*
X244353Y69583D01*
D02*
G37*
G36*
X241813D02*
X241549D01*
X241294Y69515D01*
X241065Y69383D01*
X240878Y69196D01*
X240746Y68967D01*
X240678Y68712D01*
Y68448D01*
X240746Y68193D01*
X240878Y67964D01*
X241065Y67777D01*
X241294Y67645D01*
X241549Y67577D01*
X241813D01*
X242068Y67645D01*
X242297Y67777D01*
X242484Y67964D01*
X242616Y68193D01*
X242684Y68448D01*
Y68712D01*
X242616Y68967D01*
X242484Y69196D01*
X242297Y69383D01*
X242068Y69515D01*
X241813Y69583D01*
D02*
G37*
G36*
X244353Y67043D02*
X244089D01*
X243834Y66975D01*
X243605Y66843D01*
X243418Y66656D01*
X243286Y66427D01*
X243218Y66172D01*
Y65908D01*
X243286Y65653D01*
X243418Y65424D01*
X243605Y65237D01*
X243834Y65105D01*
X244089Y65037D01*
X244353D01*
X244608Y65105D01*
X244837Y65237D01*
X245024Y65424D01*
X245156Y65653D01*
X245224Y65908D01*
Y66172D01*
X245156Y66427D01*
X245024Y66656D01*
X244837Y66843D01*
X244608Y66975D01*
X244353Y67043D01*
D02*
G37*
G36*
X241813D02*
X241549D01*
X241294Y66975D01*
X241065Y66843D01*
X240878Y66656D01*
X240746Y66427D01*
X240678Y66172D01*
Y65908D01*
X240746Y65653D01*
X240878Y65424D01*
X241065Y65237D01*
X241294Y65105D01*
X241549Y65037D01*
X241813D01*
X242068Y65105D01*
X242297Y65237D01*
X242484Y65424D01*
X242616Y65653D01*
X242684Y65908D01*
Y66172D01*
X242616Y66427D01*
X242484Y66656D01*
X242297Y66843D01*
X242068Y66975D01*
X241813Y67043D01*
D02*
G37*
G36*
X244621Y64713D02*
X244424D01*
Y63703D01*
X245434D01*
Y63900D01*
X245407Y64111D01*
X245325Y64307D01*
X245196Y64475D01*
X245028Y64604D01*
X244832Y64686D01*
X244621Y64713D01*
D02*
G37*
G36*
X244018D02*
X243821D01*
X243610Y64686D01*
X243414Y64604D01*
X243246Y64475D01*
X243117Y64307D01*
X243035Y64111D01*
X243008Y63900D01*
Y63703D01*
X244018D01*
Y64713D01*
D02*
G37*
G36*
X245434Y63297D02*
X244424D01*
Y62287D01*
X244621D01*
X244832Y62314D01*
X245028Y62396D01*
X245196Y62525D01*
X245325Y62693D01*
X245407Y62889D01*
X245434Y63100D01*
Y63297D01*
D02*
G37*
G36*
X235650Y78340D02*
X233603D01*
X233656Y78142D01*
X233793Y77904D01*
X233987Y77710D01*
X234225Y77573D01*
X234225Y77573D01*
Y68866D01*
X234256Y68713D01*
X234343Y68582D01*
X240903Y62022D01*
X241033Y61935D01*
X241187Y61905D01*
X243027D01*
X243181Y61935D01*
X243311Y62022D01*
X243605Y62317D01*
X243610Y62314D01*
X243821Y62287D01*
X244018D01*
Y63297D01*
X243008D01*
Y63100D01*
X243034Y62901D01*
X242861Y62722D01*
X242632Y62745D01*
X242529Y62963D01*
X242616Y63113D01*
X242684Y63368D01*
Y63632D01*
X242616Y63887D01*
X242484Y64116D01*
X242297Y64303D01*
X242068Y64435D01*
X241813Y64503D01*
X241549D01*
X241294Y64435D01*
X241065Y64303D01*
X240878Y64116D01*
X240746Y63887D01*
X240701Y63719D01*
X240443Y63618D01*
X235028Y69033D01*
Y77573D01*
X235029Y77573D01*
X235266Y77710D01*
X235460Y77904D01*
X235597Y78142D01*
X235650Y78340D01*
D02*
G37*
G36*
X213182Y55805D02*
Y54813D01*
X214174D01*
X214103Y55076D01*
X213944Y55351D01*
X213720Y55575D01*
X213445Y55734D01*
X213182Y55805D01*
D02*
G37*
G36*
X212776D02*
X212513Y55734D01*
X212238Y55575D01*
X212014Y55351D01*
X211855Y55076D01*
X211784Y54813D01*
X212776D01*
Y55805D01*
D02*
G37*
G36*
X185044Y55994D02*
X184780D01*
X184525Y55926D01*
X184296Y55794D01*
X184109Y55607D01*
X183977Y55378D01*
X183909Y55123D01*
Y54859D01*
X183977Y54604D01*
X184109Y54375D01*
X184296Y54188D01*
X184525Y54056D01*
X184780Y53988D01*
X185044D01*
X185299Y54056D01*
X185528Y54188D01*
X185715Y54375D01*
X185847Y54604D01*
X185915Y54859D01*
Y55123D01*
X185847Y55378D01*
X185715Y55607D01*
X185528Y55794D01*
X185299Y55926D01*
X185044Y55994D01*
D02*
G37*
G36*
X182504D02*
X182240D01*
X181985Y55926D01*
X181756Y55794D01*
X181569Y55607D01*
X181437Y55378D01*
X181369Y55123D01*
Y54859D01*
X181437Y54604D01*
X181569Y54375D01*
X181756Y54188D01*
X181985Y54056D01*
X182240Y53988D01*
X182504D01*
X182759Y54056D01*
X182988Y54188D01*
X183175Y54375D01*
X183307Y54604D01*
X183375Y54859D01*
Y55123D01*
X183307Y55378D01*
X183175Y55607D01*
X182988Y55794D01*
X182759Y55926D01*
X182504Y55994D01*
D02*
G37*
G36*
X214174Y54407D02*
X213182D01*
Y53415D01*
X213445Y53486D01*
X213720Y53645D01*
X213944Y53869D01*
X214103Y54144D01*
X214174Y54407D01*
D02*
G37*
G36*
X212776D02*
X211784D01*
X211855Y54144D01*
X212014Y53869D01*
X212238Y53645D01*
X212513Y53486D01*
X212776Y53415D01*
Y54407D01*
D02*
G37*
G36*
X185044Y53454D02*
X184780D01*
X184525Y53386D01*
X184296Y53254D01*
X184109Y53067D01*
X183977Y52838D01*
X183909Y52583D01*
Y52319D01*
X183977Y52064D01*
X184109Y51835D01*
X184296Y51648D01*
X184525Y51516D01*
X184780Y51448D01*
X185044D01*
X185299Y51516D01*
X185528Y51648D01*
X185715Y51835D01*
X185847Y52064D01*
X185915Y52319D01*
Y52583D01*
X185847Y52838D01*
X185715Y53067D01*
X185528Y53254D01*
X185299Y53386D01*
X185044Y53454D01*
D02*
G37*
G36*
X182504D02*
X182240D01*
X181985Y53386D01*
X181756Y53254D01*
X181569Y53067D01*
X181437Y52838D01*
X181369Y52583D01*
Y52319D01*
X181437Y52064D01*
X181569Y51835D01*
X181756Y51648D01*
X181985Y51516D01*
X182240Y51448D01*
X182504D01*
X182759Y51516D01*
X182988Y51648D01*
X183175Y51835D01*
X183307Y52064D01*
X183375Y52319D01*
Y52583D01*
X183307Y52838D01*
X183175Y53067D01*
X182988Y53254D01*
X182759Y53386D01*
X182504Y53454D01*
D02*
G37*
G36*
X179964D02*
X179700D01*
X179445Y53386D01*
X179216Y53254D01*
X179029Y53067D01*
X178897Y52838D01*
X178829Y52583D01*
Y52319D01*
X178897Y52064D01*
X179029Y51835D01*
X179216Y51648D01*
X179445Y51516D01*
X179700Y51448D01*
X179964D01*
X180219Y51516D01*
X180448Y51648D01*
X180635Y51835D01*
X180767Y52064D01*
X180835Y52319D01*
Y52583D01*
X180767Y52838D01*
X180635Y53067D01*
X180448Y53254D01*
X180219Y53386D01*
X179964Y53454D01*
D02*
G37*
G36*
X213111Y53073D02*
X212847D01*
X212592Y53005D01*
X212363Y52873D01*
X212176Y52686D01*
X212044Y52457D01*
X211976Y52202D01*
Y51938D01*
X212044Y51683D01*
X212176Y51454D01*
X212363Y51267D01*
X212592Y51135D01*
X212847Y51067D01*
X213111D01*
X213366Y51135D01*
X213595Y51267D01*
X213782Y51454D01*
X213914Y51683D01*
X213982Y51938D01*
Y52202D01*
X213914Y52457D01*
X213782Y52686D01*
X213595Y52873D01*
X213366Y53005D01*
X213111Y53073D01*
D02*
G37*
G36*
X210571D02*
X210307D01*
X210052Y53005D01*
X209823Y52873D01*
X209636Y52686D01*
X209504Y52457D01*
X209436Y52202D01*
Y51938D01*
X209504Y51683D01*
X209636Y51454D01*
X209823Y51267D01*
X210052Y51135D01*
X210307Y51067D01*
X210571D01*
X210826Y51135D01*
X211055Y51267D01*
X211242Y51454D01*
X211374Y51683D01*
X211442Y51938D01*
Y52202D01*
X211374Y52457D01*
X211242Y52686D01*
X211055Y52873D01*
X210826Y53005D01*
X210571Y53073D01*
D02*
G37*
G36*
X199336Y41430D02*
X199085D01*
X198843Y41365D01*
X198626Y41240D01*
X198448Y41062D01*
X198323Y40845D01*
X198258Y40602D01*
Y40351D01*
X198323Y40109D01*
X198448Y39892D01*
X198626Y39714D01*
X198843Y39589D01*
X199085Y39524D01*
X199336D01*
X199579Y39589D01*
X199796Y39714D01*
X199974Y39892D01*
X200099Y40109D01*
X200164Y40351D01*
Y40602D01*
X200099Y40845D01*
X199974Y41062D01*
X199796Y41240D01*
X199579Y41365D01*
X199336Y41430D01*
D02*
G37*
G36*
X193664D02*
X191758D01*
Y39524D01*
X193664D01*
Y41430D01*
D02*
G37*
G36*
X199414Y37120D02*
Y36180D01*
X200354D01*
X200289Y36423D01*
X200136Y36687D01*
X199921Y36902D01*
X199657Y37055D01*
X199414Y37120D01*
D02*
G37*
G36*
X199008D02*
X198765Y37055D01*
X198501Y36902D01*
X198286Y36687D01*
X198133Y36423D01*
X198068Y36180D01*
X199008D01*
Y37120D01*
D02*
G37*
G36*
X192914D02*
Y36180D01*
X193854D01*
X193789Y36423D01*
X193636Y36687D01*
X193421Y36902D01*
X193157Y37055D01*
X192914Y37120D01*
D02*
G37*
G36*
X192508D02*
X192265Y37055D01*
X192001Y36902D01*
X191786Y36687D01*
X191633Y36423D01*
X191568Y36180D01*
X192508D01*
Y37120D01*
D02*
G37*
G36*
X200354Y35774D02*
X199414D01*
Y34834D01*
X199657Y34899D01*
X199921Y35052D01*
X200136Y35267D01*
X200289Y35531D01*
X200354Y35774D01*
D02*
G37*
G36*
X199008D02*
X198068D01*
X198133Y35531D01*
X198286Y35267D01*
X198501Y35052D01*
X198765Y34899D01*
X199008Y34834D01*
Y35774D01*
D02*
G37*
G36*
X193854D02*
X192914D01*
Y34834D01*
X193157Y34899D01*
X193421Y35052D01*
X193636Y35267D01*
X193789Y35531D01*
X193854Y35774D01*
D02*
G37*
G36*
X192508D02*
X191568D01*
X191633Y35531D01*
X191786Y35267D01*
X192001Y35052D01*
X192265Y34899D01*
X192508Y34834D01*
Y35774D01*
D02*
G37*
%LPD*%
G36*
X181462Y128685D02*
X181644Y128503D01*
X181867Y128374D01*
X182116Y128308D01*
X182374D01*
X182596Y128367D01*
X192463Y118500D01*
Y118106D01*
X192462Y118105D01*
X192283Y117926D01*
X192156Y117706D01*
X192090Y117460D01*
Y117206D01*
X192156Y116960D01*
X192283Y116740D01*
X192462Y116561D01*
X192682Y116434D01*
X192928Y116368D01*
X193182D01*
X193395Y116425D01*
X203551Y106269D01*
X203681Y106182D01*
X203835Y106152D01*
X205324D01*
X205402Y106027D01*
X205262Y105773D01*
X198028D01*
X191884Y111917D01*
X191754Y112004D01*
X191601Y112034D01*
X183187D01*
X183068Y112241D01*
X182972Y112336D01*
X183078Y112590D01*
X183634D01*
X183787Y112621D01*
X183918Y112708D01*
X187635Y116425D01*
X187848Y116368D01*
X188102D01*
X188348Y116434D01*
X188568Y116561D01*
X188747Y116740D01*
X188874Y116960D01*
X188940Y117206D01*
Y117460D01*
X188874Y117706D01*
X188801Y117833D01*
X188922Y118087D01*
X189193D01*
X189607Y117673D01*
X189550Y117460D01*
Y117206D01*
X189616Y116960D01*
X189743Y116740D01*
X189922Y116561D01*
X190142Y116434D01*
X190388Y116368D01*
X190642D01*
X190888Y116434D01*
X191108Y116561D01*
X191287Y116740D01*
X191414Y116960D01*
X191480Y117206D01*
Y117460D01*
X191414Y117706D01*
X191287Y117926D01*
X191108Y118105D01*
X190888Y118232D01*
X190642Y118298D01*
X190388D01*
X190175Y118241D01*
X189643Y118773D01*
X189513Y118860D01*
X189359Y118890D01*
X184920D01*
X184767Y118860D01*
X184637Y118773D01*
X180226Y114362D01*
X180139Y114232D01*
X180108Y114078D01*
Y104539D01*
X179874Y104442D01*
X173858Y110458D01*
Y122992D01*
X174112Y123138D01*
X174169Y123105D01*
X174422Y123037D01*
Y124206D01*
Y125375D01*
X174169Y125307D01*
X174112Y125274D01*
X173858Y125420D01*
Y125795D01*
X174112Y125913D01*
X174247Y125834D01*
X174496Y125768D01*
X174754D01*
X175003Y125834D01*
X175226Y125963D01*
X175408Y126145D01*
X175537Y126368D01*
X175603Y126617D01*
Y126875D01*
X175544Y127097D01*
X177331Y128885D01*
X181347D01*
X181462Y128685D01*
D02*
G37*
G36*
X187149Y117833D02*
X187076Y117706D01*
X187010Y117460D01*
Y117206D01*
X187067Y116993D01*
X183468Y113393D01*
X183230D01*
X183115Y113647D01*
X183198Y113791D01*
X183266Y114043D01*
Y114303D01*
X183198Y114555D01*
X183068Y114781D01*
X182883Y114966D01*
X182657Y115096D01*
X182497Y115139D01*
X182399Y115399D01*
X184216Y117216D01*
X184296Y117213D01*
X184490Y117131D01*
X184536Y116960D01*
X184663Y116740D01*
X184842Y116561D01*
X185062Y116434D01*
X185308Y116368D01*
X185562D01*
X185808Y116434D01*
X186028Y116561D01*
X186207Y116740D01*
X186334Y116960D01*
X186400Y117206D01*
Y117460D01*
X186334Y117706D01*
X186261Y117833D01*
X186382Y118087D01*
X187028D01*
X187149Y117833D01*
D02*
G37*
G36*
X197578Y105088D02*
X197708Y105001D01*
X197862Y104970D01*
X205572D01*
X205678Y104716D01*
X205582Y104621D01*
X205452Y104395D01*
X205384Y104143D01*
Y104028D01*
X205356Y103870D01*
X205149Y103779D01*
X185616D01*
X183204Y106192D01*
X183266Y106423D01*
Y106683D01*
X183198Y106935D01*
X183068Y107161D01*
X182883Y107346D01*
X182657Y107476D01*
X182405Y107544D01*
X182145D01*
X181893Y107476D01*
X181749Y107393D01*
X181495Y107508D01*
Y108138D01*
X181749Y108253D01*
X181893Y108170D01*
X182145Y108102D01*
X182405D01*
X182657Y108170D01*
X182883Y108300D01*
X183068Y108485D01*
X183198Y108711D01*
X183266Y108963D01*
Y109223D01*
X183198Y109475D01*
X183068Y109701D01*
X182883Y109886D01*
X182657Y110016D01*
X182405Y110084D01*
X182145D01*
X181893Y110016D01*
X181749Y109933D01*
X181495Y110048D01*
Y110678D01*
X181749Y110793D01*
X181893Y110710D01*
X182145Y110642D01*
X182405D01*
X182657Y110710D01*
X182883Y110840D01*
X183068Y111025D01*
X183187Y111232D01*
X191434D01*
X197578Y105088D01*
D02*
G37*
G36*
X229092Y114274D02*
Y113201D01*
X222240Y106349D01*
X222001Y106413D01*
X221737D01*
X221482Y106345D01*
X221253Y106213D01*
X221178Y106138D01*
X220924Y106243D01*
Y107117D01*
X221178Y107222D01*
X221253Y107147D01*
X221482Y107015D01*
X221737Y106947D01*
X222001D01*
X222256Y107015D01*
X222485Y107147D01*
X222672Y107334D01*
X222804Y107563D01*
X222872Y107818D01*
Y108082D01*
X222808Y108321D01*
X228858Y114371D01*
X229092Y114274D01*
D02*
G37*
G36*
X220121Y106992D02*
Y106368D01*
X219867Y106258D01*
X219716Y106345D01*
X219461Y106413D01*
X219197D01*
X218942Y106345D01*
X218713Y106213D01*
X218526Y106026D01*
X218394Y105797D01*
X218326Y105542D01*
Y105278D01*
X218390Y105039D01*
X216585Y103233D01*
X207330D01*
X207215Y103487D01*
X207298Y103631D01*
X207366Y103883D01*
Y104143D01*
X207298Y104395D01*
X207168Y104621D01*
X207072Y104716D01*
X207178Y104970D01*
X216751D01*
X216905Y105001D01*
X217035Y105088D01*
X218958Y107011D01*
X219197Y106947D01*
X219461D01*
X219716Y107015D01*
X219867Y107102D01*
X220121Y106992D01*
D02*
G37*
G36*
Y104452D02*
Y103828D01*
X219867Y103718D01*
X219716Y103805D01*
X219461Y103873D01*
X219197D01*
X218942Y103805D01*
X218713Y103673D01*
X218526Y103486D01*
X218394Y103257D01*
X218326Y103002D01*
Y102738D01*
X218394Y102483D01*
X218526Y102254D01*
X218713Y102067D01*
X218942Y101935D01*
X219197Y101867D01*
X219461D01*
X219716Y101935D01*
X219867Y102022D01*
X220121Y101912D01*
Y101288D01*
X219867Y101178D01*
X219716Y101265D01*
X219461Y101333D01*
X219197D01*
X218942Y101265D01*
X218713Y101133D01*
X218526Y100946D01*
X218394Y100717D01*
X218326Y100462D01*
Y100198D01*
X218394Y99943D01*
X218526Y99714D01*
X218713Y99527D01*
X218942Y99395D01*
X219197Y99327D01*
X219461D01*
X219716Y99395D01*
X219867Y99482D01*
X220121Y99372D01*
Y98748D01*
X219867Y98638D01*
X219716Y98725D01*
X219461Y98793D01*
X219197D01*
X218942Y98725D01*
X218713Y98593D01*
X218526Y98406D01*
X218394Y98177D01*
X218326Y97922D01*
Y97658D01*
X218394Y97403D01*
X218526Y97174D01*
X218713Y96987D01*
X218942Y96855D01*
X219197Y96787D01*
X219461D01*
X219716Y96855D01*
X219867Y96942D01*
X220121Y96832D01*
Y96208D01*
X219867Y96098D01*
X219716Y96185D01*
X219461Y96253D01*
X219197D01*
X218942Y96185D01*
X218713Y96053D01*
X218526Y95866D01*
X218394Y95637D01*
X218326Y95382D01*
Y95118D01*
X218394Y94863D01*
X218526Y94634D01*
X218713Y94447D01*
X218942Y94315D01*
X219197Y94247D01*
X219461D01*
X219716Y94315D01*
X219867Y94402D01*
X220121Y94292D01*
Y93668D01*
X219867Y93558D01*
X219716Y93645D01*
X219461Y93713D01*
X219197D01*
X218942Y93645D01*
X218713Y93513D01*
X218526Y93326D01*
X218394Y93097D01*
X218326Y92842D01*
Y92578D01*
X218394Y92323D01*
X218526Y92094D01*
X218713Y91907D01*
X218942Y91775D01*
X219197Y91707D01*
X219461D01*
X219716Y91775D01*
X219867Y91862D01*
X220121Y91752D01*
Y91128D01*
X219867Y91018D01*
X219716Y91105D01*
X219461Y91173D01*
X219197D01*
X218942Y91105D01*
X218713Y90973D01*
X218526Y90786D01*
X218394Y90557D01*
X218326Y90302D01*
Y90038D01*
X218394Y89783D01*
X218526Y89554D01*
X218713Y89367D01*
X218942Y89235D01*
X219197Y89167D01*
X219461D01*
X219716Y89235D01*
X219867Y89322D01*
X220121Y89212D01*
Y88588D01*
X219867Y88478D01*
X219716Y88565D01*
X219461Y88633D01*
X219197D01*
X218958Y88569D01*
X212031Y95496D01*
X211901Y95583D01*
X211747Y95613D01*
X207330D01*
X207215Y95867D01*
X207298Y96011D01*
X207366Y96263D01*
Y96523D01*
X207298Y96775D01*
X207168Y97001D01*
X206983Y97186D01*
X206757Y97316D01*
X206505Y97384D01*
X206245D01*
X205993Y97316D01*
X205767Y97186D01*
X205582Y97001D01*
X205452Y96775D01*
X205384Y96523D01*
Y96263D01*
X205452Y96011D01*
X205535Y95867D01*
X205420Y95613D01*
X192956D01*
X185828Y102742D01*
X185925Y102977D01*
X191094D01*
X191179Y102830D01*
X191211Y102723D01*
X191116Y102559D01*
X191059Y102345D01*
Y102125D01*
X191116Y101911D01*
X191226Y101720D01*
X191382Y101564D01*
X191484Y101506D01*
Y100161D01*
X191359Y100089D01*
X191203Y99933D01*
X191093Y99741D01*
X191036Y99528D01*
Y99308D01*
X191093Y99094D01*
X191203Y98903D01*
X191359Y98747D01*
X191550Y98637D01*
X191764Y98580D01*
X191984D01*
X192197Y98637D01*
X192389Y98747D01*
X192545Y98903D01*
X192655Y99094D01*
X192712Y99308D01*
Y99528D01*
X192655Y99741D01*
X192545Y99933D01*
X192389Y100089D01*
X192287Y100147D01*
Y101492D01*
X192412Y101564D01*
X192568Y101720D01*
X192678Y101911D01*
X192735Y102125D01*
Y102345D01*
X192678Y102559D01*
X192583Y102723D01*
X192615Y102830D01*
X192700Y102977D01*
X205173D01*
X205602Y102548D01*
X205670Y102503D01*
X205698Y102433D01*
X205716Y102291D01*
X205708Y102207D01*
X205582Y102081D01*
X205452Y101855D01*
X205384Y101603D01*
Y101343D01*
X205452Y101091D01*
X205582Y100865D01*
X205767Y100680D01*
X205993Y100550D01*
X206245Y100482D01*
X206505D01*
X206757Y100550D01*
X206983Y100680D01*
X207168Y100865D01*
X207298Y101091D01*
X207366Y101343D01*
Y101603D01*
X207298Y101855D01*
X207168Y102081D01*
X207072Y102176D01*
X207178Y102430D01*
X216751D01*
X216905Y102461D01*
X217035Y102548D01*
X218958Y104471D01*
X219197Y104407D01*
X219461D01*
X219716Y104475D01*
X219867Y104562D01*
X220121Y104452D01*
D02*
G37*
G36*
X218390Y88001D02*
X218326Y87762D01*
Y87498D01*
X218394Y87243D01*
X218526Y87014D01*
X218713Y86827D01*
X218942Y86695D01*
X219197Y86627D01*
X219461D01*
X219716Y86695D01*
X219867Y86782D01*
X220121Y86672D01*
Y86048D01*
X219867Y85938D01*
X219716Y86025D01*
X219461Y86093D01*
X219197D01*
X218958Y86029D01*
X210411Y94576D01*
X210508Y94810D01*
X211581D01*
X218390Y88001D01*
D02*
G37*
%LPC*%
G36*
X182374Y127724D02*
X182116D01*
X181867Y127658D01*
X181644Y127529D01*
X181462Y127347D01*
X181333Y127124D01*
X181267Y126875D01*
Y126617D01*
X181333Y126368D01*
X181462Y126145D01*
X181644Y125963D01*
X181867Y125834D01*
X182116Y125768D01*
X182374D01*
X182623Y125834D01*
X182846Y125963D01*
X183028Y126145D01*
X183157Y126368D01*
X183223Y126617D01*
Y126875D01*
X183157Y127124D01*
X183028Y127347D01*
X182846Y127529D01*
X182623Y127658D01*
X182374Y127724D01*
D02*
G37*
G36*
X174828Y125375D02*
Y124409D01*
X175794D01*
X175726Y124662D01*
X175570Y124931D01*
X175350Y125151D01*
X175081Y125307D01*
X174828Y125375D01*
D02*
G37*
G36*
X183223Y125184D02*
X181267D01*
Y123228D01*
X183223D01*
Y125184D01*
D02*
G37*
G36*
X175794Y124003D02*
X174828D01*
Y123037D01*
X175081Y123105D01*
X175350Y123261D01*
X175570Y123481D01*
X175726Y123750D01*
X175794Y124003D01*
D02*
G37*
G36*
X206505Y99924D02*
X206245D01*
X205993Y99856D01*
X205767Y99726D01*
X205582Y99541D01*
X205452Y99315D01*
X205384Y99063D01*
Y98803D01*
X205452Y98551D01*
X205582Y98325D01*
X205767Y98140D01*
X205993Y98010D01*
X206245Y97942D01*
X206505D01*
X206757Y98010D01*
X206983Y98140D01*
X207168Y98325D01*
X207298Y98551D01*
X207366Y98803D01*
Y99063D01*
X207298Y99315D01*
X207168Y99541D01*
X206983Y99726D01*
X206757Y99856D01*
X206505Y99924D01*
D02*
G37*
%LPD*%
D40*
X177292Y52451D02*
D03*
X205359Y52070D02*
D03*
D41*
X179832Y52451D02*
D03*
X182372D02*
D03*
X184912D02*
D03*
X182372Y54991D02*
D03*
X184912D02*
D03*
X179832D02*
D03*
X177292D02*
D03*
X241681Y71120D02*
D03*
Y63500D02*
D03*
X244221Y66040D02*
D03*
Y68580D02*
D03*
X241681Y66040D02*
D03*
Y68580D02*
D03*
X244221Y71120D02*
D03*
X221869Y120650D02*
D03*
Y123190D02*
D03*
Y110490D02*
D03*
Y128270D02*
D03*
Y125730D02*
D03*
Y118110D02*
D03*
Y115570D02*
D03*
Y113030D02*
D03*
X219329Y97790D02*
D03*
Y95250D02*
D03*
Y92710D02*
D03*
Y90170D02*
D03*
X221869Y82550D02*
D03*
Y80010D02*
D03*
Y87630D02*
D03*
Y85090D02*
D03*
X219329Y123190D02*
D03*
Y82550D02*
D03*
Y113030D02*
D03*
Y100330D02*
D03*
Y125730D02*
D03*
Y85090D02*
D03*
Y102870D02*
D03*
Y110490D02*
D03*
Y87630D02*
D03*
Y107950D02*
D03*
Y115570D02*
D03*
Y118110D02*
D03*
Y105410D02*
D03*
Y120650D02*
D03*
Y80010D02*
D03*
X221869Y97790D02*
D03*
Y100330D02*
D03*
Y102870D02*
D03*
Y90170D02*
D03*
Y105410D02*
D03*
Y92710D02*
D03*
Y95250D02*
D03*
Y107950D02*
D03*
X207899Y54610D02*
D03*
X205359D02*
D03*
X207899Y52070D02*
D03*
X210439D02*
D03*
X212979D02*
D03*
X210439Y54610D02*
D03*
X212979D02*
D03*
D42*
X244221Y63500D02*
D03*
X219329Y128270D02*
D03*
D43*
X174625Y131826D02*
D03*
X182245Y126746D02*
D03*
X174625Y129286D02*
D03*
X182245Y131826D02*
D03*
Y129286D02*
D03*
X174625Y126746D02*
D03*
Y124206D02*
D03*
D44*
X182245D02*
D03*
D45*
X192711Y40477D02*
D03*
D46*
X199211D02*
D03*
X192711Y35977D02*
D03*
X199211D02*
D03*
D48*
X206375Y114173D02*
D03*
Y111633D02*
D03*
Y109093D02*
D03*
Y106553D02*
D03*
X182275Y114173D02*
D03*
X203215Y93233D02*
D03*
X206375Y96393D02*
D03*
Y104013D02*
D03*
Y101473D02*
D03*
Y98933D02*
D03*
X182275Y111633D02*
D03*
Y104013D02*
D03*
Y106553D02*
D03*
Y101473D02*
D03*
Y98933D02*
D03*
Y96393D02*
D03*
Y109093D02*
D03*
X185435Y93233D02*
D03*
X190515D02*
D03*
X193055D02*
D03*
X187975D02*
D03*
X200675D02*
D03*
X195595D02*
D03*
X198135D02*
D03*
D49*
X185435Y117333D02*
D03*
X187975D02*
D03*
X190515D02*
D03*
X193055D02*
D03*
X195595D02*
D03*
X198135D02*
D03*
X200675D02*
D03*
X203215D02*
D03*
D50*
X235863Y109479D02*
D03*
Y104878D02*
D03*
X235839Y114173D02*
D03*
X236333Y79931D02*
D03*
X235863Y95377D02*
D03*
Y100078D02*
D03*
Y118980D02*
D03*
X235839Y128270D02*
D03*
X193421Y43688D02*
D03*
X235887Y123681D02*
D03*
X236347Y70358D02*
D03*
X234627Y78544D02*
D03*
X191874Y99418D02*
D03*
X191897Y102235D02*
D03*
D51*
X234627Y68866D02*
X241187Y62306D01*
X243027D02*
X244221Y63500D01*
X241187Y62306D02*
X243027D01*
X202997Y53264D02*
X209093D01*
X210439Y54610D01*
X207899D02*
Y86009D01*
X176798Y53797D02*
X178638D01*
X179832Y54991D01*
X177292D02*
Y72390D01*
X236340Y70365D02*
Y79925D01*
X224174Y97790D02*
X235863Y109479D01*
X236333Y79931D02*
X236340Y79925D01*
X228495Y92710D02*
X235863Y100078D01*
X226335Y95250D02*
X235863Y104778D01*
X230656Y90170D02*
X235863Y95377D01*
X236340Y70365D02*
X236347Y70358D01*
X234627Y68866D02*
Y78544D01*
X193421Y43688D02*
X202997Y53264D01*
X177292Y72390D02*
X198135Y93233D01*
X181094Y106064D02*
X181964Y105194D01*
X180510Y104108D02*
X181964Y102654D01*
X189359Y118489D02*
X190515Y117333D01*
X184920Y118489D02*
X189359D01*
X181964Y112992D02*
X183634D01*
X187975Y117333D01*
X193055D02*
X203835Y106553D01*
X192864Y117524D02*
X193055Y117333D01*
X192864Y117524D02*
Y118667D01*
X185450Y103378D02*
X205340D01*
X203835Y106553D02*
X206375D01*
X191601Y111633D02*
X197862Y105372D01*
X182275Y111633D02*
X191601D01*
X191885Y99429D02*
Y102223D01*
X182808Y105194D02*
X192790Y95212D01*
X184522Y102654D02*
X192548Y94628D01*
X182275Y106553D02*
X185450Y103378D01*
X191874Y99418D02*
X191885Y99429D01*
Y102223D02*
X191897Y102235D01*
X181964Y102654D02*
X184522D01*
X219329Y82550D02*
X220523Y83744D01*
X221869Y90170D02*
X230656D01*
X221869Y100330D02*
X221941D01*
X221869Y92710D02*
X228495D01*
X221869Y95250D02*
X226335D01*
X221869Y97790D02*
X224174D01*
X229494Y113035D02*
Y117187D01*
X216751Y105372D02*
X219329Y107950D01*
X216751Y102832D02*
X219329Y105410D01*
X221869Y107950D02*
X228910Y114991D01*
X221869Y105410D02*
X229494Y113035D01*
X197862Y105372D02*
X216751D01*
X211747Y95212D02*
X219329Y87630D01*
X205886Y102832D02*
X216751D01*
X192790Y95212D02*
X211747D01*
X192548Y94628D02*
X209791D01*
X205340Y103378D02*
X205886Y102832D01*
X209791Y94628D02*
X219329Y85090D01*
X200675Y93233D02*
X207899Y86009D01*
X181964Y105194D02*
X182808D01*
X181094Y112122D02*
X181964Y112992D01*
X182245Y129286D02*
Y131826D01*
X177165Y129286D02*
X182245D01*
X174625Y126746D02*
X177165Y129286D01*
X180510Y104108D02*
Y114078D01*
X184920Y118489D01*
X228910Y114991D02*
Y121304D01*
X235887Y128281D01*
X229494Y117187D02*
X235887Y123581D01*
X219329Y123190D02*
X220523Y121996D01*
Y83744D02*
Y121996D01*
X181094Y106064D02*
Y112122D01*
X182245Y129286D02*
X192864Y118667D01*
X176098Y54497D02*
X176798Y53797D01*
X221869Y102870D02*
X235863Y116864D01*
X221941Y100330D02*
X235791Y114179D01*
X176098Y78816D02*
X190515Y93233D01*
X235863Y116864D02*
Y118980D01*
X176098Y54497D02*
Y78816D01*
X173456Y128117D02*
X174625Y129286D01*
X173456Y110292D02*
Y128117D01*
Y110292D02*
X182275Y101473D01*
M02*
