G04*
G04 #@! TF.GenerationSoftware,Altium Limited,Altium Designer,26.5.0 (11)*
G04*
G04 Layer_Color=128*
G04 Board_Origin=0|0*
%FSLAX43Y43*%
%MOMM*%
G71*
G04*
G04 #@! TF.SameCoordinates,80E9BAEF-7E6F-45FB-9ECE-2008D9C71877*
G04*
G04*
G04 #@! TF.FilePolarity,Positive*
G04*
G01*
G75*
%ADD15C,0.127*%
D15*
X120735Y51562D02*
X121835D01*
X121285Y51012D02*
Y52112D01*
X118195Y49022D02*
X119295D01*
X118745Y48472D02*
Y49572D01*
X118195Y46482D02*
X119295D01*
X118745Y45932D02*
Y47032D01*
X120735Y49022D02*
X121835D01*
X121285Y48472D02*
Y49572D01*
X120735Y46482D02*
X121835D01*
X121285Y45932D02*
Y47032D01*
X118195Y43942D02*
X119295D01*
X118745Y43392D02*
Y44492D01*
X118195Y51562D02*
X119295D01*
X118745Y51012D02*
Y52112D01*
X120735Y43942D02*
X121835D01*
X121285Y43392D02*
Y44492D01*
X78825Y51181D02*
X79925D01*
X79375Y50631D02*
Y51731D01*
X39632Y105664D02*
X40632D01*
X40132Y105164D02*
Y106164D01*
X65107Y32548D02*
X66107D01*
X65607Y32048D02*
Y33048D01*
X58607Y32548D02*
X59607D01*
X59107Y32048D02*
Y33048D01*
X76285Y51181D02*
X77385D01*
X76835Y50631D02*
Y51731D01*
X78825Y48641D02*
X79925D01*
X79375Y48091D02*
Y49191D01*
X76285Y48641D02*
X77385D01*
X76835Y48091D02*
Y49191D01*
X73745Y48641D02*
X74845D01*
X74295Y48091D02*
Y49191D01*
X71205Y48641D02*
X72305D01*
X71755Y48091D02*
Y49191D01*
X71205Y51181D02*
X72305D01*
X71755Y50631D02*
Y51731D01*
X73745Y51181D02*
X74845D01*
X74295Y50631D02*
Y51731D01*
X98383Y88392D02*
X99483D01*
X98933Y87842D02*
Y88942D01*
X98383Y75692D02*
X99483D01*
X98933Y75142D02*
Y76242D01*
X98383Y73152D02*
X99483D01*
X98933Y72602D02*
Y73702D01*
X98383Y85852D02*
X99483D01*
X98933Y85302D02*
Y86402D01*
X98383Y70612D02*
X99483D01*
X98933Y70062D02*
Y71162D01*
X98383Y83312D02*
X99483D01*
X98933Y82762D02*
Y83862D01*
X98383Y80772D02*
X99483D01*
X98933Y80222D02*
Y81322D01*
X98383Y78232D02*
X99483D01*
X98933Y77682D02*
Y78782D01*
X74666Y73675D02*
X75732D01*
X75199Y73142D02*
Y74208D01*
X72126Y73675D02*
X73192D01*
X72659Y73142D02*
Y74208D01*
X77206Y73675D02*
X78272D01*
X77739Y73142D02*
Y74208D01*
X64506Y73675D02*
X65572D01*
X65039Y73142D02*
Y74208D01*
X69586Y73675D02*
X70652D01*
X70119Y73142D02*
Y74208D01*
X67046Y73675D02*
X68112D01*
X67579Y73142D02*
Y74208D01*
X61966Y73675D02*
X63032D01*
X62499Y73142D02*
Y74208D01*
X58806Y89535D02*
X59872D01*
X59339Y89002D02*
Y90068D01*
X58806Y76835D02*
X59872D01*
X59339Y76302D02*
Y77368D01*
X58806Y79375D02*
X59872D01*
X59339Y78842D02*
Y79908D01*
X58806Y81915D02*
X59872D01*
X59339Y81382D02*
Y82448D01*
X58806Y86995D02*
X59872D01*
X59339Y86462D02*
Y87528D01*
X58806Y84455D02*
X59872D01*
X59339Y83922D02*
Y84988D01*
X58806Y92075D02*
X59872D01*
X59339Y91542D02*
Y92608D01*
X82906Y79375D02*
X83972D01*
X83439Y78842D02*
Y79908D01*
X82906Y81915D02*
X83972D01*
X83439Y81382D02*
Y82448D01*
X82906Y84455D02*
X83972D01*
X83439Y83922D02*
Y84988D01*
X82906Y76835D02*
X83972D01*
X83439Y76302D02*
Y77368D01*
X79746Y73675D02*
X80812D01*
X80279Y73142D02*
Y74208D01*
X79729Y97775D02*
X80829D01*
X80279Y97225D02*
Y98325D01*
X77189Y97775D02*
X78289D01*
X77739Y97225D02*
Y98325D01*
X74649Y97775D02*
X75749D01*
X75199Y97225D02*
Y98325D01*
X72109Y97775D02*
X73209D01*
X72659Y97225D02*
Y98325D01*
X69569Y97775D02*
X70669D01*
X70119Y97225D02*
Y98325D01*
X67029Y97775D02*
X68129D01*
X67579Y97225D02*
Y98325D01*
X64489Y97775D02*
X65589D01*
X65039Y97225D02*
Y98325D01*
X61949Y97775D02*
X63049D01*
X62499Y97225D02*
Y98325D01*
X58806Y94615D02*
X59872D01*
X59339Y94082D02*
Y95148D01*
X82906Y86995D02*
X83972D01*
X83439Y86462D02*
Y87528D01*
X82906Y89535D02*
X83972D01*
X83439Y89002D02*
Y90068D01*
X82906Y92075D02*
X83972D01*
X83439Y91542D02*
Y92608D01*
X82906Y94615D02*
X83972D01*
X83439Y94082D02*
Y95148D01*
X39632Y108204D02*
X40632D01*
X40132Y107704D02*
Y108704D01*
X47252Y110744D02*
X48252D01*
X47752Y110244D02*
Y111244D01*
X47252Y113284D02*
X48252D01*
X47752Y112784D02*
Y113784D01*
X95843Y60452D02*
X96943D01*
X96393Y59902D02*
Y61002D01*
X95843Y101092D02*
X96943D01*
X96393Y100542D02*
Y101642D01*
X43138Y51562D02*
X44238D01*
X43688Y51012D02*
Y52112D01*
X95843Y85852D02*
X96943D01*
X96393Y85302D02*
Y86402D01*
X95843Y98552D02*
X96943D01*
X96393Y98002D02*
Y99102D01*
X47252Y105664D02*
X48252D01*
X47752Y105164D02*
Y106164D01*
X95843Y96012D02*
X96943D01*
X96393Y95462D02*
Y96562D01*
X95843Y88392D02*
X96943D01*
X96393Y87842D02*
Y88942D01*
X45678Y51562D02*
X46778D01*
X46228Y51012D02*
Y52112D01*
X95843Y68072D02*
X96943D01*
X96393Y67522D02*
Y68622D01*
X95843Y108712D02*
X96943D01*
X96393Y108162D02*
Y109262D01*
X95843Y90932D02*
X96943D01*
X96393Y90382D02*
Y91482D01*
X39632Y110744D02*
X40632D01*
X40132Y110244D02*
Y111244D01*
X95843Y83312D02*
X96943D01*
X96393Y82762D02*
Y83862D01*
X95843Y65532D02*
X96943D01*
X96393Y64982D02*
Y66082D01*
X95843Y106172D02*
X96943D01*
X96393Y105622D02*
Y106722D01*
X95843Y80772D02*
X96943D01*
X96393Y80222D02*
Y81322D01*
X95843Y93472D02*
X96943D01*
X96393Y92922D02*
Y94022D01*
X47252Y108204D02*
X48252D01*
X47752Y107704D02*
Y108704D01*
X95843Y62992D02*
X96943D01*
X96393Y62442D02*
Y63542D01*
X95843Y103632D02*
X96943D01*
X96393Y103082D02*
Y104182D01*
X39632Y113284D02*
X40632D01*
X40132Y112784D02*
Y113784D01*
X50758Y51562D02*
X51858D01*
X51308Y51012D02*
Y52112D01*
X48218Y51562D02*
X49318D01*
X48768Y51012D02*
Y52112D01*
X50758Y49022D02*
X51858D01*
X51308Y48472D02*
Y49572D01*
X48218Y49022D02*
X49318D01*
X48768Y48472D02*
Y49572D01*
X45678Y49022D02*
X46778D01*
X46228Y48472D02*
Y49572D01*
X43138Y49022D02*
X44238D01*
X43688Y48472D02*
Y49572D01*
X65107Y37048D02*
X66107D01*
X65607Y36548D02*
Y37548D01*
X58607Y37048D02*
X59607D01*
X59107Y36548D02*
Y37548D01*
X98383Y65532D02*
X99483D01*
X98933Y64982D02*
Y66082D01*
X98383Y68072D02*
X99483D01*
X98933Y67522D02*
Y68622D01*
X98383Y60452D02*
X99483D01*
X98933Y59902D02*
Y61002D01*
X98383Y62992D02*
X99483D01*
X98933Y62442D02*
Y63542D01*
X95843Y70612D02*
X96943D01*
X96393Y70062D02*
Y71162D01*
X95843Y73152D02*
X96943D01*
X96393Y72602D02*
Y73702D01*
X95843Y75692D02*
X96943D01*
X96393Y75142D02*
Y76242D01*
X95843Y78232D02*
X96943D01*
X96393Y77682D02*
Y78782D01*
X98383Y93472D02*
X99483D01*
X98933Y92922D02*
Y94022D01*
X98383Y96012D02*
X99483D01*
X98933Y95462D02*
Y96562D01*
X98383Y98552D02*
X99483D01*
X98933Y98002D02*
Y99102D01*
X98383Y106172D02*
X99483D01*
X98933Y105622D02*
Y106722D01*
X98383Y108712D02*
X99483D01*
X98933Y108162D02*
Y109262D01*
X98383Y90932D02*
X99483D01*
X98933Y90382D02*
Y91482D01*
X98383Y103632D02*
X99483D01*
X98933Y103082D02*
Y104182D01*
X98383Y101092D02*
X99483D01*
X98933Y100542D02*
Y101642D01*
X111335Y58986D02*
X112046D01*
X111691Y58630D02*
Y59341D01*
X113042Y60373D02*
X113753D01*
X113397Y60018D02*
Y60729D01*
X113055Y50800D02*
X113767D01*
X113411Y50444D02*
Y51156D01*
X59461Y40259D02*
X60173D01*
X59817Y39903D02*
Y40615D01*
X68605Y82677D02*
X69317D01*
X68961Y82321D02*
Y83033D01*
X112571Y99422D02*
X113283D01*
X112927Y99066D02*
Y99778D01*
X112547Y108712D02*
X113259D01*
X112903Y108356D02*
Y109068D01*
X112595Y104123D02*
X113307D01*
X112951Y103767D02*
Y104478D01*
X112547Y94615D02*
X113259D01*
X112903Y94259D02*
Y94971D01*
X112571Y89921D02*
X113283D01*
X112927Y89565D02*
Y90276D01*
X112571Y85320D02*
X113283D01*
X112927Y84965D02*
Y85676D01*
X112571Y80520D02*
X113283D01*
X112927Y80164D02*
Y80875D01*
X112571Y75819D02*
X113283D01*
X112927Y75463D02*
Y76175D01*
X68582Y79860D02*
X69293D01*
X68938Y79504D02*
Y80215D01*
M02*
