G04*
G04 #@! TF.GenerationSoftware,Altium Limited,Altium Designer,26.5.0 (11)*
G04*
G04 Layer_Color=32768*
G04 Board_Origin=0|0*
%FSLAX43Y43*%
%MOMM*%
G71*
G04*
G04 #@! TF.SameCoordinates,80E9BAEF-7E6F-45FB-9ECE-2008D9C71877*
G04*
G04*
G04 #@! TF.FilePolarity,Positive*
G04*
G01*
G75*
%ADD12C,0.100*%
%ADD53C,0.050*%
D12*
X80391Y31910D02*
Y32860D01*
X79916Y32385D02*
X80866D01*
X61857Y34798D02*
X62857D01*
X62357Y34298D02*
Y35298D01*
X48768Y38006D02*
Y38956D01*
X48293Y38481D02*
X49243D01*
X54770Y40259D02*
X55720D01*
X55245Y39784D02*
Y40734D01*
X54285Y35472D02*
Y38372D01*
Y35472D02*
X55585D01*
Y38372D01*
X54285D02*
X55585D01*
X45847Y37966D02*
Y38916D01*
X45372Y38441D02*
X46322D01*
X111158Y61047D02*
X112108D01*
X111633Y60572D02*
Y61522D01*
Y51047D02*
Y51997D01*
X111158Y51522D02*
X112108D01*
X109133Y67343D02*
Y68293D01*
X108658Y67818D02*
X109608D01*
X108618Y52451D02*
X109568D01*
X109093Y51976D02*
Y52926D01*
X92714Y32729D02*
X93664D01*
X93189Y32254D02*
Y33204D01*
X75950Y35382D02*
X76900D01*
X76425Y34908D02*
Y35857D01*
X70391Y35266D02*
X71341D01*
X70866Y34791D02*
Y35741D01*
X98683Y32689D02*
X99633D01*
X99158Y32215D02*
Y33164D01*
X96110Y34755D02*
Y35704D01*
X95635Y35229D02*
X96585D01*
X73616Y34165D02*
Y35165D01*
X73116Y34666D02*
X74116D01*
X86576Y32481D02*
X87526D01*
X87051Y32006D02*
Y32956D01*
X84511Y34673D02*
Y35623D01*
X84036Y35148D02*
X84986D01*
X73631Y30971D02*
Y31920D01*
X73156Y31445D02*
X74106D01*
D53*
X79641Y31035D02*
X81141D01*
X79641Y33735D02*
X81141D01*
X79641Y31035D02*
Y33735D01*
X81141Y31035D02*
Y33735D01*
X58207Y31598D02*
Y37998D01*
Y31598D02*
X66507D01*
Y37998D01*
X58207D02*
X66507D01*
X48018Y39831D02*
X49518D01*
X48018Y37131D02*
X49518D01*
Y39831D01*
X48018Y37131D02*
Y39831D01*
X56595Y39509D02*
Y41009D01*
X53895Y39509D02*
Y41009D01*
Y39509D02*
X56595D01*
X53895Y41009D02*
X56595D01*
X45097Y39791D02*
X46597D01*
X45097Y37091D02*
X46597D01*
Y39791D01*
X45097Y37091D02*
Y39791D01*
X94300Y31589D02*
Y33790D01*
Y31589D02*
X95180D01*
Y31339D02*
Y31589D01*
Y31339D02*
X97040D01*
Y31589D01*
X97920D01*
Y33790D01*
X97040D02*
X97920D01*
X97040D02*
Y34040D01*
X95180D02*
X97040D01*
X95180Y33790D02*
Y34040D01*
X94300Y33790D02*
X95180D01*
X112383Y59697D02*
Y62397D01*
X110883Y59697D02*
Y62397D01*
X112383D01*
X110883Y59697D02*
X112383D01*
X110883Y50172D02*
X112383D01*
X110883Y52872D02*
X112383D01*
X110883Y50172D02*
Y52872D01*
X112383Y50172D02*
Y52872D01*
X107783Y67068D02*
X110483D01*
X107783Y68568D02*
X110483D01*
Y67068D02*
Y68568D01*
X107783Y67068D02*
Y68568D01*
X107743Y51701D02*
Y53201D01*
X110443Y51701D02*
Y53201D01*
X107743D02*
X110443D01*
X107743Y51701D02*
X110443D01*
X92439Y31379D02*
Y34079D01*
X93939Y31379D02*
Y34079D01*
X92439Y31379D02*
X93939D01*
X92439Y34079D02*
X93939D01*
X77175Y34032D02*
Y36733D01*
X75675Y34032D02*
Y36733D01*
X77175D01*
X75675Y34032D02*
X77175D01*
X71616Y33916D02*
Y36616D01*
X70116Y33916D02*
Y36616D01*
X71616D01*
X70116Y33916D02*
X71616D01*
X98408Y31339D02*
Y34040D01*
X99908Y31339D02*
Y34040D01*
X98408Y31339D02*
X99908D01*
X98408Y34040D02*
X99908D01*
X94760Y34479D02*
X97460D01*
X94760Y35980D02*
X97460D01*
Y34479D02*
Y35980D01*
X94760Y34479D02*
Y35980D01*
X72016Y32416D02*
X75216D01*
X72016Y36916D02*
X75216D01*
X72016Y32416D02*
Y36916D01*
X75216Y32416D02*
Y36916D01*
X86301Y31131D02*
Y33831D01*
X87801Y31131D02*
Y33831D01*
X86301Y31131D02*
X87801D01*
X86301Y33831D02*
X87801D01*
X83161Y34398D02*
X85861D01*
X83161Y35898D02*
X85861D01*
Y34398D02*
Y35898D01*
X83161Y34398D02*
Y35898D01*
X72281Y30695D02*
X74981D01*
X72281Y32196D02*
X74981D01*
Y30695D02*
Y32196D01*
X72281Y30695D02*
Y32196D01*
M02*
