G04*
G04 #@! TF.GenerationSoftware,Altium Limited,Altium Designer,26.5.0 (11)*
G04*
G04 Layer_Color=2752767*
G04 Board_Origin=0|0*
%FSLAX43Y43*%
%MOMM*%
G71*
G04*
G04 #@! TF.SameCoordinates,80E9BAEF-7E6F-45FB-9ECE-2008D9C71877*
G04*
G04*
G04 #@! TF.FilePolarity,Positive*
G04*
G01*
G75*
%ADD15C,0.127*%
%ADD61C,0.169*%
D15*
X120777Y51054D02*
Y52070D01*
X121793D01*
Y51054D01*
X120777D01*
X118237Y48514D02*
Y49530D01*
X119253D01*
Y48514D01*
X118237D01*
Y45974D02*
Y46990D01*
X119253D01*
Y45974D01*
X118237D01*
X120777Y48514D02*
Y49530D01*
X121793D01*
Y48514D01*
X120777D01*
Y45974D02*
Y46990D01*
X121793D01*
Y45974D01*
X120777D01*
X118237Y43434D02*
Y44450D01*
X119253D01*
Y43434D01*
X118237D01*
Y51054D02*
Y52070D01*
X119253D01*
Y51054D01*
X118237D01*
X120777Y43434D02*
Y44450D01*
X121793D01*
Y43434D01*
X120777D01*
X78867Y50673D02*
Y51689D01*
X79883D01*
Y50673D01*
X78867D01*
X76327D02*
Y51689D01*
X77343D01*
Y50673D01*
X76327D01*
X78867Y48133D02*
Y49149D01*
X79883D01*
Y48133D01*
X78867D01*
X76327D02*
Y49149D01*
X77343D01*
Y48133D01*
X76327D01*
X73787D02*
Y49149D01*
X74803D01*
Y48133D01*
X73787D01*
X71247D02*
Y49149D01*
X72263D01*
Y48133D01*
X71247D01*
Y50673D02*
Y51689D01*
X72263D01*
Y50673D01*
X71247D01*
X73787D02*
Y51689D01*
X74803D01*
Y50673D01*
X73787D01*
X98425Y87884D02*
Y88900D01*
X99441D01*
Y87884D01*
X98425D01*
Y75184D02*
Y76200D01*
X99441D01*
Y75184D01*
X98425D01*
Y72644D02*
Y73660D01*
X99441D01*
Y72644D01*
X98425D01*
Y85344D02*
Y86360D01*
X99441D01*
Y85344D01*
X98425D01*
Y70104D02*
Y71120D01*
X99441D01*
Y70104D01*
X98425D01*
Y82804D02*
Y83820D01*
X99441D01*
Y82804D01*
X98425D01*
Y80264D02*
Y81280D01*
X99441D01*
Y80264D01*
X98425D01*
Y77724D02*
Y78740D01*
X99441D01*
Y77724D01*
X98425D01*
X74691Y73167D02*
X74945Y73675D01*
X74691Y74183D01*
X75199Y73929D01*
X75707Y74183D01*
X75453Y73675D01*
X75707Y73167D01*
X75199Y73421D01*
X74691Y73167D01*
X72151D02*
X72405Y73675D01*
X72151Y74183D01*
X72659Y73929D01*
X73167Y74183D01*
X72913Y73675D01*
X73167Y73167D01*
X72659Y73421D01*
X72151Y73167D01*
X77231D02*
X77485Y73675D01*
X77231Y74183D01*
X77739Y73929D01*
X78247Y74183D01*
X77993Y73675D01*
X78247Y73167D01*
X77739Y73421D01*
X77231Y73167D01*
X64531D02*
X64785Y73675D01*
X64531Y74183D01*
X65039Y73929D01*
X65547Y74183D01*
X65293Y73675D01*
X65547Y73167D01*
X65039Y73421D01*
X64531Y73167D01*
X69611D02*
X69865Y73675D01*
X69611Y74183D01*
X70119Y73929D01*
X70627Y74183D01*
X70373Y73675D01*
X70627Y73167D01*
X70119Y73421D01*
X69611Y73167D01*
X67071D02*
X67325Y73675D01*
X67071Y74183D01*
X67579Y73929D01*
X68087Y74183D01*
X67833Y73675D01*
X68087Y73167D01*
X67579Y73421D01*
X67071Y73167D01*
X61991D02*
X62245Y73675D01*
X61991Y74183D01*
X62499Y73929D01*
X63007Y74183D01*
X62753Y73675D01*
X63007Y73167D01*
X62499Y73421D01*
X61991Y73167D01*
X58831Y89027D02*
X59085Y89535D01*
X58831Y90043D01*
X59339Y89789D01*
X59847Y90043D01*
X59593Y89535D01*
X59847Y89027D01*
X59339Y89281D01*
X58831Y89027D01*
Y76327D02*
X59085Y76835D01*
X58831Y77343D01*
X59339Y77089D01*
X59847Y77343D01*
X59593Y76835D01*
X59847Y76327D01*
X59339Y76581D01*
X58831Y76327D01*
Y78867D02*
X59085Y79375D01*
X58831Y79883D01*
X59339Y79629D01*
X59847Y79883D01*
X59593Y79375D01*
X59847Y78867D01*
X59339Y79121D01*
X58831Y78867D01*
Y81407D02*
X59085Y81915D01*
X58831Y82423D01*
X59339Y82169D01*
X59847Y82423D01*
X59593Y81915D01*
X59847Y81407D01*
X59339Y81661D01*
X58831Y81407D01*
Y86487D02*
X59085Y86995D01*
X58831Y87503D01*
X59339Y87249D01*
X59847Y87503D01*
X59593Y86995D01*
X59847Y86487D01*
X59339Y86741D01*
X58831Y86487D01*
Y83947D02*
X59085Y84455D01*
X58831Y84963D01*
X59339Y84709D01*
X59847Y84963D01*
X59593Y84455D01*
X59847Y83947D01*
X59339Y84201D01*
X58831Y83947D01*
Y91567D02*
X59085Y92075D01*
X58831Y92583D01*
X59339Y92329D01*
X59847Y92583D01*
X59593Y92075D01*
X59847Y91567D01*
X59339Y91821D01*
X58831Y91567D01*
X82931Y78867D02*
X83185Y79375D01*
X82931Y79883D01*
X83439Y79629D01*
X83947Y79883D01*
X83693Y79375D01*
X83947Y78867D01*
X83439Y79121D01*
X82931Y78867D01*
Y81407D02*
X83185Y81915D01*
X82931Y82423D01*
X83439Y82169D01*
X83947Y82423D01*
X83693Y81915D01*
X83947Y81407D01*
X83439Y81661D01*
X82931Y81407D01*
Y83947D02*
X83185Y84455D01*
X82931Y84963D01*
X83439Y84709D01*
X83947Y84963D01*
X83693Y84455D01*
X83947Y83947D01*
X83439Y84201D01*
X82931Y83947D01*
Y76327D02*
X83185Y76835D01*
X82931Y77343D01*
X83439Y77089D01*
X83947Y77343D01*
X83693Y76835D01*
X83947Y76327D01*
X83439Y76581D01*
X82931Y76327D01*
X79771Y73167D02*
X80025Y73675D01*
X79771Y74183D01*
X80279Y73929D01*
X80787Y74183D01*
X80533Y73675D01*
X80787Y73167D01*
X80279Y73421D01*
X79771Y73167D01*
X80279Y97267D02*
X80533Y97521D01*
X80787D01*
X80533Y97775D01*
X80787Y98029D01*
X80533D01*
X80279Y98283D01*
X80025Y98029D01*
X79771D01*
X80025Y97775D01*
X79771Y97521D01*
X80025D01*
X80279Y97267D01*
X77739D02*
X77993Y97521D01*
X78247D01*
X77993Y97775D01*
X78247Y98029D01*
X77993D01*
X77739Y98283D01*
X77485Y98029D01*
X77231D01*
X77485Y97775D01*
X77231Y97521D01*
X77485D01*
X77739Y97267D01*
X75199D02*
X75453Y97521D01*
X75707D01*
X75453Y97775D01*
X75707Y98029D01*
X75453D01*
X75199Y98283D01*
X74945Y98029D01*
X74691D01*
X74945Y97775D01*
X74691Y97521D01*
X74945D01*
X75199Y97267D01*
X72659D02*
X72913Y97521D01*
X73167D01*
X72913Y97775D01*
X73167Y98029D01*
X72913D01*
X72659Y98283D01*
X72405Y98029D01*
X72151D01*
X72405Y97775D01*
X72151Y97521D01*
X72405D01*
X72659Y97267D01*
X70119D02*
X70373Y97521D01*
X70627D01*
X70373Y97775D01*
X70627Y98029D01*
X70373D01*
X70119Y98283D01*
X69865Y98029D01*
X69611D01*
X69865Y97775D01*
X69611Y97521D01*
X69865D01*
X70119Y97267D01*
X67579D02*
X67833Y97521D01*
X68087D01*
X67833Y97775D01*
X68087Y98029D01*
X67833D01*
X67579Y98283D01*
X67325Y98029D01*
X67071D01*
X67325Y97775D01*
X67071Y97521D01*
X67325D01*
X67579Y97267D01*
X65039D02*
X65293Y97521D01*
X65547D01*
X65293Y97775D01*
X65547Y98029D01*
X65293D01*
X65039Y98283D01*
X64785Y98029D01*
X64531D01*
X64785Y97775D01*
X64531Y97521D01*
X64785D01*
X65039Y97267D01*
X62499D02*
X62753Y97521D01*
X63007D01*
X62753Y97775D01*
X63007Y98029D01*
X62753D01*
X62499Y98283D01*
X62245Y98029D01*
X61991D01*
X62245Y97775D01*
X61991Y97521D01*
X62245D01*
X62499Y97267D01*
X58831Y94107D02*
X59085Y94615D01*
X58831Y95123D01*
X59339Y94869D01*
X59847Y95123D01*
X59593Y94615D01*
X59847Y94107D01*
X59339Y94361D01*
X58831Y94107D01*
X82931Y86487D02*
X83185Y86995D01*
X82931Y87503D01*
X83439Y87249D01*
X83947Y87503D01*
X83693Y86995D01*
X83947Y86487D01*
X83439Y86741D01*
X82931Y86487D01*
Y89027D02*
X83185Y89535D01*
X82931Y90043D01*
X83439Y89789D01*
X83947Y90043D01*
X83693Y89535D01*
X83947Y89027D01*
X83439Y89281D01*
X82931Y89027D01*
Y91567D02*
X83185Y92075D01*
X82931Y92583D01*
X83439Y92329D01*
X83947Y92583D01*
X83693Y92075D01*
X83947Y91567D01*
X83439Y91821D01*
X82931Y91567D01*
Y94107D02*
X83185Y94615D01*
X82931Y95123D01*
X83439Y94869D01*
X83947Y95123D01*
X83693Y94615D01*
X83947Y94107D01*
X83439Y94361D01*
X82931Y94107D01*
X95885Y59944D02*
Y60960D01*
X96901D01*
Y59944D01*
X95885D01*
Y100584D02*
Y101600D01*
X96901D01*
Y100584D01*
X95885D01*
X43180Y51054D02*
Y52070D01*
X44196D01*
Y51054D01*
X43180D01*
X95885Y85344D02*
Y86360D01*
X96901D01*
Y85344D01*
X95885D01*
Y98044D02*
Y99060D01*
X96901D01*
Y98044D01*
X95885D01*
Y95504D02*
Y96520D01*
X96901D01*
Y95504D01*
X95885D01*
Y87884D02*
Y88900D01*
X96901D01*
Y87884D01*
X95885D01*
X45720Y51054D02*
Y52070D01*
X46736D01*
Y51054D01*
X45720D01*
X95885Y67564D02*
Y68580D01*
X96901D01*
Y67564D01*
X95885D01*
Y108204D02*
Y109220D01*
X96901D01*
Y108204D01*
X95885D01*
Y90424D02*
Y91440D01*
X96901D01*
Y90424D01*
X95885D01*
Y82804D02*
Y83820D01*
X96901D01*
Y82804D01*
X95885D01*
Y65024D02*
Y66040D01*
X96901D01*
Y65024D01*
X95885D01*
Y105664D02*
Y106680D01*
X96901D01*
Y105664D01*
X95885D01*
Y80264D02*
Y81280D01*
X96901D01*
Y80264D01*
X95885D01*
Y92964D02*
Y93980D01*
X96901D01*
Y92964D01*
X95885D01*
Y62484D02*
Y63500D01*
X96901D01*
Y62484D01*
X95885D01*
Y103124D02*
Y104140D01*
X96901D01*
Y103124D01*
X95885D01*
X50800Y51054D02*
Y52070D01*
X51816D01*
Y51054D01*
X50800D01*
X48260D02*
Y52070D01*
X49276D01*
Y51054D01*
X48260D01*
X50800Y48514D02*
Y49530D01*
X51816D01*
Y48514D01*
X50800D01*
X48260D02*
Y49530D01*
X49276D01*
Y48514D01*
X48260D01*
X45720D02*
Y49530D01*
X46736D01*
Y48514D01*
X45720D01*
X43180D02*
Y49530D01*
X44196D01*
Y48514D01*
X43180D01*
X98425Y65024D02*
Y66040D01*
X99441D01*
Y65024D01*
X98425D01*
Y67564D02*
Y68580D01*
X99441D01*
Y67564D01*
X98425D01*
Y59944D02*
Y60960D01*
X99441D01*
Y59944D01*
X98425D01*
Y62484D02*
Y63500D01*
X99441D01*
Y62484D01*
X98425D01*
X95885Y70104D02*
Y71120D01*
X96901D01*
Y70104D01*
X95885D01*
Y72644D02*
Y73660D01*
X96901D01*
Y72644D01*
X95885D01*
Y75184D02*
Y76200D01*
X96901D01*
Y75184D01*
X95885D01*
Y77724D02*
Y78740D01*
X96901D01*
Y77724D01*
X95885D01*
X98425Y92964D02*
Y93980D01*
X99441D01*
Y92964D01*
X98425D01*
Y95504D02*
Y96520D01*
X99441D01*
Y95504D01*
X98425D01*
Y98044D02*
Y99060D01*
X99441D01*
Y98044D01*
X98425D01*
Y105664D02*
Y106680D01*
X99441D01*
Y105664D01*
X98425D01*
Y108204D02*
Y109220D01*
X99441D01*
Y108204D01*
X98425D01*
Y90424D02*
Y91440D01*
X99441D01*
Y90424D01*
X98425D01*
Y103124D02*
Y104140D01*
X99441D01*
Y103124D01*
X98425D01*
Y100584D02*
Y101600D01*
X99441D01*
Y100584D01*
X98425D01*
X111691Y58478D02*
X111183Y59494D01*
X112199D01*
X111691Y58478D01*
X113397Y59865D02*
X112889Y60881D01*
X113905D01*
X113397Y59865D01*
X113411Y50292D02*
X112903Y51308D01*
X113919D01*
X113411Y50292D01*
X59817Y39751D02*
X59309Y40767D01*
X60325D01*
X59817Y39751D01*
X68961Y82169D02*
X68453Y83185D01*
X69469D01*
X68961Y82169D01*
X112927Y98914D02*
X112419Y99930D01*
X113435D01*
X112927Y98914D01*
X112903Y108204D02*
X112395Y109220D01*
X113411D01*
X112903Y108204D01*
X112951Y103615D02*
X112443Y104631D01*
X113459D01*
X112951Y103615D01*
X112903Y94107D02*
X112395Y95123D01*
X113411D01*
X112903Y94107D01*
X112927Y89413D02*
X112419Y90429D01*
X113435D01*
X112927Y89413D01*
Y84812D02*
X112419Y85828D01*
X113435D01*
X112927Y84812D01*
Y80012D02*
X112419Y81028D01*
X113435D01*
X112927Y80012D01*
Y75311D02*
X112419Y76327D01*
X113435D01*
X112927Y75311D01*
X68938Y79352D02*
X68430Y80368D01*
X69446D01*
X68938Y79352D01*
D61*
X40640Y105664D02*
G03*
X40640Y105664I-508J0D01*
G01*
X66115Y32548D02*
G03*
X66115Y32548I-508J0D01*
G01*
X59615D02*
G03*
X59615Y32548I-508J0D01*
G01*
X40640Y108204D02*
G03*
X40640Y108204I-508J0D01*
G01*
X48260Y110744D02*
G03*
X48260Y110744I-508J0D01*
G01*
Y113284D02*
G03*
X48260Y113284I-508J0D01*
G01*
Y105664D02*
G03*
X48260Y105664I-508J0D01*
G01*
X40640Y110744D02*
G03*
X40640Y110744I-508J0D01*
G01*
X48260Y108204D02*
G03*
X48260Y108204I-508J0D01*
G01*
X40640Y113284D02*
G03*
X40640Y113284I-508J0D01*
G01*
X66115Y37048D02*
G03*
X66115Y37048I-508J0D01*
G01*
X59615D02*
G03*
X59615Y37048I-508J0D01*
G01*
M02*
