G04*
G04 #@! TF.GenerationSoftware,Altium Limited,Altium Designer,26.5.0 (11)*
G04*
G04 Layer_Color=16711935*
G04 Board_Origin=0|0*
%FSLAX43Y43*%
%MOMM*%
G71*
G04*
G04 #@! TF.SameCoordinates,80E9BAEF-7E6F-45FB-9ECE-2008D9C71877*
G04*
G04*
G04 #@! TF.FilePolarity,Positive*
G04*
G01*
G75*
%ADD12C,0.100*%
%ADD13C,0.152*%
%ADD60C,0.203*%
G36*
X108034Y108577D02*
X107534D01*
Y108877D01*
X108034D01*
Y108577D01*
D02*
G37*
G36*
X106334D02*
X105834D01*
Y108877D01*
X106334D01*
Y108577D01*
D02*
G37*
G36*
X108034Y107927D02*
X107534D01*
Y108227D01*
X108034D01*
Y107927D01*
D02*
G37*
G36*
X106334D02*
X105834D01*
Y108227D01*
X106334D01*
Y107927D01*
D02*
G37*
G36*
X108034Y107277D02*
X107534D01*
Y107577D01*
X108034D01*
Y107277D01*
D02*
G37*
G36*
X106334D02*
X105834D01*
Y107577D01*
X106334D01*
Y107277D01*
D02*
G37*
G36*
X108034Y103497D02*
X107534D01*
Y103797D01*
X108034D01*
Y103497D01*
D02*
G37*
G36*
X106334D02*
X105834D01*
Y103797D01*
X106334D01*
Y103497D01*
D02*
G37*
G36*
X108034Y102847D02*
X107534D01*
Y103147D01*
X108034D01*
Y102847D01*
D02*
G37*
G36*
X106334D02*
X105834D01*
Y103147D01*
X106334D01*
Y102847D01*
D02*
G37*
G36*
X108034Y102197D02*
X107534D01*
Y102497D01*
X108034D01*
Y102197D01*
D02*
G37*
G36*
X106334D02*
X105834D01*
Y102497D01*
X106334D01*
Y102197D01*
D02*
G37*
G36*
X107946Y98402D02*
X107446D01*
Y98702D01*
X107946D01*
Y98402D01*
D02*
G37*
G36*
X106246D02*
X105746D01*
Y98702D01*
X106246D01*
Y98402D01*
D02*
G37*
G36*
X107946Y97752D02*
X107446D01*
Y98052D01*
X107946D01*
Y97752D01*
D02*
G37*
G36*
X106246D02*
X105746D01*
Y98052D01*
X106246D01*
Y97752D01*
D02*
G37*
G36*
X107946Y97102D02*
X107446D01*
Y97402D01*
X107946D01*
Y97102D01*
D02*
G37*
G36*
X106246D02*
X105746D01*
Y97402D01*
X106246D01*
Y97102D01*
D02*
G37*
G36*
X107907Y93337D02*
X107407D01*
Y93637D01*
X107907D01*
Y93337D01*
D02*
G37*
G36*
X106207D02*
X105707D01*
Y93637D01*
X106207D01*
Y93337D01*
D02*
G37*
G36*
X107907Y92687D02*
X107407D01*
Y92987D01*
X107907D01*
Y92687D01*
D02*
G37*
G36*
X106207D02*
X105707D01*
Y92987D01*
X106207D01*
Y92687D01*
D02*
G37*
G36*
X107907Y92037D02*
X107407D01*
Y92337D01*
X107907D01*
Y92037D01*
D02*
G37*
G36*
X106207D02*
X105707D01*
Y92337D01*
X106207D01*
Y92037D01*
D02*
G37*
G36*
X51600Y39843D02*
X51300D01*
Y40343D01*
X51600D01*
Y39843D01*
D02*
G37*
G36*
X50950D02*
X50650D01*
Y40343D01*
X50950D01*
Y39843D01*
D02*
G37*
G36*
X50300D02*
X50000D01*
Y40343D01*
X50300D01*
Y39843D01*
D02*
G37*
G36*
X51600Y38143D02*
X51300D01*
Y38643D01*
X51600D01*
Y38143D01*
D02*
G37*
G36*
X50950D02*
X50650D01*
Y38643D01*
X50950D01*
Y38143D01*
D02*
G37*
G36*
X50300D02*
X50000D01*
Y38643D01*
X50300D01*
Y38143D01*
D02*
G37*
D12*
X79916Y31510D02*
X80866D01*
X79916Y33260D02*
X80866D01*
X79916Y31510D02*
Y33260D01*
X80866Y31510D02*
Y33260D01*
X59357Y31798D02*
Y37798D01*
X65357Y31798D02*
Y37798D01*
X59357D02*
X65357D01*
X59357Y31798D02*
X65357D01*
X48293Y39356D02*
X49243D01*
X48293Y37606D02*
X49243D01*
Y39356D01*
X48293Y37606D02*
Y39356D01*
X56120Y39784D02*
Y40734D01*
X54370Y39784D02*
Y40734D01*
Y39784D02*
X56120D01*
X54370Y40734D02*
X56120D01*
X45372Y39316D02*
X46322D01*
X45372Y37566D02*
X46322D01*
Y39316D01*
X45372Y37566D02*
Y39316D01*
X112108Y60172D02*
Y61922D01*
X111158Y60172D02*
Y61922D01*
X112108D01*
X111158Y60172D02*
X112108D01*
X111158Y50647D02*
X112108D01*
X111158Y52397D02*
X112108D01*
X111158Y50647D02*
Y52397D01*
X112108Y50647D02*
Y52397D01*
X108258Y67343D02*
X110008D01*
X108258Y68293D02*
X110008D01*
Y67343D02*
Y68293D01*
X108258Y67343D02*
Y68293D01*
X108218Y51976D02*
Y52926D01*
X109968Y51976D02*
Y52926D01*
X108218D02*
X109968D01*
X108218Y51976D02*
X109968D01*
X92714Y31854D02*
Y33604D01*
X93664Y31854D02*
Y33604D01*
X92714Y31854D02*
X93664D01*
X92714Y33604D02*
X93664D01*
X76900Y34508D02*
Y36257D01*
X75950Y34508D02*
Y36257D01*
X76900D01*
X75950Y34508D02*
X76900D01*
X71341Y34391D02*
Y36141D01*
X70391Y34391D02*
Y36141D01*
X71341D01*
X70391Y34391D02*
X71341D01*
X98683Y31815D02*
Y33564D01*
X99633Y31815D02*
Y33564D01*
X98683Y31815D02*
X99633D01*
X98683Y33564D02*
X99633D01*
X95235Y34755D02*
X96985D01*
X95235Y35704D02*
X96985D01*
Y34755D02*
Y35704D01*
X95235Y34755D02*
Y35704D01*
X72541Y33965D02*
X74691D01*
X72541Y35365D02*
X74691D01*
X72541Y33965D02*
Y35365D01*
X74691Y33965D02*
Y35365D01*
X86576Y31606D02*
Y33356D01*
X87526Y31606D02*
Y33356D01*
X86576Y31606D02*
X87526D01*
X86576Y33356D02*
X87526D01*
X83636Y34673D02*
X85386D01*
X83636Y35623D02*
X85386D01*
Y34673D02*
Y35623D01*
X83636Y34673D02*
Y35623D01*
X72756Y30971D02*
X74506D01*
X72756Y31920D02*
X74506D01*
Y30971D02*
Y31920D01*
X72756Y30971D02*
Y31920D01*
D13*
X94067Y33675D02*
G03*
X94067Y33929I0J127D01*
G01*
D02*
G03*
X94067Y33675I0J-127D01*
G01*
X95430Y33790D02*
X96790D01*
Y31589D02*
Y33790D01*
X95430Y31589D02*
X96790D01*
X95430D02*
Y33790D01*
D60*
X49800Y39868D02*
X51800D01*
Y38618D02*
Y39868D01*
X49800Y38618D02*
X51800D01*
X49800D02*
Y39868D01*
X107559Y101997D02*
Y103997D01*
X106309Y101997D02*
X107559D01*
X106309D02*
Y103997D01*
X107559D01*
Y107077D02*
Y109077D01*
X106309Y107077D02*
X107559D01*
X106309D02*
Y109077D01*
X107559D01*
X107471Y96902D02*
Y98902D01*
X106221Y96902D02*
X107471D01*
X106221D02*
Y98902D01*
X107471D01*
X106182Y93837D02*
X107432D01*
X106182Y91837D02*
Y93837D01*
Y91837D02*
X107432D01*
Y93837D01*
M02*
