G04*
G04 #@! TF.GenerationSoftware,Altium Limited,Altium Designer,26.5.1 (12)*
G04*
G04 Layer_Color=0*
G04 Board_Origin=0|0*
%FSLAX43Y43*%
%MOMM*%
G71*
G04*
G04 #@! TF.SameCoordinates,8520594B-97C6-4304-984B-58ABFC214B16*
G04*
G04*
G04 #@! TF.FilePolarity,Positive*
G04*
G01*
G75*
%ADD13C,0.100*%
%ADD52C,0.050*%
D13*
X244483Y99977D02*
X245483D01*
X244983Y99477D02*
Y100477D01*
X180602Y53721D02*
X181602D01*
X181102Y53221D02*
Y54221D01*
X244483Y95277D02*
X245483D01*
X244983Y94777D02*
Y95777D01*
X175903Y42926D02*
X176903D01*
X176403Y42426D02*
Y43426D01*
X179840Y35052D02*
X180840D01*
X180340Y34552D02*
Y35552D01*
X242451Y67310D02*
X243451D01*
X242951Y66810D02*
Y67810D01*
X244483Y128181D02*
X245483D01*
X244983Y127681D02*
Y128681D01*
X233307Y75184D02*
X234307D01*
X233807Y74684D02*
Y75684D01*
X178435Y127516D02*
Y128516D01*
X177935Y128016D02*
X178935D01*
X244483Y123480D02*
X245483D01*
X244983Y122980D02*
Y123980D01*
X233307Y84455D02*
X234307D01*
X233807Y83955D02*
Y84955D01*
X220599Y103640D02*
Y104640D01*
X220099Y104140D02*
X221099D01*
X208669Y53340D02*
X209669D01*
X209169Y52840D02*
Y53840D01*
X244983Y118280D02*
Y119280D01*
X244483Y118780D02*
X245483D01*
X184785Y38870D02*
Y39870D01*
X184285Y39370D02*
X185285D01*
X244483Y114079D02*
X245483D01*
X244983Y113579D02*
Y114579D01*
X217353Y35410D02*
Y36410D01*
X216853Y35910D02*
X217853D01*
X244483Y109379D02*
X245483D01*
X244983Y108879D02*
Y109879D01*
X178435Y38616D02*
Y39616D01*
X177935Y39116D02*
X178935D01*
X244483Y104678D02*
X245483D01*
X244983Y104178D02*
Y105178D01*
D52*
X239911Y114179D02*
X240911D01*
X240411Y113679D02*
Y114679D01*
X239911Y109479D02*
X240911D01*
X240411Y108979D02*
Y109979D01*
X239911Y104778D02*
X240911D01*
X240411Y104278D02*
Y105278D01*
X239911Y100078D02*
X240911D01*
X240411Y99578D02*
Y100578D01*
X239911Y95377D02*
X240911D01*
X240411Y94877D02*
Y95877D01*
X239935Y128281D02*
X240935D01*
X240435Y127781D02*
Y128781D01*
X239935Y123581D02*
X240935D01*
X240435Y123081D02*
Y124081D01*
X239911Y118880D02*
X240911D01*
X240411Y118380D02*
Y119380D01*
M02*
