G04*
G04 #@! TF.GenerationSoftware,Altium Limited,Altium Designer,26.5.1 (12)*
G04*
G04 Layer_Color=8421504*
G04 Board_Origin=0|0*
%FSLAX43Y43*%
%MOMM*%
G71*
G04*
G04 #@! TF.SameCoordinates,8520594B-97C6-4304-984B-58ABFC214B16*
G04*
G04*
G04 #@! TF.FilePolarity,Positive*
G04*
G01*
G75*
%ADD22R,1.017X0.949*%
%ADD23R,1.400X1.600*%
%ADD24R,0.300X0.700*%
%ADD25R,1.000X0.850*%
G04:AMPARAMS|DCode=26|XSize=1.19mm|YSize=0.4mm|CornerRadius=0.1mm|HoleSize=0mm|Usage=FLASHONLY|Rotation=0.000|XOffset=0mm|YOffset=0mm|HoleType=Round|Shape=RoundedRectangle|*
%AMROUNDEDRECTD26*
21,1,1.190,0.200,0,0,0.0*
21,1,0.990,0.400,0,0,0.0*
1,1,0.200,0.495,-0.100*
1,1,0.200,-0.495,-0.100*
1,1,0.200,-0.495,0.100*
1,1,0.200,0.495,0.100*
%
%ADD26ROUNDEDRECTD26*%
%ADD27R,0.700X0.300*%
%ADD28R,0.690X0.990*%
%ADD29R,1.000X1.200*%
%ADD30R,0.850X1.000*%
G04:AMPARAMS|DCode=31|XSize=1.16mm|YSize=0.237mm|CornerRadius=0.118mm|HoleSize=0mm|Usage=FLASHONLY|Rotation=270.000|XOffset=0mm|YOffset=0mm|HoleType=Round|Shape=RoundedRectangle|*
%AMROUNDEDRECTD31*
21,1,1.160,0.000,0,0,270.0*
21,1,0.924,0.237,0,0,270.0*
1,1,0.237,0.000,-0.462*
1,1,0.237,0.000,0.462*
1,1,0.237,0.000,0.462*
1,1,0.237,0.000,-0.462*
%
%ADD31ROUNDEDRECTD31*%
%ADD32R,0.237X1.160*%
%ADD33R,0.700X0.600*%
%ADD34R,0.700X1.000*%
%ADD35R,0.950X1.450*%
%ADD36R,1.150X0.350*%
G04:AMPARAMS|DCode=37|XSize=0.45mm|YSize=1.05mm|CornerRadius=0.05mm|HoleSize=0mm|Usage=FLASHONLY|Rotation=180.000|XOffset=0mm|YOffset=0mm|HoleType=Round|Shape=RoundedRectangle|*
%AMROUNDEDRECTD37*
21,1,0.450,0.951,0,0,180.0*
21,1,0.351,1.050,0,0,180.0*
1,1,0.099,-0.176,0.476*
1,1,0.099,0.176,0.476*
1,1,0.099,0.176,-0.476*
1,1,0.099,-0.176,-0.476*
%
%ADD37ROUNDEDRECTD37*%
D22*
X244248Y99977D02*
D03*
X245718D02*
D03*
X244248Y95277D02*
D03*
X245718D02*
D03*
X244248Y128181D02*
D03*
X245718D02*
D03*
X244248Y123480D02*
D03*
X245718D02*
D03*
X244248Y118780D02*
D03*
X245718D02*
D03*
X244248Y114079D02*
D03*
X245718D02*
D03*
X244248Y109379D02*
D03*
X245718D02*
D03*
X244248Y104678D02*
D03*
X245718D02*
D03*
D23*
X238911Y114179D02*
D03*
X241911D02*
D03*
X238911Y109479D02*
D03*
X241911D02*
D03*
X238911Y104778D02*
D03*
X241911D02*
D03*
X238911Y100078D02*
D03*
X241911D02*
D03*
X238911Y95377D02*
D03*
X241911D02*
D03*
X238935Y128281D02*
D03*
X241935D02*
D03*
X238935Y123581D02*
D03*
X241935D02*
D03*
X238911Y118880D02*
D03*
X241911D02*
D03*
D24*
X183754Y43522D02*
D03*
X185054D02*
D03*
X183754Y41822D02*
D03*
X184404Y43522D02*
D03*
X185054Y41822D02*
D03*
X184404D02*
D03*
D25*
X179451Y42545D02*
D03*
Y41195D02*
D03*
X204470Y39370D02*
D03*
Y38020D02*
D03*
X182372Y42585D02*
D03*
Y41235D02*
D03*
X234569Y81280D02*
D03*
Y79930D02*
D03*
X220655Y36585D02*
D03*
Y35235D02*
D03*
X234569Y71755D02*
D03*
Y70405D02*
D03*
X210029Y39486D02*
D03*
Y38137D02*
D03*
X226793Y35484D02*
D03*
Y36833D02*
D03*
X232762Y36793D02*
D03*
Y35444D02*
D03*
X213995Y36489D02*
D03*
Y35139D02*
D03*
D26*
X228754Y36768D02*
D03*
X230674D02*
D03*
X228754Y35469D02*
D03*
X230674D02*
D03*
X228754Y36118D02*
D03*
D27*
X229020Y126985D02*
D03*
Y128285D02*
D03*
X230720Y126985D02*
D03*
Y128285D02*
D03*
Y127635D02*
D03*
X229020D02*
D03*
X228893Y113045D02*
D03*
Y111745D02*
D03*
X230593D02*
D03*
Y113045D02*
D03*
Y112395D02*
D03*
X228893D02*
D03*
X229020Y123205D02*
D03*
Y121905D02*
D03*
X230720D02*
D03*
Y123205D02*
D03*
Y122555D02*
D03*
X229020D02*
D03*
X228932Y116810D02*
D03*
Y118110D02*
D03*
X230632D02*
D03*
Y116810D02*
D03*
Y117460D02*
D03*
X228932D02*
D03*
D28*
X175453Y44221D02*
D03*
X177353D02*
D03*
Y41631D02*
D03*
X175453D02*
D03*
X176403Y44221D02*
D03*
Y41631D02*
D03*
D29*
X179515Y36322D02*
D03*
X181165Y33782D02*
D03*
X179515D02*
D03*
X181165Y36322D02*
D03*
D30*
X232744Y87376D02*
D03*
X231394D02*
D03*
X232704Y72009D02*
D03*
X231354D02*
D03*
X218790Y38577D02*
D03*
X217440D02*
D03*
X207910Y34875D02*
D03*
X206560D02*
D03*
X189524Y43688D02*
D03*
X188174D02*
D03*
X230389Y38659D02*
D03*
X229039D02*
D03*
D31*
X234057Y73808D02*
D03*
X233057D02*
D03*
Y76560D02*
D03*
X233557D02*
D03*
Y73808D02*
D03*
X234557D02*
D03*
X234057Y76560D02*
D03*
X234057Y83079D02*
D03*
X233057D02*
D03*
Y85831D02*
D03*
X233557Y83079D02*
D03*
Y85831D02*
D03*
X234057D02*
D03*
X234557Y83079D02*
D03*
D32*
X234557Y76560D02*
D03*
X234557Y85831D02*
D03*
D33*
X189539Y39401D02*
D03*
X187539D02*
D03*
X189539Y41301D02*
D03*
D34*
X187539Y41101D02*
D03*
D35*
X183810Y39370D02*
D03*
X185760D02*
D03*
X177460Y39116D02*
D03*
X179410D02*
D03*
D36*
X218378Y36560D02*
D03*
Y35260D02*
D03*
X216328D02*
D03*
Y36560D02*
D03*
Y35910D02*
D03*
D37*
X206570Y39319D02*
D03*
X207870D02*
D03*
Y36870D02*
D03*
X206570D02*
D03*
X207220D02*
D03*
M02*
