G04*
G04 #@! TF.GenerationSoftware,Altium Limited,Altium Designer,26.5.1 (12)*
G04*
G04 Layer_Physical_Order=1*
G04 Layer_Color=255*
G04 Board_Origin=0|0*
%FSLAX43Y43*%
%MOMM*%
G71*
G04*
G04 #@! TF.SameCoordinates,20459B2D-5BB8-49DC-8A7D-EE08CDFB023B*
G04*
G04*
G04 #@! TF.FilePolarity,Positive*
G04*
G01*
G75*
%ADD15C,0.254*%
%ADD22R,1.017X0.949*%
%ADD23R,1.400X1.600*%
%ADD24R,0.300X0.700*%
%ADD25R,1.000X0.850*%
G04:AMPARAMS|DCode=26|XSize=1.19mm|YSize=0.4mm|CornerRadius=0.1mm|HoleSize=0mm|Usage=FLASHONLY|Rotation=0.000|XOffset=0mm|YOffset=0mm|HoleType=Round|Shape=RoundedRectangle|*
%AMROUNDEDRECTD26*
21,1,1.190,0.200,0,0,0.0*
21,1,0.990,0.400,0,0,0.0*
1,1,0.200,0.495,-0.100*
1,1,0.200,-0.495,-0.100*
1,1,0.200,-0.495,0.100*
1,1,0.200,0.495,0.100*
%
%ADD26ROUNDEDRECTD26*%
%ADD27R,0.700X0.300*%
%ADD28R,0.690X0.990*%
%ADD29R,1.000X1.200*%
%ADD30R,0.850X1.000*%
G04:AMPARAMS|DCode=31|XSize=1.16mm|YSize=0.237mm|CornerRadius=0.118mm|HoleSize=0mm|Usage=FLASHONLY|Rotation=270.000|XOffset=0mm|YOffset=0mm|HoleType=Round|Shape=RoundedRectangle|*
%AMROUNDEDRECTD31*
21,1,1.160,0.000,0,0,270.0*
21,1,0.924,0.237,0,0,270.0*
1,1,0.237,0.000,-0.462*
1,1,0.237,0.000,0.462*
1,1,0.237,0.000,0.462*
1,1,0.237,0.000,-0.462*
%
%ADD31ROUNDEDRECTD31*%
%ADD32R,0.237X1.160*%
%ADD33R,0.700X0.600*%
%ADD34R,0.700X1.000*%
%ADD35R,0.950X1.450*%
%ADD36R,1.150X0.350*%
G04:AMPARAMS|DCode=37|XSize=0.45mm|YSize=1.05mm|CornerRadius=0.05mm|HoleSize=0mm|Usage=FLASHONLY|Rotation=180.000|XOffset=0mm|YOffset=0mm|HoleType=Round|Shape=RoundedRectangle|*
%AMROUNDEDRECTD37*
21,1,0.450,0.951,0,0,180.0*
21,1,0.351,1.050,0,0,180.0*
1,1,0.099,-0.176,0.476*
1,1,0.099,0.176,0.476*
1,1,0.099,0.176,-0.476*
1,1,0.099,-0.176,-0.476*
%
%ADD37ROUNDEDRECTD37*%
G04:AMPARAMS|DCode=40|XSize=1.6mm|YSize=1.6mm|CornerRadius=0.4mm|HoleSize=0mm|Usage=FLASHONLY|Rotation=0.000|XOffset=0mm|YOffset=0mm|HoleType=Round|Shape=RoundedRectangle|*
%AMROUNDEDRECTD40*
21,1,1.600,0.800,0,0,0.0*
21,1,0.800,1.600,0,0,0.0*
1,1,0.800,0.400,-0.400*
1,1,0.800,-0.400,-0.400*
1,1,0.800,-0.400,0.400*
1,1,0.800,0.400,0.400*
%
%ADD40ROUNDEDRECTD40*%
%ADD41C,1.600*%
G04:AMPARAMS|DCode=42|XSize=1.6mm|YSize=1.6mm|CornerRadius=0.4mm|HoleSize=0mm|Usage=FLASHONLY|Rotation=90.000|XOffset=0mm|YOffset=0mm|HoleType=Round|Shape=RoundedRectangle|*
%AMROUNDEDRECTD42*
21,1,1.600,0.800,0,0,90.0*
21,1,0.800,1.600,0,0,90.0*
1,1,0.800,0.400,0.400*
1,1,0.800,0.400,-0.400*
1,1,0.800,-0.400,-0.400*
1,1,0.800,-0.400,0.400*
%
%ADD42ROUNDEDRECTD42*%
%ADD43C,1.550*%
%ADD44R,1.550X1.550*%
%ADD45R,1.500X1.500*%
%ADD46C,1.500*%
%ADD47C,1.575*%
%ADD48C,1.524*%
%ADD49C,0.381*%
%ADD50C,1.270*%
G36*
X250771Y27247D02*
X171631D01*
Y136471D01*
X250771D01*
Y27247D01*
D02*
G37*
%LPC*%
G36*
X182397Y132982D02*
X182093D01*
X181799Y132903D01*
X181535Y132751D01*
X181320Y132536D01*
X181168Y132272D01*
X181089Y131978D01*
Y131674D01*
X181168Y131380D01*
X181320Y131116D01*
X181535Y130901D01*
X181799Y130749D01*
X182029Y130687D01*
Y130425D01*
X181799Y130363D01*
X181535Y130211D01*
X181320Y129996D01*
X181168Y129732D01*
X181089Y129438D01*
Y129134D01*
X181137Y128954D01*
X180979Y128700D01*
X178575D01*
X175743Y131532D01*
X175781Y131674D01*
Y131978D01*
X175702Y132272D01*
X175550Y132536D01*
X175335Y132751D01*
X175071Y132903D01*
X174777Y132982D01*
X174473D01*
X174179Y132903D01*
X173915Y132751D01*
X173700Y132536D01*
X173548Y132272D01*
X173469Y131978D01*
Y131674D01*
X173548Y131380D01*
X173700Y131116D01*
X173915Y130901D01*
X174179Y130749D01*
X174409Y130687D01*
Y130425D01*
X174179Y130363D01*
X173915Y130211D01*
X173700Y129996D01*
X173548Y129732D01*
X173469Y129438D01*
Y129134D01*
X173548Y128840D01*
X173700Y128576D01*
X173915Y128361D01*
X174179Y128209D01*
X174409Y128147D01*
Y127885D01*
X174179Y127823D01*
X173915Y127671D01*
X173700Y127456D01*
X173548Y127192D01*
X173469Y126898D01*
Y126594D01*
X173548Y126300D01*
X173700Y126036D01*
X173915Y125821D01*
X174179Y125669D01*
X174359Y125621D01*
X174359Y125358D01*
X174169Y125307D01*
X173900Y125151D01*
X173680Y124931D01*
X173524Y124662D01*
X173456Y124409D01*
X174625D01*
X175794D01*
X175726Y124662D01*
X175570Y124931D01*
X175350Y125151D01*
X175081Y125307D01*
X174891Y125358D01*
X174891Y125621D01*
X175071Y125669D01*
X175335Y125821D01*
X175550Y126036D01*
X175702Y126300D01*
X175781Y126594D01*
Y126898D01*
X175702Y127192D01*
X175550Y127456D01*
X175335Y127671D01*
X175071Y127823D01*
X174841Y127885D01*
Y128147D01*
X175071Y128209D01*
X175335Y128361D01*
X175550Y128576D01*
X175702Y128840D01*
X175781Y129134D01*
Y129438D01*
X175763Y129505D01*
X175991Y129636D01*
X177922Y127705D01*
X178111Y127579D01*
X178334Y127535D01*
X181072D01*
X181219Y127281D01*
X181168Y127192D01*
X181089Y126898D01*
Y126594D01*
X181168Y126300D01*
X181320Y126036D01*
X181535Y125821D01*
X181799Y125669D01*
X181996Y125616D01*
X181962Y125362D01*
X181089D01*
Y123050D01*
X181662D01*
Y118605D01*
X178785Y115728D01*
X178659Y115539D01*
X178614Y115316D01*
Y97801D01*
X178659Y97578D01*
X178785Y97389D01*
X183353Y92821D01*
X183542Y92695D01*
X183765Y92650D01*
X184422D01*
X184500Y92516D01*
X184718Y92298D01*
X184984Y92144D01*
X185281Y92065D01*
X185589D01*
X185886Y92144D01*
X186152Y92298D01*
X186370Y92516D01*
X186524Y92782D01*
X186574Y92968D01*
X186836D01*
X186886Y92782D01*
X187040Y92516D01*
X187258Y92298D01*
X187524Y92144D01*
X187821Y92065D01*
X188129D01*
X188279Y92105D01*
X204776Y75608D01*
Y55637D01*
X204634Y55555D01*
X204414Y55335D01*
X204258Y55066D01*
X204178Y54765D01*
Y54455D01*
X204258Y54154D01*
X204414Y53885D01*
X204241Y53699D01*
X200718Y50175D01*
X200592Y49986D01*
X200547Y49763D01*
Y41215D01*
X200424Y41113D01*
X200117Y41169D01*
X200116Y41171D01*
X199905Y41382D01*
X199648Y41531D01*
X199360Y41608D01*
X199062D01*
X198774Y41531D01*
X198517Y41382D01*
X198306Y41171D01*
X198241Y41060D01*
X193842D01*
Y41608D01*
X191580D01*
Y39984D01*
X190270D01*
Y40082D01*
X188808D01*
Y38720D01*
X190270D01*
Y38818D01*
X191912D01*
X192024Y38841D01*
X192135Y38863D01*
X192135Y38863D01*
X192135Y38863D01*
X192232Y38927D01*
X192324Y38989D01*
X192472Y39137D01*
X192472Y39137D01*
X192472Y39137D01*
X192564Y39228D01*
X192642Y39346D01*
X193842D01*
Y39894D01*
X198241D01*
X198306Y39783D01*
X198517Y39572D01*
X198658Y39490D01*
X198721Y39193D01*
X197236Y37708D01*
X185088D01*
X184983Y37962D01*
X185091Y38070D01*
X185217Y38259D01*
X185218Y38264D01*
X186616D01*
Y38570D01*
X186808Y38720D01*
X188270D01*
Y40082D01*
X188270Y40082D01*
X188295Y40195D01*
X188295Y40195D01*
X188295Y40326D01*
Y40898D01*
X187539D01*
Y41101D01*
X187336D01*
Y42008D01*
X186783D01*
Y41684D01*
X186016D01*
X185626Y42075D01*
X185610Y42085D01*
Y42578D01*
X185610D01*
X185610Y42579D01*
X185585Y42822D01*
Y44253D01*
X184337D01*
Y48529D01*
X184292Y48752D01*
X184166Y48941D01*
X182057Y51050D01*
X182189Y51277D01*
X182217Y51270D01*
X182527D01*
X182828Y51350D01*
X183097Y51506D01*
X183317Y51726D01*
X183473Y51995D01*
X183511Y52137D01*
X183773D01*
X183811Y51995D01*
X183967Y51726D01*
X184187Y51506D01*
X184456Y51350D01*
X184757Y51270D01*
X185067D01*
X185368Y51350D01*
X185637Y51506D01*
X185857Y51726D01*
X186013Y51995D01*
X186093Y52296D01*
Y52606D01*
X186013Y52907D01*
X185857Y53176D01*
X185637Y53396D01*
X185368Y53552D01*
X185226Y53590D01*
Y53852D01*
X185368Y53890D01*
X185637Y54046D01*
X185857Y54266D01*
X186013Y54535D01*
X186093Y54836D01*
Y55146D01*
X186013Y55447D01*
X185857Y55716D01*
X185637Y55936D01*
X185368Y56092D01*
X185067Y56172D01*
X184757D01*
X184456Y56092D01*
X184187Y55936D01*
X183967Y55716D01*
X183811Y55447D01*
X183773Y55305D01*
X183511D01*
X183473Y55447D01*
X183317Y55716D01*
X183097Y55936D01*
X182828Y56092D01*
X182527Y56172D01*
X182217D01*
X181916Y56092D01*
X181647Y55936D01*
X181427Y55716D01*
X181271Y55447D01*
X181233Y55305D01*
X180971D01*
X180933Y55447D01*
X180777Y55716D01*
X180557Y55936D01*
X180288Y56092D01*
X179987Y56172D01*
X179677D01*
X179376Y56092D01*
X179107Y55936D01*
X178887Y55716D01*
X178731Y55447D01*
X178693Y55305D01*
X178431D01*
X178393Y55447D01*
X178237Y55716D01*
X178017Y55936D01*
X177748Y56092D01*
X177447Y56172D01*
X177137D01*
X176836Y56092D01*
X176567Y55936D01*
X176347Y55716D01*
X176191Y55447D01*
X176111Y55146D01*
Y54836D01*
X176191Y54535D01*
X176347Y54266D01*
X176567Y54046D01*
X176836Y53890D01*
X176843Y53889D01*
X176826Y53630D01*
X176688Y53612D01*
X176498Y53533D01*
X176335Y53408D01*
X176210Y53245D01*
X176131Y53055D01*
X176104Y52851D01*
Y52051D01*
X176131Y51847D01*
X176210Y51657D01*
X176335Y51494D01*
X176498Y51369D01*
X176688Y51290D01*
X176740Y51283D01*
Y45097D01*
X174727D01*
Y43345D01*
X176054D01*
X176145Y43208D01*
X176586Y42767D01*
X176489Y42532D01*
X175652D01*
Y42507D01*
X174727D01*
Y40755D01*
X175652D01*
Y40730D01*
X176200D01*
Y41631D01*
X176606D01*
Y40730D01*
X176824D01*
Y40222D01*
X176604D01*
Y38010D01*
X178316D01*
Y38010D01*
X178554D01*
Y38010D01*
X178880D01*
Y37303D01*
X178634D01*
Y35341D01*
X180259D01*
Y35316D01*
X180962D01*
Y36322D01*
X181165D01*
Y36525D01*
X182071D01*
Y36739D01*
X182325Y36865D01*
X182424Y36789D01*
Y34365D01*
X182046D01*
Y34763D01*
X178634D01*
Y32801D01*
X182046D01*
Y33199D01*
X182784D01*
X183007Y33244D01*
X183196Y33370D01*
X183419Y33593D01*
X183545Y33782D01*
X183590Y34005D01*
Y36543D01*
X191429D01*
X191597Y36289D01*
X191568Y36180D01*
X193854D01*
X193825Y36289D01*
X193993Y36543D01*
X197477D01*
X197700Y36587D01*
X197889Y36714D01*
X201542Y40367D01*
X201668Y40556D01*
X201713Y40779D01*
Y49522D01*
X203761Y51571D01*
X204019Y51470D01*
X204021Y51424D01*
X203932Y51291D01*
X203887Y51068D01*
Y40176D01*
X203589D01*
Y38851D01*
X203564D01*
Y38223D01*
X204470D01*
X205376D01*
Y38787D01*
X205967D01*
X205989Y38676D01*
X206084Y38534D01*
X206227Y38438D01*
X206321Y38420D01*
X206376Y38324D01*
X206398Y38248D01*
X206400Y38151D01*
X206190Y37941D01*
X206063Y37752D01*
X206027Y37570D01*
X205989Y37513D01*
X205956Y37345D01*
Y36394D01*
X205989Y36226D01*
X206084Y36084D01*
X206157Y36035D01*
X206080Y35781D01*
X205729D01*
Y35078D01*
X206560D01*
Y34875D01*
X206764D01*
Y33968D01*
X207392D01*
Y33994D01*
X207967D01*
X209835Y32125D01*
X210024Y31999D01*
X210247Y31955D01*
X217297D01*
X217520Y31999D01*
X217534Y32008D01*
X231392D01*
X231615Y32053D01*
X231804Y32179D01*
X234068Y34443D01*
X234194Y34632D01*
X234239Y34855D01*
Y37382D01*
X234194Y37605D01*
X234068Y37794D01*
X219380Y52482D01*
X219191Y52608D01*
X218968Y52653D01*
X214006D01*
X213924Y52795D01*
X213704Y53015D01*
X213435Y53171D01*
X213342Y53195D01*
X213342Y53458D01*
X213445Y53486D01*
X213720Y53645D01*
X213944Y53869D01*
X214103Y54144D01*
X214174Y54407D01*
X212979D01*
Y54610D01*
X212776D01*
Y55902D01*
X212700Y56047D01*
X219570Y62917D01*
X227589D01*
X227812Y62962D01*
X228001Y63088D01*
X234512Y69599D01*
X235450D01*
Y69599D01*
X235694Y69574D01*
X235723Y69545D01*
X235764Y69521D01*
Y68834D01*
X235809Y68611D01*
X235935Y68422D01*
X240543Y63814D01*
X240500Y63655D01*
Y63345D01*
X240580Y63044D01*
X240736Y62775D01*
X240956Y62555D01*
X241225Y62399D01*
X241526Y62319D01*
X241836D01*
X242137Y62399D01*
X242406Y62555D01*
X242626Y62775D01*
X242763Y63012D01*
X242866Y63020D01*
X243024Y62975D01*
X243035Y62889D01*
X243117Y62693D01*
X243246Y62525D01*
X243414Y62396D01*
X243610Y62314D01*
X243821Y62287D01*
X244018D01*
Y63500D01*
X244221D01*
Y63703D01*
X245434D01*
Y63900D01*
X245407Y64111D01*
X245325Y64307D01*
X245196Y64475D01*
X245028Y64604D01*
X244832Y64686D01*
X244746Y64697D01*
X244701Y64855D01*
X244709Y64958D01*
X244946Y65095D01*
X245166Y65315D01*
X245322Y65584D01*
X245402Y65885D01*
Y66195D01*
X245359Y66354D01*
X246411Y67406D01*
X246537Y67595D01*
X246582Y67818D01*
Y81688D01*
X246537Y81911D01*
X246411Y82100D01*
X230432Y98079D01*
Y110750D01*
X230667Y110847D01*
X232970Y108544D01*
Y104140D01*
X233015Y103917D01*
X233141Y103728D01*
X233986Y102883D01*
Y98806D01*
X234031Y98583D01*
X234157Y98394D01*
X235280Y97271D01*
Y96214D01*
X235239Y96190D01*
X235050Y96001D01*
X234916Y95769D01*
X234847Y95511D01*
Y95243D01*
X234916Y94985D01*
X235050Y94753D01*
X235239Y94564D01*
X235471Y94430D01*
X235729Y94361D01*
X235997D01*
X236255Y94430D01*
X236487Y94564D01*
X236676Y94753D01*
X236700Y94794D01*
X237830D01*
Y94196D01*
X239992D01*
Y96558D01*
X237830D01*
Y95960D01*
X236700D01*
X236676Y96001D01*
X236487Y96190D01*
X236446Y96214D01*
Y97512D01*
X236401Y97735D01*
X236275Y97924D01*
X235307Y98892D01*
X235318Y98926D01*
X235471Y99131D01*
X235729Y99062D01*
X235997D01*
X236255Y99131D01*
X236487Y99265D01*
X236676Y99454D01*
X236700Y99495D01*
X237830D01*
Y98897D01*
X239992D01*
Y101259D01*
X237830D01*
Y100660D01*
X236700D01*
X236676Y100701D01*
X236487Y100891D01*
X236446Y100914D01*
Y102721D01*
X236401Y102944D01*
X236275Y103133D01*
X235800Y103608D01*
X235905Y103862D01*
X235997D01*
X236255Y103931D01*
X236487Y104065D01*
X236676Y104254D01*
X236700Y104296D01*
X237830D01*
Y103597D01*
X239992D01*
Y105959D01*
X237830D01*
Y105461D01*
X236700D01*
X236676Y105502D01*
X236487Y105691D01*
X236255Y105825D01*
X235997Y105894D01*
X235729D01*
X235683Y105882D01*
X235352Y106213D01*
Y108327D01*
X235606Y108496D01*
X235729Y108463D01*
X235997D01*
X236255Y108532D01*
X236487Y108666D01*
X236676Y108855D01*
X236700Y108896D01*
X237830D01*
Y108298D01*
X239992D01*
Y110660D01*
X237830D01*
Y110062D01*
X236700D01*
X236676Y110103D01*
X236487Y110292D01*
X236446Y110316D01*
Y111687D01*
X236401Y111910D01*
X236275Y112099D01*
X235514Y112861D01*
X235529Y112947D01*
X235705Y113157D01*
X235973D01*
X236231Y113226D01*
X236463Y113360D01*
X236652Y113549D01*
X236676Y113590D01*
X237830D01*
Y112998D01*
X239992D01*
Y115360D01*
X237830D01*
Y114756D01*
X236676D01*
X236652Y114797D01*
X236463Y114986D01*
X236446Y114996D01*
Y116762D01*
X236401Y116985D01*
X236275Y117174D01*
X235739Y117710D01*
X235844Y117964D01*
X235997D01*
X236255Y118033D01*
X236487Y118167D01*
X236676Y118356D01*
X236700Y118397D01*
X237830D01*
Y117699D01*
X239992D01*
Y120061D01*
X237830D01*
Y119563D01*
X236700D01*
X236676Y119604D01*
X236487Y119793D01*
X236255Y119927D01*
X235997Y119996D01*
X235729D01*
X235683Y119984D01*
X232050Y123617D01*
X231861Y123743D01*
X231638Y123788D01*
X230720D01*
X230686Y123781D01*
X230432Y123982D01*
Y126208D01*
X230686Y126409D01*
X230720Y126402D01*
X232341D01*
X234883Y123860D01*
X234871Y123814D01*
Y123547D01*
X234940Y123289D01*
X235074Y123057D01*
X235263Y122868D01*
X235495Y122734D01*
X235753Y122665D01*
X236021D01*
X236279Y122734D01*
X236511Y122868D01*
X236700Y123057D01*
X236724Y123098D01*
X237854D01*
Y122400D01*
X240016D01*
Y124762D01*
X237854D01*
Y124263D01*
X236724D01*
X236700Y124305D01*
X236511Y124494D01*
X236279Y124627D01*
X236021Y124697D01*
X235753D01*
X235707Y124684D01*
X232995Y127397D01*
X232918Y127448D01*
X232995Y127702D01*
X234994D01*
X235026Y127646D01*
X235215Y127457D01*
X235447Y127323D01*
X235705Y127254D01*
X235973D01*
X236231Y127323D01*
X236463Y127457D01*
X236652Y127646D01*
X236676Y127687D01*
X237854D01*
Y127100D01*
X240016D01*
Y128892D01*
X240854D01*
Y127100D01*
X243016D01*
Y127598D01*
X243359D01*
Y127325D01*
X244803D01*
Y127300D01*
X245514D01*
Y128181D01*
X245718D01*
Y128384D01*
X246632D01*
Y129062D01*
X245731D01*
X245563Y129231D01*
X245563Y129231D01*
X244907Y129887D01*
X244718Y130013D01*
X244495Y130058D01*
X221386D01*
X221163Y130013D01*
X220974Y129887D01*
X220312Y129225D01*
X220286Y129227D01*
X220123Y129352D01*
X219933Y129431D01*
X219729Y129458D01*
X218929D01*
X218725Y129431D01*
X218535Y129352D01*
X218372Y129227D01*
X218247Y129064D01*
X218168Y128874D01*
X218165Y128853D01*
X198912D01*
X198689Y128808D01*
X198500Y128682D01*
X188258Y118440D01*
X188125Y118476D01*
X187825D01*
X187534Y118398D01*
X187273Y118248D01*
X187060Y118035D01*
X186910Y117774D01*
X186832Y117483D01*
Y117183D01*
X186910Y116892D01*
X187006Y116725D01*
X186884Y116471D01*
X186526D01*
X186404Y116725D01*
X186500Y116892D01*
X186578Y117183D01*
Y117483D01*
X186500Y117774D01*
X186350Y118035D01*
X186137Y118248D01*
X185876Y118398D01*
X185585Y118476D01*
X185285D01*
X184994Y118398D01*
X184821Y118298D01*
X184698Y118347D01*
X184589Y118428D01*
X184581Y118438D01*
Y126646D01*
X184536Y126869D01*
X184410Y127058D01*
X183031Y128437D01*
X183170Y128576D01*
X183322Y128840D01*
X183401Y129134D01*
Y129438D01*
X183322Y129732D01*
X183170Y129996D01*
X182955Y130211D01*
X182691Y130363D01*
X182461Y130425D01*
Y130687D01*
X182691Y130749D01*
X182955Y130901D01*
X183170Y131116D01*
X183322Y131380D01*
X183401Y131674D01*
Y131978D01*
X183322Y132272D01*
X183170Y132536D01*
X182955Y132751D01*
X182691Y132903D01*
X182397Y132982D01*
D02*
G37*
G36*
X246632Y127978D02*
X245921D01*
Y127300D01*
X246632D01*
Y127978D01*
D02*
G37*
G36*
Y124362D02*
X245921D01*
Y123684D01*
X246632D01*
Y124362D01*
D02*
G37*
G36*
X175794Y124003D02*
X174828D01*
Y123037D01*
X175081Y123105D01*
X175350Y123261D01*
X175570Y123481D01*
X175726Y123750D01*
X175794Y124003D01*
D02*
G37*
G36*
X174422D02*
X173456D01*
X173524Y123750D01*
X173680Y123481D01*
X173900Y123261D01*
X174169Y123105D01*
X174422Y123037D01*
Y124003D01*
D02*
G37*
G36*
X246632Y123277D02*
X245921D01*
Y122599D01*
X246632D01*
Y123277D01*
D02*
G37*
G36*
X243016Y124762D02*
X240854D01*
Y122400D01*
X243016D01*
Y122898D01*
X243359D01*
Y122625D01*
X244803D01*
Y122599D01*
X245514D01*
Y123480D01*
Y124362D01*
X244803D01*
Y124336D01*
X243359D01*
Y124063D01*
X243016D01*
Y124762D01*
D02*
G37*
G36*
X246632Y119661D02*
X245921D01*
Y118983D01*
X246632D01*
Y119661D01*
D02*
G37*
G36*
Y118577D02*
X245921D01*
Y117899D01*
X246632D01*
Y118577D01*
D02*
G37*
G36*
X242992Y120061D02*
X240830D01*
Y117699D01*
X242992D01*
Y118197D01*
X243359D01*
Y117924D01*
X244803D01*
Y117899D01*
X245514D01*
Y118780D01*
Y119661D01*
X244803D01*
Y119636D01*
X243359D01*
Y119363D01*
X242992D01*
Y120061D01*
D02*
G37*
G36*
X246632Y114960D02*
X245921D01*
Y114282D01*
X246632D01*
Y114960D01*
D02*
G37*
G36*
Y113876D02*
X245921D01*
Y113198D01*
X246632D01*
Y113876D01*
D02*
G37*
G36*
X242992Y115360D02*
X240830D01*
Y112998D01*
X242992D01*
Y113497D01*
X243359D01*
Y113223D01*
X244803D01*
Y113198D01*
X245514D01*
Y114079D01*
Y114960D01*
X244803D01*
Y114935D01*
X243359D01*
Y114662D01*
X242992D01*
Y115360D01*
D02*
G37*
G36*
X246632Y110260D02*
X245921D01*
Y109582D01*
X246632D01*
Y110260D01*
D02*
G37*
G36*
Y109175D02*
X245921D01*
Y108497D01*
X246632D01*
Y109175D01*
D02*
G37*
G36*
X242992Y110660D02*
X240830D01*
Y108298D01*
X242992D01*
Y108796D01*
X243359D01*
Y108523D01*
X244803D01*
Y108497D01*
X245514D01*
Y109379D01*
Y110260D01*
X244803D01*
Y110234D01*
X243359D01*
Y109961D01*
X242992D01*
Y110660D01*
D02*
G37*
G36*
X246632Y105559D02*
X245921D01*
Y104881D01*
X246632D01*
Y105559D01*
D02*
G37*
G36*
Y104475D02*
X245921D01*
Y103797D01*
X246632D01*
Y104475D01*
D02*
G37*
G36*
X242992Y105959D02*
X240830D01*
Y103597D01*
X242992D01*
Y104095D01*
X243359D01*
Y103822D01*
X244803D01*
Y103797D01*
X245514D01*
Y104678D01*
Y105559D01*
X244803D01*
Y105534D01*
X243359D01*
Y105261D01*
X242992D01*
Y105959D01*
D02*
G37*
G36*
X246632Y100858D02*
X245921D01*
Y100181D01*
X246632D01*
Y100858D01*
D02*
G37*
G36*
Y99774D02*
X245921D01*
Y99096D01*
X246632D01*
Y99774D01*
D02*
G37*
G36*
X242992Y101259D02*
X240830D01*
Y98897D01*
X242992D01*
Y99395D01*
X243359D01*
Y99122D01*
X244803D01*
Y99096D01*
X245514D01*
Y99977D01*
Y100858D01*
X244803D01*
Y100833D01*
X243359D01*
Y100560D01*
X242992D01*
Y101259D01*
D02*
G37*
G36*
X246632Y96158D02*
X245921D01*
Y95480D01*
X246632D01*
Y96158D01*
D02*
G37*
G36*
Y95074D02*
X245921D01*
Y94396D01*
X246632D01*
Y95074D01*
D02*
G37*
G36*
X242992Y96558D02*
X240830D01*
Y94196D01*
X242992D01*
Y94694D01*
X243359D01*
Y94421D01*
X244803D01*
Y94396D01*
X245514D01*
Y95277D01*
Y96158D01*
X244803D01*
Y96132D01*
X243359D01*
Y95859D01*
X242992D01*
Y96558D01*
D02*
G37*
G36*
X245434Y63297D02*
X244424D01*
Y62287D01*
X244621D01*
X244832Y62314D01*
X245028Y62396D01*
X245196Y62525D01*
X245325Y62693D01*
X245407Y62889D01*
X245434Y63100D01*
Y63297D01*
D02*
G37*
G36*
X213182Y55805D02*
Y54813D01*
X214174D01*
X214103Y55076D01*
X213944Y55351D01*
X213720Y55575D01*
X213445Y55734D01*
X213182Y55805D01*
D02*
G37*
G36*
X193555Y44704D02*
X193287D01*
X193029Y44635D01*
X192797Y44501D01*
X192608Y44312D01*
X192584Y44271D01*
X190330D01*
Y44569D01*
X189005D01*
Y44594D01*
X188377D01*
Y43688D01*
Y42782D01*
X188949D01*
Y41982D01*
X188808D01*
Y40620D01*
X190270D01*
Y41982D01*
X190114D01*
Y42807D01*
X190330D01*
Y43105D01*
X192584D01*
X192608Y43064D01*
X192797Y42875D01*
X193029Y42741D01*
X193287Y42672D01*
X193555D01*
X193813Y42741D01*
X194045Y42875D01*
X194234Y43064D01*
X194368Y43296D01*
X194437Y43554D01*
Y43822D01*
X194368Y44080D01*
X194234Y44312D01*
X194045Y44501D01*
X193813Y44635D01*
X193555Y44704D01*
D02*
G37*
G36*
X187971Y44594D02*
X187343D01*
Y43891D01*
X187971D01*
Y44594D01*
D02*
G37*
G36*
Y43485D02*
X187343D01*
Y42782D01*
X187971D01*
Y43485D01*
D02*
G37*
G36*
X188295Y42008D02*
X187742D01*
Y41304D01*
X188295D01*
Y42008D01*
D02*
G37*
G36*
X205376Y37817D02*
X204673D01*
Y37189D01*
X205376D01*
Y37817D01*
D02*
G37*
G36*
X204267D02*
X203564D01*
Y37189D01*
X204267D01*
Y37817D01*
D02*
G37*
G36*
X199414Y37120D02*
Y36180D01*
X200354D01*
X200289Y36423D01*
X200136Y36687D01*
X199921Y36902D01*
X199657Y37055D01*
X199414Y37120D01*
D02*
G37*
G36*
X199008D02*
X198765Y37055D01*
X198501Y36902D01*
X198286Y36687D01*
X198133Y36423D01*
X198068Y36180D01*
X199008D01*
Y37120D01*
D02*
G37*
G36*
X182071Y36119D02*
X181368D01*
Y35316D01*
X182071D01*
Y36119D01*
D02*
G37*
G36*
X200354Y35774D02*
X199414D01*
Y34834D01*
X199657Y34899D01*
X199921Y35052D01*
X200136Y35267D01*
X200289Y35531D01*
X200354Y35774D01*
D02*
G37*
G36*
X199008D02*
X198068D01*
X198133Y35531D01*
X198286Y35267D01*
X198501Y35052D01*
X198765Y34899D01*
X199008Y34834D01*
Y35774D01*
D02*
G37*
G36*
X193854D02*
X192914D01*
Y34834D01*
X193157Y34899D01*
X193421Y35052D01*
X193636Y35267D01*
X193789Y35531D01*
X193854Y35774D01*
D02*
G37*
G36*
X192508D02*
X191568D01*
X191633Y35531D01*
X191786Y35267D01*
X192001Y35052D01*
X192265Y34899D01*
X192508Y34834D01*
Y35774D01*
D02*
G37*
G36*
X206357Y34671D02*
X205729D01*
Y33968D01*
X206357D01*
Y34671D01*
D02*
G37*
%LPD*%
G36*
X229267Y126192D02*
Y123998D01*
X229020Y123788D01*
X228982Y123780D01*
X222892D01*
X222814Y123915D01*
X222594Y124135D01*
X222325Y124291D01*
X222183Y124329D01*
Y124591D01*
X222325Y124629D01*
X222594Y124785D01*
X222814Y125005D01*
X222896Y125147D01*
X223830D01*
X224053Y125192D01*
X224242Y125318D01*
X225326Y126402D01*
X229020D01*
X229267Y126192D01*
D02*
G37*
G36*
X234823Y119196D02*
X234793Y118986D01*
X234554Y118895D01*
X231451Y121998D01*
Y122236D01*
X231686Y122333D01*
X234823Y119196D01*
D02*
G37*
G36*
X229267Y121112D02*
Y118865D01*
X229259Y118851D01*
X229013Y118677D01*
X228932Y118693D01*
X222896D01*
X222814Y118835D01*
X222594Y119055D01*
X222325Y119211D01*
X222183Y119249D01*
Y119511D01*
X222325Y119549D01*
X222594Y119705D01*
X222814Y119925D01*
X222896Y120067D01*
X223901D01*
X224124Y120112D01*
X224313Y120238D01*
X225397Y121322D01*
X229020D01*
X229267Y121112D01*
D02*
G37*
G36*
X218384Y125005D02*
X218604Y124785D01*
X218873Y124629D01*
X219015Y124591D01*
Y124329D01*
X218873Y124291D01*
X218604Y124135D01*
X218384Y123915D01*
X218302Y123773D01*
X201452D01*
X201229Y123728D01*
X201040Y123602D01*
X195878Y118440D01*
X195745Y118476D01*
X195445D01*
X195154Y118398D01*
X194893Y118248D01*
X194680Y118035D01*
X194530Y117774D01*
X194452Y117483D01*
Y117183D01*
X194530Y116892D01*
X194680Y116631D01*
X194893Y116418D01*
X195154Y116268D01*
X195445Y116190D01*
X195745D01*
X195914Y116235D01*
X196168Y116073D01*
Y107330D01*
X192077Y103239D01*
X192031Y103251D01*
X191763D01*
X191505Y103182D01*
X191273Y103048D01*
X191084Y102859D01*
X190950Y102627D01*
X190881Y102369D01*
Y102101D01*
X190950Y101843D01*
X191047Y101675D01*
X190972Y101485D01*
X190915Y101421D01*
X188558D01*
Y103393D01*
X188513Y103616D01*
X188387Y103805D01*
X183403Y108789D01*
X183443Y108939D01*
Y109247D01*
X183364Y109544D01*
X183210Y109810D01*
X182992Y110028D01*
X182726Y110182D01*
X182540Y110232D01*
Y110494D01*
X182726Y110544D01*
X182992Y110698D01*
X183210Y110916D01*
X183364Y111182D01*
X183443Y111479D01*
Y111787D01*
X183364Y112084D01*
X183210Y112350D01*
X182992Y112568D01*
X182726Y112722D01*
X182540Y112772D01*
Y113034D01*
X182726Y113084D01*
X182992Y113238D01*
X183210Y113456D01*
X183364Y113722D01*
X183443Y114019D01*
Y114327D01*
X183364Y114624D01*
X183210Y114890D01*
X183049Y115052D01*
X183122Y115286D01*
X183137Y115306D01*
X191610D01*
X191833Y115350D01*
X192022Y115476D01*
X192772Y116226D01*
X192905Y116190D01*
X193205D01*
X193496Y116268D01*
X193757Y116418D01*
X193970Y116631D01*
X194120Y116892D01*
X194198Y117183D01*
Y117483D01*
X194120Y117774D01*
X193970Y118035D01*
X193757Y118248D01*
X193496Y118398D01*
X193205Y118476D01*
X192905D01*
X192818Y118453D01*
X192687Y118681D01*
X199153Y125147D01*
X218302D01*
X218384Y125005D01*
D02*
G37*
G36*
X218168Y127666D02*
X218247Y127476D01*
X218372Y127313D01*
X218535Y127188D01*
X218725Y127109D01*
X218863Y127091D01*
X218880Y126832D01*
X218873Y126831D01*
X218604Y126675D01*
X218384Y126455D01*
X218302Y126313D01*
X198912D01*
X198689Y126268D01*
X198500Y126142D01*
X190798Y118440D01*
X190665Y118476D01*
X190365D01*
X190278Y118453D01*
X190147Y118681D01*
X199153Y127687D01*
X218165D01*
X218168Y127666D01*
D02*
G37*
G36*
X218384Y122465D02*
X218604Y122245D01*
X218873Y122089D01*
X219015Y122051D01*
Y121789D01*
X218873Y121751D01*
X218604Y121595D01*
X218384Y121375D01*
X218228Y121106D01*
X218148Y120805D01*
Y120495D01*
X218191Y120336D01*
X215771Y117916D01*
X204198D01*
X204130Y118035D01*
X203917Y118248D01*
X203656Y118398D01*
X203365Y118476D01*
X203065D01*
X202932Y118440D01*
X202471Y118901D01*
X202282Y119027D01*
X202059Y119071D01*
X198489D01*
X198392Y119306D01*
X201693Y122607D01*
X218302D01*
X218384Y122465D01*
D02*
G37*
G36*
X218155Y118293D02*
X218148Y118265D01*
Y117955D01*
X218191Y117796D01*
X212611Y112216D01*
X207388D01*
X207310Y112350D01*
X207092Y112568D01*
X206826Y112722D01*
X206640Y112772D01*
Y113034D01*
X206826Y113084D01*
X207092Y113238D01*
X207310Y113456D01*
X207464Y113722D01*
X207543Y114019D01*
Y114327D01*
X207464Y114624D01*
X207310Y114890D01*
X207092Y115108D01*
X206826Y115262D01*
X206529Y115341D01*
X206221D01*
X205924Y115262D01*
X205658Y115108D01*
X205440Y114890D01*
X205286Y114624D01*
X205207Y114327D01*
Y114019D01*
X205286Y113722D01*
X205440Y113456D01*
X205658Y113238D01*
X205924Y113084D01*
X206110Y113034D01*
Y112772D01*
X205924Y112722D01*
X205658Y112568D01*
X205440Y112350D01*
X205286Y112084D01*
X205207Y111787D01*
Y111479D01*
X205286Y111182D01*
X205440Y110916D01*
X205658Y110698D01*
X205924Y110544D01*
X206110Y110494D01*
Y110232D01*
X205924Y110182D01*
X205658Y110028D01*
X205440Y109810D01*
X205286Y109544D01*
X205207Y109247D01*
Y108939D01*
X205286Y108642D01*
X205440Y108376D01*
X205658Y108158D01*
X205924Y108004D01*
X206110Y107954D01*
Y107692D01*
X205924Y107642D01*
X205658Y107488D01*
X205440Y107270D01*
X205286Y107004D01*
X205207Y106707D01*
Y106399D01*
X205247Y106249D01*
X204782Y105784D01*
X204656Y105595D01*
X204611Y105372D01*
Y104393D01*
X204377Y104296D01*
X201258Y107414D01*
Y116350D01*
X201377Y116418D01*
X201590Y116631D01*
X201740Y116892D01*
X201818Y117183D01*
Y117323D01*
X202072Y117437D01*
Y117183D01*
X202150Y116892D01*
X202300Y116631D01*
X202513Y116418D01*
X202774Y116268D01*
X203065Y116190D01*
X203365D01*
X203656Y116268D01*
X203917Y116418D01*
X204130Y116631D01*
X204198Y116750D01*
X216012D01*
X216235Y116795D01*
X216424Y116921D01*
X217928Y118425D01*
X218155Y118293D01*
D02*
G37*
G36*
X199760Y116631D02*
X199973Y116418D01*
X200092Y116350D01*
Y107173D01*
X200137Y106950D01*
X200263Y106761D01*
X205247Y101777D01*
X205207Y101627D01*
Y101421D01*
X192879D01*
X192822Y101485D01*
X192747Y101675D01*
X192844Y101843D01*
X192913Y102101D01*
Y102369D01*
X192901Y102415D01*
X197163Y106677D01*
X197289Y106866D01*
X197333Y107089D01*
Y116183D01*
X197587Y116329D01*
X197694Y116268D01*
X197985Y116190D01*
X198285D01*
X198576Y116268D01*
X198837Y116418D01*
X199050Y116631D01*
X199118Y116750D01*
X199692D01*
X199760Y116631D01*
D02*
G37*
G36*
X235280Y116521D02*
Y115052D01*
X235081Y114892D01*
X231491Y118482D01*
X231363Y118567D01*
Y118641D01*
X231136D01*
X231079Y118652D01*
X230836D01*
X230632Y118693D01*
X230628Y118692D01*
X230432Y118853D01*
Y121010D01*
X230686Y121115D01*
X235280Y116521D01*
D02*
G37*
G36*
X229259Y116069D02*
X229267Y116055D01*
Y113788D01*
X229235Y113745D01*
X229013Y113604D01*
X228893Y113628D01*
X228855Y113620D01*
X222892D01*
X222814Y113755D01*
X222594Y113975D01*
X222325Y114131D01*
X222183Y114169D01*
Y114431D01*
X222325Y114469D01*
X222594Y114625D01*
X222814Y114845D01*
X222896Y114987D01*
X223774D01*
X223997Y115032D01*
X224186Y115158D01*
X225255Y116227D01*
X228932D01*
X229013Y116243D01*
X229259Y116069D01*
D02*
G37*
G36*
X234187Y114138D02*
Y112781D01*
X234209Y112668D01*
X233975Y112543D01*
X231215Y115303D01*
Y116279D01*
X231363D01*
Y116603D01*
X231617Y116708D01*
X234187Y114138D01*
D02*
G37*
G36*
X218155Y115753D02*
X218148Y115725D01*
Y115415D01*
X218191Y115256D01*
X212611Y109676D01*
X207388D01*
X207310Y109810D01*
X207092Y110028D01*
X206826Y110182D01*
X206640Y110232D01*
Y110494D01*
X206826Y110544D01*
X207092Y110698D01*
X207310Y110916D01*
X207388Y111050D01*
X212852D01*
X213075Y111095D01*
X213264Y111221D01*
X217928Y115885D01*
X218155Y115753D01*
D02*
G37*
G36*
Y113213D02*
X218148Y113185D01*
Y112875D01*
X218191Y112716D01*
X210071Y104596D01*
X207388D01*
X207310Y104730D01*
X207092Y104948D01*
X206826Y105102D01*
X206640Y105152D01*
Y105414D01*
X206826Y105464D01*
X207092Y105618D01*
X207310Y105836D01*
X207464Y106102D01*
X207543Y106399D01*
Y106707D01*
X207464Y107004D01*
X207310Y107270D01*
X207092Y107488D01*
X206826Y107642D01*
X206640Y107692D01*
Y107954D01*
X206826Y108004D01*
X207092Y108158D01*
X207310Y108376D01*
X207388Y108510D01*
X212852D01*
X213075Y108555D01*
X213264Y108681D01*
X217928Y113345D01*
X218155Y113213D01*
D02*
G37*
G36*
Y110673D02*
X218148Y110645D01*
Y110335D01*
X218191Y110176D01*
X212507Y104493D01*
X212381Y104303D01*
X212337Y104080D01*
Y103179D01*
X208373Y99216D01*
X208139Y99313D01*
Y101962D01*
X208094Y102185D01*
X207968Y102374D01*
X207187Y103155D01*
X207186Y103171D01*
X207310Y103296D01*
X207388Y103430D01*
X210312D01*
X210535Y103475D01*
X210724Y103601D01*
X217928Y110805D01*
X218155Y110673D01*
D02*
G37*
G36*
Y108133D02*
X218148Y108105D01*
Y107795D01*
X218228Y107494D01*
X218384Y107225D01*
X218604Y107005D01*
X218873Y106849D01*
X219015Y106811D01*
Y106549D01*
X218873Y106511D01*
X218604Y106355D01*
X218384Y106135D01*
X218228Y105866D01*
X218148Y105565D01*
Y105255D01*
X218228Y104954D01*
X218384Y104685D01*
X218604Y104465D01*
X218873Y104309D01*
X219015Y104271D01*
Y104009D01*
X218873Y103971D01*
X218604Y103815D01*
X218384Y103595D01*
X218228Y103326D01*
X218148Y103025D01*
Y102715D01*
X218191Y102556D01*
X208270Y92635D01*
X204486D01*
X204332Y92889D01*
X204383Y93079D01*
Y93387D01*
X204304Y93684D01*
X204150Y93950D01*
X203932Y94168D01*
X203666Y94322D01*
X203369Y94401D01*
X203061D01*
X203014Y94389D01*
X202883Y94616D01*
X204992Y96725D01*
X205219Y96594D01*
X205207Y96547D01*
Y96239D01*
X205286Y95942D01*
X205440Y95676D01*
X205658Y95458D01*
X205924Y95304D01*
X206221Y95225D01*
X206529D01*
X206826Y95304D01*
X207092Y95458D01*
X207310Y95676D01*
X207464Y95942D01*
X207543Y96239D01*
Y96547D01*
X207503Y96697D01*
X213331Y102525D01*
X213458Y102714D01*
X213502Y102937D01*
Y103839D01*
X217928Y108265D01*
X218155Y108133D01*
D02*
G37*
G36*
X205659Y100044D02*
X205658Y99892D01*
X205638Y99849D01*
X205440Y99650D01*
X205286Y99384D01*
X205207Y99087D01*
Y98779D01*
X205286Y98482D01*
X205327Y98411D01*
X205181Y98157D01*
X205016D01*
X204793Y98112D01*
X204604Y97986D01*
X200979Y94361D01*
X200829Y94401D01*
X200521D01*
X200224Y94322D01*
X199958Y94168D01*
X199740Y93950D01*
X199586Y93684D01*
X199536Y93498D01*
X199274D01*
X199224Y93684D01*
X199070Y93950D01*
X198852Y94168D01*
X198586Y94322D01*
X198289Y94401D01*
X197981D01*
X197684Y94322D01*
X197418Y94168D01*
X197109Y94213D01*
X196496Y94826D01*
X196307Y94952D01*
X196084Y94997D01*
X194236D01*
X194013Y94952D01*
X193824Y94826D01*
X193359Y94361D01*
X193209Y94401D01*
X192901D01*
X192711Y94350D01*
X192457Y94504D01*
Y98581D01*
X192498Y98605D01*
X192687Y98794D01*
X192821Y99026D01*
X192890Y99284D01*
Y99552D01*
X192821Y99810D01*
X192710Y100001D01*
X192758Y100146D01*
X192833Y100255D01*
X205444D01*
X205659Y100044D01*
D02*
G37*
G36*
X190990Y100146D02*
X191038Y100001D01*
X190927Y99810D01*
X190858Y99552D01*
Y99284D01*
X190927Y99026D01*
X191061Y98794D01*
X191250Y98605D01*
X191291Y98581D01*
Y94427D01*
X191037Y94281D01*
X190966Y94322D01*
X190669Y94401D01*
X190361D01*
X190064Y94322D01*
X189798Y94168D01*
X189580Y93950D01*
X189426Y93684D01*
X189376Y93498D01*
X189114D01*
X189064Y93684D01*
X188910Y93950D01*
X188692Y94168D01*
X188558Y94246D01*
Y100255D01*
X190915D01*
X190990Y100146D01*
D02*
G37*
G36*
X187392Y103152D02*
Y100838D01*
Y94246D01*
X187258Y94168D01*
X187040Y93950D01*
X186886Y93684D01*
X186836Y93498D01*
X186574D01*
X186524Y93684D01*
X186370Y93950D01*
X186152Y94168D01*
X185886Y94322D01*
X185589Y94401D01*
X185281D01*
X184984Y94322D01*
X184718Y94168D01*
X184500Y93950D01*
X184422Y93816D01*
X184006D01*
X182751Y95071D01*
X182822Y95359D01*
X182992Y95458D01*
X183210Y95676D01*
X183364Y95942D01*
X183443Y96239D01*
Y96547D01*
X183364Y96844D01*
X183210Y97110D01*
X182992Y97328D01*
X182726Y97482D01*
X182540Y97532D01*
Y97794D01*
X182726Y97844D01*
X182992Y97998D01*
X183210Y98216D01*
X183364Y98482D01*
X183443Y98779D01*
Y99087D01*
X183364Y99384D01*
X183210Y99650D01*
X182992Y99868D01*
X182726Y100022D01*
X182540Y100072D01*
Y100334D01*
X182726Y100384D01*
X182992Y100538D01*
X183210Y100756D01*
X183364Y101022D01*
X183443Y101319D01*
Y101627D01*
X183364Y101924D01*
X183210Y102190D01*
X182992Y102408D01*
X182726Y102562D01*
X182540Y102612D01*
Y102874D01*
X182726Y102924D01*
X182992Y103078D01*
X183210Y103296D01*
X183364Y103562D01*
X183443Y103859D01*
Y104167D01*
X183364Y104464D01*
X183210Y104730D01*
X182992Y104948D01*
X182726Y105102D01*
X182540Y105152D01*
Y105414D01*
X182726Y105464D01*
X182992Y105618D01*
X183210Y105836D01*
X183364Y106102D01*
X183443Y106399D01*
Y106707D01*
X183431Y106754D01*
X183658Y106885D01*
X187392Y103152D01*
D02*
G37*
G36*
X191510Y92283D02*
X197712Y86081D01*
X197901Y85955D01*
X198124Y85911D01*
X212604D01*
X218191Y80324D01*
X218148Y80165D01*
Y79855D01*
X218228Y79554D01*
X218384Y79285D01*
X218604Y79065D01*
X218873Y78909D01*
X219174Y78829D01*
X219484D01*
X219785Y78909D01*
X220054Y79065D01*
X220329Y79038D01*
X227770Y71597D01*
X227959Y71471D01*
X228182Y71426D01*
X230523D01*
Y71103D01*
X230773D01*
X230871Y70868D01*
X224670Y64667D01*
X217373D01*
X217150Y64623D01*
X216961Y64496D01*
X208213Y55748D01*
X208054Y55791D01*
X207744D01*
X207443Y55711D01*
X207174Y55555D01*
X206954Y55335D01*
X206798Y55066D01*
X206760Y54924D01*
X206498D01*
X206460Y55066D01*
X206304Y55335D01*
X206084Y55555D01*
X205942Y55637D01*
Y75849D01*
X205897Y76072D01*
X205771Y76261D01*
X190183Y91849D01*
X190314Y92077D01*
X190361Y92065D01*
X190669D01*
X190966Y92144D01*
X191232Y92298D01*
X191510Y92283D01*
D02*
G37*
G36*
X218155Y100513D02*
X218148Y100485D01*
Y100175D01*
X218191Y100016D01*
X210225Y92050D01*
X209665D01*
X209568Y92285D01*
X217928Y100645D01*
X218155Y100513D01*
D02*
G37*
G36*
Y97973D02*
X218148Y97945D01*
Y97635D01*
X218228Y97334D01*
X218384Y97065D01*
X218604Y96845D01*
X218873Y96689D01*
X219015Y96651D01*
Y96389D01*
X218873Y96351D01*
X218604Y96195D01*
X218384Y95975D01*
X218228Y95706D01*
X218148Y95405D01*
Y95095D01*
X218228Y94794D01*
X218384Y94525D01*
X218604Y94305D01*
X218873Y94149D01*
X219015Y94111D01*
Y93849D01*
X218873Y93811D01*
X218604Y93655D01*
X218384Y93435D01*
X218228Y93166D01*
X218148Y92865D01*
Y92555D01*
X218228Y92254D01*
X218384Y91985D01*
X218604Y91765D01*
X218873Y91609D01*
X219015Y91571D01*
Y91309D01*
X218873Y91271D01*
X218604Y91115D01*
X218384Y90895D01*
X218228Y90626D01*
X218148Y90325D01*
Y90015D01*
X218228Y89714D01*
X218384Y89445D01*
X218604Y89225D01*
X218873Y89069D01*
X219015Y89031D01*
Y88769D01*
X218873Y88731D01*
X218604Y88575D01*
X218384Y88355D01*
X218228Y88086D01*
X218148Y87785D01*
Y87475D01*
X218228Y87174D01*
X218384Y86905D01*
X218604Y86685D01*
X218873Y86529D01*
X219015Y86491D01*
Y86229D01*
X218873Y86191D01*
X218604Y86035D01*
X218384Y85815D01*
X218228Y85546D01*
X218148Y85245D01*
Y84935D01*
X218228Y84634D01*
X218384Y84365D01*
X218604Y84145D01*
X218873Y83989D01*
X219015Y83951D01*
Y83689D01*
X218873Y83651D01*
X218604Y83495D01*
X218384Y83275D01*
X218228Y83006D01*
X218148Y82705D01*
Y82395D01*
X218155Y82367D01*
X217928Y82235D01*
X213258Y86906D01*
X213068Y87032D01*
X212846Y87076D01*
X198365D01*
X193531Y91911D01*
X193602Y92199D01*
X193772Y92298D01*
X193990Y92516D01*
X194144Y92782D01*
X194194Y92968D01*
X194456D01*
X194506Y92782D01*
X194660Y92516D01*
X194878Y92298D01*
X195144Y92144D01*
X195441Y92065D01*
X195749D01*
X195899Y92105D01*
X196948Y91056D01*
X197137Y90929D01*
X197360Y90885D01*
X210467D01*
X210690Y90929D01*
X210879Y91056D01*
X217928Y98105D01*
X218155Y97973D01*
D02*
G37*
G36*
X226267Y86964D02*
X226456Y86838D01*
X226679Y86793D01*
X230563D01*
Y86470D01*
X230323Y86435D01*
X223888D01*
X223007Y87316D01*
X223050Y87475D01*
Y87785D01*
X222976Y88063D01*
X222985Y88136D01*
X223090Y88317D01*
X224914D01*
X226267Y86964D01*
D02*
G37*
G36*
X244779Y75351D02*
X244785Y75259D01*
X244768Y75182D01*
X244504Y75103D01*
X236115Y83491D01*
X235926Y83617D01*
X235703Y83662D01*
X235480Y83617D01*
X235450Y83597D01*
X235055D01*
X235027Y83736D01*
X234917Y83901D01*
X234752Y84011D01*
X234557Y84050D01*
X234362Y84011D01*
X234307Y83974D01*
X234252Y84011D01*
X234075Y84046D01*
Y84838D01*
X234236Y84870D01*
X235056D01*
Y84870D01*
X235201Y84930D01*
X244779Y75351D01*
D02*
G37*
G36*
X232587Y85174D02*
X232697Y85009D01*
X232862Y84899D01*
X233039Y84864D01*
Y84046D01*
X232862Y84011D01*
X232697Y83901D01*
X232587Y83736D01*
X232559Y83597D01*
X232217D01*
X230779Y85035D01*
X230876Y85269D01*
X231902D01*
X232125Y85314D01*
X232156Y85334D01*
X232555D01*
X232587Y85174D01*
D02*
G37*
G36*
X243638Y74320D02*
Y72147D01*
X243496Y72065D01*
X243276Y71845D01*
X243120Y71576D01*
X243082Y71434D01*
X242820D01*
X242782Y71576D01*
X242626Y71845D01*
X242406Y72065D01*
X242137Y72221D01*
X241836Y72301D01*
X241526D01*
X241225Y72221D01*
X240956Y72065D01*
X240736Y71845D01*
X240580Y71576D01*
X240500Y71275D01*
Y70979D01*
X240464Y70947D01*
X240267Y70853D01*
X236287Y74833D01*
Y76433D01*
X236242Y76656D01*
X236116Y76845D01*
X235927Y76971D01*
X235704Y77016D01*
X235481Y76971D01*
X235450Y76951D01*
X235056D01*
Y77521D01*
X235239Y77694D01*
X235266Y77710D01*
X235460Y77904D01*
X235597Y78142D01*
X235650Y78340D01*
X234627D01*
Y78747D01*
X235650D01*
X235615Y78880D01*
X235760Y79026D01*
X235819Y79055D01*
X235941Y78985D01*
X236200Y78915D01*
X236467D01*
X236726Y78985D01*
X236957Y79118D01*
X237146Y79308D01*
X237280Y79539D01*
X237349Y79798D01*
Y80065D01*
X237280Y80324D01*
X237490Y80469D01*
X243638Y74320D01*
D02*
G37*
G36*
X231499Y82667D02*
X231688Y82541D01*
X231911Y82496D01*
X232134Y82541D01*
X232164Y82561D01*
X232559D01*
X232587Y82422D01*
X232697Y82257D01*
X232862Y82147D01*
X233039Y82112D01*
Y81554D01*
X233035Y81534D01*
Y77978D01*
X233039Y77958D01*
Y77527D01*
X232862Y77492D01*
X232697Y77382D01*
X232587Y77217D01*
X232548Y77022D01*
Y76951D01*
X232200D01*
X226189Y82962D01*
X226000Y83088D01*
X225777Y83133D01*
X222896D01*
X222814Y83275D01*
X222594Y83495D01*
X222325Y83651D01*
X222183Y83689D01*
Y83951D01*
X222325Y83989D01*
X222594Y84145D01*
X222814Y84365D01*
X222896Y84507D01*
X229658D01*
X231499Y82667D01*
D02*
G37*
G36*
X229235Y111045D02*
X229267Y111002D01*
Y97838D01*
X229311Y97615D01*
X229437Y97426D01*
X245416Y81447D01*
Y76694D01*
X245182Y76597D01*
X235774Y86004D01*
X235585Y86131D01*
X235549Y86138D01*
X235469Y86218D01*
X235301Y86331D01*
X235103Y86370D01*
X235056D01*
Y86792D01*
X234575D01*
Y87245D01*
X234595Y87276D01*
X234640Y87499D01*
Y87761D01*
X234595Y87984D01*
X234469Y88173D01*
X233960Y88682D01*
X233771Y88808D01*
X233548Y88852D01*
X232156D01*
X231933Y88808D01*
X231744Y88682D01*
X231345Y88282D01*
X230563D01*
Y87959D01*
X226921D01*
X225567Y89312D01*
X225378Y89438D01*
X225155Y89483D01*
X223090D01*
X222985Y89664D01*
X222976Y89737D01*
X223050Y90015D01*
Y90325D01*
X222970Y90626D01*
X222814Y90895D01*
X222594Y91115D01*
X222325Y91271D01*
X222183Y91309D01*
Y91571D01*
X222325Y91609D01*
X222594Y91765D01*
X222814Y91985D01*
X222970Y92254D01*
X223050Y92555D01*
Y92865D01*
X222970Y93166D01*
X222814Y93435D01*
X222594Y93655D01*
X222325Y93811D01*
X222183Y93849D01*
Y94111D01*
X222325Y94149D01*
X222594Y94305D01*
X222814Y94525D01*
X222970Y94794D01*
X223050Y95095D01*
Y95405D01*
X222970Y95706D01*
X222814Y95975D01*
X222594Y96195D01*
X222325Y96351D01*
X222183Y96389D01*
Y96651D01*
X222325Y96689D01*
X222594Y96845D01*
X222814Y97065D01*
X222970Y97334D01*
X223050Y97635D01*
Y97945D01*
X222970Y98246D01*
X222814Y98515D01*
X222594Y98735D01*
X222325Y98891D01*
X222183Y98929D01*
Y99191D01*
X222325Y99229D01*
X222594Y99385D01*
X222814Y99605D01*
X222970Y99874D01*
X223050Y100175D01*
Y100485D01*
X222970Y100786D01*
X222814Y101055D01*
X222594Y101275D01*
X222325Y101431D01*
X222183Y101469D01*
Y101731D01*
X222325Y101769D01*
X222594Y101925D01*
X222814Y102145D01*
X222970Y102414D01*
X223050Y102715D01*
Y103025D01*
X222970Y103326D01*
X222814Y103595D01*
X222594Y103815D01*
X222325Y103971D01*
X222183Y104009D01*
Y104271D01*
X222325Y104309D01*
X222594Y104465D01*
X222814Y104685D01*
X222970Y104954D01*
X223050Y105255D01*
Y105565D01*
X222970Y105866D01*
X222814Y106135D01*
X222594Y106355D01*
X222325Y106511D01*
X222183Y106549D01*
Y106811D01*
X222325Y106849D01*
X222594Y107005D01*
X222814Y107225D01*
X222970Y107494D01*
X223050Y107795D01*
Y108105D01*
X222970Y108406D01*
X222814Y108675D01*
X222594Y108895D01*
X222325Y109051D01*
X222183Y109089D01*
Y109351D01*
X222325Y109389D01*
X222594Y109545D01*
X222814Y109765D01*
X222896Y109907D01*
X224155D01*
X224378Y109952D01*
X224567Y110078D01*
X225651Y111162D01*
X228893D01*
X229013Y111186D01*
X229235Y111045D01*
D02*
G37*
G36*
X231482Y76021D02*
X231671Y75895D01*
X231894Y75850D01*
X232117Y75895D01*
X232147Y75915D01*
X232584D01*
X232587Y75903D01*
X232697Y75738D01*
X232862Y75628D01*
X233035Y75593D01*
Y74775D01*
X232862Y74740D01*
X232697Y74630D01*
X232587Y74465D01*
X232548Y74270D01*
Y74157D01*
X232147D01*
X232117Y74177D01*
X231894Y74222D01*
X228481D01*
X223007Y79696D01*
X223050Y79855D01*
Y80165D01*
X222970Y80466D01*
X222814Y80735D01*
X222594Y80955D01*
X222325Y81111D01*
X222183Y81149D01*
Y81411D01*
X222325Y81449D01*
X222594Y81605D01*
X222814Y81825D01*
X222896Y81967D01*
X225536D01*
X231482Y76021D01*
D02*
G37*
G36*
X243120Y70664D02*
X243276Y70395D01*
X243496Y70175D01*
X243765Y70019D01*
X243907Y69981D01*
Y69719D01*
X243765Y69681D01*
X243496Y69525D01*
X243276Y69305D01*
X243120Y69036D01*
X243082Y68894D01*
X242820D01*
X242782Y69036D01*
X242626Y69305D01*
X242406Y69525D01*
X242137Y69681D01*
X241995Y69719D01*
Y69981D01*
X242137Y70019D01*
X242406Y70175D01*
X242626Y70395D01*
X242782Y70664D01*
X242820Y70806D01*
X243082D01*
X243120Y70664D01*
D02*
G37*
G36*
X240775Y66974D02*
X240790Y66819D01*
X240736Y66765D01*
X240580Y66496D01*
X240500Y66195D01*
Y65885D01*
X240507Y65857D01*
X240280Y65725D01*
X236930Y69075D01*
Y69521D01*
X236971Y69545D01*
X237160Y69734D01*
X237294Y69966D01*
X237321Y70068D01*
X237605Y70144D01*
X240775Y66974D01*
D02*
G37*
G36*
X233510Y71128D02*
X233688Y70948D01*
Y70423D01*
X227348Y64083D01*
X226065D01*
X225968Y64317D01*
X232612Y70961D01*
X232724Y71128D01*
X233510D01*
D02*
G37*
G36*
X218272Y63267D02*
X210753Y55748D01*
X210594Y55791D01*
X210284D01*
X210256Y55784D01*
X210124Y56011D01*
X217615Y63501D01*
X218175D01*
X218272Y63267D01*
D02*
G37*
G36*
X181271Y54535D02*
X181427Y54266D01*
X181647Y54046D01*
X181916Y53890D01*
X182058Y53852D01*
Y53590D01*
X181916Y53552D01*
X181647Y53396D01*
X181427Y53176D01*
X181271Y52907D01*
X181233Y52765D01*
X180971D01*
X180933Y52907D01*
X180777Y53176D01*
X180557Y53396D01*
X180288Y53552D01*
X180146Y53590D01*
Y53852D01*
X180288Y53890D01*
X180557Y54046D01*
X180777Y54266D01*
X180933Y54535D01*
X180971Y54677D01*
X181233D01*
X181271Y54535D01*
D02*
G37*
G36*
X183811D02*
X183967Y54266D01*
X184187Y54046D01*
X184456Y53890D01*
X184598Y53852D01*
Y53590D01*
X184456Y53552D01*
X184187Y53396D01*
X183967Y53176D01*
X183811Y52907D01*
X183773Y52765D01*
X183511D01*
X183473Y52907D01*
X183317Y53176D01*
X183097Y53396D01*
X182828Y53552D01*
X182686Y53590D01*
Y53852D01*
X182828Y53890D01*
X183097Y54046D01*
X183317Y54266D01*
X183473Y54535D01*
X183511Y54677D01*
X183773D01*
X183811Y54535D01*
D02*
G37*
G36*
X229391Y40822D02*
X229294Y40588D01*
X222745D01*
X212664Y50669D01*
X212796Y50896D01*
X212824Y50889D01*
X213134D01*
X213435Y50969D01*
X213704Y51125D01*
X213924Y51345D01*
X214006Y51487D01*
X218726D01*
X229391Y40822D01*
D02*
G37*
G36*
X178731Y51995D02*
X178887Y51726D01*
X179107Y51506D01*
X179376Y51350D01*
X179677Y51270D01*
X179987D01*
X180146Y51313D01*
X183171Y48288D01*
Y43522D01*
X183064Y43391D01*
X181491D01*
Y43148D01*
X180332D01*
Y43351D01*
X178570D01*
Y43128D01*
X178168D01*
X178079Y43345D01*
X178079D01*
Y45097D01*
X177905D01*
Y51294D01*
X178086Y51369D01*
X178249Y51494D01*
X178374Y51657D01*
X178453Y51847D01*
X178471Y51985D01*
X178730Y52002D01*
X178731Y51995D01*
D02*
G37*
G36*
X206123Y50730D02*
Y49387D01*
X206167Y49164D01*
X206293Y48975D01*
X216315Y38954D01*
X216217Y38719D01*
X210936D01*
Y38968D01*
X210910D01*
Y40292D01*
X209148D01*
Y39986D01*
X208436D01*
X208356Y40105D01*
X208214Y40201D01*
X208046Y40234D01*
X207695D01*
X207527Y40201D01*
X207384Y40105D01*
X207367Y40080D01*
X207073D01*
X207056Y40105D01*
X206914Y40201D01*
X206746Y40234D01*
X206395D01*
X206227Y40201D01*
X206084Y40105D01*
X205989Y39963D01*
X205987Y39953D01*
X205351D01*
Y40176D01*
X205053D01*
Y50826D01*
X205109Y50882D01*
X205759D01*
X205869Y50897D01*
X206123Y50730D01*
D02*
G37*
G36*
X217704Y40013D02*
Y39484D01*
X217644D01*
Y38577D01*
Y37671D01*
X218208D01*
Y37116D01*
X217422D01*
Y37116D01*
X217284Y37116D01*
X217074Y37128D01*
X216404D01*
X216328Y37143D01*
X216250Y37127D01*
X214876D01*
Y37295D01*
X213114D01*
Y37282D01*
X212860Y37148D01*
X212800Y37189D01*
Y37554D01*
X217075D01*
X217237Y37586D01*
Y38577D01*
Y39679D01*
X207288Y49629D01*
Y50080D01*
X207325Y50108D01*
X207542Y50175D01*
X217704Y40013D01*
D02*
G37*
G36*
X221750Y38246D02*
X221939Y38120D01*
X222162Y38076D01*
X226211D01*
Y37665D01*
X225887D01*
Y37037D01*
X226793D01*
Y36630D01*
X225887D01*
Y36002D01*
X225912D01*
Y34677D01*
X227674D01*
Y34893D01*
X228183D01*
X228259Y34878D01*
X229103D01*
Y33174D01*
X217880D01*
Y34704D01*
X218194D01*
X218391Y34665D01*
X219774D01*
Y34429D01*
X221536D01*
Y35779D01*
Y37391D01*
X219774D01*
Y37155D01*
X219373D01*
Y37696D01*
X219596D01*
Y39458D01*
X218869D01*
Y40254D01*
X218825Y40477D01*
X218698Y40666D01*
X208550Y50815D01*
X208574Y51065D01*
X208585Y51075D01*
X208788Y51208D01*
X221750Y38246D01*
D02*
G37*
G36*
X231094Y34861D02*
X231881D01*
Y34638D01*
X232282D01*
X232379Y34403D01*
X231150Y33174D01*
X230268D01*
Y34878D01*
X231008D01*
X231094Y34861D01*
D02*
G37*
G36*
X209123Y38340D02*
X210029D01*
Y38137D01*
X210232D01*
Y37305D01*
X210936D01*
Y37554D01*
X211634D01*
Y36785D01*
X211679Y36562D01*
X211805Y36373D01*
X212947Y35231D01*
X213089Y35136D01*
Y34308D01*
X213792D01*
Y35139D01*
X214198D01*
Y34308D01*
X214901D01*
Y34857D01*
X215057Y34961D01*
X215138Y35042D01*
X215372Y34945D01*
Y34704D01*
X216194D01*
X216328Y34678D01*
X216406Y34693D01*
X216714D01*
Y33120D01*
X210489D01*
X208716Y34893D01*
Y35756D01*
X208468D01*
Y36310D01*
X208485Y36394D01*
Y36621D01*
X208488Y36635D01*
X208485Y36649D01*
Y36856D01*
X208488Y36870D01*
X208485Y36883D01*
Y37345D01*
X208451Y37513D01*
X208414Y37569D01*
X208377Y37752D01*
X208251Y37941D01*
X208041Y38151D01*
X208043Y38248D01*
X208064Y38325D01*
X208120Y38420D01*
X208214Y38438D01*
X208356Y38534D01*
X208451Y38676D01*
X208480Y38820D01*
X209123D01*
Y38340D01*
D02*
G37*
%LPC*%
G36*
X209826Y37933D02*
X209123D01*
Y37305D01*
X209826D01*
Y37933D01*
D02*
G37*
%LPD*%
D15*
X234561Y71763D02*
Y72496D01*
Y71763D02*
X234569Y71755D01*
X232744Y87301D02*
X233548Y86497D01*
X231902Y85852D02*
X233048D01*
X231911Y83079D02*
X233057D01*
X234057Y85831D02*
Y87499D01*
X234562Y73766D02*
X235704D01*
X234553Y76433D02*
X235704D01*
X233544Y76442D02*
X233553Y76433D01*
X231894D02*
X233053D01*
X233557Y76437D02*
Y77978D01*
X232744Y87301D02*
Y87376D01*
X234057Y76560D02*
Y77974D01*
X234627Y78544D01*
X234057Y82402D02*
Y83079D01*
Y82402D02*
X234556Y81903D01*
X234557Y83079D02*
X235703D01*
X234556Y81293D02*
X234569Y81280D01*
X234556Y81293D02*
Y81903D01*
X233553Y77978D02*
Y81534D01*
X233557Y83079D02*
Y85831D01*
Y81538D02*
Y83079D01*
X233553Y81534D02*
X233557Y81538D01*
X234553Y73681D02*
Y73757D01*
X234562Y73766D01*
X233553Y72858D02*
Y76433D01*
X234053Y73681D02*
X234062Y73672D01*
X233077Y72382D02*
X233553Y72858D01*
X231894Y73639D02*
X233044D01*
X233053Y73648D02*
Y73681D01*
X233044Y73639D02*
X233053Y73648D01*
X234062Y72995D02*
Y73672D01*
Y72995D02*
X234561Y72496D01*
X233548Y85840D02*
X233557Y85831D01*
X233548Y85840D02*
Y86497D01*
X234557Y85843D02*
X234566Y85852D01*
X233048D02*
X233057Y85843D01*
X235103Y85852D02*
X235362Y85592D01*
X234557Y85831D02*
Y85843D01*
X234566Y85852D02*
X235103D01*
X233057Y85831D02*
Y85843D01*
X232704Y72084D02*
X233002Y72382D01*
X233077D01*
D22*
X244248Y99977D02*
D03*
X245718D02*
D03*
X244248Y95277D02*
D03*
X245718D02*
D03*
X244248Y128181D02*
D03*
X245718D02*
D03*
X244248Y123480D02*
D03*
X245718D02*
D03*
X244248Y118780D02*
D03*
X245718D02*
D03*
X244248Y114079D02*
D03*
X245718D02*
D03*
X244248Y109379D02*
D03*
X245718D02*
D03*
X244248Y104678D02*
D03*
X245718D02*
D03*
D23*
X238911Y114179D02*
D03*
X241911D02*
D03*
X238911Y109479D02*
D03*
X241911D02*
D03*
X238911Y104778D02*
D03*
X241911D02*
D03*
X238911Y100078D02*
D03*
X241911D02*
D03*
X238911Y95377D02*
D03*
X241911D02*
D03*
X238935Y128281D02*
D03*
X241935D02*
D03*
X238935Y123581D02*
D03*
X241935D02*
D03*
X238911Y118880D02*
D03*
X241911D02*
D03*
D24*
X183754Y43522D02*
D03*
X185054D02*
D03*
X183754Y41822D02*
D03*
X184404Y43522D02*
D03*
X185054Y41822D02*
D03*
X184404D02*
D03*
D25*
X179451Y42545D02*
D03*
Y41195D02*
D03*
X204470Y39370D02*
D03*
Y38020D02*
D03*
X182372Y42585D02*
D03*
Y41235D02*
D03*
X234569Y81280D02*
D03*
Y79930D02*
D03*
X220655Y36585D02*
D03*
Y35235D02*
D03*
X234569Y71755D02*
D03*
Y70405D02*
D03*
X210029Y39486D02*
D03*
Y38137D02*
D03*
X226793Y35484D02*
D03*
Y36833D02*
D03*
X232762Y36793D02*
D03*
Y35444D02*
D03*
X213995Y36489D02*
D03*
Y35139D02*
D03*
D26*
X228754Y36768D02*
D03*
X230674D02*
D03*
X228754Y35469D02*
D03*
X230674D02*
D03*
X228754Y36118D02*
D03*
D27*
X229020Y126985D02*
D03*
Y128285D02*
D03*
X230720Y126985D02*
D03*
Y128285D02*
D03*
Y127635D02*
D03*
X229020D02*
D03*
X228893Y113045D02*
D03*
Y111745D02*
D03*
X230593D02*
D03*
Y113045D02*
D03*
Y112395D02*
D03*
X228893D02*
D03*
X229020Y123205D02*
D03*
Y121905D02*
D03*
X230720D02*
D03*
Y123205D02*
D03*
Y122555D02*
D03*
X229020D02*
D03*
X228932Y116810D02*
D03*
Y118110D02*
D03*
X230632D02*
D03*
Y116810D02*
D03*
Y117460D02*
D03*
X228932D02*
D03*
D28*
X175453Y44221D02*
D03*
X177353D02*
D03*
Y41631D02*
D03*
X175453D02*
D03*
X176403Y44221D02*
D03*
Y41631D02*
D03*
D29*
X179515Y36322D02*
D03*
X181165Y33782D02*
D03*
X179515D02*
D03*
X181165Y36322D02*
D03*
D30*
X232744Y87376D02*
D03*
X231394D02*
D03*
X232704Y72009D02*
D03*
X231354D02*
D03*
X218790Y38577D02*
D03*
X217440D02*
D03*
X207910Y34875D02*
D03*
X206560D02*
D03*
X189524Y43688D02*
D03*
X188174D02*
D03*
X230389Y38659D02*
D03*
X229039D02*
D03*
D31*
X234057Y73808D02*
D03*
X233057D02*
D03*
Y76560D02*
D03*
X233557D02*
D03*
Y73808D02*
D03*
X234557D02*
D03*
X234057Y76560D02*
D03*
X234057Y83079D02*
D03*
X233057D02*
D03*
Y85831D02*
D03*
X233557Y83079D02*
D03*
Y85831D02*
D03*
X234057D02*
D03*
X234557Y83079D02*
D03*
D32*
X234557Y76560D02*
D03*
X234557Y85831D02*
D03*
D33*
X189539Y39401D02*
D03*
X187539D02*
D03*
X189539Y41301D02*
D03*
D34*
X187539Y41101D02*
D03*
D35*
X183810Y39370D02*
D03*
X185760D02*
D03*
X177460Y39116D02*
D03*
X179410D02*
D03*
D36*
X218378Y36560D02*
D03*
Y35260D02*
D03*
X216328D02*
D03*
Y36560D02*
D03*
Y35910D02*
D03*
D37*
X206570Y39319D02*
D03*
X207870D02*
D03*
Y36870D02*
D03*
X206570D02*
D03*
X207220D02*
D03*
D40*
X177292Y52451D02*
D03*
X205359Y52070D02*
D03*
D41*
X179832Y52451D02*
D03*
X182372D02*
D03*
X184912D02*
D03*
X182372Y54991D02*
D03*
X184912D02*
D03*
X179832D02*
D03*
X177292D02*
D03*
X241681Y71120D02*
D03*
Y63500D02*
D03*
X244221Y66040D02*
D03*
Y68580D02*
D03*
X241681Y66040D02*
D03*
Y68580D02*
D03*
X244221Y71120D02*
D03*
X221869Y120650D02*
D03*
Y123190D02*
D03*
Y110490D02*
D03*
Y128270D02*
D03*
Y125730D02*
D03*
Y118110D02*
D03*
Y115570D02*
D03*
Y113030D02*
D03*
X219329Y97790D02*
D03*
Y95250D02*
D03*
Y92710D02*
D03*
Y90170D02*
D03*
X221869Y82550D02*
D03*
Y80010D02*
D03*
Y87630D02*
D03*
Y85090D02*
D03*
X219329Y123190D02*
D03*
Y82550D02*
D03*
Y113030D02*
D03*
Y100330D02*
D03*
Y125730D02*
D03*
Y85090D02*
D03*
Y102870D02*
D03*
Y110490D02*
D03*
Y87630D02*
D03*
Y107950D02*
D03*
Y115570D02*
D03*
Y118110D02*
D03*
Y105410D02*
D03*
Y120650D02*
D03*
Y80010D02*
D03*
X221869Y97790D02*
D03*
Y100330D02*
D03*
Y102870D02*
D03*
Y90170D02*
D03*
Y105410D02*
D03*
Y92710D02*
D03*
Y95250D02*
D03*
Y107950D02*
D03*
X207899Y54610D02*
D03*
X205359D02*
D03*
X207899Y52070D02*
D03*
X210439D02*
D03*
X212979D02*
D03*
X210439Y54610D02*
D03*
X212979D02*
D03*
D42*
X244221Y63500D02*
D03*
X219329Y128270D02*
D03*
D43*
X174625Y131826D02*
D03*
X182245Y126746D02*
D03*
X174625Y129286D02*
D03*
X182245Y131826D02*
D03*
Y129286D02*
D03*
X174625Y126746D02*
D03*
Y124206D02*
D03*
D44*
X182245D02*
D03*
D45*
X192711Y40477D02*
D03*
D46*
X199211D02*
D03*
X192711Y35977D02*
D03*
X199211D02*
D03*
D47*
X206375Y114173D02*
D03*
Y111633D02*
D03*
Y109093D02*
D03*
Y106553D02*
D03*
X182275Y114173D02*
D03*
X203215Y93233D02*
D03*
X206375Y96393D02*
D03*
Y104013D02*
D03*
Y101473D02*
D03*
Y98933D02*
D03*
X182275Y111633D02*
D03*
Y104013D02*
D03*
Y106553D02*
D03*
Y101473D02*
D03*
Y98933D02*
D03*
Y96393D02*
D03*
Y109093D02*
D03*
X185435Y93233D02*
D03*
X190515D02*
D03*
X193055D02*
D03*
X187975D02*
D03*
X200675D02*
D03*
X195595D02*
D03*
X198135D02*
D03*
D48*
X185435Y117333D02*
D03*
X187975D02*
D03*
X190515D02*
D03*
X193055D02*
D03*
X195595D02*
D03*
X198135D02*
D03*
X200675D02*
D03*
X203215D02*
D03*
D49*
X185775Y41101D02*
X187539D01*
X185213Y41663D02*
X185775Y41101D01*
X185094Y41663D02*
X185213D01*
X185054Y41703D02*
X185094Y41663D01*
X185054Y41703D02*
Y41822D01*
X213995Y35139D02*
X214230Y35374D01*
X214645D01*
X215182Y35910D01*
X216328D01*
X212217Y36785D02*
Y38137D01*
Y36785D02*
X213359Y35643D01*
X213416D01*
X213920Y35139D01*
X213995D01*
X212217Y38137D02*
X217075D01*
X226793Y38630D02*
X226822Y38659D01*
X226793Y36833D02*
Y38630D01*
X226822Y38659D02*
X229039D01*
X209169Y51652D02*
Y53416D01*
Y51652D02*
X222162Y38659D01*
X226822D01*
X209169Y53416D02*
X211785D01*
X222504Y40005D02*
X229997D01*
X210439Y52070D02*
X222504Y40005D01*
X217440Y38502D02*
Y38577D01*
X217075Y38137D02*
X217440Y38502D01*
X210029Y38137D02*
X212217D01*
X211785Y53416D02*
X212979Y54610D01*
X207557Y53416D02*
X209169D01*
X206705Y52564D02*
X207557Y53416D01*
X206705Y49387D02*
Y52564D01*
Y49387D02*
X217440Y38652D01*
Y38577D02*
Y38652D01*
X207899Y50642D02*
X218286Y40254D01*
Y39156D02*
Y40254D01*
X207899Y50642D02*
Y52070D01*
X181165Y36322D02*
Y38142D01*
X180327Y38979D02*
X181165Y38142D01*
X180327Y38979D02*
Y40394D01*
X179526Y41195D02*
X180327Y40394D01*
X179451Y41195D02*
X179526D01*
X180911Y39221D02*
Y42565D01*
Y39221D02*
X183007Y37126D01*
X182372Y39051D02*
Y41235D01*
Y39051D02*
X183172Y38251D01*
X184679Y41772D02*
X184729Y41822D01*
X184679Y38482D02*
Y41772D01*
X184448Y38251D02*
X184679Y38482D01*
X183172Y38251D02*
X184448D01*
X184729Y41822D02*
X185054D01*
X184404Y42808D02*
Y43522D01*
X182372Y42585D02*
X184181D01*
X184404Y42808D01*
Y41822D02*
X184729D01*
X207220Y35773D02*
Y36870D01*
X207885Y34875D02*
Y36952D01*
X241911Y95377D02*
X242011Y95277D01*
X241911Y104778D02*
X242011Y104678D01*
Y95277D02*
X244248D01*
X242011Y104678D02*
X244248D01*
X241911Y100078D02*
X242011Y99977D01*
X244248D01*
X235863Y95377D02*
Y97512D01*
Y104878D02*
X238811D01*
X234569Y98806D02*
X235863Y97512D01*
Y95377D02*
X238911D01*
X235863Y100078D02*
X238911D01*
X234569Y98806D02*
Y103124D01*
X234185Y104399D02*
X235863Y102721D01*
Y100078D02*
Y102721D01*
X238811Y104878D02*
X238911Y104778D01*
X233553Y104140D02*
X234569Y103124D01*
X234769Y105972D02*
X235863Y104878D01*
X233553Y104140D02*
Y108785D01*
X234769Y105972D02*
Y110925D01*
X234185Y104399D02*
Y109860D01*
X229849Y97838D02*
Y112618D01*
X223023Y117460D02*
X228932D01*
X222403Y116840D02*
X223023Y117460D01*
X223393Y111760D02*
X224028Y112395D01*
X228893D01*
X245999Y67818D02*
Y81688D01*
X245415Y68086D02*
Y75540D01*
X244563Y67234D02*
X245415Y68086D01*
X244221Y66040D02*
X245999Y67818D01*
X235362Y85592D02*
X245415Y75540D01*
X229849Y97838D02*
X245999Y81688D01*
X187975Y100838D02*
X205555D01*
X183765Y93233D02*
X185435D01*
X182275Y109093D02*
X187975Y103393D01*
X196751Y107089D02*
Y117583D01*
X191897Y102235D02*
X196751Y107089D01*
X187975Y100838D02*
Y103393D01*
Y93233D02*
Y100838D01*
X195595Y93233D02*
X197360Y91468D01*
X193055Y93233D02*
X194236Y94414D01*
X191874Y92744D02*
X198124Y86493D01*
X196084Y94414D02*
X196865Y93633D01*
X194236Y94414D02*
X196084D01*
X191874Y92744D02*
Y99418D01*
X187975Y93233D02*
X205359Y75849D01*
X233656Y34855D02*
Y37382D01*
X210247Y32537D02*
X217297D01*
X231392Y32591D02*
X233656Y34855D01*
X208220Y34565D02*
X210247Y32537D01*
X218968Y52070D02*
X233656Y37382D01*
X205359Y54610D02*
Y75849D01*
X206705Y53416D02*
X207899Y54610D01*
X210439D02*
X219329Y63500D01*
X217373Y64084D02*
X224911D01*
X207899Y54610D02*
X217373Y64084D01*
X219329Y63500D02*
X227589D01*
X220675Y88900D02*
Y111760D01*
X200675Y107173D02*
Y117333D01*
X205975Y102743D02*
X206775D01*
X206375Y98933D02*
Y101473D01*
X200675Y93233D02*
X205016Y97574D01*
X212919Y104080D02*
X219329Y110490D01*
X208511Y92052D02*
X219329Y102870D01*
X210467Y91468D02*
X219329Y100330D01*
X210312Y104013D02*
X219329Y113030D01*
X206375Y104013D02*
X210312D01*
X212919Y102937D02*
Y104080D01*
X205194Y103524D02*
Y105372D01*
X200675Y107173D02*
X206375Y101473D01*
X205194Y103524D02*
X205975Y102743D01*
X205194Y105372D02*
X206375Y106553D01*
X206775Y102743D02*
X207556Y101962D01*
X212846Y86493D02*
X219329Y80010D01*
X196865Y92833D02*
X197646Y92052D01*
X197360Y91468D02*
X210467D01*
X197646Y92052D02*
X208511D01*
X196865Y92833D02*
Y93633D01*
X198124Y86493D02*
X212846D01*
X205016Y97574D02*
X206686D01*
X205555Y100838D02*
X206190Y101473D01*
X206686Y97574D02*
X207556Y98444D01*
Y101962D01*
X206375Y96393D02*
X212919Y102937D01*
X206190Y101473D02*
X206375D01*
X179832Y98836D02*
X182275Y96393D01*
X180510Y100698D02*
X182275Y98933D01*
X179197Y97801D02*
X183765Y93233D01*
X181094Y105194D02*
Y114662D01*
X179832Y98836D02*
Y115062D01*
X180510Y100698D02*
Y114904D01*
X181094Y105194D02*
X182275Y104013D01*
X179197Y97801D02*
Y115316D01*
X230389Y36778D02*
Y38659D01*
Y39613D01*
X229997Y40005D02*
X230389Y39613D01*
X218286Y39156D02*
X218790Y38652D01*
X226793Y36833D02*
X227028Y36599D01*
X218790Y38577D02*
Y38652D01*
X183754Y41690D02*
Y41822D01*
X183782Y39398D02*
Y41662D01*
X183754Y41690D02*
X183782Y41662D01*
X185760Y39370D02*
X185791Y39401D01*
X183782Y39398D02*
X183810Y39370D01*
X179832Y52451D02*
X183754Y48529D01*
Y43522D02*
Y48529D01*
X204470Y39370D02*
X206536D01*
X201130Y40779D02*
Y49763D01*
X204470Y39370D02*
Y51068D01*
X212979Y52070D02*
X218968D01*
X201130Y49763D02*
X204783Y53416D01*
X204470Y51068D02*
X205359Y51957D01*
X204783Y53416D02*
X206705D01*
X205359Y51957D02*
Y52070D01*
X182352Y42565D02*
X182372Y42585D01*
X177632Y42545D02*
X179451D01*
X191912Y39401D02*
X192060Y39549D01*
X197477Y37126D02*
X201130Y40779D01*
X189524Y43688D02*
X193421D01*
X192711Y40477D02*
X199211D01*
X189539Y39401D02*
X191912D01*
X192060Y39549D02*
X192152Y39641D01*
Y39917D01*
X192711Y40477D01*
X182784Y33782D02*
X183007Y34005D01*
Y37126D02*
X197477D01*
X179515Y33782D02*
X181165D01*
X179462Y36375D02*
X179515Y36322D01*
X181165Y33782D02*
X182784D01*
X183007Y34005D02*
Y37126D01*
X179451Y42545D02*
X179471Y42565D01*
X179462Y36375D02*
Y39064D01*
X179471Y42565D02*
X180911D01*
X182352D01*
X177323Y44251D02*
X177353Y44221D01*
X177292Y52451D02*
X177323Y52420D01*
X176557Y43620D02*
Y44066D01*
X177323Y44251D02*
Y52420D01*
X176403Y44221D02*
X176557Y44066D01*
Y43620D02*
X177632Y42545D01*
X189531Y41309D02*
X189539Y41301D01*
X185791Y39401D02*
X187539D01*
X189524Y43688D02*
X189531Y43680D01*
Y41309D02*
Y43680D01*
X206536Y39370D02*
X206570Y39335D01*
X206602Y37529D02*
X206861Y37788D01*
X207579D01*
X207870Y39319D02*
Y39369D01*
X206602Y36901D02*
Y37529D01*
X209946Y39403D02*
X210029Y39486D01*
X207885Y36889D02*
X207905Y36870D01*
X207870Y39369D02*
X207905Y39403D01*
X209946D01*
X218790Y36576D02*
Y38196D01*
X179410Y39116D02*
X179462Y39064D01*
X177406Y39169D02*
Y41578D01*
Y39169D02*
X177460Y39116D01*
X177353Y41631D02*
X177406Y41578D01*
X176403Y41781D02*
X176563Y41942D01*
X176403Y41631D02*
Y41781D01*
X206570Y39319D02*
Y39335D01*
X207910Y34799D02*
X208145Y34565D01*
X206570Y36870D02*
X206602Y36901D01*
X208145Y34565D02*
X208220D01*
X207910Y34799D02*
Y34875D01*
X207870Y36670D02*
Y36870D01*
Y36670D02*
X207905Y36635D01*
X207579Y37788D02*
X207839Y37529D01*
Y36901D02*
Y37529D01*
X206560Y34875D02*
X206795Y35109D01*
Y35348D02*
X207220Y35773D01*
X206795Y35109D02*
Y35348D01*
X229686Y32591D02*
Y35773D01*
X217351Y32591D02*
X229686D01*
X231392D01*
X231094Y35444D02*
X232762D01*
X230674Y35469D02*
X231069D01*
X231094Y36793D02*
X232762D01*
X231069Y35469D02*
X231094Y35444D01*
X231069Y36768D02*
X231094Y36793D01*
X226801Y35476D02*
X228747D01*
X227028Y36599D02*
X227160D01*
X216344Y35276D02*
X217001D01*
X217297Y32537D02*
X217351Y32591D01*
X217297Y32537D02*
Y35572D01*
X216328Y35260D02*
X216344Y35276D01*
X217001D02*
X217297Y35572D01*
Y36322D01*
X229686Y35773D02*
X229743Y35830D01*
X228747Y35476D02*
X228754Y35469D01*
X229407Y35478D02*
X229743Y35814D01*
X228764Y35478D02*
X229407D01*
X228754Y35469D02*
X228764Y35478D01*
X230674Y36768D02*
X231069D01*
X230399D02*
X230674D01*
X230389Y36778D02*
X230399Y36768D01*
X228764Y36759D02*
X229407D01*
X228754Y36768D02*
X228764Y36759D01*
X229743Y35830D02*
Y36423D01*
X229407Y36759D02*
X229743Y36423D01*
X227160Y36599D02*
X227640Y36118D01*
X228754D01*
X217074Y36545D02*
X217297Y36322D01*
X218787Y36573D02*
X220643D01*
X218787D02*
X218790Y36576D01*
X216313Y36545D02*
X216328Y36560D01*
X216343Y36545D01*
X214091Y36545D02*
X216313D01*
X216343Y36545D02*
X217074D01*
X214051Y36505D02*
X214091Y36545D01*
X220643Y36573D02*
X220655Y36585D01*
X226793Y35484D02*
X226801Y35476D01*
X218378Y35260D02*
X218391Y35248D01*
X220643D02*
X220655Y35235D01*
X218391Y35248D02*
X220643D01*
X242011Y118780D02*
X244248D01*
X241911Y118880D02*
X242011Y118780D01*
X242035Y123480D02*
X244248D01*
X245684Y128181D02*
X245718D01*
X245399Y128465D02*
Y128570D01*
X242035Y128181D02*
X244248D01*
X241935Y128281D02*
X242035Y128181D01*
X245399Y128465D02*
X245684Y128181D01*
X245151Y128819D02*
X245399Y128570D01*
X244495Y129475D02*
X245151Y128819D01*
Y128819D02*
Y128819D01*
X221876Y128277D02*
X229012D01*
X229020Y128285D01*
X220675Y128764D02*
X221386Y129475D01*
X244495D01*
X221869Y128270D02*
X221876Y128277D01*
X220675Y126695D02*
X220929Y126949D01*
X220675Y121920D02*
X222403D01*
X220675Y126695D02*
Y128764D01*
Y121920D02*
Y126695D01*
X220929Y126949D02*
X222961D01*
X221869Y123190D02*
X221876Y123197D01*
X222961Y126949D02*
X223647Y127635D01*
X222403Y121920D02*
X223038Y122555D01*
X230880Y121746D02*
Y121865D01*
X229849Y122555D02*
X230720D01*
Y123205D02*
X231638D01*
X230720Y121905D02*
X230839D01*
X230880Y121865D01*
X229849Y122555D02*
Y127391D01*
X232583Y126985D02*
X235887Y123681D01*
X223038Y122555D02*
X229020D01*
X221869Y120650D02*
X223901D01*
X225156Y121905D01*
X229020D01*
X221876Y123197D02*
X229012D01*
X221869Y125730D02*
X223830D01*
X229012Y123197D02*
X229020Y123205D01*
X223647Y127635D02*
X229020D01*
X235839Y128270D02*
X238924D01*
X238935Y128281D01*
X230720Y128285D02*
X235883D01*
X229849Y127391D02*
X230093Y127635D01*
X230720D01*
X231638Y123205D02*
X235863Y118980D01*
X235887Y123681D02*
X238835D01*
X241935Y123581D02*
X242035Y123480D01*
X238811Y118980D02*
X238911Y118880D01*
X238835Y123681D02*
X238935Y123581D01*
X232704Y71934D02*
Y72009D01*
X234494Y70405D02*
X234569D01*
X244221Y71120D02*
Y74561D01*
X234569Y79930D02*
X236332D01*
X235704Y72869D02*
X241187Y67386D01*
X236347Y68834D02*
Y70358D01*
X235704Y74592D02*
X241681Y68615D01*
X234569Y70405D02*
X234592Y70382D01*
X241187Y67386D02*
X242175D01*
X243129Y67818D02*
X243891Y68580D01*
X242607Y67818D02*
X243129D01*
X241681Y68580D02*
Y68615D01*
X243891Y68580D02*
X244221D01*
X225155Y88900D02*
X226679Y87376D01*
X229900Y85090D02*
X231911Y83079D01*
X221869Y87630D02*
X223647Y85852D01*
X221869Y82550D02*
X225777D01*
X220675Y88900D02*
X225155D01*
X220675Y79516D02*
Y88900D01*
X223647Y85852D02*
X231902D01*
X221869Y85090D02*
X229900D01*
X235704Y72869D02*
Y73766D01*
Y74592D02*
Y76433D01*
X234592Y70382D02*
X236324D01*
X236347Y70358D01*
X233548Y88270D02*
X234057Y87761D01*
X231394Y87376D02*
Y87451D01*
X234057Y87499D02*
Y87761D01*
X226679Y87376D02*
X231394D01*
X232156Y88270D02*
X233548D01*
X231366Y87479D02*
X232156Y88270D01*
X242875Y67234D02*
X244563D01*
X242175Y67386D02*
X242607Y67818D01*
X236332Y79930D02*
X236333Y79931D01*
X241681Y66040D02*
X242875Y67234D01*
X241681Y63500D02*
X244221Y66040D01*
X235703Y83079D02*
X244221Y74561D01*
X236347Y68834D02*
X241681Y63500D01*
X220675Y79516D02*
X228182Y72009D01*
X228240Y73639D02*
X231894D01*
X221869Y80010D02*
X228240Y73639D01*
X225777Y82550D02*
X231894Y76433D01*
X228182Y72009D02*
X231354D01*
X224911Y64084D02*
X232200Y71373D01*
Y71430D02*
X232704Y71934D01*
X232200Y71373D02*
Y71430D01*
X227589Y63500D02*
X234494Y70405D01*
X220675Y116840D02*
Y121920D01*
X198912Y128270D02*
X219329D01*
X174625Y131826D02*
X178334Y128117D01*
X182526D01*
X198135Y117333D02*
X200675D01*
X197656Y118489D02*
X202059D01*
X196751Y117583D02*
X197656Y118489D01*
X202059D02*
X203215Y117333D01*
X212852Y109093D02*
X219329Y115570D01*
X206375Y111633D02*
X212852D01*
X219329Y118110D01*
X206375Y109093D02*
X212852D01*
X229849Y112618D02*
Y117698D01*
X230880Y121746D02*
X235863Y116762D01*
X230632Y115062D02*
Y116810D01*
X230617Y117475D02*
X230632Y117460D01*
X230072Y112395D02*
X230593D01*
X229849Y112618D02*
X230072Y112395D01*
X230593Y113045D02*
X230634Y113004D01*
X230673Y118070D02*
X231079D01*
X234769Y114380D01*
Y112781D02*
Y114380D01*
X230072Y117475D02*
X230617D01*
X230634Y113004D02*
X231040D01*
X229849Y117698D02*
X230072Y117475D01*
X230632Y118110D02*
X230673Y118070D01*
X235863Y118980D02*
X238811D01*
X230753Y111586D02*
Y111705D01*
X230593Y111745D02*
X230712D01*
X234769Y112781D02*
X235863Y111687D01*
X230632Y115062D02*
X234769Y110925D01*
X230720Y126985D02*
X232583D01*
X229849Y117698D02*
Y122555D01*
X223830Y125730D02*
X225085Y126985D01*
X229020D01*
X201452Y123190D02*
X219329D01*
X190515Y117333D02*
X198912Y125730D01*
X216012Y117333D02*
X219329Y120650D01*
X198912Y125730D02*
X219329D01*
X203215Y117333D02*
X216012D01*
X195595D02*
X201452Y123190D01*
X187975Y117333D02*
X198912Y128270D01*
X182245Y126746D02*
X183414Y125577D01*
X182526Y128117D02*
X183998Y126646D01*
X183414Y118644D02*
Y125577D01*
X183998Y118392D02*
Y126646D01*
X182245Y118364D02*
Y124206D01*
X242011Y109379D02*
X244248D01*
X242011Y114079D02*
X244248D01*
X238905Y114173D02*
X238911Y114179D01*
X231040Y113004D02*
X234185Y109860D01*
X230753Y111586D02*
X233553Y108785D01*
X235863Y109479D02*
Y111687D01*
Y109479D02*
X238911D01*
X235839Y114173D02*
X238905D01*
X241911Y114179D02*
X242011Y114079D01*
X241911Y109479D02*
X242011Y109379D01*
X235839Y114173D02*
X235863Y114197D01*
Y116762D01*
X230712Y111745D02*
X230753Y111705D01*
X221869Y113030D02*
X221876Y113037D01*
X225410Y111745D02*
X228893D01*
X224155Y110490D02*
X225410Y111745D01*
X221869Y115570D02*
X223774D01*
X228885Y113037D02*
X228893Y113045D01*
X223774Y115570D02*
X225014Y116810D01*
X221869Y118110D02*
X228932D01*
X221876Y113037D02*
X228885D01*
X225014Y116810D02*
X228932D01*
X220675Y111760D02*
X223393D01*
X221869Y110490D02*
X224155D01*
X220675Y111760D02*
Y116840D01*
X222403D01*
X191610Y115888D02*
X193055Y117333D01*
X179832Y115062D02*
X183414Y118644D01*
X180510Y114904D02*
X183998Y118392D01*
X181094Y114662D02*
X182320Y115888D01*
X191610D01*
X179197Y115316D02*
X182245Y118364D01*
D50*
X235863Y109479D02*
D03*
Y104878D02*
D03*
X235839Y114173D02*
D03*
X236333Y79931D02*
D03*
X235863Y95377D02*
D03*
Y100078D02*
D03*
Y118980D02*
D03*
X235839Y128270D02*
D03*
X193421Y43688D02*
D03*
X235887Y123681D02*
D03*
X236347Y70358D02*
D03*
X234627Y78544D02*
D03*
X191874Y99418D02*
D03*
X191897Y102235D02*
D03*
M02*
