G04*
G04 #@! TF.GenerationSoftware,Altium Limited,Altium Designer,26.5.0 (11)*
G04*
G04 Layer_Physical_Order=1*
G04 Layer_Color=255*
G04 Board_Origin=0|0*
%FSLAX43Y43*%
%MOMM*%
G71*
G04*
G04 #@! TF.SameCoordinates,80E9BAEF-7E6F-45FB-9ECE-2008D9C71877*
G04*
G04*
G04 #@! TF.FilePolarity,Positive*
G04*
G01*
G75*
%ADD16C,0.254*%
G04:AMPARAMS|DCode=22|XSize=1.16mm|YSize=0.237mm|CornerRadius=0.118mm|HoleSize=0mm|Usage=FLASHONLY|Rotation=270.000|XOffset=0mm|YOffset=0mm|HoleType=Round|Shape=RoundedRectangle|*
%AMROUNDEDRECTD22*
21,1,1.160,0.000,0,0,270.0*
21,1,0.924,0.237,0,0,270.0*
1,1,0.237,0.000,-0.462*
1,1,0.237,0.000,0.462*
1,1,0.237,0.000,0.462*
1,1,0.237,0.000,-0.462*
%
%ADD22ROUNDEDRECTD22*%
%ADD23R,0.237X1.160*%
%ADD24R,1.017X0.949*%
%ADD25R,0.700X0.300*%
%ADD26R,0.850X1.000*%
%ADD27R,0.300X0.700*%
%ADD28R,0.690X0.990*%
%ADD29R,1.000X0.850*%
G04:AMPARAMS|DCode=30|XSize=0.45mm|YSize=1.05mm|CornerRadius=0.05mm|HoleSize=0mm|Usage=FLASHONLY|Rotation=180.000|XOffset=0mm|YOffset=0mm|HoleType=Round|Shape=RoundedRectangle|*
%AMROUNDEDRECTD30*
21,1,0.450,0.951,0,0,180.0*
21,1,0.351,1.050,0,0,180.0*
1,1,0.099,-0.176,0.476*
1,1,0.099,0.176,0.476*
1,1,0.099,0.176,-0.476*
1,1,0.099,-0.176,-0.476*
%
%ADD30ROUNDEDRECTD30*%
G04:AMPARAMS|DCode=31|XSize=1.19mm|YSize=0.4mm|CornerRadius=0.1mm|HoleSize=0mm|Usage=FLASHONLY|Rotation=0.000|XOffset=0mm|YOffset=0mm|HoleType=Round|Shape=RoundedRectangle|*
%AMROUNDEDRECTD31*
21,1,1.190,0.200,0,0,0.0*
21,1,0.990,0.400,0,0,0.0*
1,1,0.200,0.495,-0.100*
1,1,0.200,-0.495,-0.100*
1,1,0.200,-0.495,0.100*
1,1,0.200,0.495,0.100*
%
%ADD31ROUNDEDRECTD31*%
%ADD32R,1.150X0.350*%
%ADD33R,0.700X1.000*%
%ADD34R,1.000X1.200*%
%ADD35R,0.700X0.600*%
%ADD36R,1.400X1.600*%
%ADD37R,0.950X1.450*%
%ADD40C,1.600*%
G04:AMPARAMS|DCode=41|XSize=1.6mm|YSize=1.6mm|CornerRadius=0.4mm|HoleSize=0mm|Usage=FLASHONLY|Rotation=90.000|XOffset=0mm|YOffset=0mm|HoleType=Round|Shape=RoundedRectangle|*
%AMROUNDEDRECTD41*
21,1,1.600,0.800,0,0,90.0*
21,1,0.800,1.600,0,0,90.0*
1,1,0.800,0.400,0.400*
1,1,0.800,0.400,-0.400*
1,1,0.800,-0.400,-0.400*
1,1,0.800,-0.400,0.400*
%
%ADD41ROUNDEDRECTD41*%
%ADD42C,1.550*%
%ADD43C,1.500*%
G04:AMPARAMS|DCode=45|XSize=1.6mm|YSize=1.6mm|CornerRadius=0.4mm|HoleSize=0mm|Usage=FLASHONLY|Rotation=0.000|XOffset=0mm|YOffset=0mm|HoleType=Round|Shape=RoundedRectangle|*
%AMROUNDEDRECTD45*
21,1,1.600,0.800,0,0,0.0*
21,1,0.800,1.600,0,0,0.0*
1,1,0.800,0.400,-0.400*
1,1,0.800,-0.400,-0.400*
1,1,0.800,-0.400,0.400*
1,1,0.800,0.400,0.400*
%
%ADD45ROUNDEDRECTD45*%
%ADD46C,1.575*%
%ADD47C,1.524*%
%ADD48R,1.550X1.550*%
%ADD49R,1.500X1.500*%
%ADD50C,1.270*%
%ADD51C,0.381*%
G36*
X112158Y109262D02*
X112069Y109128D01*
X107784D01*
X107630Y109098D01*
X107604Y109080D01*
X107231D01*
Y108677D01*
X107078Y108593D01*
X106840Y108633D01*
X106637Y108756D01*
Y109080D01*
X106264D01*
X106238Y109098D01*
X106084Y109128D01*
X106046Y109121D01*
X99965D01*
X99862Y109280D01*
X99996Y109516D01*
X112033D01*
X112158Y109262D01*
D02*
G37*
G36*
X127825Y27555D02*
X38354D01*
Y107373D01*
X38396Y107404D01*
X38679Y107436D01*
X39284Y106832D01*
X39352Y106708D01*
X39292Y106494D01*
X39187Y106389D01*
X39031Y106120D01*
X38963Y105867D01*
X40132D01*
X41301D01*
X41233Y106120D01*
X41083Y106380D01*
X41093Y106424D01*
X41192Y106634D01*
X44869D01*
X45023Y106664D01*
X45153Y106751D01*
X46520Y108118D01*
X46642Y108097D01*
X46787Y108026D01*
X46840Y107826D01*
X46969Y107603D01*
X47151Y107421D01*
X47374Y107292D01*
X47623Y107226D01*
X47881D01*
X48103Y107285D01*
X48492Y106896D01*
X48387Y106642D01*
X46774D01*
Y104686D01*
X47351D01*
Y86752D01*
X47381Y86598D01*
X47468Y86468D01*
X60545Y73391D01*
X60675Y73304D01*
X60829Y73274D01*
X61587D01*
X61706Y73067D01*
X61891Y72882D01*
X62117Y72752D01*
X62369Y72684D01*
X62629D01*
X62881Y72752D01*
X63107Y72882D01*
X63292Y73067D01*
X63422Y73293D01*
X63490Y73545D01*
Y73805D01*
X63422Y74057D01*
X63292Y74283D01*
X63107Y74468D01*
X62881Y74598D01*
X62629Y74666D01*
X62369D01*
X62117Y74598D01*
X61891Y74468D01*
X61706Y74283D01*
X61587Y74076D01*
X60995D01*
X59463Y75609D01*
X59561Y75869D01*
X59721Y75912D01*
X59947Y76042D01*
X60132Y76227D01*
X60262Y76453D01*
X60330Y76705D01*
Y76965D01*
X60262Y77217D01*
X60132Y77443D01*
X59947Y77628D01*
X59721Y77758D01*
X59469Y77826D01*
X59209D01*
X58978Y77764D01*
X49423Y87318D01*
Y88364D01*
X49677Y88469D01*
X58410Y79736D01*
X58348Y79505D01*
Y79245D01*
X58416Y78993D01*
X58546Y78767D01*
X58731Y78582D01*
X58957Y78452D01*
X59209Y78384D01*
X59469D01*
X59721Y78452D01*
X59947Y78582D01*
X60132Y78767D01*
X60262Y78993D01*
X60330Y79245D01*
Y79505D01*
X60262Y79757D01*
X60132Y79983D01*
X59947Y80168D01*
X59721Y80298D01*
X59469Y80366D01*
X59209D01*
X58978Y80304D01*
X50185Y89096D01*
Y107411D01*
X50420Y107508D01*
X57756Y100172D01*
Y95104D01*
Y85636D01*
X57787Y85482D01*
X57874Y85352D01*
X58410Y84816D01*
X58348Y84585D01*
Y84325D01*
X58416Y84073D01*
X58546Y83847D01*
X58731Y83662D01*
X58957Y83532D01*
X59209Y83464D01*
X59469D01*
X59721Y83532D01*
X59947Y83662D01*
X60132Y83847D01*
X60262Y84073D01*
X60330Y84325D01*
Y84585D01*
X60262Y84837D01*
X60132Y85063D01*
X59947Y85248D01*
X59721Y85378D01*
X59469Y85446D01*
X59209D01*
X58978Y85384D01*
X58559Y85802D01*
Y86040D01*
X58813Y86155D01*
X58957Y86072D01*
X59209Y86004D01*
X59469D01*
X59721Y86072D01*
X59947Y86202D01*
X60132Y86387D01*
X60262Y86613D01*
X60330Y86865D01*
Y87125D01*
X60262Y87377D01*
X60132Y87603D01*
X59947Y87788D01*
X59721Y87918D01*
X59469Y87986D01*
X59209D01*
X58957Y87918D01*
X58813Y87835D01*
X58559Y87950D01*
Y88580D01*
X58813Y88695D01*
X58957Y88612D01*
X59209Y88544D01*
X59469D01*
X59700Y88606D01*
X64638Y83669D01*
Y81280D01*
Y74587D01*
X64431Y74468D01*
X64246Y74283D01*
X64116Y74057D01*
X64048Y73805D01*
Y73545D01*
X64116Y73293D01*
X64246Y73067D01*
X64431Y72882D01*
X64638Y72763D01*
Y70851D01*
X64668Y70697D01*
X64755Y70567D01*
X71354Y63969D01*
Y52108D01*
X71139Y51984D01*
X70952Y51797D01*
X70820Y51568D01*
X70752Y51313D01*
Y51049D01*
X70820Y50794D01*
X70941Y50584D01*
X70951Y50558D01*
X70895Y50271D01*
X67242Y46618D01*
X67155Y46488D01*
X67125Y46334D01*
Y37516D01*
X66799Y37190D01*
X66531Y37282D01*
X66495Y37416D01*
X66370Y37633D01*
X66192Y37811D01*
X65975Y37936D01*
X65732Y38001D01*
X65481D01*
X65239Y37936D01*
X65022Y37811D01*
X64844Y37633D01*
X64738Y37449D01*
X60060D01*
Y38001D01*
X58154D01*
Y36527D01*
X58146Y36488D01*
Y36378D01*
X58142Y36374D01*
X56488D01*
Y36475D01*
X55382D01*
Y35469D01*
X56488D01*
Y35571D01*
X58308D01*
X58387Y35586D01*
X58462Y35601D01*
X58462Y35601D01*
X58462Y35601D01*
X58529Y35646D01*
X58592Y35688D01*
X58740Y35836D01*
X58740Y35836D01*
X58740Y35836D01*
X58831Y35928D01*
X58918Y36058D01*
X58926Y36095D01*
X60060D01*
Y36647D01*
X64738D01*
X64844Y36463D01*
X65022Y36285D01*
X65239Y36160D01*
X65373Y36124D01*
X65465Y35856D01*
X63707Y34098D01*
X49569D01*
X47709Y35959D01*
Y36784D01*
X47862Y36975D01*
X48565D01*
Y37806D01*
X48971D01*
Y36975D01*
X49317D01*
X49528Y36869D01*
X49528Y36781D01*
Y35013D01*
X50884D01*
Y36869D01*
X50579D01*
Y37637D01*
X50597D01*
Y38393D01*
X51003D01*
Y37637D01*
X51247D01*
Y38393D01*
X51450D01*
Y38596D01*
X52006D01*
Y39149D01*
X51481D01*
X51321Y39370D01*
X51398Y39540D01*
X51803D01*
Y40646D01*
X50551D01*
Y45100D01*
X50521Y45254D01*
X50434Y45384D01*
X47167Y48651D01*
X47231Y48890D01*
Y49154D01*
X47163Y49409D01*
X47031Y49638D01*
X46844Y49825D01*
X46615Y49957D01*
X46360Y50025D01*
X46096D01*
X45841Y49957D01*
X45612Y49825D01*
X45425Y49638D01*
X45293Y49409D01*
X45225Y49154D01*
Y48890D01*
X45293Y48635D01*
X45425Y48406D01*
X45612Y48219D01*
X45841Y48087D01*
X46096Y48019D01*
X46360D01*
X46599Y48083D01*
X49749Y44934D01*
Y40093D01*
X49779Y39939D01*
X49797Y39913D01*
Y39557D01*
X49471D01*
Y39784D01*
X48065D01*
Y39537D01*
X46550D01*
Y39744D01*
X45144D01*
Y39517D01*
X44194D01*
X43853Y39859D01*
X43950Y40094D01*
X44297D01*
Y41490D01*
X44120D01*
Y48013D01*
X44323Y48054D01*
X44523Y48187D01*
X44656Y48387D01*
X44703Y48622D01*
Y49422D01*
X44656Y49657D01*
X44523Y49857D01*
X44323Y49990D01*
X44088Y50037D01*
X43288D01*
X43053Y49990D01*
X42853Y49857D01*
X42720Y49657D01*
X42673Y49422D01*
Y48622D01*
X42720Y48387D01*
X42853Y48187D01*
X43053Y48054D01*
X43288Y48007D01*
X43317D01*
Y41490D01*
X41301D01*
Y40094D01*
X42571D01*
X42583Y40037D01*
X42670Y39907D01*
X43238Y39338D01*
X43141Y39103D01*
X43002D01*
Y38202D01*
Y37301D01*
X43401D01*
Y36615D01*
X43178D01*
Y34759D01*
X44534D01*
Y36615D01*
X44204D01*
Y37504D01*
X44297D01*
Y38715D01*
X44735D01*
X44941Y38597D01*
Y37969D01*
X45847D01*
Y37766D01*
X46050D01*
Y36935D01*
X46753D01*
X46906Y36744D01*
Y35792D01*
X46937Y35639D01*
X47024Y35508D01*
X48379Y34153D01*
X48273Y33899D01*
X47764D01*
Y33096D01*
X48467D01*
Y33705D01*
X48721Y33811D01*
X49002Y33530D01*
Y30754D01*
X48264D01*
Y31156D01*
X46858D01*
Y31156D01*
X46614D01*
Y31156D01*
X45208D01*
Y29550D01*
X46614D01*
Y29550D01*
X46858D01*
Y29550D01*
X48264D01*
Y29952D01*
X49180D01*
X49333Y29982D01*
X49464Y30069D01*
X49687Y30292D01*
X49774Y30423D01*
X49804Y30576D01*
Y33295D01*
X57910D01*
X58057Y33041D01*
X58029Y32994D01*
X57964Y32751D01*
X60250D01*
X60185Y32994D01*
X60158Y33041D01*
X60304Y33295D01*
X63873D01*
X64027Y33326D01*
X64157Y33413D01*
X67810Y37066D01*
X67897Y37196D01*
X67927Y37350D01*
Y46168D01*
X70505Y48746D01*
X70740Y48649D01*
Y48241D01*
X70767Y48107D01*
X70582Y47922D01*
X70495Y47792D01*
X70465Y47639D01*
Y36569D01*
X70163D01*
Y35422D01*
X69960D01*
Y34794D01*
X70866D01*
X71772D01*
Y35422D01*
X71978Y35540D01*
X72533D01*
Y35415D01*
X72553Y35316D01*
X72609Y35233D01*
X72692Y35177D01*
X72791Y35157D01*
X73142D01*
X73240Y35177D01*
X73324Y35233D01*
X73380Y35316D01*
X73399Y35415D01*
Y36366D01*
X73380Y36465D01*
X73324Y36548D01*
X73240Y36604D01*
X73142Y36624D01*
X72791D01*
X72692Y36604D01*
X72609Y36548D01*
X72553Y36465D01*
X72533Y36366D01*
Y36342D01*
X71569D01*
Y36569D01*
X71267D01*
Y47472D01*
X71421Y47626D01*
X72155D01*
X72390Y47673D01*
X72590Y47806D01*
X72723Y48006D01*
X72770Y48241D01*
Y49041D01*
X72723Y49276D01*
X72686Y49332D01*
X72822Y49586D01*
X73101D01*
X73255Y49616D01*
X73385Y49703D01*
X73924Y50242D01*
X74163Y50178D01*
X74427D01*
X74682Y50246D01*
X74911Y50378D01*
X75098Y50565D01*
X75230Y50794D01*
X75298Y51049D01*
Y51313D01*
X75234Y51552D01*
X76874Y53193D01*
X90879D01*
X92798Y51273D01*
X92928Y51186D01*
X93082Y51156D01*
X109006D01*
X109160Y51186D01*
X109290Y51273D01*
X109548Y51531D01*
X109635Y51662D01*
X109638Y51679D01*
X109707Y51748D01*
X110396D01*
Y52603D01*
X110716Y52923D01*
X110930Y52777D01*
Y51569D01*
X110930D01*
Y51475D01*
X110930D01*
Y50786D01*
X110532Y50389D01*
X80604D01*
X80457Y50643D01*
X80499Y50715D01*
X80570Y50978D01*
X78180D01*
X78251Y50715D01*
X78283Y50660D01*
X78079Y50504D01*
X77774Y50810D01*
X77838Y51049D01*
Y51313D01*
X77770Y51568D01*
X77638Y51797D01*
X77451Y51984D01*
X77222Y52116D01*
X76967Y52184D01*
X76703D01*
X76448Y52116D01*
X76219Y51984D01*
X76032Y51797D01*
X75900Y51568D01*
X75832Y51313D01*
Y51049D01*
X75900Y50794D01*
X76032Y50565D01*
X76219Y50378D01*
X76448Y50246D01*
X76703Y50178D01*
X76967D01*
X77206Y50242D01*
X77745Y49703D01*
X77875Y49616D01*
X78029Y49586D01*
X78542D01*
X78647Y49332D01*
X78572Y49257D01*
X78440Y49028D01*
X78372Y48773D01*
Y48509D01*
X78440Y48254D01*
X78572Y48025D01*
X78759Y47838D01*
X78988Y47706D01*
X79243Y47638D01*
X79507D01*
X79762Y47706D01*
X79991Y47838D01*
X80178Y48025D01*
X80302Y48240D01*
X85197D01*
X96205Y37231D01*
X96100Y36977D01*
X89066D01*
X77774Y48270D01*
X77838Y48509D01*
Y48773D01*
X77770Y49028D01*
X77638Y49257D01*
X77451Y49444D01*
X77222Y49576D01*
X76967Y49644D01*
X76703D01*
X76448Y49576D01*
X76219Y49444D01*
X76032Y49257D01*
X75900Y49028D01*
X75832Y48773D01*
Y48509D01*
X75900Y48254D01*
X76032Y48025D01*
X76219Y47838D01*
X76448Y47706D01*
X76703Y47638D01*
X76967D01*
X77206Y47702D01*
X88616Y36292D01*
X88746Y36205D01*
X88900Y36175D01*
X94366D01*
X94604Y36136D01*
Y35433D01*
X95435D01*
Y35229D01*
X95639D01*
Y34323D01*
X96267D01*
X96384Y34118D01*
Y33676D01*
X96357Y33658D01*
X96107Y33617D01*
X96058Y33633D01*
X95957Y33701D01*
X95803Y33731D01*
X95732D01*
X95645Y33749D01*
X94655D01*
X94537Y33725D01*
X94437Y33658D01*
X94370Y33558D01*
X94346Y33439D01*
X94096Y33448D01*
Y34236D01*
X93393D01*
Y33404D01*
X93189D01*
Y33201D01*
X92283D01*
Y32573D01*
X92486D01*
Y31426D01*
X93893D01*
Y31646D01*
X94579D01*
X94655Y31630D01*
X95645D01*
X95680Y31602D01*
Y29564D01*
X84094D01*
Y31453D01*
X84625D01*
X84633Y31448D01*
X84787Y31417D01*
X86348D01*
Y31178D01*
X87754D01*
Y32434D01*
X87755D01*
Y32528D01*
X87754D01*
Y33784D01*
X86348D01*
Y33545D01*
X85588D01*
Y34445D01*
X85814D01*
Y35851D01*
X85126D01*
X85084Y35893D01*
Y36825D01*
X85053Y36979D01*
X84966Y37109D01*
X74696Y47379D01*
Y47714D01*
X74911Y47838D01*
X75098Y48025D01*
X75230Y48254D01*
X75298Y48509D01*
Y48773D01*
X75230Y49028D01*
X75098Y49257D01*
X74911Y49444D01*
X74682Y49576D01*
X74427Y49644D01*
X74163D01*
X73908Y49576D01*
X73679Y49444D01*
X73492Y49257D01*
X73360Y49028D01*
X73292Y48773D01*
Y48509D01*
X73360Y48254D01*
X73492Y48025D01*
X73679Y47838D01*
X73894Y47714D01*
Y47213D01*
X73924Y47059D01*
X74011Y46929D01*
X84281Y36659D01*
Y36055D01*
X84040D01*
Y35148D01*
Y34242D01*
X84668D01*
X84785Y34036D01*
Y33509D01*
X83996D01*
Y33509D01*
X83781Y33416D01*
X83742Y33408D01*
X83623Y33487D01*
X83470Y33518D01*
X82800D01*
X82724Y33533D01*
X82646Y33517D01*
X81094D01*
Y33688D01*
X79688D01*
Y32541D01*
X79485D01*
Y31913D01*
X80391D01*
X81297D01*
Y32541D01*
X81480Y32714D01*
X81743D01*
Y32684D01*
X82724D01*
Y32278D01*
X81743D01*
Y31900D01*
X81946D01*
Y31453D01*
X82608D01*
X82724Y31430D01*
X82802Y31445D01*
X83292D01*
Y29510D01*
X76810D01*
X74935Y31385D01*
Y32149D01*
X74683D01*
Y32881D01*
X74699Y32965D01*
Y33192D01*
X74702Y33206D01*
X74699Y33220D01*
Y33427D01*
X74702Y33441D01*
X74699Y33454D01*
Y33916D01*
X74680Y34015D01*
X74636Y34080D01*
Y34100D01*
X74606Y34253D01*
X74519Y34383D01*
X74259Y34643D01*
X74129Y34730D01*
X73975Y34761D01*
X73257D01*
X73104Y34730D01*
X72973Y34643D01*
X72714Y34383D01*
X72627Y34253D01*
X72596Y34100D01*
Y34080D01*
X72553Y34015D01*
X72533Y33916D01*
Y32965D01*
X72553Y32866D01*
X72609Y32783D01*
X72692Y32727D01*
X72791Y32707D01*
X72880D01*
X72963Y32606D01*
X72843Y32352D01*
X72125D01*
Y31649D01*
X72956D01*
Y31445D01*
X73160D01*
Y30539D01*
X73788D01*
Y30742D01*
X74442D01*
X76359Y28825D01*
X76490Y28738D01*
X76643Y28707D01*
X83693D01*
X83847Y28738D01*
X83881Y28761D01*
X97788D01*
X97941Y28791D01*
X98072Y28878D01*
X100336Y31143D01*
X100423Y31273D01*
X100453Y31426D01*
Y33953D01*
X100423Y34106D01*
X100336Y34236D01*
X85647Y48925D01*
X85517Y49012D01*
X85364Y49042D01*
X80302D01*
X80178Y49257D01*
X80103Y49332D01*
X80208Y49586D01*
X110698D01*
X110852Y49616D01*
X110982Y49703D01*
X111497Y50219D01*
X112336D01*
Y50422D01*
X112661D01*
X112740Y50285D01*
X112896Y50129D01*
X113010Y50064D01*
Y49276D01*
X113040Y49122D01*
X113127Y48992D01*
X117806Y44313D01*
X117742Y44074D01*
Y43810D01*
X117810Y43555D01*
X117942Y43326D01*
X118129Y43139D01*
X118358Y43007D01*
X118613Y42939D01*
X118877D01*
X119132Y43007D01*
X119361Y43139D01*
X119548Y43326D01*
X119680Y43555D01*
X119748Y43810D01*
Y44074D01*
X119700Y44254D01*
X119833Y44379D01*
X120072Y44266D01*
Y44145D01*
X121082D01*
Y45155D01*
X120961D01*
X120848Y45394D01*
X120973Y45527D01*
X121153Y45479D01*
X121417D01*
X121672Y45547D01*
X121901Y45679D01*
X122088Y45866D01*
X122220Y46095D01*
X122288Y46350D01*
Y46614D01*
X122224Y46853D01*
X123347Y47976D01*
X123434Y48106D01*
X123464Y48260D01*
Y62130D01*
X123434Y62284D01*
X123347Y62414D01*
X107315Y78446D01*
Y91613D01*
X107425Y91679D01*
X107569Y91708D01*
X110216Y89061D01*
Y84582D01*
X110246Y84428D01*
X110333Y84298D01*
X111232Y83400D01*
Y79248D01*
X111262Y79094D01*
X111349Y78964D01*
X112526Y77788D01*
Y76555D01*
X112412Y76490D01*
X112256Y76334D01*
X112146Y76143D01*
X112089Y75929D01*
Y75709D01*
X112146Y75495D01*
X112256Y75304D01*
X112412Y75148D01*
X112603Y75038D01*
X112817Y74981D01*
X113037D01*
X113251Y75038D01*
X113442Y75148D01*
X113598Y75304D01*
X113663Y75418D01*
X115072D01*
Y74816D01*
X116878D01*
Y76822D01*
X115072D01*
Y76220D01*
X113663D01*
X113598Y76334D01*
X113442Y76490D01*
X113328Y76555D01*
Y77954D01*
X113298Y78108D01*
X113211Y78238D01*
X112034Y79414D01*
Y79881D01*
X112156Y79949D01*
X112288Y79973D01*
X112412Y79849D01*
X112603Y79739D01*
X112817Y79681D01*
X113037D01*
X113251Y79739D01*
X113442Y79849D01*
X113598Y80005D01*
X113663Y80118D01*
X115072D01*
Y79516D01*
X116878D01*
Y81523D01*
X115072D01*
Y80921D01*
X113663D01*
X113598Y81034D01*
X113442Y81190D01*
X113328Y81256D01*
Y83163D01*
X113298Y83317D01*
X113211Y83447D01*
X111650Y85008D01*
Y85697D01*
X111885Y85794D01*
X112123Y85557D01*
X112089Y85431D01*
Y85210D01*
X112146Y84997D01*
X112256Y84806D01*
X112412Y84650D01*
X112603Y84539D01*
X112817Y84482D01*
X113037D01*
X113251Y84539D01*
X113442Y84650D01*
X113598Y84806D01*
X113663Y84919D01*
X115072D01*
Y84217D01*
X116878D01*
Y86223D01*
X115072D01*
Y85722D01*
X113663D01*
X113598Y85835D01*
X113442Y85991D01*
X113251Y86101D01*
X113037Y86158D01*
X112817D01*
X112690Y86125D01*
X112235Y86580D01*
Y89070D01*
X112280Y89116D01*
X112489Y89206D01*
X112603Y89140D01*
X112817Y89083D01*
X113037D01*
X113251Y89140D01*
X113442Y89250D01*
X113598Y89406D01*
X113663Y89519D01*
X115072D01*
Y88918D01*
X116878D01*
Y90924D01*
X115072D01*
Y90322D01*
X113663D01*
X113598Y90436D01*
X113442Y90592D01*
X113328Y90657D01*
Y92129D01*
X113298Y92283D01*
X113211Y92413D01*
X112235Y93389D01*
Y93759D01*
X112489Y93886D01*
X112579Y93834D01*
X112793Y93777D01*
X113013D01*
X113227Y93834D01*
X113418Y93944D01*
X113574Y94100D01*
X113639Y94214D01*
X115072D01*
Y93618D01*
X116878D01*
Y95625D01*
X115072D01*
Y95016D01*
X113639D01*
X113574Y95130D01*
X113418Y95286D01*
X113328Y95337D01*
Y97204D01*
X113298Y97358D01*
X113211Y97488D01*
X108337Y102362D01*
Y103112D01*
X108591Y103190D01*
X112123Y99659D01*
X112089Y99532D01*
Y99312D01*
X112146Y99099D01*
X112256Y98907D01*
X112412Y98751D01*
X112603Y98641D01*
X112817Y98584D01*
X113037D01*
X113251Y98641D01*
X113442Y98751D01*
X113598Y98907D01*
X113663Y99021D01*
X115072D01*
Y98319D01*
X116878D01*
Y100325D01*
X115072D01*
Y99824D01*
X113663D01*
X113598Y99937D01*
X113442Y100093D01*
X113251Y100203D01*
X113037Y100260D01*
X112817D01*
X112690Y100226D01*
X108986Y103931D01*
X108856Y104018D01*
X108702Y104048D01*
X107784D01*
X107630Y104018D01*
X107604Y104000D01*
X107315D01*
Y107074D01*
X107604D01*
X107630Y107056D01*
X107784Y107026D01*
X109480D01*
X112147Y104359D01*
X112113Y104233D01*
Y104012D01*
X112170Y103799D01*
X112280Y103608D01*
X112436Y103452D01*
X112627Y103342D01*
X112841Y103285D01*
X113061D01*
X113275Y103342D01*
X113466Y103452D01*
X113622Y103608D01*
X113687Y103721D01*
X115096D01*
Y103020D01*
X116902D01*
Y105026D01*
X115096D01*
Y104524D01*
X113687D01*
X113622Y104637D01*
X113466Y104793D01*
X113275Y104904D01*
X113061Y104961D01*
X112841D01*
X112714Y104927D01*
X109931Y107711D01*
X109800Y107798D01*
X109647Y107828D01*
X108337D01*
Y108326D01*
X112158D01*
X112232Y108197D01*
X112388Y108041D01*
X112579Y107931D01*
X112793Y107874D01*
X113013D01*
X113227Y107931D01*
X113418Y108041D01*
X113574Y108197D01*
X113639Y108311D01*
X115096D01*
Y107720D01*
X116902D01*
Y109516D01*
X118096D01*
Y107720D01*
X119902D01*
Y108222D01*
X120601D01*
Y107945D01*
X121867D01*
Y107742D01*
X122578D01*
Y108623D01*
Y109504D01*
X122539D01*
X122499Y109545D01*
X122499Y109545D01*
X121842Y110201D01*
X121712Y110288D01*
X121559Y110318D01*
X98450D01*
X98296Y110288D01*
X98166Y110201D01*
X97525Y109560D01*
X97259Y109548D01*
X97200Y109565D01*
X97028Y109680D01*
X96793Y109727D01*
X95993D01*
X95758Y109680D01*
X95558Y109547D01*
X95425Y109347D01*
X95378Y109113D01*
X75976D01*
X75822Y109083D01*
X75692Y108996D01*
X65379Y98683D01*
X65166Y98740D01*
X64912D01*
X64666Y98674D01*
X64446Y98547D01*
X64267Y98368D01*
X64140Y98148D01*
X64074Y97902D01*
Y97648D01*
X64140Y97402D01*
X64267Y97182D01*
X64446Y97003D01*
X64476Y96986D01*
X64408Y96732D01*
X63130D01*
X63062Y96986D01*
X63092Y97003D01*
X63271Y97182D01*
X63398Y97402D01*
X63464Y97648D01*
Y97902D01*
X63398Y98148D01*
X63271Y98368D01*
X63092Y98547D01*
X62872Y98674D01*
X62626Y98740D01*
X62372D01*
X62126Y98674D01*
X61906Y98547D01*
X61727Y98368D01*
X61600Y98148D01*
X61534Y97902D01*
Y97648D01*
X61600Y97402D01*
X61727Y97182D01*
X61906Y97003D01*
X61936Y96986D01*
X61868Y96732D01*
X59384D01*
X59230Y96701D01*
X59100Y96614D01*
X58794Y96308D01*
X58559Y96405D01*
Y100338D01*
X58529Y100492D01*
X58442Y100622D01*
X48671Y110393D01*
X48730Y110615D01*
Y110873D01*
X48664Y111122D01*
X48535Y111345D01*
X48353Y111527D01*
X48153Y111642D01*
Y112386D01*
X48353Y112501D01*
X48535Y112683D01*
X48664Y112906D01*
X48730Y113155D01*
Y113413D01*
X48664Y113662D01*
X48535Y113885D01*
X48353Y114067D01*
X48130Y114196D01*
X47881Y114262D01*
X47623D01*
X47374Y114196D01*
X47151Y114067D01*
X46969Y113885D01*
X46840Y113662D01*
X46774Y113413D01*
Y113155D01*
X46840Y112906D01*
X46969Y112683D01*
X47151Y112501D01*
X47351Y112386D01*
Y111642D01*
X47151Y111527D01*
X46969Y111345D01*
X46840Y111122D01*
X46774Y110873D01*
Y110615D01*
X46833Y110393D01*
X45046Y108605D01*
X41030D01*
X40915Y108805D01*
X40820Y108899D01*
X40802Y109151D01*
X40831Y109223D01*
X41585Y109976D01*
X41672Y110106D01*
X41702Y110260D01*
Y112115D01*
X41672Y112269D01*
X41585Y112399D01*
X41051Y112933D01*
X41110Y113155D01*
Y113413D01*
X41044Y113662D01*
X40915Y113885D01*
X40733Y114067D01*
X40510Y114196D01*
X40261Y114262D01*
X40003D01*
X39754Y114196D01*
X39531Y114067D01*
X39349Y113885D01*
X39220Y113662D01*
X39154Y113413D01*
Y113155D01*
X39220Y112906D01*
X39349Y112683D01*
X39531Y112501D01*
X39754Y112372D01*
X40003Y112306D01*
X40261D01*
X40483Y112365D01*
X40899Y111949D01*
Y111695D01*
X40645Y111577D01*
X40510Y111656D01*
X40261Y111722D01*
X40003D01*
X39754Y111656D01*
X39531Y111527D01*
X39349Y111345D01*
X39220Y111122D01*
X39154Y110873D01*
Y110615D01*
X39220Y110366D01*
X39349Y110143D01*
X39444Y110049D01*
X39462Y109797D01*
X39433Y109725D01*
X38679Y108972D01*
X38396Y109004D01*
X38354Y109035D01*
Y117141D01*
X127825D01*
Y27555D01*
D02*
G37*
G36*
X95425Y108077D02*
X95558Y107877D01*
X95758Y107744D01*
X95993Y107697D01*
X96793D01*
X97028Y107744D01*
X97084Y107781D01*
X97338Y107645D01*
Y107005D01*
X97084Y106900D01*
X97009Y106975D01*
X96780Y107107D01*
X96525Y107175D01*
X96261D01*
X96006Y107107D01*
X95777Y106975D01*
X95590Y106788D01*
X95466Y106573D01*
X75976D01*
X75822Y106543D01*
X75692Y106456D01*
X67919Y98683D01*
X67706Y98740D01*
X67452D01*
X67206Y98674D01*
X66986Y98547D01*
X66807Y98368D01*
X66680Y98148D01*
X66614Y97902D01*
Y97648D01*
X66680Y97402D01*
X66807Y97182D01*
X66986Y97003D01*
X67016Y96986D01*
X66948Y96732D01*
X65670D01*
X65602Y96986D01*
X65632Y97003D01*
X65811Y97182D01*
X65938Y97402D01*
X66004Y97648D01*
Y97902D01*
X65947Y98115D01*
X76142Y108311D01*
X95378D01*
X95425Y108077D01*
D02*
G37*
G36*
X106512Y107022D02*
Y104052D01*
X106258Y104004D01*
X106238Y104018D01*
X106084Y104048D01*
X106046Y104041D01*
X99855D01*
X99736Y104248D01*
X99549Y104435D01*
X99320Y104567D01*
X99065Y104635D01*
X98801D01*
X98546Y104567D01*
X98395Y104480D01*
X98141Y104590D01*
Y105214D01*
X98395Y105324D01*
X98546Y105237D01*
X98801Y105169D01*
X99065D01*
X99320Y105237D01*
X99549Y105369D01*
X99736Y105556D01*
X99860Y105771D01*
X100894D01*
X101047Y105801D01*
X101177Y105888D01*
X102315Y107026D01*
X106084D01*
X106238Y107056D01*
X106258Y107070D01*
X106512Y107022D01*
D02*
G37*
G36*
X95590Y105556D02*
X95777Y105369D01*
X96006Y105237D01*
X96261Y105169D01*
X96525D01*
X96780Y105237D01*
X97009Y105369D01*
X97084Y105444D01*
X97338Y105339D01*
Y104465D01*
X97084Y104360D01*
X97009Y104435D01*
X96780Y104567D01*
X96525Y104635D01*
X96261D01*
X96006Y104567D01*
X95777Y104435D01*
X95590Y104248D01*
X95466Y104033D01*
X78516D01*
X78362Y104003D01*
X78232Y103916D01*
X72999Y98683D01*
X72786Y98740D01*
X72532D01*
X72286Y98674D01*
X72066Y98547D01*
X71887Y98368D01*
X71760Y98148D01*
X71694Y97902D01*
Y97648D01*
X71760Y97402D01*
X71887Y97182D01*
X72066Y97003D01*
X72286Y96876D01*
X72532Y96810D01*
X72786D01*
X73032Y96876D01*
X73159Y96949D01*
X73413Y96828D01*
Y87697D01*
X69198Y83481D01*
X69071Y83515D01*
X68851D01*
X68637Y83458D01*
X68446Y83348D01*
X68290Y83192D01*
X68180Y83001D01*
X68123Y82787D01*
Y82567D01*
X68180Y82353D01*
X68290Y82162D01*
X68446Y82006D01*
X68569Y81935D01*
X68501Y81681D01*
X65440D01*
Y83835D01*
X65410Y83989D01*
X65323Y84119D01*
X60268Y89174D01*
X60330Y89405D01*
Y89665D01*
X60262Y89917D01*
X60132Y90143D01*
X59947Y90328D01*
X59721Y90458D01*
X59469Y90526D01*
X59209D01*
X58957Y90458D01*
X58813Y90375D01*
X58559Y90490D01*
Y91120D01*
X58813Y91235D01*
X58957Y91152D01*
X59209Y91084D01*
X59469D01*
X59721Y91152D01*
X59947Y91282D01*
X60132Y91467D01*
X60262Y91693D01*
X60330Y91945D01*
Y92205D01*
X60262Y92457D01*
X60132Y92683D01*
X59947Y92868D01*
X59721Y92998D01*
X59469Y93066D01*
X59209D01*
X58957Y92998D01*
X58813Y92915D01*
X58559Y93030D01*
Y93660D01*
X58813Y93775D01*
X58957Y93692D01*
X59209Y93624D01*
X59469D01*
X59721Y93692D01*
X59947Y93822D01*
X60132Y94007D01*
X60262Y94233D01*
X60330Y94485D01*
Y94745D01*
X60262Y94997D01*
X60132Y95223D01*
X59947Y95408D01*
X59721Y95538D01*
X59625Y95826D01*
X59701Y95929D01*
X68674D01*
X68828Y95959D01*
X68958Y96046D01*
X69779Y96867D01*
X69992Y96810D01*
X70246D01*
X70492Y96876D01*
X70712Y97003D01*
X70891Y97182D01*
X71018Y97402D01*
X71084Y97648D01*
Y97902D01*
X71018Y98148D01*
X70891Y98368D01*
X70712Y98547D01*
X70492Y98674D01*
X70246Y98740D01*
X69992D01*
X69746Y98674D01*
X69526Y98547D01*
X69347Y98368D01*
X69220Y98148D01*
X69154Y97902D01*
Y97648D01*
X69211Y97435D01*
X68508Y96732D01*
X68210D01*
X68142Y96986D01*
X68172Y97003D01*
X68351Y97182D01*
X68478Y97402D01*
X68544Y97648D01*
Y97902D01*
X68487Y98115D01*
X76142Y105771D01*
X95466D01*
X95590Y105556D01*
D02*
G37*
G36*
Y103016D02*
X95777Y102829D01*
X96006Y102697D01*
X96261Y102629D01*
X96525D01*
X96780Y102697D01*
X97009Y102829D01*
X97084Y102904D01*
X97338Y102799D01*
Y101925D01*
X97084Y101820D01*
X97009Y101895D01*
X96780Y102027D01*
X96525Y102095D01*
X96261D01*
X96006Y102027D01*
X95777Y101895D01*
X95590Y101708D01*
X95458Y101479D01*
X95390Y101224D01*
Y100960D01*
X95454Y100721D01*
X92910Y98176D01*
X81162D01*
X81051Y98368D01*
X80872Y98547D01*
X80652Y98674D01*
X80406Y98740D01*
X80152D01*
X79939Y98683D01*
X79407Y99215D01*
X79277Y99302D01*
X79123Y99332D01*
X75116D01*
X75018Y99567D01*
X78682Y103231D01*
X95466D01*
X95590Y103016D01*
D02*
G37*
G36*
X106512Y101942D02*
Y98905D01*
X106176D01*
X106150Y98923D01*
X105996Y98953D01*
X99860D01*
X99736Y99168D01*
X99549Y99355D01*
X99320Y99487D01*
X99065Y99555D01*
X98801D01*
X98546Y99487D01*
X98395Y99400D01*
X98141Y99510D01*
Y100134D01*
X98395Y100244D01*
X98546Y100157D01*
X98801Y100089D01*
X99065D01*
X99320Y100157D01*
X99549Y100289D01*
X99736Y100476D01*
X99860Y100691D01*
X100965D01*
X101119Y100721D01*
X101249Y100808D01*
X102386Y101946D01*
X106084D01*
X106238Y101976D01*
X106258Y101990D01*
X106512Y101942D01*
D02*
G37*
G36*
X97338Y100259D02*
Y99385D01*
X97084Y99280D01*
X97009Y99355D01*
X96780Y99487D01*
X96525Y99555D01*
X96261D01*
X96006Y99487D01*
X95777Y99355D01*
X95590Y99168D01*
X95458Y98939D01*
X95390Y98684D01*
Y98420D01*
X95454Y98181D01*
X89750Y92476D01*
X84351D01*
X84232Y92683D01*
X84047Y92868D01*
X83821Y92998D01*
X83569Y93066D01*
X83309D01*
X83057Y92998D01*
X82831Y92868D01*
X82646Y92683D01*
X82516Y92457D01*
X82448Y92205D01*
Y91945D01*
X82516Y91693D01*
X82646Y91467D01*
X82831Y91282D01*
X83057Y91152D01*
X83309Y91084D01*
X83569D01*
X83821Y91152D01*
X84047Y91282D01*
X84232Y91467D01*
X84351Y91674D01*
X89916D01*
X90070Y91704D01*
X90200Y91791D01*
X96022Y97613D01*
X96261Y97549D01*
X96525D01*
X96780Y97617D01*
X97009Y97749D01*
X97084Y97824D01*
X97338Y97719D01*
Y96845D01*
X97084Y96740D01*
X97009Y96815D01*
X96780Y96947D01*
X96525Y97015D01*
X96261D01*
X96006Y96947D01*
X95777Y96815D01*
X95590Y96628D01*
X95458Y96399D01*
X95390Y96144D01*
Y95880D01*
X95454Y95641D01*
X89750Y89936D01*
X84351D01*
X84232Y90143D01*
X84047Y90328D01*
X83821Y90458D01*
X83569Y90526D01*
X83309D01*
X83057Y90458D01*
X82831Y90328D01*
X82646Y90143D01*
X82516Y89917D01*
X82448Y89665D01*
Y89405D01*
X82516Y89153D01*
X82646Y88927D01*
X82831Y88742D01*
X83057Y88612D01*
X83309Y88544D01*
X83569D01*
X83821Y88612D01*
X84047Y88742D01*
X84232Y88927D01*
X84351Y89134D01*
X89916D01*
X90070Y89164D01*
X90200Y89251D01*
X96022Y95073D01*
X96261Y95009D01*
X96525D01*
X96780Y95077D01*
X97009Y95209D01*
X97084Y95284D01*
X97338Y95179D01*
Y94305D01*
X97084Y94200D01*
X97009Y94275D01*
X96780Y94407D01*
X96525Y94475D01*
X96261D01*
X96006Y94407D01*
X95777Y94275D01*
X95590Y94088D01*
X95458Y93859D01*
X95390Y93604D01*
Y93340D01*
X95454Y93101D01*
X87210Y84856D01*
X84351D01*
X84232Y85063D01*
X84047Y85248D01*
X83821Y85378D01*
X83569Y85446D01*
X83309D01*
X83057Y85378D01*
X82913Y85295D01*
X82659Y85410D01*
Y85648D01*
X83078Y86066D01*
X83309Y86004D01*
X83569D01*
X83821Y86072D01*
X84047Y86202D01*
X84232Y86387D01*
X84362Y86613D01*
X84430Y86865D01*
Y87125D01*
X84362Y87377D01*
X84232Y87603D01*
X84047Y87788D01*
X83821Y87918D01*
X83569Y87986D01*
X83309D01*
X83057Y87918D01*
X82831Y87788D01*
X82646Y87603D01*
X82516Y87377D01*
X82448Y87125D01*
Y86865D01*
X82510Y86634D01*
X81974Y86098D01*
X81887Y85968D01*
X81856Y85814D01*
Y84397D01*
X81622Y84300D01*
X78140Y87781D01*
Y96892D01*
X78332Y97003D01*
X78511Y97182D01*
X78638Y97402D01*
X78704Y97648D01*
Y97902D01*
X78638Y98148D01*
X78565Y98275D01*
X78686Y98529D01*
X78957D01*
X79371Y98115D01*
X79314Y97902D01*
Y97648D01*
X79380Y97402D01*
X79507Y97182D01*
X79686Y97003D01*
X79906Y96876D01*
X80152Y96810D01*
X80406D01*
X80652Y96876D01*
X80872Y97003D01*
X81051Y97182D01*
X81162Y97374D01*
X93076D01*
X93230Y97404D01*
X93360Y97491D01*
X96022Y100153D01*
X96261Y100089D01*
X96525D01*
X96780Y100157D01*
X97009Y100289D01*
X97084Y100364D01*
X97338Y100259D01*
D02*
G37*
G36*
X76967Y97182D02*
X77146Y97003D01*
X77338Y96892D01*
Y87615D01*
X77368Y87461D01*
X77455Y87331D01*
X82510Y82276D01*
X82448Y82045D01*
Y81785D01*
X82213Y81681D01*
X69421D01*
X69353Y81935D01*
X69476Y82006D01*
X69632Y82162D01*
X69742Y82353D01*
X69799Y82567D01*
Y82787D01*
X69765Y82914D01*
X74099Y87247D01*
X74186Y87377D01*
X74216Y87531D01*
Y97048D01*
X74290Y97095D01*
X74470Y97139D01*
X74606Y97003D01*
X74826Y96876D01*
X75072Y96810D01*
X75326D01*
X75572Y96876D01*
X75792Y97003D01*
X75971Y97182D01*
X76082Y97374D01*
X76856D01*
X76967Y97182D01*
D02*
G37*
G36*
X107660Y101904D02*
X112526Y97038D01*
Y95365D01*
X112388Y95286D01*
X112337Y95234D01*
X112189Y95147D01*
X111995Y95227D01*
X108427Y98795D01*
X108297Y98882D01*
X108249Y98892D01*
Y98905D01*
X108182D01*
X108143Y98913D01*
X107865D01*
X107850Y98923D01*
X107696Y98953D01*
X107569Y98928D01*
X107499Y98943D01*
X107315Y99026D01*
Y101994D01*
X107599D01*
X107660Y101904D01*
D02*
G37*
G36*
X106512Y94093D02*
X106510Y93840D01*
X106137D01*
X106111Y93858D01*
X105957Y93888D01*
X105919Y93881D01*
X99855D01*
X99736Y94088D01*
X99549Y94275D01*
X99320Y94407D01*
X99065Y94475D01*
X98801D01*
X98546Y94407D01*
X98395Y94320D01*
X98141Y94430D01*
Y95054D01*
X98395Y95164D01*
X98546Y95077D01*
X98801Y95009D01*
X99065D01*
X99320Y95077D01*
X99549Y95209D01*
X99736Y95396D01*
X99860Y95611D01*
X100838D01*
X100992Y95641D01*
X101122Y95728D01*
X102244Y96851D01*
X105996D01*
X106150Y96881D01*
X106176Y96899D01*
X106512D01*
Y94093D01*
D02*
G37*
G36*
X97338Y92639D02*
Y91765D01*
X97084Y91660D01*
X97009Y91735D01*
X96780Y91867D01*
X96525Y91935D01*
X96261D01*
X96006Y91867D01*
X95777Y91735D01*
X95590Y91548D01*
X95458Y91319D01*
X95390Y91064D01*
Y90800D01*
X95454Y90561D01*
X89700Y84806D01*
X89613Y84676D01*
X89582Y84522D01*
Y83546D01*
X85256Y79220D01*
X85022Y79317D01*
Y82404D01*
X84991Y82558D01*
X84904Y82688D01*
X84159Y83433D01*
X84126Y83501D01*
X84145Y83760D01*
X84232Y83847D01*
X84351Y84054D01*
X87376D01*
X87530Y84084D01*
X87660Y84171D01*
X96022Y92533D01*
X96261Y92469D01*
X96525D01*
X96780Y92537D01*
X97009Y92669D01*
X97084Y92744D01*
X97338Y92639D01*
D02*
G37*
G36*
X111379Y91253D02*
X111362Y91116D01*
X111094Y91024D01*
X108388Y93730D01*
X108258Y93817D01*
X108210Y93827D01*
Y93840D01*
X108143D01*
X108104Y93848D01*
X107826D01*
X107811Y93858D01*
X107657Y93888D01*
X107569Y93871D01*
X107334Y94003D01*
X107315Y94020D01*
Y94958D01*
X107569Y95064D01*
X111379Y91253D01*
D02*
G37*
G36*
X111432Y94655D02*
Y93223D01*
X111462Y93069D01*
X111549Y92939D01*
X112526Y91963D01*
Y90896D01*
X112489Y90871D01*
X112235Y91004D01*
Y91367D01*
X112204Y91520D01*
X112117Y91651D01*
X108097Y95670D01*
Y96899D01*
X108249D01*
Y97479D01*
X108478Y97609D01*
X111432Y94655D01*
D02*
G37*
G36*
X106510Y91834D02*
X106512Y91581D01*
Y78280D01*
X106542Y78126D01*
X106629Y77996D01*
X122661Y61964D01*
Y56699D01*
X122427Y56601D01*
X112710Y66318D01*
X112580Y66405D01*
X112520Y66417D01*
X112405Y66532D01*
X112295Y66605D01*
X112167Y66631D01*
X111943D01*
Y67056D01*
X111537D01*
X111499Y67113D01*
X111458Y67141D01*
Y67736D01*
X111492Y67787D01*
X111522Y67941D01*
Y68203D01*
X111492Y68357D01*
X111405Y68487D01*
X110896Y68996D01*
X110766Y69083D01*
X110612Y69113D01*
X109220D01*
X109066Y69083D01*
X108936Y68996D01*
X108665Y68724D01*
X108661D01*
Y67818D01*
X108255D01*
Y68724D01*
X107627D01*
Y68219D01*
X103910D01*
X102503Y69626D01*
X102373Y69713D01*
X102219Y69743D01*
X99842D01*
X99736Y69996D01*
X99868Y70225D01*
X99936Y70480D01*
Y70744D01*
X99868Y70999D01*
X99736Y71228D01*
X99549Y71415D01*
X99320Y71547D01*
X99065Y71615D01*
X98801D01*
X98546Y71547D01*
X98395Y71460D01*
X98141Y71570D01*
Y72194D01*
X98395Y72304D01*
X98546Y72217D01*
X98801Y72149D01*
X99065D01*
X99320Y72217D01*
X99549Y72349D01*
X99736Y72536D01*
X99868Y72765D01*
X99936Y73020D01*
Y73284D01*
X99868Y73539D01*
X99736Y73768D01*
X99549Y73955D01*
X99320Y74087D01*
X99065Y74155D01*
X98801D01*
X98546Y74087D01*
X98395Y74000D01*
X98141Y74110D01*
Y74734D01*
X98395Y74844D01*
X98546Y74757D01*
X98801Y74689D01*
X99065D01*
X99320Y74757D01*
X99549Y74889D01*
X99736Y75076D01*
X99868Y75305D01*
X99936Y75560D01*
Y75824D01*
X99868Y76079D01*
X99736Y76308D01*
X99549Y76495D01*
X99320Y76627D01*
X99065Y76695D01*
X98801D01*
X98546Y76627D01*
X98395Y76540D01*
X98141Y76650D01*
Y77274D01*
X98395Y77384D01*
X98546Y77297D01*
X98801Y77229D01*
X99065D01*
X99320Y77297D01*
X99549Y77429D01*
X99736Y77616D01*
X99868Y77845D01*
X99936Y78100D01*
Y78364D01*
X99868Y78619D01*
X99736Y78848D01*
X99549Y79035D01*
X99320Y79167D01*
X99065Y79235D01*
X98801D01*
X98546Y79167D01*
X98395Y79080D01*
X98141Y79190D01*
Y79814D01*
X98395Y79924D01*
X98546Y79837D01*
X98801Y79769D01*
X99065D01*
X99320Y79837D01*
X99549Y79969D01*
X99736Y80156D01*
X99868Y80385D01*
X99936Y80640D01*
Y80904D01*
X99868Y81159D01*
X99736Y81388D01*
X99549Y81575D01*
X99320Y81707D01*
X99065Y81775D01*
X98801D01*
X98546Y81707D01*
X98395Y81620D01*
X98141Y81730D01*
Y82354D01*
X98395Y82464D01*
X98546Y82377D01*
X98801Y82309D01*
X99065D01*
X99320Y82377D01*
X99549Y82509D01*
X99736Y82696D01*
X99868Y82925D01*
X99936Y83180D01*
Y83444D01*
X99868Y83699D01*
X99736Y83928D01*
X99549Y84115D01*
X99320Y84247D01*
X99065Y84315D01*
X98801D01*
X98546Y84247D01*
X98395Y84160D01*
X98141Y84270D01*
Y84894D01*
X98395Y85004D01*
X98546Y84917D01*
X98801Y84849D01*
X99065D01*
X99320Y84917D01*
X99549Y85049D01*
X99736Y85236D01*
X99868Y85465D01*
X99936Y85720D01*
Y85984D01*
X99868Y86239D01*
X99736Y86468D01*
X99549Y86655D01*
X99320Y86787D01*
X99065Y86855D01*
X98801D01*
X98546Y86787D01*
X98395Y86700D01*
X98141Y86810D01*
Y87434D01*
X98395Y87544D01*
X98546Y87457D01*
X98801Y87389D01*
X99065D01*
X99320Y87457D01*
X99549Y87589D01*
X99736Y87776D01*
X99868Y88005D01*
X99936Y88260D01*
Y88524D01*
X99868Y88779D01*
X99736Y89008D01*
X99549Y89195D01*
X99320Y89327D01*
X99065Y89395D01*
X98801D01*
X98546Y89327D01*
X98395Y89240D01*
X98141Y89350D01*
Y89974D01*
X98395Y90084D01*
X98546Y89997D01*
X98801Y89929D01*
X99065D01*
X99320Y89997D01*
X99549Y90129D01*
X99736Y90316D01*
X99860Y90531D01*
X101219D01*
X101373Y90561D01*
X101503Y90648D01*
X102640Y91786D01*
X105957D01*
X106111Y91816D01*
X106137Y91834D01*
X106510D01*
D02*
G37*
G36*
X97338Y90099D02*
Y89225D01*
X97084Y89120D01*
X97009Y89195D01*
X96780Y89327D01*
X96525Y89395D01*
X96261D01*
X96006Y89327D01*
X95777Y89195D01*
X95590Y89008D01*
X95458Y88779D01*
X95390Y88524D01*
Y88260D01*
X95458Y88005D01*
X95590Y87776D01*
X95777Y87589D01*
X96006Y87457D01*
X96261Y87389D01*
X96525D01*
X96780Y87457D01*
X97009Y87589D01*
X97084Y87664D01*
X97338Y87559D01*
Y86685D01*
X97084Y86580D01*
X97009Y86655D01*
X96780Y86787D01*
X96525Y86855D01*
X96261D01*
X96006Y86787D01*
X95777Y86655D01*
X95590Y86468D01*
X95458Y86239D01*
X95390Y85984D01*
Y85720D01*
X95458Y85465D01*
X95590Y85236D01*
X95777Y85049D01*
X96006Y84917D01*
X96261Y84849D01*
X96525D01*
X96780Y84917D01*
X97009Y85049D01*
X97084Y85124D01*
X97338Y85019D01*
Y84145D01*
X97084Y84040D01*
X97009Y84115D01*
X96780Y84247D01*
X96525Y84315D01*
X96261D01*
X96006Y84247D01*
X95777Y84115D01*
X95590Y83928D01*
X95458Y83699D01*
X95390Y83444D01*
Y83180D01*
X95454Y82941D01*
X85409Y72895D01*
X81234D01*
X81119Y73149D01*
X81202Y73293D01*
X81270Y73545D01*
Y73805D01*
X81202Y74057D01*
X81072Y74283D01*
X80887Y74468D01*
X80661Y74598D01*
X80409Y74666D01*
X80149D01*
X79897Y74598D01*
X79671Y74468D01*
X79486Y74283D01*
X79356Y74057D01*
X79288Y73805D01*
Y73545D01*
X79356Y73293D01*
X79439Y73149D01*
X79324Y72895D01*
X78694D01*
X78579Y73149D01*
X78662Y73293D01*
X78730Y73545D01*
Y73805D01*
X78668Y74036D01*
X82246Y77615D01*
X82484D01*
X82599Y77361D01*
X82516Y77217D01*
X82448Y76965D01*
Y76705D01*
X82516Y76453D01*
X82646Y76227D01*
X82831Y76042D01*
X83057Y75912D01*
X83309Y75844D01*
X83569D01*
X83821Y75912D01*
X84047Y76042D01*
X84232Y76227D01*
X84362Y76453D01*
X84430Y76705D01*
Y76965D01*
X84368Y77196D01*
X90267Y83096D01*
X90354Y83226D01*
X90385Y83379D01*
Y84356D01*
X96022Y89993D01*
X96261Y89929D01*
X96525D01*
X96780Y89997D01*
X97009Y90129D01*
X97084Y90204D01*
X97338Y90099D01*
D02*
G37*
G36*
Y82479D02*
Y81605D01*
X97084Y81500D01*
X97009Y81575D01*
X96780Y81707D01*
X96525Y81775D01*
X96261D01*
X96006Y81707D01*
X95777Y81575D01*
X95590Y81388D01*
X95458Y81159D01*
X95390Y80904D01*
Y80640D01*
X95454Y80401D01*
X87364Y72311D01*
X86292D01*
X86194Y72546D01*
X96022Y82373D01*
X96261Y82309D01*
X96525D01*
X96780Y82377D01*
X97009Y82509D01*
X97084Y82584D01*
X97338Y82479D01*
D02*
G37*
G36*
Y79939D02*
Y79065D01*
X97084Y78960D01*
X97009Y79035D01*
X96780Y79167D01*
X96525Y79235D01*
X96261D01*
X96006Y79167D01*
X95777Y79035D01*
X95590Y78848D01*
X95458Y78619D01*
X95390Y78364D01*
Y78100D01*
X95458Y77845D01*
X95590Y77616D01*
X95777Y77429D01*
X96006Y77297D01*
X96261Y77229D01*
X96525D01*
X96780Y77297D01*
X97009Y77429D01*
X97084Y77504D01*
X97338Y77399D01*
Y76525D01*
X97084Y76420D01*
X97009Y76495D01*
X96780Y76627D01*
X96525Y76695D01*
X96261D01*
X96006Y76627D01*
X95777Y76495D01*
X95590Y76308D01*
X95458Y76079D01*
X95390Y75824D01*
Y75560D01*
X95458Y75305D01*
X95590Y75076D01*
X95777Y74889D01*
X96006Y74757D01*
X96261Y74689D01*
X96525D01*
X96780Y74757D01*
X97009Y74889D01*
X97084Y74964D01*
X97338Y74859D01*
Y73985D01*
X97084Y73880D01*
X97009Y73955D01*
X96780Y74087D01*
X96525Y74155D01*
X96261D01*
X96006Y74087D01*
X95777Y73955D01*
X95590Y73768D01*
X95458Y73539D01*
X95390Y73284D01*
Y73020D01*
X95458Y72765D01*
X95590Y72536D01*
X95777Y72349D01*
X96006Y72217D01*
X96261Y72149D01*
X96525D01*
X96780Y72217D01*
X97009Y72349D01*
X97084Y72424D01*
X97338Y72319D01*
Y71445D01*
X97084Y71340D01*
X97009Y71415D01*
X96780Y71547D01*
X96525Y71615D01*
X96261D01*
X96006Y71547D01*
X95777Y71415D01*
X95590Y71228D01*
X95458Y70999D01*
X95390Y70744D01*
Y70480D01*
X95458Y70225D01*
X95590Y69996D01*
X95777Y69809D01*
X96006Y69677D01*
X96261Y69609D01*
X96525D01*
X96780Y69677D01*
X97009Y69809D01*
X97084Y69884D01*
X97338Y69779D01*
Y68905D01*
X97084Y68800D01*
X97009Y68875D01*
X96780Y69007D01*
X96525Y69075D01*
X96261D01*
X96006Y69007D01*
X95777Y68875D01*
X95590Y68688D01*
X95458Y68459D01*
X95390Y68204D01*
Y67940D01*
X95458Y67685D01*
X95590Y67456D01*
X95777Y67269D01*
X96006Y67137D01*
X96261Y67069D01*
X96525D01*
X96780Y67137D01*
X97009Y67269D01*
X97084Y67344D01*
X97338Y67239D01*
Y66365D01*
X97084Y66260D01*
X97009Y66335D01*
X96780Y66467D01*
X96525Y66535D01*
X96261D01*
X96006Y66467D01*
X95777Y66335D01*
X95590Y66148D01*
X95458Y65919D01*
X95390Y65664D01*
Y65400D01*
X95458Y65145D01*
X95590Y64916D01*
X95777Y64729D01*
X96006Y64597D01*
X96261Y64529D01*
X96525D01*
X96780Y64597D01*
X97009Y64729D01*
X97084Y64804D01*
X97338Y64699D01*
Y63825D01*
X97084Y63720D01*
X97009Y63795D01*
X96780Y63927D01*
X96525Y63995D01*
X96261D01*
X96006Y63927D01*
X95777Y63795D01*
X95590Y63608D01*
X95458Y63379D01*
X95390Y63124D01*
Y62860D01*
X95458Y62605D01*
X95590Y62376D01*
X95777Y62189D01*
X96006Y62057D01*
X96261Y61989D01*
X96525D01*
X96780Y62057D01*
X97009Y62189D01*
X97084Y62264D01*
X97338Y62159D01*
Y61285D01*
X97084Y61180D01*
X97009Y61255D01*
X96780Y61387D01*
X96525Y61455D01*
X96261D01*
X96022Y61391D01*
X90193Y67219D01*
X90063Y67306D01*
X89910Y67337D01*
X75354D01*
X70243Y72449D01*
X70341Y72709D01*
X70501Y72752D01*
X70727Y72882D01*
X70912Y73067D01*
X71042Y73293D01*
X71110Y73545D01*
Y73805D01*
X71048Y74036D01*
X71466Y74455D01*
X71704D01*
X71819Y74201D01*
X71736Y74057D01*
X71668Y73805D01*
Y73545D01*
X71736Y73293D01*
X71866Y73067D01*
X72051Y72882D01*
X72277Y72752D01*
X72529Y72684D01*
X72789D01*
X73020Y72746D01*
X74140Y71626D01*
X74271Y71539D01*
X74424Y71508D01*
X87531D01*
X87684Y71539D01*
X87815Y71626D01*
X96022Y79833D01*
X96261Y79769D01*
X96525D01*
X96780Y79837D01*
X97009Y79969D01*
X97084Y80044D01*
X97338Y79939D01*
D02*
G37*
G36*
X48621Y87152D02*
X48651Y86998D01*
X48738Y86868D01*
X58312Y77294D01*
X58279Y77151D01*
X58000Y77071D01*
X48153Y86918D01*
Y104686D01*
X48621D01*
Y87152D01*
D02*
G37*
G36*
X83038Y80781D02*
Y80287D01*
X82831Y80168D01*
X82646Y79983D01*
X82516Y79757D01*
X82448Y79505D01*
Y79245D01*
X82516Y78993D01*
X82646Y78767D01*
X82742Y78672D01*
X82636Y78418D01*
X82080D01*
X81926Y78387D01*
X81796Y78300D01*
X78100Y74604D01*
X77869Y74666D01*
X77609D01*
X77357Y74598D01*
X77131Y74468D01*
X76946Y74283D01*
X76816Y74057D01*
X76748Y73805D01*
Y73545D01*
X76816Y73293D01*
X76899Y73149D01*
X76784Y72895D01*
X76154D01*
X76039Y73149D01*
X76122Y73293D01*
X76190Y73545D01*
Y73805D01*
X76122Y74057D01*
X75992Y74283D01*
X75807Y74468D01*
X75581Y74598D01*
X75329Y74666D01*
X75069D01*
X74817Y74598D01*
X74591Y74468D01*
X74504Y74381D01*
X74245Y74362D01*
X74177Y74395D01*
X73432Y75140D01*
X73302Y75227D01*
X73148Y75257D01*
X71300D01*
X71146Y75227D01*
X71016Y75140D01*
X70480Y74604D01*
X70249Y74666D01*
X69989D01*
X69737Y74598D01*
X69593Y74515D01*
X69339Y74630D01*
Y79124D01*
X69453Y79189D01*
X69609Y79345D01*
X69719Y79536D01*
X69776Y79750D01*
Y79970D01*
X69719Y80183D01*
X69609Y80375D01*
X69453Y80531D01*
X69421Y80842D01*
X69446Y80879D01*
X82619D01*
X82773Y80909D01*
X82784Y80917D01*
X83038Y80781D01*
D02*
G37*
G36*
X68455Y80842D02*
X68423Y80531D01*
X68267Y80375D01*
X68157Y80183D01*
X68100Y79970D01*
Y79750D01*
X68157Y79536D01*
X68267Y79345D01*
X68423Y79189D01*
X68536Y79124D01*
Y74478D01*
X68282Y74372D01*
X68187Y74468D01*
X67961Y74598D01*
X67709Y74666D01*
X67449D01*
X67197Y74598D01*
X66971Y74468D01*
X66786Y74283D01*
X66656Y74057D01*
X66588Y73805D01*
Y73545D01*
X66656Y73293D01*
X66786Y73067D01*
X66971Y72882D01*
X67197Y72752D01*
X67449Y72684D01*
X67709D01*
X67961Y72752D01*
X68187Y72882D01*
X68313Y73008D01*
X68397Y73016D01*
X68539Y72998D01*
X68609Y72970D01*
X68654Y72902D01*
X74904Y66652D01*
X75035Y66565D01*
X75188Y66534D01*
X89743D01*
X95454Y60823D01*
X95390Y60584D01*
Y60320D01*
X95458Y60065D01*
X95590Y59836D01*
X95777Y59649D01*
X96006Y59517D01*
X96261Y59449D01*
X96525D01*
X96780Y59517D01*
X97009Y59649D01*
X97118Y59759D01*
X97179Y59770D01*
X97377Y59745D01*
X97423Y59722D01*
X97455Y59674D01*
X104916Y52213D01*
X104871Y52035D01*
X104819Y51959D01*
X93248D01*
X91329Y53878D01*
X91199Y53965D01*
X91045Y53995D01*
X76708D01*
X76554Y53965D01*
X76424Y53878D01*
X74666Y52120D01*
X74427Y52184D01*
X74163D01*
X73908Y52116D01*
X73679Y51984D01*
X73492Y51797D01*
X73360Y51568D01*
X73292Y51313D01*
Y51049D01*
X73356Y50810D01*
X72948Y50402D01*
X72706Y50426D01*
X72603Y50644D01*
X72690Y50794D01*
X72758Y51049D01*
Y51313D01*
X72690Y51568D01*
X72558Y51797D01*
X72371Y51984D01*
X72156Y52108D01*
Y64135D01*
X72126Y64289D01*
X72039Y64419D01*
X65440Y71017D01*
Y72763D01*
X65647Y72882D01*
X65832Y73067D01*
X65962Y73293D01*
X66030Y73545D01*
Y73805D01*
X65962Y74057D01*
X65832Y74283D01*
X65647Y74468D01*
X65440Y74587D01*
Y80879D01*
X68430D01*
X68455Y80842D01*
D02*
G37*
G36*
X103460Y67534D02*
X103590Y67447D01*
X103743Y67417D01*
X107627D01*
Y66912D01*
X107627D01*
X107535Y66695D01*
X100877D01*
X99872Y67701D01*
X99936Y67940D01*
Y68204D01*
X99868Y68459D01*
X99736Y68688D01*
X99842Y68941D01*
X102053D01*
X103460Y67534D01*
D02*
G37*
G36*
X108691Y63237D02*
X108821Y63150D01*
X108975Y63120D01*
X109128Y63150D01*
X109179Y63184D01*
X109793D01*
Y63059D01*
X109818Y62934D01*
X109889Y62827D01*
X109996Y62756D01*
X110121Y62731D01*
X110284Y62505D01*
Y61996D01*
X110280Y61976D01*
Y58420D01*
X110284Y58400D01*
Y58018D01*
X110121Y57792D01*
X109996Y57767D01*
X109889Y57696D01*
X109818Y57589D01*
X109793Y57464D01*
Y57212D01*
X109189D01*
X103125Y63276D01*
X102995Y63363D01*
X102841Y63393D01*
X99860D01*
X99736Y63608D01*
X99549Y63795D01*
X99320Y63927D01*
X99065Y63995D01*
X98801D01*
X98546Y63927D01*
X98395Y63840D01*
X98141Y63950D01*
Y64574D01*
X98395Y64684D01*
X98546Y64597D01*
X98801Y64529D01*
X99065D01*
X99320Y64597D01*
X99549Y64729D01*
X99736Y64916D01*
X99860Y65131D01*
X106797D01*
X108691Y63237D01*
D02*
G37*
G36*
X109793Y65811D02*
X109818Y65686D01*
X109889Y65579D01*
X109996Y65508D01*
X110121Y65483D01*
X110284Y65257D01*
Y64537D01*
X110121Y64311D01*
X109996Y64286D01*
X109889Y64215D01*
X109818Y64108D01*
X109793Y63983D01*
Y63858D01*
X109206D01*
X107425Y65639D01*
X107530Y65893D01*
X108966D01*
X109120Y65923D01*
X109171Y65957D01*
X109793D01*
Y65811D01*
D02*
G37*
G36*
X108674Y56591D02*
X108804Y56504D01*
X108958Y56473D01*
X109112Y56504D01*
X109163Y56538D01*
X109793D01*
X109818Y56415D01*
X109889Y56308D01*
X109996Y56237D01*
X110121Y56212D01*
X110280Y55985D01*
Y55267D01*
X110121Y55040D01*
X109996Y55015D01*
X109889Y54944D01*
X109818Y54837D01*
X109793Y54712D01*
Y54418D01*
X109163D01*
X109112Y54452D01*
X108958Y54482D01*
X105470D01*
X99872Y60081D01*
X99936Y60320D01*
Y60584D01*
X99868Y60839D01*
X99736Y61068D01*
X99549Y61255D01*
X99320Y61387D01*
X99065Y61455D01*
X98801D01*
X98546Y61387D01*
X98395Y61300D01*
X98141Y61410D01*
Y62034D01*
X98395Y62144D01*
X98546Y62057D01*
X98801Y61989D01*
X99065D01*
X99320Y62057D01*
X99549Y62189D01*
X99736Y62376D01*
X99860Y62591D01*
X102675D01*
X108674Y56591D01*
D02*
G37*
G36*
X120884Y54837D02*
Y52489D01*
X120669Y52365D01*
X120482Y52178D01*
X120350Y51949D01*
X120282Y51694D01*
Y51430D01*
X120350Y51175D01*
X120482Y50946D01*
X120669Y50759D01*
X120898Y50627D01*
X121153Y50559D01*
X121417D01*
X121672Y50627D01*
X121823Y50714D01*
X122077Y50604D01*
Y49980D01*
X121823Y49870D01*
X121672Y49957D01*
X121417Y50025D01*
X121153D01*
X120898Y49957D01*
X120669Y49825D01*
X120482Y49638D01*
X120350Y49409D01*
X120282Y49154D01*
Y48930D01*
X120097Y48750D01*
X119956Y48758D01*
X119748Y48890D01*
Y49154D01*
X119680Y49409D01*
X119548Y49638D01*
X119361Y49825D01*
X119132Y49957D01*
X118877Y50025D01*
X118613D01*
X118401Y49968D01*
X113169Y55200D01*
Y56875D01*
X113139Y57029D01*
X113052Y57159D01*
X112922Y57246D01*
X112768Y57276D01*
X112614Y57246D01*
X112563Y57212D01*
X111943D01*
Y57785D01*
X111943D01*
X112037Y58000D01*
X112092Y58015D01*
X112330Y58152D01*
X112524Y58346D01*
X112661Y58584D01*
X112714Y58782D01*
X111691D01*
Y59189D01*
X112714D01*
X112661Y59388D01*
X112561Y59561D01*
X112592Y59718D01*
X112676Y59832D01*
X112755Y59831D01*
X112883Y59703D01*
X113074Y59592D01*
X113287Y59535D01*
X113508D01*
X113721Y59592D01*
X113912Y59703D01*
X114068Y59859D01*
X114179Y60050D01*
X114236Y60263D01*
Y60484D01*
X114179Y60697D01*
X114068Y60888D01*
X113912Y61044D01*
X113721Y61154D01*
X113508Y61212D01*
X113287D01*
X113074Y61154D01*
X112883Y61044D01*
X112727Y60888D01*
X112661Y60773D01*
X112402D01*
X112336Y61000D01*
Y61094D01*
X112336D01*
Y62350D01*
X111956D01*
X111931Y62473D01*
X111874Y62559D01*
X111858Y62583D01*
X111853Y62827D01*
X111924Y62934D01*
X111949Y63059D01*
Y63184D01*
X112536D01*
X120884Y54837D01*
D02*
G37*
G36*
X112367Y55034D02*
X112397Y54880D01*
X112452Y54799D01*
X112399Y54637D01*
X112331Y54545D01*
X111949D01*
Y54712D01*
X111924Y54837D01*
X111853Y54944D01*
X111746Y55015D01*
X111621Y55040D01*
X111496Y55015D01*
X111389Y54944D01*
X111353D01*
X111246Y55015D01*
X111121Y55040D01*
X110954Y55265D01*
Y55868D01*
X111121Y56005D01*
X111326Y56046D01*
X111499Y56162D01*
X111537Y56219D01*
X111943D01*
Y56538D01*
X112367D01*
Y55034D01*
D02*
G37*
G36*
X105020Y53797D02*
X105150Y53710D01*
X105304Y53680D01*
X108958D01*
X109112Y53710D01*
X109163Y53744D01*
X109802D01*
X109818Y53663D01*
X109889Y53556D01*
X109908Y53272D01*
X109811Y53154D01*
X109249D01*
Y53357D01*
X108621D01*
Y52451D01*
X108215D01*
Y53357D01*
X107587D01*
Y52852D01*
X105412D01*
X99140Y59124D01*
X99229Y59394D01*
X99387Y59430D01*
X105020Y53797D01*
D02*
G37*
G36*
X122077Y55816D02*
Y52647D01*
X121824Y52519D01*
X121686Y52606D01*
Y55003D01*
X121656Y55157D01*
X121569Y55287D01*
X113051Y63805D01*
X112921Y63892D01*
X112767Y63923D01*
X112614Y63892D01*
X112563Y63858D01*
X111949D01*
Y63983D01*
X111924Y64108D01*
X111853Y64215D01*
X111746Y64286D01*
X111621Y64311D01*
X111496Y64286D01*
X111389Y64215D01*
X111353D01*
X111246Y64286D01*
X111121Y64311D01*
X110958Y64537D01*
Y65142D01*
X111121Y65276D01*
X111326Y65317D01*
X111499Y65433D01*
X111537Y65490D01*
X111943D01*
Y65602D01*
X111984Y65632D01*
X112197Y65696D01*
X122077Y55816D01*
D02*
G37*
G36*
X117759Y49476D02*
X117709Y49265D01*
X117464Y49182D01*
X113169Y53477D01*
Y53733D01*
X113404Y53830D01*
X117759Y49476D01*
D02*
G37*
G36*
X117967Y47544D02*
X118015Y47512D01*
X118038Y47466D01*
X118063Y47268D01*
X118052Y47207D01*
X117942Y47098D01*
X117810Y46869D01*
X117742Y46614D01*
Y46350D01*
X117810Y46095D01*
X117942Y45866D01*
X118129Y45679D01*
X118358Y45547D01*
X118613Y45479D01*
X118877D01*
X119132Y45547D01*
X119361Y45679D01*
X119548Y45866D01*
X119680Y46095D01*
X119748Y46350D01*
Y46614D01*
X119684Y46853D01*
X120092Y47261D01*
X120334Y47237D01*
X120437Y47019D01*
X120350Y46869D01*
X120282Y46614D01*
Y46350D01*
X120346Y46111D01*
X119116Y44881D01*
X118877Y44945D01*
X118613D01*
X118374Y44881D01*
X113812Y49442D01*
Y50064D01*
X113926Y50129D01*
X114082Y50285D01*
X114192Y50476D01*
X114249Y50690D01*
Y50903D01*
X114267Y50920D01*
X114480Y51031D01*
X117967Y47544D01*
D02*
G37*
G36*
X99210Y34227D02*
X99112Y33993D01*
X98455D01*
Y33766D01*
X97490D01*
X97441Y33756D01*
X97187Y33862D01*
Y34526D01*
X97413D01*
Y35664D01*
X97668Y35769D01*
X99210Y34227D01*
D02*
G37*
G36*
X97490Y31613D02*
X98455D01*
Y31386D01*
X99112D01*
X99210Y31152D01*
X97621Y29564D01*
X96483D01*
Y31555D01*
X96575Y31630D01*
X97404D01*
X97490Y31613D01*
D02*
G37*
%LPC*%
G36*
X123696Y109504D02*
X122985D01*
Y108826D01*
X123696D01*
Y109504D01*
D02*
G37*
G36*
Y108420D02*
X122985D01*
Y107742D01*
X123696D01*
Y108420D01*
D02*
G37*
G36*
X41301Y105461D02*
X40335D01*
Y104495D01*
X40588Y104563D01*
X40857Y104719D01*
X41077Y104939D01*
X41233Y105208D01*
X41301Y105461D01*
D02*
G37*
G36*
X39929D02*
X38963D01*
X39031Y105208D01*
X39187Y104939D01*
X39407Y104719D01*
X39676Y104563D01*
X39929Y104495D01*
Y105461D01*
D02*
G37*
G36*
X123696Y104804D02*
X122985D01*
Y104126D01*
X123696D01*
Y104804D01*
D02*
G37*
G36*
Y103719D02*
X122985D01*
Y103041D01*
X123696D01*
Y103719D01*
D02*
G37*
G36*
X119902Y105026D02*
X118096D01*
Y103020D01*
X119902D01*
Y103521D01*
X120601D01*
Y103245D01*
X121867D01*
Y103041D01*
X122578D01*
Y103922D01*
Y104804D01*
X121867D01*
Y104600D01*
X120601D01*
Y104324D01*
X119902D01*
Y105026D01*
D02*
G37*
G36*
X123696Y100103D02*
X122985D01*
Y99425D01*
X123696D01*
Y100103D01*
D02*
G37*
G36*
Y99019D02*
X122985D01*
Y98341D01*
X123696D01*
Y99019D01*
D02*
G37*
G36*
X119878Y100325D02*
X118072D01*
Y98319D01*
X119878D01*
Y98820D01*
X120601D01*
Y98544D01*
X121867D01*
Y98341D01*
X122578D01*
Y99222D01*
Y100103D01*
X121867D01*
Y99900D01*
X120601D01*
Y99623D01*
X119878D01*
Y100325D01*
D02*
G37*
G36*
X123696Y95402D02*
X122985D01*
Y94724D01*
X123696D01*
Y95402D01*
D02*
G37*
G36*
Y94318D02*
X122985D01*
Y93640D01*
X123696D01*
Y94318D01*
D02*
G37*
G36*
X119878Y95625D02*
X118072D01*
Y93618D01*
X119878D01*
Y94120D01*
X120601D01*
Y93843D01*
X121867D01*
Y93640D01*
X122578D01*
Y94521D01*
Y95402D01*
X121867D01*
Y95199D01*
X120601D01*
Y94923D01*
X119878D01*
Y95625D01*
D02*
G37*
G36*
X123696Y90702D02*
X122985D01*
Y90024D01*
X123696D01*
Y90702D01*
D02*
G37*
G36*
Y89617D02*
X122985D01*
Y88939D01*
X123696D01*
Y89617D01*
D02*
G37*
G36*
X119878Y90924D02*
X118072D01*
Y88918D01*
X119878D01*
Y89419D01*
X120601D01*
Y89143D01*
X121867D01*
Y88939D01*
X122578D01*
Y89821D01*
Y90702D01*
X121867D01*
Y90499D01*
X120601D01*
Y90222D01*
X119878D01*
Y90924D01*
D02*
G37*
G36*
X123696Y86001D02*
X122985D01*
Y85323D01*
X123696D01*
Y86001D01*
D02*
G37*
G36*
Y84917D02*
X122985D01*
Y84239D01*
X123696D01*
Y84917D01*
D02*
G37*
G36*
X119878Y86223D02*
X118072D01*
Y84217D01*
X119878D01*
Y84719D01*
X120601D01*
Y84442D01*
X121867D01*
Y84239D01*
X122578D01*
Y85120D01*
Y86001D01*
X121867D01*
Y85798D01*
X120601D01*
Y85521D01*
X119878D01*
Y86223D01*
D02*
G37*
G36*
X59469Y82906D02*
X59209D01*
X58957Y82838D01*
X58731Y82708D01*
X58546Y82523D01*
X58416Y82297D01*
X58348Y82045D01*
Y81785D01*
X58416Y81533D01*
X58546Y81307D01*
X58731Y81122D01*
X58957Y80992D01*
X59209Y80924D01*
X59469D01*
X59721Y80992D01*
X59947Y81122D01*
X60132Y81307D01*
X60262Y81533D01*
X60330Y81785D01*
Y82045D01*
X60262Y82297D01*
X60132Y82523D01*
X59947Y82708D01*
X59721Y82838D01*
X59469Y82906D01*
D02*
G37*
G36*
X123696Y81300D02*
X122985D01*
Y80623D01*
X123696D01*
Y81300D01*
D02*
G37*
G36*
Y80216D02*
X122985D01*
Y79538D01*
X123696D01*
Y80216D01*
D02*
G37*
G36*
X119878Y81523D02*
X118072D01*
Y79516D01*
X119878D01*
Y80018D01*
X120601D01*
Y79741D01*
X121867D01*
Y79538D01*
X122578D01*
Y80419D01*
Y81300D01*
X121867D01*
Y81097D01*
X120601D01*
Y80821D01*
X119878D01*
Y81523D01*
D02*
G37*
G36*
X123696Y76600D02*
X122985D01*
Y75922D01*
X123696D01*
Y76600D01*
D02*
G37*
G36*
Y75516D02*
X122985D01*
Y74838D01*
X123696D01*
Y75516D01*
D02*
G37*
G36*
X119878Y76822D02*
X118072D01*
Y74816D01*
X119878D01*
Y75317D01*
X120601D01*
Y75041D01*
X121867D01*
Y74838D01*
X122578D01*
Y75719D01*
Y76600D01*
X121867D01*
Y76397D01*
X120601D01*
Y76120D01*
X119878D01*
Y76822D01*
D02*
G37*
G36*
X79578Y52376D02*
Y51384D01*
X80570D01*
X80499Y51647D01*
X80340Y51922D01*
X80116Y52146D01*
X79841Y52305D01*
X79578Y52376D01*
D02*
G37*
G36*
X79172D02*
X78909Y52305D01*
X78634Y52146D01*
X78410Y51922D01*
X78251Y51647D01*
X78180Y51384D01*
X79172D01*
Y52376D01*
D02*
G37*
G36*
X51440Y52565D02*
X51176D01*
X50921Y52497D01*
X50692Y52365D01*
X50505Y52178D01*
X50373Y51949D01*
X50305Y51694D01*
Y51430D01*
X50373Y51175D01*
X50505Y50946D01*
X50692Y50759D01*
X50921Y50627D01*
X51176Y50559D01*
X51440D01*
X51695Y50627D01*
X51924Y50759D01*
X52111Y50946D01*
X52243Y51175D01*
X52311Y51430D01*
Y51694D01*
X52243Y51949D01*
X52111Y52178D01*
X51924Y52365D01*
X51695Y52497D01*
X51440Y52565D01*
D02*
G37*
G36*
X48900D02*
X48636D01*
X48381Y52497D01*
X48152Y52365D01*
X47965Y52178D01*
X47833Y51949D01*
X47765Y51694D01*
Y51430D01*
X47833Y51175D01*
X47965Y50946D01*
X48152Y50759D01*
X48381Y50627D01*
X48636Y50559D01*
X48900D01*
X49155Y50627D01*
X49384Y50759D01*
X49571Y50946D01*
X49703Y51175D01*
X49771Y51430D01*
Y51694D01*
X49703Y51949D01*
X49571Y52178D01*
X49384Y52365D01*
X49155Y52497D01*
X48900Y52565D01*
D02*
G37*
G36*
X46360D02*
X46096D01*
X45841Y52497D01*
X45612Y52365D01*
X45425Y52178D01*
X45293Y51949D01*
X45225Y51694D01*
Y51430D01*
X45293Y51175D01*
X45425Y50946D01*
X45612Y50759D01*
X45841Y50627D01*
X46096Y50559D01*
X46360D01*
X46615Y50627D01*
X46844Y50759D01*
X47031Y50946D01*
X47163Y51175D01*
X47231Y51430D01*
Y51694D01*
X47163Y51949D01*
X47031Y52178D01*
X46844Y52365D01*
X46615Y52497D01*
X46360Y52565D01*
D02*
G37*
G36*
X43820D02*
X43556D01*
X43301Y52497D01*
X43072Y52365D01*
X42885Y52178D01*
X42753Y51949D01*
X42685Y51694D01*
Y51430D01*
X42753Y51175D01*
X42885Y50946D01*
X43072Y50759D01*
X43301Y50627D01*
X43556Y50559D01*
X43820D01*
X44075Y50627D01*
X44304Y50759D01*
X44491Y50946D01*
X44623Y51175D01*
X44691Y51430D01*
Y51694D01*
X44623Y51949D01*
X44491Y52178D01*
X44304Y52365D01*
X44075Y52497D01*
X43820Y52565D01*
D02*
G37*
G36*
X51440Y50025D02*
X51176D01*
X50921Y49957D01*
X50692Y49825D01*
X50505Y49638D01*
X50373Y49409D01*
X50305Y49154D01*
Y48890D01*
X50373Y48635D01*
X50505Y48406D01*
X50692Y48219D01*
X50921Y48087D01*
X51176Y48019D01*
X51440D01*
X51695Y48087D01*
X51924Y48219D01*
X52111Y48406D01*
X52243Y48635D01*
X52311Y48890D01*
Y49154D01*
X52243Y49409D01*
X52111Y49638D01*
X51924Y49825D01*
X51695Y49957D01*
X51440Y50025D01*
D02*
G37*
G36*
X48900D02*
X48636D01*
X48381Y49957D01*
X48152Y49825D01*
X47965Y49638D01*
X47833Y49409D01*
X47765Y49154D01*
Y48890D01*
X47833Y48635D01*
X47965Y48406D01*
X48152Y48219D01*
X48381Y48087D01*
X48636Y48019D01*
X48900D01*
X49155Y48087D01*
X49384Y48219D01*
X49571Y48406D01*
X49703Y48635D01*
X49771Y48890D01*
Y49154D01*
X49703Y49409D01*
X49571Y49638D01*
X49384Y49825D01*
X49155Y49957D01*
X48900Y50025D01*
D02*
G37*
G36*
X121685Y45155D02*
X121488D01*
Y44145D01*
X122498D01*
Y44342D01*
X122471Y44553D01*
X122389Y44749D01*
X122260Y44917D01*
X122092Y45046D01*
X121896Y45128D01*
X121685Y45155D01*
D02*
G37*
G36*
X122498Y43739D02*
X121488D01*
Y42729D01*
X121685D01*
X121896Y42756D01*
X122092Y42838D01*
X122260Y42967D01*
X122389Y43135D01*
X122471Y43331D01*
X122498Y43542D01*
Y43739D01*
D02*
G37*
G36*
X121082D02*
X120072D01*
Y43542D01*
X120099Y43331D01*
X120181Y43135D01*
X120310Y42967D01*
X120478Y42838D01*
X120674Y42756D01*
X120885Y42729D01*
X121082D01*
Y43739D01*
D02*
G37*
G36*
X54367Y41165D02*
X53739D01*
Y40462D01*
X54367D01*
Y41165D01*
D02*
G37*
G36*
X55401D02*
X54773D01*
Y40259D01*
Y39353D01*
X55401D01*
X55526Y39150D01*
Y38375D01*
X55382D01*
Y37369D01*
X56488D01*
Y38375D01*
X56329D01*
Y39556D01*
X56548D01*
Y39858D01*
X59081D01*
X59146Y39744D01*
X59302Y39588D01*
X59493Y39478D01*
X59707Y39421D01*
X59927D01*
X60141Y39478D01*
X60332Y39588D01*
X60488Y39744D01*
X60598Y39935D01*
X60655Y40149D01*
Y40369D01*
X60598Y40583D01*
X60488Y40774D01*
X60332Y40930D01*
X60141Y41040D01*
X59927Y41097D01*
X59707D01*
X59493Y41040D01*
X59302Y40930D01*
X59146Y40774D01*
X59081Y40660D01*
X56548D01*
Y40962D01*
X55401D01*
Y41165D01*
D02*
G37*
G36*
X54367Y40056D02*
X53739D01*
Y39353D01*
X54367D01*
Y40056D01*
D02*
G37*
G36*
X54691Y38579D02*
X54138D01*
Y37875D01*
X54691D01*
Y38579D01*
D02*
G37*
G36*
X53732D02*
X53179D01*
Y37875D01*
X53732D01*
Y38579D01*
D02*
G37*
G36*
X52006Y38190D02*
X51653D01*
Y37637D01*
X52006D01*
Y38190D01*
D02*
G37*
G36*
X42596Y39103D02*
X42048D01*
Y38900D01*
X41301D01*
Y37504D01*
X42048D01*
Y37301D01*
X42596D01*
Y38202D01*
Y39103D01*
D02*
G37*
G36*
X45644Y37563D02*
X44941D01*
Y36935D01*
X45644D01*
Y37563D01*
D02*
G37*
G36*
X54691Y37469D02*
X54138D01*
Y36766D01*
X54691D01*
Y37469D01*
D02*
G37*
G36*
X53732D02*
X53179D01*
Y36766D01*
X53732D01*
Y37469D01*
D02*
G37*
G36*
X77129Y36686D02*
X75722D01*
Y36375D01*
X74698D01*
X74680Y36465D01*
X74624Y36548D01*
X74540Y36604D01*
X74442Y36624D01*
X74091D01*
X73992Y36604D01*
X73909Y36548D01*
X73853Y36465D01*
X73833Y36366D01*
Y35415D01*
X73853Y35316D01*
X73909Y35233D01*
X73992Y35177D01*
X74091Y35157D01*
X74442D01*
X74540Y35177D01*
X74624Y35233D01*
X74680Y35316D01*
X74699Y35415D01*
Y35573D01*
X75279D01*
X75519Y35539D01*
Y34911D01*
X76425D01*
X77332D01*
Y35539D01*
X77129D01*
Y36686D01*
D02*
G37*
G36*
X52834Y36869D02*
X51478D01*
Y35013D01*
X52834D01*
Y35571D01*
X53382D01*
Y35469D01*
X54488D01*
Y36475D01*
X53382D01*
Y36374D01*
X52834D01*
Y36869D01*
D02*
G37*
G36*
X83633Y36055D02*
X83005D01*
Y35351D01*
X83633D01*
Y36055D01*
D02*
G37*
G36*
X95232Y35026D02*
X94604D01*
Y34323D01*
X95232D01*
Y35026D01*
D02*
G37*
G36*
X83633Y34945D02*
X83005D01*
Y34242D01*
X83633D01*
Y34945D01*
D02*
G37*
G36*
X77332Y34504D02*
X76629D01*
Y33876D01*
X77332D01*
Y34504D01*
D02*
G37*
G36*
X76222D02*
X75519D01*
Y33876D01*
X76222D01*
Y34504D01*
D02*
G37*
G36*
X71772Y34388D02*
X71069D01*
Y33760D01*
X71772D01*
Y34388D01*
D02*
G37*
G36*
X70663D02*
X69960D01*
Y33760D01*
X70663D01*
Y34388D01*
D02*
G37*
G36*
X92986Y34236D02*
X92283D01*
Y33608D01*
X92986D01*
Y34236D01*
D02*
G37*
G36*
X65810Y33691D02*
Y32751D01*
X66750D01*
X66685Y32994D01*
X66532Y33258D01*
X66317Y33473D01*
X66053Y33626D01*
X65810Y33691D01*
D02*
G37*
G36*
X65404D02*
X65161Y33626D01*
X64897Y33473D01*
X64682Y33258D01*
X64529Y32994D01*
X64464Y32751D01*
X65404D01*
Y33691D01*
D02*
G37*
G36*
X48467Y32690D02*
X47764D01*
Y31887D01*
X48467D01*
Y32690D01*
D02*
G37*
G36*
X46484Y36615D02*
X45128D01*
Y34759D01*
X45457D01*
Y33696D01*
X45208D01*
Y32090D01*
X46532Y32090D01*
X46655Y31887D01*
X46737Y31887D01*
X46737Y31887D01*
X47358D01*
Y32893D01*
Y33899D01*
X46737D01*
X46737Y33899D01*
X46655Y33899D01*
X46628Y33855D01*
X46314Y33822D01*
X46260Y33876D01*
Y34759D01*
X46484D01*
Y36615D01*
D02*
G37*
G36*
X66750Y32345D02*
X65810D01*
Y31405D01*
X66053Y31470D01*
X66317Y31623D01*
X66532Y31838D01*
X66685Y32102D01*
X66750Y32345D01*
D02*
G37*
G36*
X65404D02*
X64464D01*
X64529Y32102D01*
X64682Y31838D01*
X64897Y31623D01*
X65161Y31470D01*
X65404Y31405D01*
Y32345D01*
D02*
G37*
G36*
X60250D02*
X59310D01*
Y31405D01*
X59553Y31470D01*
X59817Y31623D01*
X60032Y31838D01*
X60185Y32102D01*
X60250Y32345D01*
D02*
G37*
G36*
X58904D02*
X57964D01*
X58029Y32102D01*
X58182Y31838D01*
X58397Y31623D01*
X58661Y31470D01*
X58904Y31405D01*
Y32345D01*
D02*
G37*
G36*
X81297Y31507D02*
X80594D01*
Y30879D01*
X81297D01*
Y31507D01*
D02*
G37*
G36*
X80188D02*
X79485D01*
Y30879D01*
X80188D01*
Y31507D01*
D02*
G37*
G36*
X72753Y31242D02*
X72125D01*
Y30539D01*
X72753D01*
Y31242D01*
D02*
G37*
G36*
X83569Y95606D02*
X83309D01*
X83057Y95538D01*
X82831Y95408D01*
X82646Y95223D01*
X82516Y94997D01*
X82448Y94745D01*
Y94485D01*
X82516Y94233D01*
X82646Y94007D01*
X82831Y93822D01*
X83057Y93692D01*
X83309Y93624D01*
X83569D01*
X83821Y93692D01*
X84047Y93822D01*
X84232Y94007D01*
X84362Y94233D01*
X84430Y94485D01*
Y94745D01*
X84362Y94997D01*
X84232Y95223D01*
X84047Y95408D01*
X83821Y95538D01*
X83569Y95606D01*
D02*
G37*
G36*
X118877Y52565D02*
X118613D01*
X118358Y52497D01*
X118129Y52365D01*
X117942Y52178D01*
X117810Y51949D01*
X117742Y51694D01*
Y51430D01*
X117810Y51175D01*
X117942Y50946D01*
X118129Y50759D01*
X118358Y50627D01*
X118613Y50559D01*
X118877D01*
X119132Y50627D01*
X119361Y50759D01*
X119548Y50946D01*
X119680Y51175D01*
X119748Y51430D01*
Y51694D01*
X119680Y51949D01*
X119548Y52178D01*
X119361Y52365D01*
X119132Y52497D01*
X118877Y52565D01*
D02*
G37*
%LPD*%
D16*
X111621Y63521D02*
X112767D01*
X111617Y56875D02*
X112768D01*
X111121Y58416D02*
X111691Y58986D01*
X111121Y66273D02*
Y67941D01*
X111121Y57002D02*
Y58416D01*
X111630Y66294D02*
X112167D01*
X112426Y66034D01*
X111621Y66273D02*
Y66285D01*
X111630Y66294D01*
X111626Y54208D02*
X112768D01*
X111617Y54199D02*
X111626Y54208D01*
X111617Y54123D02*
Y54199D01*
X110617Y53300D02*
Y56875D01*
X110608Y56884D02*
X110617Y56875D01*
X109768Y52526D02*
X110066Y52824D01*
X110141D02*
X110617Y53300D01*
X110066Y52824D02*
X110141D01*
X110617Y58420D02*
Y61976D01*
X110621Y61980D01*
Y56879D02*
Y58420D01*
Y63521D02*
Y66273D01*
X110612Y66282D02*
X110621Y66273D01*
Y61980D02*
Y63521D01*
X110612Y66282D02*
Y66939D01*
X109808Y67743D02*
Y67818D01*
Y67743D02*
X110612Y66939D01*
X108975Y63521D02*
X110121D01*
X111620Y61735D02*
X111633Y61722D01*
X111117Y54123D02*
X111126Y54114D01*
X110117Y54090D02*
Y54123D01*
X111126Y53437D02*
X111625Y52938D01*
Y52205D02*
Y52938D01*
Y52205D02*
X111633Y52197D01*
X111121Y62844D02*
Y63521D01*
Y62844D02*
X111620Y62345D01*
X108958Y54081D02*
X110108D01*
X111126Y53437D02*
Y54114D01*
X108958Y56875D02*
X110117D01*
X110108Y54081D02*
X110117Y54090D01*
X108966Y66294D02*
X110112D01*
X110121Y66285D01*
Y66273D02*
Y66285D01*
X111620Y61735D02*
Y62345D01*
D22*
X111621Y63521D02*
D03*
X111121Y66273D02*
D03*
X111121Y57002D02*
D03*
X111621Y54250D02*
D03*
X110621D02*
D03*
Y57002D02*
D03*
X110621Y66273D02*
D03*
Y63521D02*
D03*
X110121Y57002D02*
D03*
Y54250D02*
D03*
X111121D02*
D03*
X110121Y66273D02*
D03*
Y63521D02*
D03*
X111121D02*
D03*
D23*
X111621Y57002D02*
D03*
X111621Y66273D02*
D03*
D24*
X122782Y94521D02*
D03*
Y89821D02*
D03*
Y103922D02*
D03*
Y108623D02*
D03*
Y99222D02*
D03*
Y80419D02*
D03*
Y85120D02*
D03*
Y75719D02*
D03*
X121312Y80419D02*
D03*
Y89821D02*
D03*
Y108623D02*
D03*
Y99222D02*
D03*
Y75719D02*
D03*
Y103922D02*
D03*
Y94521D02*
D03*
Y85120D02*
D03*
D25*
X106084Y108077D02*
D03*
Y102997D02*
D03*
X105996Y97902D02*
D03*
X105957Y92837D02*
D03*
X107784Y102997D02*
D03*
Y108077D02*
D03*
X107696Y97902D02*
D03*
X107657Y92837D02*
D03*
X107784Y108727D02*
D03*
X107696Y97252D02*
D03*
X107657Y93487D02*
D03*
X107784Y107427D02*
D03*
X107657Y92187D02*
D03*
X107784Y103647D02*
D03*
Y102347D02*
D03*
X107696Y98552D02*
D03*
X106084Y102347D02*
D03*
Y103647D02*
D03*
Y108727D02*
D03*
Y107427D02*
D03*
X105996Y98552D02*
D03*
Y97252D02*
D03*
X105957Y92187D02*
D03*
Y93487D02*
D03*
D26*
X108458Y67818D02*
D03*
X108418Y52451D02*
D03*
X54570Y40259D02*
D03*
X95435Y35229D02*
D03*
X83836Y35148D02*
D03*
X72956Y31445D02*
D03*
X55920Y40259D02*
D03*
X109768Y52451D02*
D03*
X109808Y67818D02*
D03*
X96785Y35229D02*
D03*
X85186Y35148D02*
D03*
X74306Y31445D02*
D03*
D27*
X50800Y38393D02*
D03*
X51450D02*
D03*
X50800Y40093D02*
D03*
X50150Y38393D02*
D03*
X51450Y40093D02*
D03*
X50150D02*
D03*
D28*
X42799Y38202D02*
D03*
Y40792D02*
D03*
X41849Y38202D02*
D03*
X43749D02*
D03*
Y40792D02*
D03*
X41849D02*
D03*
D29*
X93189Y33404D02*
D03*
X76425Y34708D02*
D03*
X80391Y31710D02*
D03*
X70866Y34591D02*
D03*
X48768Y37806D02*
D03*
X45847Y37766D02*
D03*
X111633Y60372D02*
D03*
Y50847D02*
D03*
X80391Y33060D02*
D03*
X45847Y39116D02*
D03*
X48768Y39156D02*
D03*
X87051Y31806D02*
D03*
X111633Y61722D02*
D03*
Y52197D02*
D03*
X93189Y32055D02*
D03*
X76425Y36057D02*
D03*
X70866Y35941D02*
D03*
X99158Y32015D02*
D03*
Y33364D02*
D03*
X87051Y33156D02*
D03*
D30*
X73616Y33441D02*
D03*
X72966D02*
D03*
X74266D02*
D03*
Y35890D02*
D03*
X72966D02*
D03*
D31*
X95150Y32689D02*
D03*
X97070Y32040D02*
D03*
X95150D02*
D03*
X97070Y33339D02*
D03*
X95150D02*
D03*
D32*
X82724Y32481D02*
D03*
Y33131D02*
D03*
Y31831D02*
D03*
X84774D02*
D03*
Y33131D02*
D03*
D33*
X53935Y37672D02*
D03*
D34*
X47561Y32893D02*
D03*
X45911Y30353D02*
D03*
X47561D02*
D03*
X45911Y32893D02*
D03*
D35*
X55935Y37872D02*
D03*
X53935Y35972D02*
D03*
X55935D02*
D03*
D36*
X118975Y94621D02*
D03*
X115975D02*
D03*
X118999Y104023D02*
D03*
X115999D02*
D03*
X118975Y75819D02*
D03*
X115975D02*
D03*
X118975Y85220D02*
D03*
X115975D02*
D03*
X118999Y108723D02*
D03*
X115999D02*
D03*
X118975Y99322D02*
D03*
X115975D02*
D03*
X118975Y80520D02*
D03*
X115975D02*
D03*
X118975Y89921D02*
D03*
X115975D02*
D03*
D37*
X45806Y35687D02*
D03*
X43856D02*
D03*
X52156Y35941D02*
D03*
X50206D02*
D03*
D40*
X121285Y51562D02*
D03*
X118745Y49022D02*
D03*
Y46482D02*
D03*
X121285Y49022D02*
D03*
Y46482D02*
D03*
X118745Y43942D02*
D03*
Y51562D02*
D03*
X79375Y51181D02*
D03*
X76835D02*
D03*
X79375Y48641D02*
D03*
X76835D02*
D03*
X74295D02*
D03*
X71755Y51181D02*
D03*
X74295D02*
D03*
X98933Y88392D02*
D03*
Y75692D02*
D03*
Y73152D02*
D03*
Y85852D02*
D03*
Y70612D02*
D03*
Y83312D02*
D03*
Y80772D02*
D03*
Y78232D02*
D03*
X96393Y60452D02*
D03*
Y101092D02*
D03*
X43688Y51562D02*
D03*
X96393Y85852D02*
D03*
Y98552D02*
D03*
Y96012D02*
D03*
Y88392D02*
D03*
X46228Y51562D02*
D03*
X96393Y68072D02*
D03*
Y90932D02*
D03*
Y83312D02*
D03*
Y65532D02*
D03*
Y106172D02*
D03*
Y80772D02*
D03*
Y93472D02*
D03*
Y62992D02*
D03*
Y103632D02*
D03*
X51308Y51562D02*
D03*
X48768D02*
D03*
X51308Y49022D02*
D03*
X48768D02*
D03*
X46228D02*
D03*
X98933Y65532D02*
D03*
Y68072D02*
D03*
Y60452D02*
D03*
Y62992D02*
D03*
X96393Y70612D02*
D03*
Y73152D02*
D03*
Y75692D02*
D03*
Y78232D02*
D03*
X98933Y93472D02*
D03*
Y96012D02*
D03*
Y98552D02*
D03*
Y106172D02*
D03*
Y108712D02*
D03*
Y90932D02*
D03*
Y103632D02*
D03*
Y101092D02*
D03*
D41*
X121285Y43942D02*
D03*
X96393Y108712D02*
D03*
D42*
X40132Y105664D02*
D03*
Y108204D02*
D03*
X47752Y110744D02*
D03*
Y113284D02*
D03*
X40132Y110744D02*
D03*
X47752Y108204D02*
D03*
X40132Y113284D02*
D03*
D43*
X65607Y32548D02*
D03*
X59107D02*
D03*
X65607Y37048D02*
D03*
D45*
X71755Y48641D02*
D03*
X43688Y49022D02*
D03*
D46*
X75199Y73675D02*
D03*
X72659D02*
D03*
X77739D02*
D03*
X65039D02*
D03*
X70119D02*
D03*
X67579D02*
D03*
X62499D02*
D03*
X59339Y89535D02*
D03*
Y76835D02*
D03*
Y79375D02*
D03*
Y81915D02*
D03*
Y86995D02*
D03*
Y84455D02*
D03*
Y92075D02*
D03*
X83439Y79375D02*
D03*
Y81915D02*
D03*
Y84455D02*
D03*
Y76835D02*
D03*
X80279Y73675D02*
D03*
X59339Y94615D02*
D03*
X83439Y86995D02*
D03*
Y89535D02*
D03*
Y92075D02*
D03*
Y94615D02*
D03*
D47*
X80279Y97775D02*
D03*
X77739D02*
D03*
X75199D02*
D03*
X72659D02*
D03*
X70119D02*
D03*
X67579D02*
D03*
X65039D02*
D03*
X62499D02*
D03*
D48*
X47752Y105664D02*
D03*
D49*
X59107Y37048D02*
D03*
D50*
X111691Y58986D02*
D03*
X113397Y60373D02*
D03*
X113411Y50800D02*
D03*
X59817Y40259D02*
D03*
X68961Y82677D02*
D03*
X112927Y99422D02*
D03*
X112903Y108712D02*
D03*
X112951Y104123D02*
D03*
X112903Y94615D02*
D03*
X112927Y89921D02*
D03*
Y85320D02*
D03*
Y80520D02*
D03*
Y75819D02*
D03*
X68938Y79860D02*
D03*
D51*
X121285Y46482D02*
X123063Y48260D01*
Y62130D01*
X106913Y78280D02*
X123063Y62130D01*
X121627Y47676D02*
X122479Y48528D01*
X112426Y66034D02*
X122479Y55982D01*
Y48528D02*
Y55982D01*
X112768Y55034D02*
Y56875D01*
Y55034D02*
X118745Y49057D01*
Y49022D02*
Y49057D01*
X112768Y53311D02*
Y54208D01*
Y53311D02*
X118251Y47828D01*
X119239D01*
X119671Y48260D01*
X120193D01*
X120955Y49022D01*
X121285D01*
X118745Y46482D02*
X119939Y47676D01*
X121627D01*
X112767Y63521D02*
X121285Y55003D01*
Y51562D02*
Y55003D01*
X118745Y43942D02*
X121285Y46482D01*
X113411Y49276D02*
Y50800D01*
Y49276D02*
X118745Y43942D01*
X122463Y108907D02*
Y109012D01*
X122215Y109261D02*
X122463Y109012D01*
Y108907D02*
X122748Y108623D01*
X121559Y109917D02*
X122215Y109261D01*
X98450Y109917D02*
X121559D01*
X122215Y109261D02*
Y109261D01*
X122748Y108623D02*
X122782D01*
X100711Y108077D02*
X106084D01*
X100102Y102997D02*
X106084D01*
X100025Y107391D02*
X100711Y108077D01*
X99467Y102362D02*
X100102Y102997D01*
X101092Y92837D02*
X105957D01*
X100087Y97902D02*
X105996D01*
X99467Y97282D02*
X100087Y97902D01*
X100457Y92202D02*
X101092Y92837D01*
X111121Y67941D02*
Y68203D01*
X110612Y68712D02*
X111121Y68203D01*
X109220Y68712D02*
X110612D01*
X108458Y67818D02*
Y67893D01*
X108430Y67921D02*
X109220Y68712D01*
X102219Y69342D02*
X103743Y67818D01*
X108458D01*
X105246Y52451D02*
X108418D01*
X97993Y107391D02*
X100025D01*
X97739Y102362D02*
X99467D01*
X97739Y92202D02*
Y97282D01*
Y109206D02*
X98450Y109917D01*
X97739Y107137D02*
X97993Y107391D01*
X97739Y97282D02*
Y102362D01*
Y69342D02*
X102219D01*
X97739Y59958D02*
Y69342D01*
Y59958D02*
X105246Y52451D01*
X97739Y92202D02*
X100457D01*
X97739Y97282D02*
X99467D01*
X97739Y69342D02*
Y92202D01*
Y102362D02*
Y107137D01*
Y109206D01*
X48768Y37806D02*
X49000Y38038D01*
X53935Y37672D02*
Y37822D01*
X42799Y38352D02*
X42959Y38513D01*
X42799Y38202D02*
Y38352D01*
X93189Y33404D02*
X93424Y33170D01*
X94036Y32689D02*
X95150D01*
X93556Y33170D02*
X94036Y32689D01*
X93424Y33170D02*
X93556D01*
X73616Y32344D02*
Y33441D01*
X73191Y31919D02*
X73616Y32344D01*
X73191Y31680D02*
Y31919D01*
X72956Y31445D02*
X73191Y31680D01*
X113396Y60372D02*
X113397Y60373D01*
X111656Y50823D02*
X113388D01*
X111633Y60372D02*
X113396D01*
X107681Y97917D02*
X107696Y97902D01*
X111558Y50847D02*
X111633D01*
X111656Y50823D01*
X110698Y49987D02*
X111558Y50847D01*
X113388Y50823D02*
X113411Y50800D01*
X107157Y108077D02*
X107784D01*
X107136Y97917D02*
X107681D01*
X106913Y107833D02*
X107157Y108077D01*
X106913Y102997D02*
X107784D01*
X107136Y92837D02*
X107657D01*
X106913Y98140D02*
Y102997D01*
Y93060D02*
Y98140D01*
Y102997D02*
Y107833D01*
Y93060D02*
X107136Y92837D01*
X106913Y78280D02*
Y93060D01*
Y98140D02*
X107136Y97917D01*
X76835Y51181D02*
X78029Y49987D01*
X110698D01*
X55920Y40259D02*
X59817D01*
X55920D02*
X55928Y40251D01*
Y37880D02*
Y40251D01*
Y37880D02*
X55935Y37872D01*
X76708Y53594D02*
X91045D01*
X93082Y51557D01*
X74295Y51181D02*
X76708Y53594D01*
X93082Y51557D02*
X109006D01*
X109264Y51815D01*
Y51872D01*
X109768Y52376D01*
Y52451D01*
X95803Y32049D02*
X96139Y32385D01*
X85364Y48641D02*
X100052Y33953D01*
X79375Y48641D02*
X85364D01*
X96082Y29162D02*
Y32344D01*
X74281Y33460D02*
X74301Y33441D01*
X74281Y31445D02*
Y33523D01*
X74266Y33241D02*
X74301Y33206D01*
X71755Y48528D02*
Y48641D01*
X70866Y47639D02*
X71755Y48528D01*
X70866Y35941D02*
Y47639D01*
X72966Y35890D02*
Y35907D01*
X72932Y35941D02*
X72966Y35907D01*
X70866Y35941D02*
X72932D01*
X96082Y29162D02*
X97788D01*
X100052Y31426D01*
Y33953D01*
X76835Y48641D02*
X88900Y36576D01*
X96393D01*
X74295Y47213D02*
Y48641D01*
Y47213D02*
X84682Y36825D01*
Y35727D02*
Y36825D01*
X74306Y31371D02*
Y31445D01*
X80447Y33076D02*
X80487Y33116D01*
X74616Y31136D02*
X76643Y29108D01*
X83693D01*
X74306Y31371D02*
X74541Y31136D01*
X74616D01*
X80487Y33116D02*
X82709D01*
X82724Y33131D01*
X83693Y29108D02*
Y32143D01*
Y32893D01*
X83470Y33116D02*
X83693Y32893D01*
X83397Y31847D02*
X83693Y32143D01*
Y29108D02*
X83747Y29162D01*
X96082D01*
X84682Y35727D02*
X85186Y35223D01*
X96393Y36576D02*
X96785Y36184D01*
Y35229D02*
Y36184D01*
X47307Y35792D02*
X49403Y33697D01*
X63873D02*
X67526Y37350D01*
X49403Y33697D02*
X63873D01*
X67526Y37350D02*
Y46334D01*
X71179Y49987D01*
X73101D01*
X74295Y51181D01*
X65039Y70851D02*
X71755Y64135D01*
Y51181D02*
Y64135D01*
X74266Y33241D02*
Y33441D01*
X73815Y87531D02*
Y98025D01*
X68961Y82677D02*
X73815Y87531D01*
X115875Y99422D02*
X115975Y99322D01*
X112927Y99422D02*
X115875D01*
X112903Y94615D02*
X112927Y94639D01*
Y97204D01*
X112903Y108712D02*
X115988D01*
X115999Y108723D01*
X112951Y104123D02*
X115899D01*
X115999Y104023D01*
X112903Y94615D02*
X115969D01*
X115975Y94621D01*
X112927Y89921D02*
X115975D01*
X115875Y85320D02*
X115975Y85220D01*
X112927Y85320D02*
X115875D01*
X112927Y80520D02*
X115975D01*
X112927Y75819D02*
X115975D01*
X107784Y108727D02*
X112947D01*
X108104Y93446D02*
X111249Y90302D01*
Y84841D02*
Y90302D01*
X111833Y86414D02*
Y91367D01*
X107696Y95504D02*
X111833Y91367D01*
X110617Y84582D02*
Y89227D01*
X107817Y92028D02*
Y92147D01*
Y92028D02*
X110617Y89227D01*
X107776Y92187D02*
X107817Y92147D01*
X107657Y92187D02*
X107776D01*
X111833Y86414D02*
X112927Y85320D01*
X110617Y84582D02*
X111633Y83566D01*
X111249Y84841D02*
X112927Y83163D01*
X119075Y85120D02*
X121312D01*
X118975Y85220D02*
X119075Y85120D01*
Y80419D02*
X121312D01*
X119075Y75719D02*
X121312D01*
X118975Y75819D02*
X119075Y75719D01*
X118975Y80520D02*
X119075Y80419D01*
X111633Y79248D02*
Y83566D01*
Y79248D02*
X112927Y77954D01*
Y80520D02*
Y83163D01*
Y75819D02*
Y77954D01*
X108143Y98511D02*
X111833Y94822D01*
Y93223D02*
Y94822D01*
Y93223D02*
X112927Y92129D01*
X107944Y102188D02*
X112927Y97204D01*
X108702Y103647D02*
X112927Y99422D01*
X109647Y107427D02*
X112951Y104123D01*
X119075Y99222D02*
X121312D01*
X119075Y94521D02*
X121312D01*
X118975Y94621D02*
X119075Y94521D01*
X118975Y99322D02*
X119075Y99222D01*
X119099Y103922D02*
X121312D01*
X118999Y104023D02*
X119099Y103922D01*
Y108623D02*
X121312D01*
X118999Y108723D02*
X119099Y108623D01*
X119075Y89821D02*
X121312D01*
X118975Y89921D02*
X119075Y89821D01*
X112927Y89921D02*
Y92129D01*
X107696Y95504D02*
Y97252D01*
X107657Y93487D02*
X107698Y93446D01*
X108104D01*
X107784Y107427D02*
X109647D01*
X107784Y103647D02*
X108702D01*
X107784Y102347D02*
X107903D01*
X107944Y102307D01*
Y102188D02*
Y102307D01*
X107696Y98552D02*
X107737Y98511D01*
X108143D01*
X105304Y54081D02*
X108958D01*
X98933Y60452D02*
X105304Y54081D01*
X102474Y92187D02*
X105957D01*
X98933Y90932D02*
X101219D01*
X102474Y92187D01*
X98933Y106172D02*
X100894D01*
X102149Y107427D01*
X106084D01*
X98933Y96012D02*
X100838D01*
X102078Y97252D01*
X105996D01*
X98933Y101092D02*
X100965D01*
X102220Y102347D02*
X106084D01*
X100965Y101092D02*
X102220Y102347D01*
X79123Y98931D02*
X80279Y97775D01*
X74720Y98931D02*
X79123D01*
X73815Y98025D02*
X74720Y98931D01*
X65039Y73675D02*
Y81280D01*
X82619D02*
X83254Y81915D01*
X83439D01*
X65039Y81280D02*
X82619D01*
X65039D02*
Y83835D01*
X44028Y39116D02*
X45847D01*
X45911Y30353D02*
X47561D01*
X47307Y39136D02*
X48748D01*
X42953Y40191D02*
X44028Y39116D01*
X47307Y35792D02*
Y39136D01*
X45847Y39116D02*
X45867Y39136D01*
X47307D01*
X47561Y30353D02*
X49180D01*
X49403Y30576D02*
Y33697D01*
X49180Y30353D02*
X49403Y30576D01*
X48748Y39136D02*
X48768Y39156D01*
X50800Y39379D02*
Y40093D01*
X50577Y39156D02*
X50800Y39379D01*
X42799Y40792D02*
X42953Y40637D01*
Y40191D02*
Y40637D01*
X45212Y108204D02*
X47752Y110744D01*
Y113284D01*
X58158Y85636D02*
X59339Y84455D01*
X59384Y96330D02*
X68674D01*
X58158Y95104D02*
X59384Y96330D01*
X47752Y110744D02*
X58158Y100338D01*
Y95104D02*
Y100338D01*
X68674Y96330D02*
X70119Y97775D01*
X77739Y73675D02*
X82080Y78016D01*
X83750D01*
X84620Y78886D02*
Y82404D01*
X83039Y83185D02*
X83839D01*
X84620Y82404D01*
X82258Y85814D02*
X83439Y86995D01*
X82258Y83966D02*
X83039Y83185D01*
X82258Y83966D02*
Y85814D01*
X83750Y78016D02*
X84620Y78886D01*
X58158Y85636D02*
Y95104D01*
X40132Y108204D02*
X45212D01*
X48768Y39156D02*
X50577D01*
X68938Y73186D02*
Y79860D01*
Y73186D02*
X75188Y66936D01*
X89910D01*
X96393Y60452D01*
X80279Y97775D02*
X93076D01*
X96393Y101092D01*
X83439Y92075D02*
X89916D01*
X96393Y98552D01*
X60829Y73675D02*
X62499D01*
X47752Y86752D02*
Y105664D01*
Y86752D02*
X60829Y73675D01*
X83439Y89535D02*
X89916D01*
X96393Y96012D01*
X65039Y70851D02*
Y73675D01*
X75199Y97775D02*
X77739D01*
X83439Y79375D02*
Y81915D01*
X77739Y87615D02*
Y97775D01*
X59339Y89535D02*
X65039Y83835D01*
X77739Y87615D02*
X83439Y81915D01*
X75976Y108712D02*
X96393D01*
X65039Y97775D02*
X75976Y108712D01*
X89983Y84522D02*
X96393Y90932D01*
X89983Y83379D02*
Y84522D01*
X83439Y76835D02*
X89983Y83379D01*
X74710Y72494D02*
X85575D01*
X73929Y73275D02*
Y74075D01*
X71300Y74856D02*
X73148D01*
X70119Y73675D02*
X71300Y74856D01*
X85575Y72494D02*
X96393Y83312D01*
X73148Y74856D02*
X73929Y74075D01*
Y73275D02*
X74710Y72494D01*
X67579Y97775D02*
X75976Y106172D01*
X96393D01*
X74424Y71910D02*
X87531D01*
X72659Y73675D02*
X74424Y71910D01*
X87531D02*
X96393Y80772D01*
X83439Y84455D02*
X87376D01*
X96393Y93472D01*
X47752Y108204D02*
X49022Y106934D01*
Y87152D02*
X59339Y76835D01*
X49022Y87152D02*
Y106934D01*
X78516Y103632D02*
X96393D01*
X72659Y97775D02*
X78516Y103632D01*
X38963Y107720D02*
X39648Y107035D01*
X38963Y107720D02*
Y108688D01*
X39648Y107035D02*
X44869D01*
X38963Y108688D02*
X39749Y109474D01*
X40515D01*
X41301Y110260D01*
X40132Y113284D02*
X41301Y112115D01*
Y110260D02*
Y112115D01*
X47207Y109373D02*
X48236D01*
X44869Y107035D02*
X47207Y109373D01*
X48236D02*
X49784Y107825D01*
Y88930D02*
X59339Y79375D01*
X49784Y88930D02*
Y107825D01*
X98940Y103639D02*
X106076D01*
X106084Y103647D01*
X98940Y93479D02*
X105950D01*
X98933Y98552D02*
X105996D01*
X98940Y108719D02*
X106076D01*
X106084Y108727D01*
X98933Y108712D02*
X98940Y108719D01*
X43719Y40822D02*
Y48991D01*
X43803Y35740D02*
X43856Y35687D01*
X43719Y40822D02*
X43749Y40792D01*
X43688Y49022D02*
X43719Y48991D01*
X46228Y49022D02*
X50150Y45100D01*
X45806Y35687D02*
X45858Y35635D01*
X43803Y35740D02*
Y38149D01*
X45858Y32946D02*
X45911Y32893D01*
X45858Y32946D02*
Y35635D01*
X43749Y38202D02*
X43803Y38149D01*
X58548Y36212D02*
Y36488D01*
X55935Y35972D02*
X58308D01*
X58456Y36120D01*
X58548Y36488D02*
X59107Y37048D01*
X58456Y36120D02*
X58548Y36212D01*
X52187Y35972D02*
X53935D01*
X50178Y35969D02*
X50206Y35941D01*
X52156D02*
X52187Y35972D01*
X50150Y40093D02*
Y45100D01*
Y38261D02*
Y38393D01*
Y38261D02*
X50178Y38234D01*
Y35969D02*
Y38234D01*
X59107Y37048D02*
X65607D01*
X85186Y35148D02*
Y35223D01*
X96082Y32344D02*
X96139Y32401D01*
Y32994D01*
X82724Y33131D02*
X82739Y33116D01*
X83470D01*
X82740Y31847D02*
X83397D01*
X82724Y31831D02*
X82740Y31847D01*
X87039Y31819D02*
X87051Y31806D01*
X84787Y31819D02*
X87039D01*
X84774Y31831D02*
X84787Y31819D01*
X93189Y32055D02*
X93197Y32047D01*
X95143D01*
X95150Y32040D01*
Y33339D02*
X95160Y33330D01*
X95803D01*
X96139Y32994D01*
X95160Y32049D02*
X95803D01*
X95150Y32040D02*
X95160Y32049D01*
X74235Y33472D02*
Y34100D01*
X73975Y34359D02*
X74235Y34100D01*
X73257Y34359D02*
X73975D01*
X72998Y34100D02*
X73257Y34359D01*
X72998Y33472D02*
Y34100D01*
X72966Y33441D02*
X72998Y33472D01*
X102841Y62992D02*
X108958Y56875D01*
X98933Y62992D02*
X102841D01*
X106964Y65532D02*
X108975Y63521D01*
X98933Y65532D02*
X106964D01*
X100711Y66294D02*
X108966D01*
X98933Y68072D02*
X100711Y66294D01*
X98933Y93472D02*
X98940Y93479D01*
X105950D02*
X105957Y93487D01*
X98933Y103632D02*
X98940Y103639D01*
X85183Y33144D02*
X87039D01*
X74266Y35890D02*
Y35940D01*
X74301Y35974D01*
X76342D01*
X76425Y36057D01*
X85186Y33147D02*
Y34767D01*
X85183Y33144D02*
X85186Y33147D01*
X87039Y33144D02*
X87051Y33156D01*
X97490Y33364D02*
X99158D01*
X97465Y33339D02*
X97490Y33364D01*
X97070Y33339D02*
X97465D01*
X96795D02*
X97070D01*
X96785Y33349D02*
X96795Y33339D01*
X96785Y33349D02*
Y35229D01*
X97490Y32015D02*
X99158D01*
X97465Y32040D02*
X97490Y32015D01*
X97070Y32040D02*
X97465D01*
M02*
