G04*
G04 #@! TF.GenerationSoftware,Altium Limited,Altium Designer,26.5.1 (12)*
G04*
G04 Layer_Color=32768*
G04 Board_Origin=0|0*
%FSLAX43Y43*%
%MOMM*%
G71*
G04*
G04 #@! TF.SameCoordinates,8520594B-97C6-4304-984B-58ABFC214B16*
G04*
G04*
G04 #@! TF.FilePolarity,Positive*
G04*
G01*
G75*
%ADD13C,0.100*%
%ADD52C,0.050*%
D13*
X178976Y41870D02*
X179926D01*
X179451Y41395D02*
Y42345D01*
X204470Y38220D02*
Y39170D01*
X203995Y38695D02*
X204945D01*
X181897Y41910D02*
X182847D01*
X182372Y41435D02*
Y42385D01*
X231594Y87376D02*
X232544D01*
X232069Y86901D02*
Y87851D01*
X234569Y80130D02*
Y81080D01*
X234094Y80605D02*
X235044D01*
X220655Y35435D02*
Y36385D01*
X220180Y35910D02*
X221130D01*
X187889Y41801D02*
X189189D01*
Y38901D02*
Y41801D01*
X187889Y38901D02*
X189189D01*
X187889D02*
Y41801D01*
X232029Y71534D02*
Y72484D01*
X231554Y72009D02*
X232504D01*
X217640Y38577D02*
X218590D01*
X218115Y38102D02*
Y39052D01*
X206760Y34875D02*
X207710D01*
X207235Y34400D02*
Y35349D01*
X234094Y71080D02*
X235044D01*
X234569Y70605D02*
Y71555D01*
X210029Y38337D02*
Y39286D01*
X209554Y38812D02*
X210504D01*
X226793Y35683D02*
Y36633D01*
X226318Y36158D02*
X227268D01*
X195961Y37727D02*
Y38727D01*
X195461Y38227D02*
X196461D01*
X232762Y35644D02*
Y36593D01*
X232287Y36118D02*
X233237D01*
X206720Y38095D02*
X207720D01*
X207220Y37594D02*
Y38594D01*
X188849Y43213D02*
Y44163D01*
X188374Y43688D02*
X189324D01*
X213520Y35814D02*
X214470D01*
X213995Y35339D02*
Y36289D01*
X229239Y38659D02*
X230189D01*
X229714Y38184D02*
Y39133D01*
D52*
X178701Y40520D02*
Y43220D01*
X180201Y40520D02*
Y43220D01*
X178701Y40520D02*
X180201D01*
X178701Y43220D02*
X180201D01*
X203720Y37345D02*
X205220D01*
X203720Y40045D02*
X205220D01*
X203720Y37345D02*
Y40045D01*
X205220Y37345D02*
Y40045D01*
X227904Y37219D02*
X228784D01*
Y37469D01*
X230644D01*
Y37219D02*
Y37469D01*
Y37219D02*
X231524D01*
Y35018D02*
Y37219D01*
X230644Y35018D02*
X231524D01*
X230644Y34768D02*
Y35018D01*
X228784Y34768D02*
X230644D01*
X228784D02*
Y35018D01*
X227904D02*
X228784D01*
X227904D02*
Y37219D01*
X181622Y40560D02*
Y43260D01*
X183122Y40560D02*
Y43260D01*
X181622Y40560D02*
X183122D01*
X181622Y43260D02*
X183122D01*
X230719Y86626D02*
Y88126D01*
X233419Y86626D02*
Y88126D01*
X230719D02*
X233419D01*
X230719Y86626D02*
X233419D01*
X233819Y79255D02*
X235319D01*
X233819Y81955D02*
X235319D01*
X233819Y79255D02*
Y81955D01*
X235319Y79255D02*
Y81955D01*
X219905Y37260D02*
X221405D01*
X219905Y34560D02*
X221405D01*
Y37260D01*
X219905Y34560D02*
Y37260D01*
X230679Y71259D02*
X233379D01*
X230679Y72759D02*
X233379D01*
Y71259D02*
Y72759D01*
X230679Y71259D02*
Y72759D01*
X216765Y37827D02*
Y39327D01*
X219465Y37827D02*
Y39327D01*
X216765D02*
X219465D01*
X216765Y37827D02*
X219465D01*
X205885Y34124D02*
Y35625D01*
X208585Y34124D02*
Y35625D01*
X205885D02*
X208585D01*
X205885Y34124D02*
X208585D01*
X235319Y69730D02*
Y72430D01*
X233819Y69730D02*
Y72430D01*
X235319D01*
X233819Y69730D02*
X235319D01*
X209279Y37461D02*
X210779D01*
X209279Y40162D02*
X210779D01*
X209279Y37461D02*
Y40162D01*
X210779Y37461D02*
Y40162D01*
X226043Y37508D02*
X227543D01*
X226043Y34808D02*
X227543D01*
Y37508D01*
X226043Y34808D02*
Y37508D01*
X191811Y41427D02*
X200111D01*
Y35027D02*
Y41427D01*
X191811Y35027D02*
X200111D01*
X191811D02*
Y41427D01*
X232012Y37469D02*
X233512D01*
X232012Y34768D02*
X233512D01*
Y37469D01*
X232012Y34768D02*
Y37469D01*
X208820Y35845D02*
Y40345D01*
X205620Y35845D02*
Y40345D01*
X208820D01*
X205620Y35845D02*
X208820D01*
X187499Y44438D02*
X190199D01*
X187499Y42938D02*
X190199D01*
X187499D02*
Y44438D01*
X190199Y42938D02*
Y44438D01*
X214745Y34464D02*
Y37164D01*
X213245Y34464D02*
Y37164D01*
X214745D01*
X213245Y34464D02*
X214745D01*
X228364Y37908D02*
Y39409D01*
X231064Y37908D02*
Y39409D01*
X228364D02*
X231064D01*
X228364Y37908D02*
X231064D01*
M02*
