G04*
G04 #@! TF.GenerationSoftware,Altium Limited,Altium Designer,26.5.0 (11)*
G04*
G04 Layer_Color=32768*
G04 Board_Origin=0|0*
%FSLAX43Y43*%
%MOMM*%
G71*
G04*
G04 #@! TF.SameCoordinates,80E9BAEF-7E6F-45FB-9ECE-2008D9C71877*
G04*
G04*
G04 #@! TF.FilePolarity,Positive*
G04*
G01*
G75*
%ADD14C,0.200*%
%ADD53C,0.050*%
D14*
X120554Y79695D02*
Y81144D01*
Y79695D02*
X123540D01*
Y81144D01*
X120554D02*
X123540D01*
X120554Y89096D02*
Y90545D01*
Y89096D02*
X123540D01*
Y90545D01*
X120554D02*
X123540D01*
X120554Y107898D02*
Y109348D01*
Y107898D02*
X123540D01*
Y109348D01*
X120554D02*
X123540D01*
X120554Y99947D02*
X123540D01*
Y98497D02*
Y99947D01*
X120554Y98497D02*
X123540D01*
X120554D02*
Y99947D01*
Y74994D02*
Y76443D01*
Y74994D02*
X123540D01*
Y76443D01*
X120554D02*
X123540D01*
X120554Y103198D02*
Y104647D01*
Y103198D02*
X123540D01*
Y104647D01*
X120554D02*
X123540D01*
X120554Y93797D02*
Y95246D01*
Y93797D02*
X123540D01*
Y95246D01*
X120554D02*
X123540D01*
X120554Y84395D02*
Y85845D01*
Y84395D02*
X123540D01*
Y85845D01*
X120554D02*
X123540D01*
X38742Y104194D02*
X49142D01*
Y114754D01*
X38742D02*
X49142D01*
X38742Y104194D02*
Y114754D01*
X45286Y29653D02*
Y33593D01*
X48186D01*
Y29653D02*
Y33593D01*
X45286Y29653D02*
X48186D01*
X43281Y34862D02*
X46381D01*
X43281D02*
Y36512D01*
X46381D01*
Y34862D02*
Y36512D01*
X41199Y37607D02*
Y41387D01*
X44399D01*
Y37607D02*
Y41387D01*
X41199Y37607D02*
X44399D01*
X49631Y35116D02*
X52731D01*
X49631D02*
Y36766D01*
X52731D01*
Y35116D02*
Y36766D01*
X82049Y33681D02*
X85449D01*
Y31281D02*
Y33681D01*
X82049Y31281D02*
X85449D01*
X82049D02*
Y33681D01*
X112121Y53420D02*
Y57832D01*
X109621Y53420D02*
X112121D01*
X109621D02*
Y57832D01*
X112121D01*
X112121Y62691D02*
Y67103D01*
X109621Y62691D02*
X112121D01*
X109621D02*
Y67103D01*
X112121D01*
D53*
X115165Y38542D02*
Y56962D01*
X124715D01*
Y38542D02*
Y56962D01*
X115165Y38542D02*
X124715D01*
X66355Y45211D02*
Y54761D01*
Y45211D02*
X84775D01*
Y54761D01*
X66355D02*
X84775D01*
X119875Y93571D02*
Y95671D01*
X115075D02*
X119875D01*
X115075Y93571D02*
Y95671D01*
Y93571D02*
X119875D01*
X119899Y102973D02*
Y105073D01*
X115099D02*
X119899D01*
X115099Y102973D02*
Y105073D01*
Y102973D02*
X119899D01*
X119875Y74769D02*
Y76869D01*
X115075D02*
X119875D01*
X115075Y74769D02*
Y76869D01*
Y74769D02*
X119875D01*
Y84170D02*
Y86270D01*
X115075D02*
X119875D01*
X115075Y84170D02*
Y86270D01*
Y84170D02*
X119875D01*
X119899Y107673D02*
Y109773D01*
X115099D02*
X119899D01*
X115099Y107673D02*
Y109773D01*
Y107673D02*
X119899D01*
X119875Y98272D02*
Y100372D01*
X115075D02*
X119875D01*
X115075Y98272D02*
Y100372D01*
Y98272D02*
X119875D01*
Y79470D02*
Y81570D01*
X115075D02*
X119875D01*
X115075Y79470D02*
Y81570D01*
Y79470D02*
X119875D01*
Y88871D02*
Y90971D01*
X115075D02*
X119875D01*
X115075Y88871D02*
Y90971D01*
Y88871D02*
X119875D01*
X38288Y45592D02*
Y55142D01*
Y45592D02*
X56708D01*
Y55142D01*
X38288D02*
X56708D01*
X92963Y114112D02*
X102513D01*
X92963Y55052D02*
Y114112D01*
Y55052D02*
X102513D01*
Y114112D01*
M02*
