G04*
G04 #@! TF.GenerationSoftware,Altium Limited,Altium Designer,26.5.0 (11)*
G04*
G04 Layer_Color=32768*
G04 Board_Origin=0|0*
%FSLAX43Y43*%
%MOMM*%
G71*
G04*
G04 #@! TF.SameCoordinates,80E9BAEF-7E6F-45FB-9ECE-2008D9C71877*
G04*
G04*
G04 #@! TF.FilePolarity,Positive*
G04*
G01*
G75*
%ADD12C,0.100*%
D12*
X119348Y41865D02*
X119396Y41770D01*
X119491Y41675D01*
X119587Y41627D01*
X119729Y41580D01*
X119967D01*
X120110Y41627D01*
X120205Y41675D01*
X120301Y41770D01*
X120348Y41865D01*
Y42056D01*
X120301Y42151D01*
X120205Y42246D01*
X120110Y42294D01*
X119967Y42341D01*
X119729D01*
X119587Y42294D01*
X119491Y42246D01*
X119396Y42151D01*
X119348Y42056D01*
Y41865D01*
Y42575D02*
X120348D01*
Y43146D01*
X119348Y43874D02*
Y43255D01*
X120348D01*
Y43874D01*
X119825Y43255D02*
Y43636D01*
X119348Y44041D02*
X120348D01*
X119348D02*
Y44374D01*
X119396Y44517D01*
X119491Y44612D01*
X119587Y44660D01*
X119729Y44707D01*
X119967D01*
X120110Y44660D01*
X120205Y44612D01*
X120301Y44517D01*
X120348Y44374D01*
Y44041D01*
X120682Y44931D02*
Y45693D01*
X119587Y46536D02*
X119491Y46488D01*
X119396Y46393D01*
X119348Y46298D01*
Y46107D01*
X119396Y46012D01*
X119491Y45917D01*
X119587Y45869D01*
X119729Y45821D01*
X119967D01*
X120110Y45869D01*
X120205Y45917D01*
X120301Y46012D01*
X120348Y46107D01*
Y46298D01*
X120301Y46393D01*
X120205Y46488D01*
X120110Y46536D01*
X119348Y47102D02*
X119396Y47007D01*
X119491Y46912D01*
X119587Y46864D01*
X119729Y46816D01*
X119967D01*
X120110Y46864D01*
X120205Y46912D01*
X120301Y47007D01*
X120348Y47102D01*
Y47293D01*
X120301Y47388D01*
X120205Y47483D01*
X120110Y47531D01*
X119967Y47578D01*
X119729D01*
X119587Y47531D01*
X119491Y47483D01*
X119396Y47388D01*
X119348Y47293D01*
Y47102D01*
Y47812D02*
X120348D01*
X119348D02*
X120348Y48478D01*
X119348D02*
X120348D01*
X119348Y48754D02*
X120348D01*
X119348D02*
X120348Y49421D01*
X119348D02*
X120348D01*
X119348Y50316D02*
Y49697D01*
X120348D01*
Y50316D01*
X119825Y49697D02*
Y50078D01*
X119587Y51196D02*
X119491Y51149D01*
X119396Y51054D01*
X119348Y50958D01*
Y50768D01*
X119396Y50673D01*
X119491Y50578D01*
X119587Y50530D01*
X119729Y50482D01*
X119967D01*
X120110Y50530D01*
X120205Y50578D01*
X120301Y50673D01*
X120348Y50768D01*
Y50958D01*
X120301Y51054D01*
X120205Y51149D01*
X120110Y51196D01*
X119348Y51811D02*
X120348D01*
X119348Y51477D02*
Y52144D01*
Y52549D02*
X119396Y52453D01*
X119491Y52358D01*
X119587Y52311D01*
X119729Y52263D01*
X119967D01*
X120110Y52311D01*
X120205Y52358D01*
X120301Y52453D01*
X120348Y52549D01*
Y52739D01*
X120301Y52834D01*
X120205Y52929D01*
X120110Y52977D01*
X119967Y53025D01*
X119729D01*
X119587Y52977D01*
X119491Y52929D01*
X119396Y52834D01*
X119348Y52739D01*
Y52549D01*
Y53258D02*
X120348D01*
X119348D02*
Y53686D01*
X119396Y53829D01*
X119444Y53877D01*
X119539Y53924D01*
X119634D01*
X119729Y53877D01*
X119777Y53829D01*
X119825Y53686D01*
Y53258D01*
Y53591D02*
X120348Y53924D01*
X70230Y50578D02*
Y49578D01*
X70897Y50578D02*
Y49578D01*
X70230Y50101D02*
X70897D01*
X71792Y50578D02*
X71173D01*
Y49578D01*
X71792D01*
X71173Y50101D02*
X71554D01*
X72720Y49578D02*
X72340Y50578D01*
X71959Y49578D01*
X72101Y49911D02*
X72578D01*
X72954Y50578D02*
Y49578D01*
Y50578D02*
X73287D01*
X73430Y50530D01*
X73525Y50435D01*
X73573Y50339D01*
X73620Y50197D01*
Y49959D01*
X73573Y49816D01*
X73525Y49721D01*
X73430Y49625D01*
X73287Y49578D01*
X72954D01*
X74463Y50578D02*
X73844D01*
Y49578D01*
X74463D01*
X73844Y50101D02*
X74225D01*
X74629Y50578D02*
Y49578D01*
Y50578D02*
X75058D01*
X75201Y50530D01*
X75248Y50482D01*
X75296Y50387D01*
Y50292D01*
X75248Y50197D01*
X75201Y50149D01*
X75058Y50101D01*
X74629D01*
X74963D02*
X75296Y49578D01*
X75520Y49244D02*
X76282D01*
X76410Y50054D02*
X76839D01*
X76981Y50101D01*
X77029Y50149D01*
X77077Y50244D01*
Y50387D01*
X77029Y50482D01*
X76981Y50530D01*
X76839Y50578D01*
X76410D01*
Y49578D01*
X77586Y50578D02*
X77491Y50530D01*
X77396Y50435D01*
X77348Y50339D01*
X77300Y50197D01*
Y49959D01*
X77348Y49816D01*
X77396Y49721D01*
X77491Y49625D01*
X77586Y49578D01*
X77776D01*
X77872Y49625D01*
X77967Y49721D01*
X78014Y49816D01*
X78062Y49959D01*
Y50197D01*
X78014Y50339D01*
X77967Y50435D01*
X77872Y50530D01*
X77776Y50578D01*
X77586D01*
X78295D02*
X78533Y49578D01*
X78771Y50578D02*
X78533Y49578D01*
X78771Y50578D02*
X79009Y49578D01*
X79248Y50578D02*
X79009Y49578D01*
X80066Y50578D02*
X79448D01*
Y49578D01*
X80066D01*
X79448Y50101D02*
X79828D01*
X80233Y50578D02*
Y49578D01*
Y50578D02*
X80662D01*
X80804Y50530D01*
X80852Y50482D01*
X80900Y50387D01*
Y50292D01*
X80852Y50197D01*
X80804Y50149D01*
X80662Y50101D01*
X80233D01*
X80566D02*
X80900Y49578D01*
X119808Y94122D02*
Y95121D01*
X119141D01*
X118141Y94122D02*
X118808D01*
Y95121D01*
X118141D01*
X118808Y94621D02*
X118475D01*
X117808Y94122D02*
Y95121D01*
X117308D01*
X117142Y94955D01*
Y94288D01*
X117308Y94122D01*
X117808D01*
X115309Y95121D02*
Y94122D01*
X115809Y94621D01*
X115142D01*
X119832Y103523D02*
Y104523D01*
X119165D01*
X118165Y103523D02*
X118832D01*
Y104523D01*
X118165D01*
X118832Y104023D02*
X118499D01*
X117832Y103523D02*
Y104523D01*
X117332D01*
X117166Y104356D01*
Y103689D01*
X117332Y103523D01*
X117832D01*
X115166Y104523D02*
X115833D01*
X115166Y103856D01*
Y103689D01*
X115333Y103523D01*
X115666D01*
X115833Y103689D01*
X119808Y75319D02*
Y76319D01*
X119141D01*
X118141Y75319D02*
X118808D01*
Y76319D01*
X118141D01*
X118808Y75819D02*
X118475D01*
X117808Y75319D02*
Y76319D01*
X117308D01*
X117142Y76152D01*
Y75486D01*
X117308Y75319D01*
X117808D01*
X115809Y75486D02*
X115642Y75319D01*
X115309D01*
X115142Y75486D01*
Y75652D01*
X115309Y75819D01*
X115142Y75986D01*
Y76152D01*
X115309Y76319D01*
X115642D01*
X115809Y76152D01*
Y75986D01*
X115642Y75819D01*
X115809Y75652D01*
Y75486D01*
X115642Y75819D02*
X115309D01*
X119808Y84720D02*
Y85720D01*
X119141D01*
X118141Y84720D02*
X118808D01*
Y85720D01*
X118141D01*
X118808Y85220D02*
X118475D01*
X117808Y84720D02*
Y85720D01*
X117308D01*
X117142Y85553D01*
Y84887D01*
X117308Y84720D01*
X117808D01*
X115142D02*
X115476Y84887D01*
X115809Y85220D01*
Y85553D01*
X115642Y85720D01*
X115309D01*
X115142Y85553D01*
Y85387D01*
X115309Y85220D01*
X115809D01*
X119665Y108223D02*
Y109223D01*
X118999D01*
X117999Y108223D02*
X118665D01*
Y109223D01*
X117999D01*
X118665Y108723D02*
X118332D01*
X117666Y108223D02*
Y109223D01*
X117166D01*
X116999Y109057D01*
Y108390D01*
X117166Y108223D01*
X117666D01*
X115666Y109223D02*
X115333D01*
X115500D01*
Y108223D01*
X115666Y108390D01*
X119808Y98822D02*
Y99822D01*
X119141D01*
X118141Y98822D02*
X118808D01*
Y99822D01*
X118141D01*
X118808Y99322D02*
X118475D01*
X117808Y98822D02*
Y99822D01*
X117308D01*
X117142Y99655D01*
Y98989D01*
X117308Y98822D01*
X117808D01*
X115809Y98989D02*
X115642Y98822D01*
X115309D01*
X115142Y98989D01*
Y99155D01*
X115309Y99322D01*
X115476D01*
X115309D01*
X115142Y99489D01*
Y99655D01*
X115309Y99822D01*
X115642D01*
X115809Y99655D01*
X119808Y80020D02*
Y81019D01*
X119141D01*
X118141Y80020D02*
X118808D01*
Y81019D01*
X118141D01*
X118808Y80520D02*
X118475D01*
X117808Y80020D02*
Y81019D01*
X117308D01*
X117142Y80853D01*
Y80186D01*
X117308Y80020D01*
X117808D01*
X115809D02*
X115142D01*
Y80186D01*
X115809Y80853D01*
Y81019D01*
X119808Y89421D02*
Y90421D01*
X119141D01*
X118141Y89421D02*
X118808D01*
Y90421D01*
X118141D01*
X118808Y89921D02*
X118475D01*
X117808Y89421D02*
Y90421D01*
X117308D01*
X117142Y90254D01*
Y89588D01*
X117308Y89421D01*
X117808D01*
X115142D02*
X115809D01*
Y89921D01*
X115476Y89754D01*
X115309D01*
X115142Y89921D01*
Y90254D01*
X115309Y90421D01*
X115642D01*
X115809Y90254D01*
X40749Y50959D02*
Y49959D01*
X41416Y50959D02*
Y49959D01*
X40749Y50482D02*
X41416D01*
X42311Y50959D02*
X41692D01*
Y49959D01*
X42311D01*
X41692Y50482D02*
X42073D01*
X43239Y49959D02*
X42859Y50959D01*
X42478Y49959D01*
X42620Y50292D02*
X43097D01*
X43473Y50959D02*
Y49959D01*
Y50959D02*
X43806D01*
X43949Y50911D01*
X44044Y50816D01*
X44092Y50720D01*
X44139Y50578D01*
Y50340D01*
X44092Y50197D01*
X44044Y50102D01*
X43949Y50006D01*
X43806Y49959D01*
X43473D01*
X44982Y50959D02*
X44363D01*
Y49959D01*
X44982D01*
X44363Y50482D02*
X44744D01*
X45149Y50959D02*
Y49959D01*
Y50959D02*
X45577D01*
X45720Y50911D01*
X45767Y50863D01*
X45815Y50768D01*
Y50673D01*
X45767Y50578D01*
X45720Y50530D01*
X45577Y50482D01*
X45149D01*
X45482D02*
X45815Y49959D01*
X46039Y49625D02*
X46801D01*
X47643Y50720D02*
X47596Y50816D01*
X47500Y50911D01*
X47405Y50959D01*
X47215D01*
X47120Y50911D01*
X47024Y50816D01*
X46977Y50720D01*
X46929Y50578D01*
Y50340D01*
X46977Y50197D01*
X47024Y50102D01*
X47120Y50006D01*
X47215Y49959D01*
X47405D01*
X47500Y50006D01*
X47596Y50102D01*
X47643Y50197D01*
X47924Y50959D02*
Y49959D01*
X48495D01*
X48605Y50959D02*
Y49959D01*
X49271Y50959D02*
X48605Y50292D01*
X48843Y50530D02*
X49271Y49959D01*
X49495Y49816D02*
X50162Y50959D01*
X50228D02*
Y49959D01*
Y50959D02*
X50657D01*
X50800Y50911D01*
X50847Y50863D01*
X50895Y50768D01*
Y50673D01*
X50847Y50578D01*
X50800Y50530D01*
X50657Y50482D01*
X50228D01*
X50562D02*
X50895Y49959D01*
X51738Y50959D02*
X51119D01*
Y49959D01*
X51738D01*
X51119Y50482D02*
X51500D01*
X52571Y50816D02*
X52476Y50911D01*
X52333Y50959D01*
X52142D01*
X51999Y50911D01*
X51904Y50816D01*
Y50720D01*
X51952Y50625D01*
X51999Y50578D01*
X52095Y50530D01*
X52380Y50435D01*
X52476Y50387D01*
X52523Y50340D01*
X52571Y50244D01*
Y50102D01*
X52476Y50006D01*
X52333Y49959D01*
X52142D01*
X51999Y50006D01*
X51904Y50102D01*
X53413Y50959D02*
X52794D01*
Y49959D01*
X53413D01*
X52794Y50482D02*
X53175D01*
X53913Y50959D02*
Y49959D01*
X53580Y50959D02*
X54247D01*
X98330Y89074D02*
X97330D01*
X98330Y88407D02*
X97330D01*
X97853Y89074D02*
Y88407D01*
X98330Y87512D02*
Y88131D01*
X97330D01*
Y87512D01*
X97853Y88131D02*
Y87750D01*
X97330Y86584D02*
X98330Y86965D01*
X97330Y87346D01*
X97663Y87203D02*
Y86727D01*
X98330Y86351D02*
X97330D01*
X98330D02*
Y86017D01*
X98282Y85875D01*
X98187Y85779D01*
X98091Y85732D01*
X97949Y85684D01*
X97711D01*
X97568Y85732D01*
X97473Y85779D01*
X97377Y85875D01*
X97330Y86017D01*
Y86351D01*
X98330Y84841D02*
Y85460D01*
X97330D01*
Y84841D01*
X97853Y85460D02*
Y85080D01*
X98330Y84675D02*
X97330D01*
X98330D02*
Y84246D01*
X98282Y84104D01*
X98234Y84056D01*
X98139Y84008D01*
X98044D01*
X97949Y84056D01*
X97901Y84104D01*
X97853Y84246D01*
Y84675D01*
Y84342D02*
X97330Y84008D01*
X96996Y83785D02*
Y83023D01*
X98091Y82180D02*
X98187Y82228D01*
X98282Y82323D01*
X98330Y82418D01*
Y82609D01*
X98282Y82704D01*
X98187Y82799D01*
X98091Y82847D01*
X97949Y82894D01*
X97711D01*
X97568Y82847D01*
X97473Y82799D01*
X97377Y82704D01*
X97330Y82609D01*
Y82418D01*
X97377Y82323D01*
X97473Y82228D01*
X97568Y82180D01*
X97711D01*
Y82418D02*
Y82180D01*
X97806Y81952D02*
Y81523D01*
X97853Y81380D01*
X97901Y81333D01*
X97996Y81285D01*
X98139D01*
X98234Y81333D01*
X98282Y81380D01*
X98330Y81523D01*
Y81952D01*
X97330D01*
X98330Y81061D02*
X97330D01*
X98330Y80566D02*
X98282Y80661D01*
X98187Y80757D01*
X98091Y80804D01*
X97949Y80852D01*
X97711D01*
X97568Y80804D01*
X97473Y80757D01*
X97377Y80661D01*
X97330Y80566D01*
Y80376D01*
X97377Y80281D01*
X97473Y80185D01*
X97568Y80138D01*
X97711Y80090D01*
X97949D01*
X98091Y80138D01*
X98187Y80185D01*
X98282Y80281D01*
X98330Y80376D01*
Y80566D01*
M02*
