G04*
G04 #@! TF.GenerationSoftware,Altium Limited,Altium Designer,26.5.0 (11)*
G04*
G04 Layer_Color=8421504*
G04 Board_Origin=0|0*
%FSLAX43Y43*%
%MOMM*%
G71*
G04*
G04 #@! TF.SameCoordinates,80E9BAEF-7E6F-45FB-9ECE-2008D9C71877*
G04*
G04*
G04 #@! TF.FilePolarity,Positive*
G04*
G01*
G75*
G04:AMPARAMS|DCode=22|XSize=1.16mm|YSize=0.237mm|CornerRadius=0.118mm|HoleSize=0mm|Usage=FLASHONLY|Rotation=270.000|XOffset=0mm|YOffset=0mm|HoleType=Round|Shape=RoundedRectangle|*
%AMROUNDEDRECTD22*
21,1,1.160,0.000,0,0,270.0*
21,1,0.924,0.237,0,0,270.0*
1,1,0.237,0.000,-0.462*
1,1,0.237,0.000,0.462*
1,1,0.237,0.000,0.462*
1,1,0.237,0.000,-0.462*
%
%ADD22ROUNDEDRECTD22*%
%ADD23R,0.237X1.160*%
%ADD24R,1.017X0.949*%
%ADD25R,0.700X0.300*%
%ADD26R,0.850X1.000*%
%ADD27R,0.300X0.700*%
%ADD28R,0.690X0.990*%
%ADD29R,1.000X0.850*%
G04:AMPARAMS|DCode=30|XSize=0.45mm|YSize=1.05mm|CornerRadius=0.05mm|HoleSize=0mm|Usage=FLASHONLY|Rotation=180.000|XOffset=0mm|YOffset=0mm|HoleType=Round|Shape=RoundedRectangle|*
%AMROUNDEDRECTD30*
21,1,0.450,0.951,0,0,180.0*
21,1,0.351,1.050,0,0,180.0*
1,1,0.099,-0.176,0.476*
1,1,0.099,0.176,0.476*
1,1,0.099,0.176,-0.476*
1,1,0.099,-0.176,-0.476*
%
%ADD30ROUNDEDRECTD30*%
G04:AMPARAMS|DCode=31|XSize=1.19mm|YSize=0.4mm|CornerRadius=0.1mm|HoleSize=0mm|Usage=FLASHONLY|Rotation=0.000|XOffset=0mm|YOffset=0mm|HoleType=Round|Shape=RoundedRectangle|*
%AMROUNDEDRECTD31*
21,1,1.190,0.200,0,0,0.0*
21,1,0.990,0.400,0,0,0.0*
1,1,0.200,0.495,-0.100*
1,1,0.200,-0.495,-0.100*
1,1,0.200,-0.495,0.100*
1,1,0.200,0.495,0.100*
%
%ADD31ROUNDEDRECTD31*%
%ADD32R,1.150X0.350*%
%ADD33R,0.700X1.000*%
%ADD34R,1.000X1.200*%
%ADD35R,0.700X0.600*%
%ADD36R,1.400X1.600*%
%ADD37R,0.950X1.450*%
D22*
X111621Y63521D02*
D03*
X111121Y66273D02*
D03*
X111121Y57002D02*
D03*
X111621Y54250D02*
D03*
X110621D02*
D03*
Y57002D02*
D03*
X110621Y66273D02*
D03*
Y63521D02*
D03*
X110121Y57002D02*
D03*
Y54250D02*
D03*
X111121D02*
D03*
X110121Y66273D02*
D03*
Y63521D02*
D03*
X111121D02*
D03*
D23*
X111621Y57002D02*
D03*
X111621Y66273D02*
D03*
D24*
X122782Y94521D02*
D03*
Y89821D02*
D03*
Y103922D02*
D03*
Y108623D02*
D03*
Y99222D02*
D03*
Y80419D02*
D03*
Y85120D02*
D03*
Y75719D02*
D03*
X121312Y80419D02*
D03*
Y89821D02*
D03*
Y108623D02*
D03*
Y99222D02*
D03*
Y75719D02*
D03*
Y103922D02*
D03*
Y94521D02*
D03*
Y85120D02*
D03*
D25*
X106084Y108077D02*
D03*
Y102997D02*
D03*
X105996Y97902D02*
D03*
X105957Y92837D02*
D03*
X107784Y102997D02*
D03*
Y108077D02*
D03*
X107696Y97902D02*
D03*
X107657Y92837D02*
D03*
X107784Y108727D02*
D03*
X107696Y97252D02*
D03*
X107657Y93487D02*
D03*
X107784Y107427D02*
D03*
X107657Y92187D02*
D03*
X107784Y103647D02*
D03*
Y102347D02*
D03*
X107696Y98552D02*
D03*
X106084Y102347D02*
D03*
Y103647D02*
D03*
Y108727D02*
D03*
Y107427D02*
D03*
X105996Y98552D02*
D03*
Y97252D02*
D03*
X105957Y92187D02*
D03*
Y93487D02*
D03*
D26*
X108458Y67818D02*
D03*
X108418Y52451D02*
D03*
X54570Y40259D02*
D03*
X95435Y35229D02*
D03*
X83836Y35148D02*
D03*
X72956Y31445D02*
D03*
X55920Y40259D02*
D03*
X109768Y52451D02*
D03*
X109808Y67818D02*
D03*
X96785Y35229D02*
D03*
X85186Y35148D02*
D03*
X74306Y31445D02*
D03*
D27*
X50800Y38393D02*
D03*
X51450D02*
D03*
X50800Y40093D02*
D03*
X50150Y38393D02*
D03*
X51450Y40093D02*
D03*
X50150D02*
D03*
D28*
X42799Y38202D02*
D03*
Y40792D02*
D03*
X41849Y38202D02*
D03*
X43749D02*
D03*
Y40792D02*
D03*
X41849D02*
D03*
D29*
X93189Y33404D02*
D03*
X76425Y34708D02*
D03*
X80391Y31710D02*
D03*
X70866Y34591D02*
D03*
X48768Y37806D02*
D03*
X45847Y37766D02*
D03*
X111633Y60372D02*
D03*
Y50847D02*
D03*
X80391Y33060D02*
D03*
X45847Y39116D02*
D03*
X48768Y39156D02*
D03*
X87051Y31806D02*
D03*
X111633Y61722D02*
D03*
Y52197D02*
D03*
X93189Y32055D02*
D03*
X76425Y36057D02*
D03*
X70866Y35941D02*
D03*
X99158Y32015D02*
D03*
Y33364D02*
D03*
X87051Y33156D02*
D03*
D30*
X73616Y33441D02*
D03*
X72966D02*
D03*
X74266D02*
D03*
Y35890D02*
D03*
X72966D02*
D03*
D31*
X95150Y32689D02*
D03*
X97070Y32040D02*
D03*
X95150D02*
D03*
X97070Y33339D02*
D03*
X95150D02*
D03*
D32*
X82724Y32481D02*
D03*
Y33131D02*
D03*
Y31831D02*
D03*
X84774D02*
D03*
Y33131D02*
D03*
D33*
X53935Y37672D02*
D03*
D34*
X47561Y32893D02*
D03*
X45911Y30353D02*
D03*
X47561D02*
D03*
X45911Y32893D02*
D03*
D35*
X55935Y37872D02*
D03*
X53935Y35972D02*
D03*
X55935D02*
D03*
D36*
X118975Y94621D02*
D03*
X115975D02*
D03*
X118999Y104023D02*
D03*
X115999D02*
D03*
X118975Y75819D02*
D03*
X115975D02*
D03*
X118975Y85220D02*
D03*
X115975D02*
D03*
X118999Y108723D02*
D03*
X115999D02*
D03*
X118975Y99322D02*
D03*
X115975D02*
D03*
X118975Y80520D02*
D03*
X115975D02*
D03*
X118975Y89921D02*
D03*
X115975D02*
D03*
D37*
X45806Y35687D02*
D03*
X43856D02*
D03*
X52156Y35941D02*
D03*
X50206D02*
D03*
M02*
