M48
;Layer_Color=9474304
;FILE_FORMAT=4:3
METRIC,LZ
;TYPE=PLATED
T01F00S00C0.711
T02F00S00C1.000
T03F00S00C1.067
T04F00S00C1.100
%
T01
X0236347Y0070358
X0234627Y0078544
X0193421Y0043688
X0191874Y0099418
X0191897Y0102235
X0235863Y0100078
Y0095377
Y0104878
Y0109479
X0235839Y0114173
X0235863Y011898
X0236333Y0079931
X0235887Y0123681
X0235839Y012827
T02
X0192711Y0035977
X0199211
Y0040477
X0192711
X0182245Y0124206
Y0126746
Y0129286
Y0131826
X0174625
Y0129286
Y0126746
Y0124206
T03
X0182275Y0096393
Y0098933
Y0101473
Y0104013
Y0106553
Y0109093
Y0111633
Y0114173
X0185435Y0093233
X0187975
X0190515
X0193055
X0195595
X0198135
X0200675
X0203215
X0206375Y0096393
Y0098933
Y0101473
Y0104013
Y0106553
Y0109093
Y0111633
Y0114173
T04
X0241681Y00635
X0244221
Y006604
Y006858
X0241681
Y007112
X0244221
X0241681Y006604
X0212979Y005461
Y005207
X0210439
X0207899
Y005461
X0205359
Y005207
X0210439Y005461
X0184912Y0054991
Y0052451
X0182372
X0179832
X0177292
Y0054991
X0179832
X0182372
X0185435Y0117333
X0187975
X0190515
X0193055
X0195595
X0198135
X0200675
X0203215
X0219329Y011811
X0221869
Y011557
Y011303
Y011049
X0219329
Y011303
Y011557
Y010795
Y010541
Y010287
Y010033
Y009779
Y009525
Y009271
Y009017
Y008763
X0221869
Y008509
Y008255
Y008001
X0219329
Y008255
Y008509
X0221869Y009017
Y009271
Y009525
Y009779
Y010033
Y010287
Y010541
Y010795
Y012065
Y012319
Y012573
Y012827
X0219329
Y012573
Y012319
Y012065
M30
