M48
;Layer_Color=9474304
;FILE_FORMAT=4:3
METRIC,LZ
;TYPE=PLATED
T01F00S00C0.711
T02F00S00C1.000
T03F00S00C1.067
T04F00S00C1.100
%
T01
X0113411Y00508
X0113397Y0060373
X0111691Y0058986
X0112927Y0075819
X0059817Y0040259
X0068938Y007986
X0068961Y0082677
X0112927Y008052
Y008532
Y0089921
X0112903Y0094615
X0112927Y0099422
X0112951Y0104123
X0112903Y0108712
T02
X0059107Y0032548
Y0037048
X0065607
Y0032548
X0047752Y0105664
Y0108204
Y0110744
Y0113284
X0040132
Y0110744
Y0108204
Y0105664
T03
X0080279Y0073675
X0083439Y0076835
X0077739Y0073675
X0075199
X0072659
X0070119
X0067579
X0065039
X0062499
X0059339Y0076835
Y0079375
Y0081915
Y0084455
Y0086995
Y0089535
Y0092075
Y0094615
X0083439
Y0092075
Y0089535
Y0086995
Y0084455
Y0081915
Y0079375
T04
X0121285Y0043942
Y0046482
Y0049022
Y0051562
X0118745
Y0049022
Y0046482
Y0043942
X0098933Y0060452
X0096393
Y0062992
Y0065532
Y0068072
X0098933
Y0070612
Y0073152
Y0075692
Y0078232
X0096393
Y0075692
Y0073152
Y0070612
X0098933Y0065532
Y0062992
X0079375Y0051181
Y0048641
X0076835
Y0051181
X0074295
Y0048641
X0071755
Y0051181
X0051308Y0051562
X0048768
X0046228
X0043688
Y0049022
X0046228
X0048768
X0051308
X0062499Y0097775
X0065039
X0067579
X0070119
X0072659
X0075199
X0077739
X0080279
X0096393Y0098552
Y0101092
Y0103632
Y0106172
Y0108712
X0098933
Y0106172
Y0103632
Y0101092
Y0098552
Y0096012
X0096393
Y0093472
Y0090932
Y0088392
X0098933
Y0085852
Y0083312
Y0080772
X0096393
Y0083312
Y0085852
X0098933Y0090932
Y0093472
M30
